<?xml version="1.0" encoding="UTF-8" standalone="no"?>
<svg
   xmlns:dc="http://purl.org/dc/elements/1.1/"
   xmlns:cc="http://creativecommons.org/ns#"
   xmlns:rdf="http://www.w3.org/1999/02/22-rdf-syntax-ns#"
   xmlns:svg="http://www.w3.org/2000/svg"
   xmlns="http://www.w3.org/2000/svg"
   xmlns:sodipodi="http://sodipodi.sourceforge.net/DTD/sodipodi-0.dtd"
   xmlns:inkscape="http://www.inkscape.org/namespaces/inkscape"
   width="134.85515mm"
   height="22.748251mm"
   viewBox="0 0 134.85515 22.748251"
   version="1.1"
   id="svg1493"
   inkscape:version="1.0.1 (3bc2e813f5, 2020-09-07)"
   sodipodi:docname="inverse-ft-2.svg">
  <defs
     id="defs1487" />
  <sodipodi:namedview
     id="base"
     pagecolor="#ffffff"
     bordercolor="#666666"
     borderopacity="1.0"
     inkscape:pageopacity="0.0"
     inkscape:pageshadow="2"
     inkscape:zoom="1.979899"
     inkscape:cx="178.56001"
     inkscape:cy="105.23091"
     inkscape:document-units="mm"
     inkscape:current-layer="layer1"
     inkscape:document-rotation="0"
     showgrid="false"
     inkscape:window-width="1920"
     inkscape:window-height="1001"
     inkscape:window-x="-9"
     inkscape:window-y="1341"
     inkscape:window-maximized="1"
     inkscape:snap-page="true" />
  <metadata
     id="metadata1490">
    <rdf:RDF>
      <cc:Work
         rdf:about="">
        <dc:format>image/svg+xml</dc:format>
        <dc:type
           rdf:resource="http://purl.org/dc/dcmitype/StillImage" />
        <dc:title></dc:title>
      </cc:Work>
    </rdf:RDF>
  </metadata>
  <g
     inkscape:label="Layer 1"
     inkscape:groupmode="layer"
     id="layer1"
     transform="translate(-353.63791,-228.26278)">
    <g
       id="g2400"
       transform="matrix(0.21166666,0,0,0.21166666,345.61929,184.5918)"
       style="stroke-width:0.94488192;stroke-miterlimit:10;stroke-dasharray:none">
      <path
         id="path2402"
         style="fill:none;stroke:#1484e6;stroke-width:0.94488192;stroke-linecap:butt;stroke-linejoin:round;stroke-miterlimit:10;stroke-dasharray:none;stroke-opacity:1"
         d="M 46.5,257.41345 C 60.202494,257.69012 73.828309,257.30237 87.419998,257.59842 C 91.170962,257.27769 94.836853,257.4054 98.580002,257.42072 C 103.61504,257.09355 108.80149,258.47751 113.584,257.32065 C 115.47924,257.78772 117.27393,256.85699 119.164,257.59744 C 121.09447,256.89558 123.21975,257.34281 125.24,257.08057 C 128.4877,257.90595 131.88815,258.41907 135.036,257.72781 C 136.85872,257.86579 138.31952,256.2854 139.87201,258.19983 C 141.19983,256.13984 142.55237,258.02629 143.964,257.71225 C 144.86364,254.56932 146.54082,257.4612 148.056,256.65192 C 149.85979,254.95799 150.6399,259.18626 152.892,258.05246 C 154.37739,259.17981 156.32629,258.02627 157.85201,257.92651 C 159.39138,254.52506 160.98064,261.44795 162.192,257.24329 C 163.72659,256.30654 164.41016,262.68931 165.416,258.20715 C 165.94801,254.03819 167.15263,257.37401 168.392,257.85223 C 168.94579,256.0112 170.20699,251.1742 171.12,255.65857 C 171.73975,259.72468 173.74968,252.71343 174.34401,256.92664 C 174.65889,259.77954 175.86765,259.15513 177.196,257.96539 C 178.74017,261.79216 179.27976,256.29916 180.668,256.93024 C 181.82558,261.88237 182.66314,256.49138 183.892,256.14932 C 184.46851,258.0202 185.44892,265.38503 186.37201,259.68332 C 186.93697,253.7719 188.43206,258.85523 188.728,261.74802 C 190.74974,261.87198 189.34238,253.26764 191.332,252.96841 C 191.70293,256.91943 193.38852,259.98682 193.688,253.97835 C 194.48221,247.2606 195.66165,255.30454 196.04399,257.66788 C 197.11792,259.85064 197.82865,251.62727 198.64799,256.77383 C 199.09989,261.95961 200.55083,259.28405 201.252,255.99539 C 202.26746,257.61265 203.10312,262.47521 203.73199,257.39163 C 204.70294,249.96982 205.81067,259.41684 206.088,261.93677 C 207.59062,265.35826 206.98112,254.41045 208.444,256.3533 C 208.92769,259.76358 209.98294,273.08031 210.8,262.51413 C 210.85711,258.4092 212.25174,249.82894 212.784,259.16479 C 213.44999,267.94555 214.58706,258.0076 214.644,254.81285 C 214.85071,245.83729 216.61382,250.41024 216.752,256.8681 C 217.61623,262.42423 218.82068,249.20539 219.108,250.40282 C 219.85597,252.15716 220.17512,263.51964 221.464,257.06689 C 221.97539,250.49554 223.31013,255.6035 223.81999,258.96042 C 225.12928,258.36586 224.9567,248.27415 226.17599,253.53905 C 226.33744,260.42888 228.20393,264.13093 228.53201,254.91035 C 229.86661,250.11858 229.84703,262.40782 230.23941,264.27663 C 230.39668,272.35403 231.89483,268.07571 231.88,262.55676 C 231.94224,255.12211 233.55422,255.25036 233.5882,262.71922 C 233.57715,268.41241 235.05054,273.25146 235.19045,264.6221 C 235.0018,260.25425 236.56883,249.69683 236.716,250.92513 C 237.17813,254.39979 237.34919,260.97419 238.452,262.25143 C 239.22685,257.73814 238.79892,252.53517 240.064,248.40138 C 241.21488,251.68604 240.41386,259.46235 242.048,260.58395 C 242.40654,257.54528 243.45067,246.98076 244.40399,255.63391 C 245.9397,261.51065 245.47113,248.6041 247.008,249.12682 C 247.44736,255.08424 249.1227,257.267 249.364,249.71394 C 250.65558,243.63044 250.78434,256.93659 251.09999,258.79645 C 251.04974,265.06273 252.65057,268.35493 252.836,259.82379 C 253.55857,250.19363 254.50613,262.59702 254.52401,265.76628 C 254.49048,269.81218 255.64103,280.30068 256.06,270.35666 C 256.68741,265.42789 256.14849,257.67246 257.548,254.2338 C 258.45462,258.14977 257.86378,266.4364 259.284,267.96088 C 260.25956,261.82134 259.64403,253.77726 261.14398,248.76778 C 262.16397,253.98152 261.51117,260.57029 263.004,265.02713 C 263.6618,262.68666 264.15614,249.0418 265.35999,257.57941 C 266.12944,266.70993 267.45892,256.27076 267.716,252.92401 C 268.83871,250.27921 270.64049,248.23158 270.444,244.55363 C 272.08055,239.36493 271.57383,251.40022 273.048,252.39301 C 274.15272,244.94367 275.13673,251.4435 275.1166,255.37944 C 275.72148,260.67809 275.28104,267.36064 276.64398,271.85825 C 277.62543,267.80596 277.02035,262.10597 278.38,258.89255 C 279.42029,262.92423 278.77931,271.22494 280.23999,272.96887 C 281.32855,265.54715 280.64216,256.63918 282.224,250.05229 C 283.33486,254.86489 282.56517,263.56269 284.20801,266.30374 C 285.0408,263.96605 284.6181,253.43466 286.06799,255.29503 C 286.96171,260.43556 286.39896,267.15011 287.92801,271.40485 C 289.3324,266.60686 288.04436,259.69189 290.40799,255.88292 C 292.97782,255.24309 291.69959,248.03686 292.76401,245.33264 C 292.24672,243.29221 294.73158,236.80998 295.73999,241.93803 C 297.07689,246.28997 296.01566,252.69824 298.34399,256.04687 C 300.76547,256.27763 299.51201,263.43901 300.30494,266.05214 C 300.27543,270.67478 301.75038,276.49916 301.94,268.16882 C 302.53371,263.66579 302.09876,257.28336 303.42801,253.85793 C 304.40033,258.4223 303.826,264.70124 305.164,268.36282 C 306.26383,261.93434 305.61638,253.93997 307.02402,248.38617 C 308.29297,257.81044 307.49217,269.21963 309.13202,277.54819 C 310.10138,271.63327 309.50412,264.41025 310.86801,259.21402 C 311.88358,264.85489 311.28409,271.85915 312.604,276.74597 C 314.01415,266.44501 313.00084,254.22621 314.95999,244.97673 C 315.64648,253.55412 317.02326,248.17768 317.04761,242.86418 C 317.0123,237.06401 318.73009,233.19005 318.92801,241.82701 C 318.40689,246.85711 322.20298,247.96284 321.53198,253.04213 C 321.99106,255.19756 321.87163,266.05454 323.14398,262.84872 C 323.54585,260.69784 323.97261,247.75407 324.8728,255.0606 C 325.45891,259.89555 325.11729,266.10469 326.24402,270.11456 C 327.38754,260.97194 326.73669,250.72529 328.104,242.19131 C 329.2518,253.81229 328.66365,265.60831 329.96399,277.18604 C 331.11183,268.58236 330.42389,259.23742 331.69998,250.97133 C 332.87672,264.30199 332.30786,277.76873 333.56,291.08261 C 334.90542,278.71916 334.05226,265.79657 335.54401,253.63925 C 336.52744,260.23192 335.91103,268.57466 337.15601,274.19864 C 338.34525,261.77178 337.65751,249.0492 339.13998,236.74797 C 340.16498,241.42724 339.4443,250.07852 340.87601,252.51936 C 341.6301,248.1877 341.16912,242.25056 342.36398,238.84822 C 343.36804,244.97576 342.75914,252.19052 344.10001,257.72238 C 344.99729,254.09523 346.97905,243.76367 345.71201,244.96278 C 346.5942,251.7203 346.07575,259.97618 347.32401,265.87894 C 348.38587,255.77535 347.84219,245.47233 349.06,235.43193 C 350.2922,247.42908 349.55739,259.9019 350.91998,271.69446 C 352.01244,261.13388 351.34353,248.41418 352.65601,239.0778 C 353.78789,256.52715 353.25635,274.07394 354.51599,291.50507 C 355.77333,279.12891 354.95104,264.47873 356.37601,253.36269 C 357.40496,265.87543 356.78899,279.62169 358.112,291.44434 C 359.316,276.18599 358.53717,258.90049 360.09601,244.82462 C 360.99931,252.44125 360.4169,262.59354 361.70801,268.76971 C 362.6926,259.17548 362.12117,248.85107 363.444,239.66919 C 364.49376,246.78176 363.77736,256.16796 365.17999,262.06638 C 366.06798,256.71065 365.47446,248.22099 366.79199,244.68222 C 367.61876,251.14626 367.17085,257.92062 368.28,264.23932 C 369.50381,254.08882 368.73646,242.64168 370.13998,233.16124 C 371.10878,242.73949 370.64383,252.46146 371.75198,262.00327 C 372.93385,250.10398 372.32876,238.04081 373.48801,226.14369 C 374.83987,243.69149 374.0838,261.42032 375.47202,278.95184 C 376.59807,268.2923 375.87491,254.63804 377.20801,245.66267 C 378.31008,262.089 377.67576,279.41206 379.06799,295.32602 C 380.20363,280.4989 379.50046,264.87292 380.92801,250.47696 C 381.89239,260.36386 381.36968,270.44634 382.54001,280.26147 C 383.73964,267.89743 383.06815,255.33635 384.39999,243.01398 C 385.56743,250.79362 384.74951,261.89807 386.26001,267.81372 C 387.04822,262.26845 386.55913,255.71587 387.74802,250.72975 C 388.71971,257.02389 388.15776,263.83633 389.36002,269.88867 C 390.53175,262.14069 389.75655,252.12266 391.22,245.56578 C 391.9814,250.89007 391.62029,256.39272 392.58398,261.65375 C 393.94808,249.48202 393.11757,236.37085 394.56799,224.64192 C 395.71412,235.89859 394.97318,249.56658 396.42801,259.46036 C 397.3613,250.56253 396.80077,239.76262 398.04001,231.92424 C 399.26219,248.98412 398.57004,266.2854 400.02402,283.24533 C 401.10948,272.97263 400.43049,261.73985 401.76001,251.98015 C 402.8168,262.7915 402.24001,273.81903 403.496,284.55283 C 404.76081,272.43804 403.95855,259.4388 405.48001,247.80157 C 406.49276,254.3599 405.79584,263.08136 407.216,268.39203 C 408.09958,263.12491 407.55179,256.52557 408.828,251.99232 C 409.89545,257.69424 409.16266,265.62628 410.68802,270.06982 C 411.15351,267.64159 411.83508,254.88342 412.672,263.8092 C 413.03006,273.05662 414.41627,267.12757 414.284,261.27722 C 414.81983,255.14414 414.41045,248.05769 415.64801,242.47743 C 416.44108,245.89803 416.11779,253.82921 417.26001,254.13046 C 418.20101,245.57445 417.69286,236.11327 418.996,228.05933 C 420.2199,239.27314 419.49568,250.97418 420.98001,261.96103 C 421.96453,256.373 421.33908,249.17272 422.59201,244.43636 C 423.80139,255.31952 423.09189,266.86368 424.57599,277.41125 C 425.78071,269.89885 424.90559,258.87175 426.56,253.20224 C 427.3942,258.18618 426.88194,264.30655 428.172,268.64194 C 429.31028,263.53465 428.5178,255.00053 430.15601,251.73848 C 431.18531,255.83452 430.35009,262.1095 432.13998,265.12961 C 433.72111,259.26311 433.6502,268.78529 434.99197,268.94943 C 435.85109,266.69071 435.62646,259.43079 437.84399,263.1138 C 439.30864,256.67636 438.39876,248.14879 440.19998,242.80499 C 440.69501,246.22004 441.71556,258.12316 442.43201,248.10268 C 442.50845,242.49059 444.0305,237.23195 444.168,246.35648 C 444.82806,251.49955 444.262,259.2976 445.78,262.99289 C 446.63693,260.7824 446.19175,250.89108 447.63998,252.6311 C 448.46641,256.69958 447.93686,262.79343 449.37601,265.76035 C 450.48264,261.24224 449.76696,255.02227 451.36002,251.33069 C 452.47368,253.37998 451.74784,263.98829 453.716,261.57391 C 454.42355,255.07895 456.0494,261.03582 456.07199,264.20578 C 455.97187,268.20013 457.93948,268.44089 458.67599,264.7991 C 460.92087,259.24237 463.54818,254.01574 464.62799,248.12054 C 466.20078,249.89198 465.1736,255.98406 466.98401,256.08411 C 467.40879,251.38709 469.15461,247.84145 469.34,255.06046 C 469.71005,265.12423 471.658,258.65251 471.69598,252.57628 C 473.07862,245.13314 473.02533,258.88764 474.30002,260.60983 C 475.11039,258.42038 475.7364,247.78011 476.65601,255.40137 C 477.12039,257.05661 477.23629,269.34255 478.76401,263.7525 C 479.1423,257.71242 480.83753,261.4188 481.12003,265.10568 C 483.31684,266.66241 481.38281,257.27584 484.716,258.56647 C 485.49209,256.5259 486.66134,252.63266 487.56799,256.99957 C 489.05869,258.66863 489.26135,249.92376 490.29599,254.96053 C 490.66973,262.04547 492.64781,259.7398 492.65201,253.92097 C 493.52883,246.33206 494.40583,256.22238 495.00803,258.6149 C 496.62715,257.75868 495.68283,247.6963 497.36398,250.01234 C 497.95563,251.91754 498.24709,265.79311 499.72,258.66379 C 500.69855,250.5795 501.77775,261.22336 502.07599,263.8345 C 503.50271,268.60781 503.47183,253.72473 505.17599,260.13809 C 506.72643,265.26771 506.97928,251.87283 508.64801,257.97937 C 509.85972,261.14008 510.63309,252.46011 511.5,257.30811 C 511.97163,262.9779 513.74158,259.52439 513.85602,255.88802 C 515.1287,251.2871 515.74304,264.46129 516.70801,257.47324 C 516.77594,252.80598 518.61569,247.33626 519.06403,255.30058 C 519.94946,261.46982 520.56846,253.73817 521.54401,252.03607 C 522.94091,254.05136 521.98087,261.33336 523.89996,260.86188 C 524.15907,257.13702 525.93241,255.53971 526.25598,260.28079 C 527.6419,265.38228 528.08396,252.62774 529.85199,258.69528 C 531.1616,259.83094 531.94175,253.5709 532.828,258.099 C 533.75537,263.05145 535.12231,253.83336 536.052,258.38229 C 537.48768,264.06703 537.75587,255.67568 539.15198,254.86296 C 539.68803,257.27925 541.14288,259.94535 541.508,255.70506 C 541.97366,250.53121 543.65126,254.49521 543.86401,257.28439 C 544.92415,260.32295 546.0209,251.82905 546.83997,257.06451 C 547.24055,261.0396 548.63792,259.54932 549.69202,257.07025 C 551.08442,260.34845 551.88079,257.57621 553.41199,256.95187 C 554.47801,260.31815 556.82204,254.97676 557.50397,259.03674 C 558.86273,260.56466 559.80911,254.79266 560.97601,258.70035 C 562.64408,259.92693 563.02091,252.68391 564.57202,257.07687 C 565.89821,258.97259 567.05323,252.75373 568.04401,256.99103 C 569.00248,259.81552 570.93251,254.71236 572.13599,258.21588 C 573.48863,257.27458 574.64291,257.14631 576.22797,257.6557 C 577.8989,256.84708 579.31818,258.78801 581.06396,257.74844 C 582.81234,260.04362 584.1949,255.75051 586.14801,257.94687 C 587.86318,255.2876 589.80597,258.51062 591.97601,256.95773 C 593.88062,258.21162 596.19452,256.97572 598.42401,257.315 C 602.36065,258.04096 606.26856,257.69775 610.08002,257.51236 C 618.09758,257.10144 626.43085,257.83826 634.63202,257.48859 C 645.1765,257.36945 655.79457,257.6795 666.37604,257.43033" />
    </g>
  </g>
</svg>
