<?xml version="1.0" encoding="UTF-8" standalone="no"?>
<svg
   xmlns:dc="http://purl.org/dc/elements/1.1/"
   xmlns:cc="http://creativecommons.org/ns#"
   xmlns:rdf="http://www.w3.org/1999/02/22-rdf-syntax-ns#"
   xmlns:svg="http://www.w3.org/2000/svg"
   xmlns="http://www.w3.org/2000/svg"
   xmlns:sodipodi="http://sodipodi.sourceforge.net/DTD/sodipodi-0.dtd"
   xmlns:inkscape="http://www.inkscape.org/namespaces/inkscape"
   width="134.63098mm"
   height="22.748251mm"
   viewBox="0 0 134.63098 22.748251"
   version="1.1"
   id="svg8"
   sodipodi:docname="inverse-ft-1.svg"
   inkscape:version="1.0.1 (3bc2e813f5, 2020-09-07)">
  <defs
     id="defs2" />
  <sodipodi:namedview
     id="base"
     pagecolor="#ffffff"
     bordercolor="#666666"
     borderopacity="1.0"
     inkscape:pageopacity="0.0"
     inkscape:pageshadow="2"
     inkscape:zoom="1.979899"
     inkscape:cx="260.32666"
     inkscape:cy="-1.6427883"
     inkscape:document-units="mm"
     inkscape:current-layer="layer1"
     inkscape:document-rotation="0"
     showgrid="false"
     inkscape:window-width="1920"
     inkscape:window-height="1001"
     inkscape:window-x="-9"
     inkscape:window-y="1341"
     inkscape:window-maximized="1" />
  <metadata
     id="metadata5">
    <rdf:RDF>
      <cc:Work
         rdf:about="">
        <dc:format>image/svg+xml</dc:format>
        <dc:type
           rdf:resource="http://purl.org/dc/dcmitype/StillImage" />
      </cc:Work>
    </rdf:RDF>
  </metadata>
  <g
     inkscape:label="Layer 1"
     inkscape:groupmode="layer"
     id="layer1"
     transform="translate(-198.77975,-195.00087)">
    <g
       id="g1161"
       transform="matrix(0.21166666,0,0,0.21166666,190.72678,150.4274)"
       style="stroke-width:1.1811024;stroke-miterlimit:10;stroke-dasharray:none">
      <path
         d="M 46.5,296.24945 C 63.033298,296.23079 79.566727,296.27547 96.099998,296.23434 L 98.579994,296.14136 L 101.06,294.26376 L 103.54,282.11438 L 106.02,249.94316 L 108.5,227.59546 L 110.98,249.9431 L 113.46,282.1145 L 115.94,294.26358 L 118.42001,296.1416 C 132.46964,296.29599 146.52764,296.29269 160.58,296.23251 L 163.06,295.84778 L 165.54001,293.42883 L 168.02,286.98132 L 170.5,282.53094 L 172.98,287.07007 L 175.45999,294.91254 L 177.94,286.04547 L 180.42,261.54172 L 182.89999,244.76204 L 185.38,261.51816 L 187.86,285.6496 L 190.34001,294.75934 L 192.82001,296.16928 L 195.3,296.23767 C 265.56656,296.19116 335.83348,296.34237 406.10001,296.24207 L 408.58002,296.18317 L 411.06,295.05994 L 413.54001,287.76691 L 416.01999,268.46765 L 418.5,255.05545 L 420.98001,268.46774 L 423.45999,287.76675 L 425.94,295.06015 L 428.41998,296.18286 L 430.89999,296.24231 C 444.9506,296.0932 459.01111,296.47983 473.06003,296.19766 L 475.53998,295.18225 L 478.01999,286.95325 L 480.5,259.1669 L 482.98001,229.22183 L 485.46002,240.5153 L 487.93997,270.29004 L 490.41998,270.50797 L 492.89999,261.74918 L 495.38,273.07629 L 497.86002,289.19415 L 500.33997,295.24619 L 502.81998,296.2041 L 505.29999,296.23172 C 561.69011,296.25461 617.91911,296.24875 666.5,296.24875 H 666.51111"
         style="fill:none;stroke:#1484e6;stroke-width:1.1811024;stroke-linecap:butt;stroke-linejoin:round;stroke-miterlimit:10;stroke-dasharray:none;stroke-opacity:1"
         id="path1163"
         sodipodi:nodetypes="ccccccccccccccccccccccccccccccccccccccccccccccccccccc" />
    </g>
  </g>
</svg>
