<?xml version="1.0" encoding="UTF-8" standalone="no"?>
<svg
   xmlns:dc="http://purl.org/dc/elements/1.1/"
   xmlns:cc="http://creativecommons.org/ns#"
   xmlns:rdf="http://www.w3.org/1999/02/22-rdf-syntax-ns#"
   xmlns:svg="http://www.w3.org/2000/svg"
   xmlns="http://www.w3.org/2000/svg"
   xmlns:sodipodi="http://sodipodi.sourceforge.net/DTD/sodipodi-0.dtd"
   xmlns:inkscape="http://www.inkscape.org/namespaces/inkscape"
   width="68.985092mm"
   height="35.024921mm"
   viewBox="0 0 68.985091 35.024921"
   version="1.1"
   id="svg8"
   sodipodi:docname="modulation.svg"
   inkscape:version="1.0.1 (3bc2e813f5, 2020-09-07)">
  <defs
     id="defs2" />
  <sodipodi:namedview
     id="base"
     pagecolor="#ffffff"
     bordercolor="#666666"
     borderopacity="1.0"
     inkscape:pageopacity="0.0"
     inkscape:pageshadow="2"
     inkscape:zoom="2.8"
     inkscape:cx="170.13013"
     inkscape:cy="85.701796"
     inkscape:document-units="mm"
     inkscape:current-layer="layer1"
     inkscape:document-rotation="0"
     showgrid="false"
     inkscape:window-width="1920"
     inkscape:window-height="1001"
     inkscape:window-x="-9"
     inkscape:window-y="1341"
     inkscape:window-maximized="1"
     inkscape:snap-page="true"
     inkscape:snap-midpoints="true" />
  <metadata
     id="metadata5">
    <rdf:RDF>
      <cc:Work
         rdf:about="">
        <dc:format>image/svg+xml</dc:format>
        <dc:type
           rdf:resource="http://purl.org/dc/dcmitype/StillImage" />
        <dc:title />
      </cc:Work>
    </rdf:RDF>
  </metadata>
  <g
     inkscape:label="Layer 1"
     inkscape:groupmode="layer"
     id="layer1"
     transform="translate(-51.163621,-199.12916)">
    <g
       id="g3165"
       transform="matrix(0.21166666,0,0,0.21166666,43.957832,162.03162)">
      <path
         id="path3167"
         style="fill:none;stroke:#555555;stroke-width:0.833333;stroke-linecap:butt;stroke-linejoin:bevel;stroke-miterlimit:1;stroke-dasharray:1, 3;stroke-dashoffset:0;stroke-opacity:1"
         d="M 45.982006,258 C 72.007592,257.91945 98.036097,258.17851 124.05971,257.82996 C 134.79303,257.60565 146.38048,256.62298 155.048,249.56776 C 168.94481,238.31969 175.17841,220.83555 186.0363,207.09439 C 189.21289,203.10978 194.141,198.44616 199.68806,200.38138 C 206.24892,203.09929 209.92989,209.73266 213.76268,215.32208 C 221.59998,227.38732 227.9685,241.09044 239.61647,250.07161 C 250.66651,258.45158 265.20715,257.67557 278.33673,257.95889 C 301.56354,258.04281 324.79107,257.98073 348.01801,258" />
    </g>
    <g
       id="g3169"
       transform="matrix(0.21166666,0,0,0.21166666,43.957832,162.03162)"
       style="stroke-width:1.65354336;stroke-miterlimit:4;stroke-dasharray:none">
      <path
         id="path3171"
         style="fill:none;stroke:#fd8b28;stroke-width:1.65354;stroke-linecap:butt;stroke-linejoin:round;stroke-miterlimit:4;stroke-dasharray:none;stroke-opacity:1"
         d="M 45.982006,258 C 70.497389,257.95923 95.015956,258.07888 119.52925,257.94504 C 124.59021,257.30317 129.81469,259.51466 134.69116,257.42337 C 138.68937,255.2337 141.39194,259.60536 144.65816,260.8161 C 148.14648,260.1253 148.64379,255.56876 150.57796,253.11716 C 151.37164,250.93983 153.78106,251.76663 154.08151,253.77744 C 156.448,259.06802 156.3906,265.33963 159.39725,270.29947 C 161.33457,270.28595 161.14487,266.88069 161.75307,265.50967 C 163.88594,255.9954 163.82494,245.98631 166.76678,236.68372 C 168.14498,235.74403 168.17776,239.1916 168.51855,239.98251 C 171.28709,256.80274 170.98763,274.03804 174.19672,290.77264 C 175.27033,292.41445 175.52513,288.4843 175.70688,287.84424 C 178.72255,263.22605 178.29704,238.28395 181.56625,213.7028 C 182.50926,210.7365 183.08183,216.24134 183.13681,217.05127 C 186.1025,248.24355 185.70799,279.6821 188.93579,310.84686 C 188.84571,312.40011 190.03383,313.26455 190.08351,311.20557 C 192.64179,287.41791 192.72118,263.42978 194.0099,239.54919 C 194.84328,226.424 194.6517,213.13456 196.78857,200.1505 C 197.92592,199.96989 197.57456,203.37019 197.93629,204.32684 C 200.83147,239.38414 200.56047,274.64189 203.67487,309.68134 C 203.5973,310.61281 204.45805,314.15022 204.94339,311.47037 C 207.59343,288.62921 207.62955,265.55846 209.08464,242.61943 C 209.90155,232.66884 209.58557,222.45487 211.76927,212.70935 C 213.33889,214.27475 212.7701,218.02389 213.33983,220.30254 C 215.58052,243.42774 215.5098,266.77051 218.65556,289.79807 C 218.61383,291.34988 219.97277,291.79086 220.04491,290.00592 C 223.13153,272.63448 222.59638,254.75894 226.08551,237.45551 C 226.78026,234.88944 228.08626,238.07873 228.0789,239.19177 C 230.4241,249.29479 230.20889,259.98912 233.57585,269.82874 C 235.00402,271.60773 235.82848,267.92281 236.17332,266.95773 C 237.97028,262.02738 237.97796,256.1703 241.18701,251.8916 C 245.6167,252.0106 245.84555,264.31973 251.63727,259.61945 C 253.97593,256.68554 257.7989,256.30547 261.00021,257.9527 C 265.43288,259.09269 269.97026,257.34961 274.47076,257.94504 C 298.98233,258.07888 323.50479,257.95923 348.01801,258" />
    </g>
  </g>
</svg>
