<?xml version="1.0" encoding="UTF-8" standalone="no"?>
<svg
   xmlns:dc="http://purl.org/dc/elements/1.1/"
   xmlns:cc="http://creativecommons.org/ns#"
   xmlns:rdf="http://www.w3.org/1999/02/22-rdf-syntax-ns#"
   xmlns:svg="http://www.w3.org/2000/svg"
   xmlns="http://www.w3.org/2000/svg"
   xmlns:sodipodi="http://sodipodi.sourceforge.net/DTD/sodipodi-0.dtd"
   xmlns:inkscape="http://www.inkscape.org/namespaces/inkscape"
   width="112.81833mm"
   height="18.477146mm"
   viewBox="0 0 112.81833 18.477146"
   version="1.1"
   id="svg34018"
   inkscape:version="1.0.1 (3bc2e813f5, 2020-09-07)"
   sodipodi:docname="adsr-curve.svg">
  <defs
     id="defs34012" />
  <sodipodi:namedview
     id="base"
     pagecolor="#ffffff"
     bordercolor="#666666"
     borderopacity="1.0"
     inkscape:pageopacity="0.0"
     inkscape:pageshadow="2"
     inkscape:zoom="11.2"
     inkscape:cx="288.26557"
     inkscape:cy="33.866897"
     inkscape:document-units="mm"
     inkscape:current-layer="layer1"
     inkscape:document-rotation="0"
     showgrid="false"
     inkscape:snap-page="true"
     inkscape:window-width="1920"
     inkscape:window-height="1001"
     inkscape:window-x="-9"
     inkscape:window-y="1341"
     inkscape:window-maximized="1" />
  <metadata
     id="metadata34015">
    <rdf:RDF>
      <cc:Work
         rdf:about="">
        <dc:format>image/svg+xml</dc:format>
        <dc:type
           rdf:resource="http://purl.org/dc/dcmitype/StillImage" />
        <dc:title></dc:title>
      </cc:Work>
    </rdf:RDF>
  </metadata>
  <g
     inkscape:label="Layer 1"
     inkscape:groupmode="layer"
     id="layer1"
     transform="translate(51.063774,-112.63633)">
    <g
       id="g34829"
       transform="matrix(0.21166666,0,0,0.21166665,-59.318774,110.79837)"
       style="stroke-width:1.18110243;stroke-miterlimit:1;stroke-dasharray:none">
      <path
         id="path34831"
         style="fill:none;stroke:#888888;stroke-width:1.1811;stroke-linecap:butt;stroke-linejoin:round;stroke-miterlimit:1;stroke-dasharray:none;stroke-opacity:1"
         d="M 39,54 C 53.817904,54 68.635808,54 83.453712,54 C 84.46321,48.462769 84.06197,42.240556 86.565468,37.215965 C 90.617832,47.753013 88.565311,60.409991 92.788994,70.770592 C 96.776413,60.205881 94.694925,47.456803 99.012512,37.256287 C 102.65685,47.936006 101.30058,59.895661 104.7915,70.649757 C 108.40401,63.444666 107.527,53.337477 109.23686,44.997742 C 109.28126,35.971687 113.25244,37.185603 113.2377,45.402275 C 114.69819,53.79971 114.41749,62.696468 117.23853,70.743713 C 121.57236,60.551958 119.4591,47.786235 123.46205,37.229412 C 127.6976,47.585149 125.62221,60.250615 129.68558,70.784035 C 133.81896,60.311401 131.77038,47.686363 135.90909,37.215965 C 139.96144,47.753025 137.90894,60.40999 142.13261,70.770592 C 146.12004,60.205884 144.03855,47.456826 148.35612,37.256287 C 152.00048,47.935991 150.6442,59.895662 154.13512,70.649757 C 157.74763,63.444667 156.8706,53.337474 158.58049,44.997742 C 158.62487,35.971687 162.59608,37.185604 162.58131,45.402275 C 164.0418,53.799711 163.76111,62.696464 166.58215,70.743713 C 170.91597,60.551961 168.80271,47.786216 172.80568,37.229412 C 177.04121,47.58517 174.96584,60.25059 179.02919,70.784035 C 183.1626,60.31141 181.11397,47.686343 185.25272,37.215965 C 189.30506,47.753031 187.25256,60.409984 191.47623,70.770592 C 195.46365,60.205895 193.38217,47.456793 197.69975,37.256287 C 201.34408,47.936006 199.98784,59.895653 203.47873,70.649757 C 207.09126,63.444697 206.21423,53.337472 207.9241,44.997742 C 207.96849,35.97169 211.93969,37.185603 211.92494,45.402275 C 213.38543,53.799711 213.10472,62.69647 215.92577,70.743713 C 220.2596,60.551953 218.14634,47.786221 222.14929,37.229412 C 226.38483,47.585149 224.30946,60.250613 228.37282,70.784035 C 232.5062,60.311403 230.45761,47.686361 234.59633,37.215965 C 238.64868,47.753029 236.59618,60.40996 240.81984,70.770592 C 244.80729,60.205898 242.72576,47.456802 247.04337,37.256287 C 250.68771,47.935998 249.33145,59.895661 252.82236,70.649757 C 256.43486,63.444667 255.55785,53.337475 257.26773,44.997742 C 257.31212,35.971687 261.28331,37.185603 261.26855,45.402275 C 262.72904,53.799713 262.44835,62.696454 265.26938,70.743713 C 269.60324,60.551989 267.48992,47.786203 271.49292,37.229412 C 275.72845,47.585178 273.65308,60.250603 277.71643,70.784035 C 281.84984,60.311397 279.80123,47.686383 283.93994,37.215965 C 287.99231,47.752998 285.9398,60.410009 290.16348,70.770592 C 294.15089,60.20587 292.06942,47.456801 296.38699,37.256287 C 300.03133,47.935998 298.67506,59.895668 302.16599,70.649757 C 305.77846,63.444635 304.90152,53.337488 306.61133,44.997742 C 306.65576,35.971691 310.62689,37.185614 310.61218,45.402275 C 312.07265,53.799715 311.79198,62.696456 314.61301,70.743713 C 318.94685,60.551978 316.83355,47.786186 320.83655,37.229412 C 325.07206,47.585179 322.9967,60.250611 327.06006,70.784035 C 331.19344,60.311394 329.14484,47.686352 333.28357,37.215965 C 337.33593,47.753009 335.28342,60.409993 339.50708,70.770592 C 343.49454,60.205899 341.41303,47.456834 345.73059,37.256287 C 349.37495,47.935975 348.01869,59.895649 351.50958,70.649757 C 355.12212,63.444712 354.24511,53.337472 355.95496,44.997742 C 355.99935,35.971696 359.97057,37.1856 359.95578,45.402275 C 361.41629,53.799712 361.13559,62.696449 363.95663,70.743713 C 368.29045,60.551934 366.1772,47.786244 370.18015,37.229412 C 374.4157,47.585155 372.34031,60.250616 376.40369,70.784035 C 380.53705,60.311381 378.48846,47.686343 382.6272,37.215965 C 386.67954,47.753035 384.62703,60.409995 388.85071,70.770592 C 392.83814,60.205901 390.75664,47.456745 395.07425,37.256287 C 398.71856,47.936021 397.3623,59.895656 400.85321,70.649757 C 404.46574,63.444664 403.58871,53.337478 405.29858,44.997742 C 405.34298,35.971689 409.31418,37.185598 409.29941,45.402275 C 410.75993,53.799706 410.47918,62.696481 413.30026,70.743713 C 417.63407,60.551936 415.52083,47.786225 419.52377,37.229412 C 423.7593,47.585179 421.68396,60.250573 425.74728,70.784035 C 429.88071,60.311431 427.83206,47.686331 431.97083,37.215965 C 436.02315,47.75306 433.97066,60.409971 438.19434,70.770592 C 442.18173,60.205852 440.10026,47.456832 444.41785,37.256287 C 448.06217,47.936003 446.70595,59.895636 450.19681,70.649757 C 453.80937,63.444745 452.9323,53.337459 454.64221,44.997742 C 454.68662,35.971684 458.65776,37.185603 458.64304,45.402275 C 460.10352,53.799714 459.82283,62.696454 462.64386,70.743713 C 466.97771,60.551983 464.86445,47.786248 468.86737,37.229412 C 473.10296,47.585123 471.02753,60.250614 475.09091,70.784035 C 479.2243,60.311402 477.17572,47.68638 481.31442,37.215965 C 485.3668,47.753005 483.31426,60.41 487.53796,70.770592 C 491.52535,60.205864 489.4439,47.456803 493.76147,37.256287 C 497.40579,47.936018 496.04955,59.895663 499.54047,70.649757 C 503.15296,63.444645 502.27593,53.337474 503.98584,44.997742 C 504.03024,35.971682 508.00137,37.185608 507.98666,45.402275 C 509.44714,53.79971 509.16644,62.696475 511.98749,70.743713 C 516.32128,60.551939 514.20807,47.786251 518.211,37.229412 C 522.44649,47.585117 520.37124,60.25057 524.43451,70.784035 C 527.25902,65.922237 526.03556,58.6532 527.99084,54 C 542.66056,54 557.33028,54 572,54" />
    </g>
    <path
       id="path34835"
       style="fill:none;stroke:#222222;stroke-width:0.3;stroke-linecap:butt;stroke-linejoin:bevel;stroke-miterlimit:1;stroke-dasharray:0.6, 1.2;stroke-dashoffset:0;stroke-opacity:1"
       d="M -51.063774,122.22837 C -47.958683,122.22837 -44.853591,122.22837 -41.7485,122.22837 C -41.717135,119.63081 -41.685771,117.03326 -41.654406,114.4357 C -33.046684,117.65437 -23.735279,118.05134 -14.649518,118.45483 C -1.6065148,118.94495 11.455013,118.35209 24.493459,118.96833 C 33.844462,119.39453 42.980549,121.81341 52.345196,122.07483 C 53.431002,122.42738 54.880656,122.13024 56.108944,122.22837 C 57.990815,122.22837 59.872685,122.22837 61.754556,122.22837" />
    <g
       id="g34837"
       transform="matrix(0.21166666,0,0,0.21166665,-59.318774,110.79837)"
       style="stroke-width:1.6535434;stroke-miterlimit:1;stroke-dasharray:none">
      <path
         id="path34839"
         style="fill:none;stroke:#1484e6;stroke-width:1.65354;stroke-linecap:butt;stroke-linejoin:round;stroke-miterlimit:1;stroke-dasharray:none;stroke-opacity:1"
         d="M 39,54 C 53.817904,54 68.635808,54 83.453712,54 C 84.495372,42.167653 83.889052,29.874841 86.565468,18.368328 C 90.333742,41.000197 88.882309,64.338947 92.344452,87.056091 C 94.692593,83.890795 93.932404,76.01807 94.712883,71.045696 C 96.097828,54.945217 95.950671,38.645548 98.56797,22.690882 C 101.24297,28.655042 100.41754,37.821246 101.3759,45.020223 C 102.51656,57.910123 102.33876,71.015622 104.7915,83.732735 C 107.93529,73.756816 107.10104,61.572208 108.34779,50.714806 C 109.43877,42.722639 108.50688,32.557667 111.45955,25.885237 C 114.91812,44.03909 113.47667,62.952056 117.23853,81.016365 C 121.29251,64.27886 119.7776,46.108073 123.01752,28.982159 C 125.81798,30.505438 125.03747,40.56486 125.94998,45.42973 C 127.24804,56.503859 126.77819,68.058531 129.68558,78.778908 C 133.82145,63.086603 131.65525,45.803812 135.90909,30.192007 C 139.68896,45.269516 138.27283,61.390653 141.68806,76.613007 C 144.43622,72.852507 143.69814,64.965947 144.64534,59.530752 C 145.99964,50.458668 145.15416,40.241604 148.35612,31.889202 C 151.95688,46.042113 150.5988,61.163794 154.13512,75.345428 C 157.38699,67.915841 156.54591,57.910406 157.89639,49.469325 C 158.84201,45.194873 158.18034,34.010627 161.18752,34.319805 C 164.02747,47.464013 163.07006,61.340247 166.58215,74.287422 C 170.67342,61.934327 169.14003,47.699756 172.36113,34.838478 C 175.39143,36.407361 174.53903,45.605663 175.5811,50.11938 C 176.74013,57.830984 176.31041,66.112584 179.02919,73.398964 C 183.19352,61.238773 181.03648,47.109283 185.25272,34.992283 C 189.31672,46.959989 187.18955,60.89257 191.47623,72.646828 C 195.46059,60.885819 193.32956,47.044183 197.69975,35.687065 C 201.33638,47.368219 199.95443,60.228561 203.47873,71.962837 C 207.09435,64.059104 206.204,53.368991 207.9241,44.379772 C 207.96462,34.749914 211.95341,36.202064 211.92305,44.870278 C 213.38413,53.740157 213.08309,63.096301 215.92577,71.625618 C 220.23615,60.848474 218.13518,47.62927 222.14929,36.521679 C 226.37613,47.336322 224.27809,60.380595 228.37282,71.342438 C 232.50071,60.515809 230.44218,47.591329 234.59633,36.784042 C 238.66415,47.58385 236.56681,60.486393 240.81984,71.096901 C 244.80257,60.332855 242.71519,47.404375 247.04337,37.016655 C 250.68303,47.842082 249.32509,59.929341 252.82236,70.823578 C 256.43286,63.523145 255.55646,53.349473 257.26773,44.925774 C 257.31184,35.825653 261.2857,37.089419 261.26855,45.34938 C 262.72889,53.790193 262.44437,62.730268 265.26938,70.821045 C 269.60141,60.581717 267.48681,47.781802 271.49292,37.182812 C 275.72707,47.566049 273.65089,60.251769 277.71643,70.809341 C 281.84896,60.322681 279.7997,47.686703 283.93994,37.204227 C 287.99177,47.747256 285.93904,60.409201 290.16348,70.774757 C 294.15068,60.208151 292.06903,47.45739 296.38699,37.25544 C 300.03132,47.935521 298.67489,59.895422 302.16599,70.649796 C 305.77828,63.444351 304.9017,53.337736 306.61133,44.997742 C 306.65505,35.970869 310.62691,37.18503 310.61218,45.402283 C 312.07287,53.799612 311.79163,62.696472 314.61301,70.743576 C 318.94702,60.552234 316.83318,47.78679 320.83655,37.230545 C 325.07209,47.58449 322.99604,60.248389 327.06006,70.779518 C 331.19316,60.312555 329.14364,47.692029 333.28357,37.228527 C 337.3349,47.751772 335.28183,60.39796 339.50708,70.742264 C 343.49245,60.206206 341.41067,47.478831 345.73059,37.311859 C 349.37139,47.941281 348.01512,59.854027 351.50958,70.555077 C 355.11513,63.395984 354.24541,53.357845 355.95496,45.071812 C 356.0018,36.109731 359.9698,37.374435 359.95578,45.498245 C 361.41589,53.779721 361.12784,62.572496 363.95663,70.495712 C 368.2772,60.506313 366.16808,47.937217 370.18015,37.600872 C 374.40176,47.650124 372.32235,60.047465 376.40369,70.249199 C 380.53537,60.222136 378.46355,47.958834 382.6272,37.960716 C 386.67118,47.88745 384.60209,60.051164 388.85071,69.763016 C 392.80458,60.007757 390.74641,47.922488 395.07425,38.585358 C 398.68121,48.238676 397.32858,59.270753 400.85321,68.971191 C 404.98361,60.796253 403.57847,49.591231 406.51767,40.452857 C 409.65636,39.389755 409.14248,49.476165 410.18851,52.7803 C 411.38013,57.564928 410.61605,64.633172 413.74478,67.897224 C 417.09831,59.172114 415.74072,48.986908 419.52377,40.509277 C 423.61084,48.403346 421.6729,58.87958 425.74728,66.821823 C 429.73237,59.336949 427.81717,49.255447 431.97083,41.929043 C 435.88099,48.905658 433.94675,58.640447 438.19434,65.246292 C 441.98834,58.823304 440.12309,49.468333 444.41785,43.640697 C 448.10354,49.460749 446.3151,58.421011 450.64139,63.42458 C 454.19735,58.256811 452.48041,49.595061 456.8649,45.540592 C 460.29424,50.035556 458.7026,58.345955 463.08841,61.483063 C 466.34709,57.595356 465.00969,49.814166 469.31192,47.484093 C 472.40153,50.770574 471.34174,58.029385 475.53543,59.578266 C 478.47499,56.940143 477.68812,50.066198 481.75897,49.310726 C 484.38537,50.964088 484.81721,60.472327 488.87158,56.926472 C 490.24098,51.913391 495.05953,48.020484 497.31778,54.894897 C 501.11098,60.969544 504.18732,47.627537 508.43121,53.425011 C 512.2207,59.421481 516.8705,49.725934 521.32275,53.971218 C 525.68082,55.835492 530.40474,53.00949 535.10345,54 C 547.4023,54 559.70115,54 572,54" />
    </g>
  </g>
</svg>
