<?xml version="1.0" encoding="UTF-8" standalone="no"?>
<svg
   xmlns:dc="http://purl.org/dc/elements/1.1/"
   xmlns:cc="http://creativecommons.org/ns#"
   xmlns:rdf="http://www.w3.org/1999/02/22-rdf-syntax-ns#"
   xmlns:svg="http://www.w3.org/2000/svg"
   xmlns="http://www.w3.org/2000/svg"
   xmlns:sodipodi="http://sodipodi.sourceforge.net/DTD/sodipodi-0.dtd"
   xmlns:inkscape="http://www.inkscape.org/namespaces/inkscape"
   width="44.291538mm"
   height="16.308897mm"
   viewBox="0 0 44.291538 16.308897"
   version="1.1"
   id="svg8"
   inkscape:version="1.0.1 (3bc2e813f5, 2020-09-07)"
   sodipodi:docname="convolution-1.svg">
  <defs
     id="defs2" />
  <sodipodi:namedview
     id="base"
     pagecolor="#ffffff"
     bordercolor="#666666"
     borderopacity="1.0"
     inkscape:pageopacity="0.0"
     inkscape:pageshadow="2"
     inkscape:zoom="5.6"
     inkscape:cx="57.698198"
     inkscape:cy="47.016041"
     inkscape:document-units="mm"
     inkscape:current-layer="layer1"
     inkscape:document-rotation="0"
     showgrid="false"
     inkscape:window-width="1920"
     inkscape:window-height="1001"
     inkscape:window-x="-9"
     inkscape:window-y="1341"
     inkscape:window-maximized="1"
     inkscape:snap-global="true"
     inkscape:snap-page="true" />
  <metadata
     id="metadata5">
    <rdf:RDF>
      <cc:Work
         rdf:about="">
        <dc:format>image/svg+xml</dc:format>
        <dc:type
           rdf:resource="http://purl.org/dc/dcmitype/StillImage" />
        <dc:title />
      </cc:Work>
    </rdf:RDF>
  </metadata>
  <g
     inkscape:label="Layer 1"
     inkscape:groupmode="layer"
     id="layer1"
     transform="translate(-202.3721,-130.18428)">
    <path
       id="path1027"
       style="fill:none;stroke:#555555;stroke-width:0.35;stroke-linecap:butt;stroke-linejoin:bevel;stroke-miterlimit:1;stroke-dasharray:0.35,0.7;stroke-dashoffset:0;stroke-opacity:1"
       d="M 204.61881,144.4443 C 208.45878,144.3638 212.31063,144.60357 216.14451,144.33292 C 217.69931,144.23973 219.08077,143.29951 219.90747,142.00622 C 221.31298,140.03843 222.0022,137.6466 223.48115,135.72974 C 223.88186,135.13452 224.77516,134.88078 225.29633,135.47106 C 226.5602,136.78979 227.13981,138.5823 228.02319,140.1507 C 228.90272,141.8252 230.02781,143.71861 232.01356,144.17525 C 234.26979,144.63419 236.59852,144.35355 238.88211,144.44496 C 240.72704,144.44617 242.57196,144.44427 244.41689,144.4443" />
    <path
       d="M 204.61881,144.4443 H 204.66106 C 208.5952,144.4443 212.52935,144.4443 216.46349,144.4443 L 216.62298,144.24493 C 217.89891,140.25762 219.17487,136.27032 220.4508,132.28301 L 220.61029,132.23317 C 221.88623,136.22048 223.16217,140.20778 224.43811,144.19509 L 224.5976,144.4443 C 231.20403,144.4443 237.81046,144.4443 244.41689,144.4443"
       style="fill:none;stroke:#555555;stroke-width:0.299999;stroke-linecap:butt;stroke-linejoin:round;stroke-miterlimit:1;stroke-dasharray:none;stroke-opacity:1"
       id="path1031"
       sodipodi:nodetypes="ccccccccc" />
    <path
       id="path1035"
       style="fill:none;stroke:#fd8b28;stroke-width:0.35;stroke-linecap:butt;stroke-linejoin:round;stroke-miterlimit:1;stroke-dasharray:none;stroke-opacity:1"
       d="M 204.61881,144.4443 C 208.72629,144.42841 212.83571,144.47612 216.94197,144.42038 C 218.16657,144.40185 219.25864,143.63282 219.81283,142.56003 C 220.28349,141.90975 220.31979,140.90043 221.16094,140.58492 C 222.00048,140.11222 222.78223,140.93443 223.16217,141.6151 C 223.72695,142.48129 224.03685,143.49233 224.54208,144.37927 C 225.005,144.53643 225.60468,144.39703 226.11828,144.4443 C 232.21782,144.4443 238.31735,144.4443 244.41689,144.4443" />
    <path
       id="path1039"
       style="fill:#fd8b28;fill-opacity:0.2;fill-rule:nonzero;stroke:none;stroke-width:0.211667"
       d="M 220.61029,140.95252 C 220.3769,141.33226 220.24904,141.76392 220.03358,142.15358 C 219.6394,142.92494 219.11341,143.69313 218.31208,144.08183 C 217.74005,144.36212 217.09229,144.42895 216.46349,144.4443 C 219.17486,144.4443 221.88623,144.4443 224.5976,144.4443 C 224.48253,144.32905 224.3958,144.19619 224.34521,144.04088 C 223.93578,143.10779 223.54453,142.15424 222.9596,141.31403 C 222.68075,140.93165 222.32633,140.5271 221.83214,140.4557 C 221.37022,140.39285 220.95118,140.67552 220.61029,140.95252 Z" />
  </g>
</svg>
