<?xml version="1.0" encoding="UTF-8" standalone="no"?>
<svg
   xmlns:dc="http://purl.org/dc/elements/1.1/"
   xmlns:cc="http://creativecommons.org/ns#"
   xmlns:rdf="http://www.w3.org/1999/02/22-rdf-syntax-ns#"
   xmlns:svg="http://www.w3.org/2000/svg"
   xmlns="http://www.w3.org/2000/svg"
   xmlns:sodipodi="http://sodipodi.sourceforge.net/DTD/sodipodi-0.dtd"
   xmlns:inkscape="http://www.inkscape.org/namespaces/inkscape"
   width="143.93045mm"
   height="10.067307mm"
   viewBox="0 0 143.93045 10.067307"
   version="1.1"
   id="svg23973"
   sodipodi:docname="denoising-1.svg"
   inkscape:version="1.0.1 (3bc2e813f5, 2020-09-07)">
  <defs
     id="defs23967" />
  <sodipodi:namedview
     id="base"
     pagecolor="#ffffff"
     bordercolor="#666666"
     borderopacity="1.0"
     inkscape:pageopacity="0.0"
     inkscape:pageshadow="2"
     inkscape:zoom="2.8"
     inkscape:cx="281.38173"
     inkscape:cy="70.911485"
     inkscape:document-units="mm"
     inkscape:current-layer="layer1"
     inkscape:document-rotation="0"
     showgrid="false"
     inkscape:window-width="1920"
     inkscape:window-height="1001"
     inkscape:window-x="-9"
     inkscape:window-y="1341"
     inkscape:window-maximized="1" />
  <metadata
     id="metadata23970">
    <rdf:RDF>
      <cc:Work
         rdf:about="">
        <dc:format>image/svg+xml</dc:format>
        <dc:type
           rdf:resource="http://purl.org/dc/dcmitype/StillImage" />
      </cc:Work>
    </rdf:RDF>
  </metadata>
  <g
     inkscape:label="Layer 1"
     inkscape:groupmode="layer"
     id="layer1"
     transform="translate(-22.113647,-82.091073)">
    <g
       id="g24928"
       transform="matrix(0.21166666,0,0,0.21166666,11.635021,75.38246)">
      <path
         id="path24930"
         style="fill:none;stroke:#1484e6;stroke-width:0.833333;stroke-linecap:butt;stroke-linejoin:round;stroke-miterlimit:10;stroke-dasharray:none;stroke-opacity:1"
         d="M 49.91906,58.051914 C 50.642474,45.243158 50.218352,65.813715 51.430981,52.848747 C 52.752201,50.684106 52.597909,61.862656 53.432801,54.991893 C 53.869536,54.227832 55.960269,52.619397 55.923592,61.293446 C 55.994768,54.282314 58.413252,51.03151 58.204811,45.898276 C 57.893421,50.916148 59.427701,70.803273 59.451776,55.941 C 59.514013,39.517587 59.865381,56.839022 60.719615,53.234358 C 61.135936,37.987632 61.635604,52.180986 61.739049,59.616549 C 61.774678,74.215825 62.506665,56.822854 63.036892,51.317024 C 63.400347,55.552427 63.758864,77.096427 63.89882,64.668498 C 63.984633,59.740659 64.397386,40.57549 64.58323,43.734012 C 64.930437,50.337503 65.556869,68.311743 65.324506,66.256242 C 65.71994,58.368867 65.474361,50.420856 66.406349,42.576363 C 66.470932,46.939742 67.101869,71.604762 67.182548,64.931917 C 67.202279,59.76625 67.626154,38.761057 68.11368,53.657834 C 68.465971,69.037552 68.940595,58.829845 69.027039,49.344894 C 70.43354,48.005468 69.676612,64.552911 70.064296,70.181279 C 70.161511,83.408868 70.430371,61.069158 70.573419,56.854584 C 70.780112,51.81292 70.702178,30.491814 71.259226,45.488973 C 71.408755,53.68641 71.514891,61.885329 71.647736,70.083336 C 72.171856,59.692832 72.181293,49.287504 72.3965,38.888103 C 73.185109,50.142727 72.519859,61.47473 73.519653,72.701279 C 73.748885,62.942364 73.686191,53.173844 74.268425,43.426544 C 74.828785,54.808967 74.791904,66.207637 75.017189,77.599175 C 75.23158,66.39548 75.250607,55.186635 75.765961,43.990875 C 76.638502,54.520062 76.179522,65.128901 76.514725,75.690231 C 76.982665,61.886864 77.05864,48.075454 77.263496,34.266689 C 77.713912,47.562697 77.809444,60.866145 78.012268,74.167343 C 79.129618,63.916324 78.059321,53.497189 79.135422,43.226624 C 79.462338,48.781092 78.963834,63.457636 79.915703,64.221656 C 80.167001,53.565009 80.403014,42.908019 80.632957,32.250893 C 81.089885,42.935362 80.387566,57.369237 81.756104,65.780556 C 81.8809,56.423986 82.005697,47.067416 82.130493,37.710846 C 82.857942,49.801451 82.603577,61.925474 82.879257,74.031456 C 83.483994,62.159083 82.931371,50.04431 84.002419,38.31147 C 84.381773,47.628213 83.782905,57.060052 84.751183,66.307503 C 84.81917,62.088572 85.465091,37.634964 85.527193,44.353284 C 85.714307,53.376121 85.822572,62.401267 86.248718,71.417099 C 86.458666,61.371138 86.508121,51.320587 86.99749,41.282619 C 87.272481,49.818051 87.516768,58.354384 87.746254,66.891151 C 88.488399,55.886622 88.211429,44.843526 88.495026,33.821644 C 88.962372,44.469136 88.575757,55.210172 89.618179,65.79921 C 89.828279,57.528263 89.872066,49.251491 90.366951,40.990517 C 90.621009,50.810911 90.451665,60.64695 91.115715,70.452194 C 91.426066,61.587062 91.052675,52.683231 91.864487,43.846481 C 92.377949,51.858602 92.398936,59.888815 92.613251,67.911926 C 93.233099,58.650971 93.119379,49.363628 93.362022,40.089104 C 93.931562,49.270366 93.883979,58.472759 94.110786,67.665756 C 94.846327,58.172766 94.575834,48.637255 94.859558,39.125168 C 95.584511,48.276427 95.332542,57.471016 95.608322,66.642197 C 96.562049,55.948268 96.194254,45.1452 96.731483,34.410908 C 96.978057,46.555183 96.842245,58.710344 97.480248,70.843475 C 97.800383,57.93327 98.01889,45.021062 98.229019,32.108688 C 98.429855,45.324898 98.55159,58.542741 98.977783,71.754295 C 99.545984,61.187655 99.385563,50.594157 100.10094,40.03574 C 100.36483,49.637111 100.15795,59.257126 100.84971,68.841553 C 100.9745,59.767038 101.0993,50.692523 101.22409,41.618008 C 102.10211,52.607291 101.87976,63.659456 102.34724,74.673203 C 102.56808,61.201538 102.80509,47.730175 103.09602,34.259819 C 103.29609,47.703196 103.43936,61.147709 103.84478,74.586983 C 104.11119,63.789524 104.35825,52.991618 104.59355,42.193439 C 105.594,51.246212 104.89772,60.41988 105.71671,69.501534 C 105.97801,60.028818 105.78607,50.538524 106.46548,41.082024 C 106.59027,49.550601 106.71506,58.019178 106.83985,66.487755 C 107.82046,57.396789 106.96006,48.200037 107.96301,39.114075 C 108.25807,49.944161 108.49288,60.775648 108.71178,71.607506 C 108.97416,59.210552 109.22224,46.81331 109.46055,34.415871 C 109.66163,43.930623 109.83784,53.44606 110.20931,62.956116 C 110.93832,58.989771 110.5864,37.732094 111.40423,48.521194 C 111.53202,52.720307 111.98402,73.845916 112.15878,65.077756 C 112.3166,56.069555 112.47914,47.061477 112.83001,38.058285 C 113.17972,46.87591 112.67866,55.759386 113.57877,64.534409 C 113.77927,55.526687 113.92395,46.517306 114.32755,37.515625 C 114.60339,48.833899 114.84736,60.152879 115.07632,71.472191 C 115.63707,62.435271 115.6005,53.377794 115.82507,44.329304 C 116.06085,55.018082 117.28548,61.244748 117.32262,46.732403 C 118.27726,52.852359 117.76941,71.387486 118.44577,55.841553 C 119.18033,44.961979 120.41164,71.89298 120.46664,54.615681 C 120.63673,39.59634 120.81866,48.399574 121.13563,58.224894 C 121.83826,73.792696 121.67982,46.694565 123.00705,57.84517 C 123.08093,74.798412 124.21934,43.496539 124.65711,55.538342 C 124.58417,59.555399 126.39413,44.571991 126.21802,59.423807 C 126.23406,63.734618 127.03906,39.86345 127.35789,58.188303 C 127.96786,59.726389 128.29133,56.133801 129.30292,54.056076 C 130.3849,53.867576 130.62183,57.166057 130.98916,60.268613 C 133.15843,56.812654 132.92037,58.297322 133.42114,46.744194 C 133.50733,58.049163 135.27815,56.430645 135.36929,58.939985 C 135.75156,46.930619 136.3579,44.147194 136.58403,57.633686 C 137.08738,73.111606 137.47986,52.648186 137.49131,47.14072 C 137.77144,43.884882 138.11323,61.502786 138.24844,66.66279 C 138.54695,70.381929 138.52973,45.372534 139.44486,53.576772 C 139.65514,64.354629 139.85558,71.649084 139.99257,56.509126 C 139.72837,41.008938 141.19781,55.11675 141.21964,62.602665 C 141.46868,65.240126 141.5394,44.386413 142.06335,44.548901 C 142.25285,53.27064 142.45451,61.992038 142.78075,70.70993 C 142.90555,60.959603 143.03034,51.209277 143.15514,41.45895 C 143.46344,50.587223 143.69025,59.717757 143.9039,68.848656 C 144.88063,58.530941 144.27166,48.01349 144.65266,37.620735 C 144.85554,47.637147 145.04317,57.653954 145.40144,67.666336 C 145.83072,58.169921 145.94821,48.664545 146.15021,39.161598 C 146.75416,51.602081 146.66396,64.061036 146.89897,76.511337 C 147.11254,64.310467 147.13017,52.104817 147.64775,39.911362 C 147.94747,51.456086 148.17947,63.00229 148.39651,74.548821 C 148.60394,62.400394 148.66985,50.24866 149.14528,38.106495 C 149.35398,48.739471 149.56929,59.372289 149.89404,70.00248 C 150.06952,65.662301 150.07907,47.030605 150.70666,51.806998 C 150.63984,62.701227 151.52487,68.386831 151.52712,54.183265 C 151.62562,44.477686 151.79246,34.702778 152.17355,49.924063 C 152.10987,59.290905 152.97729,69.286822 152.99609,53.9906 C 153.1097,50.144359 153.19562,28.231172 153.32954,37.630194 C 153.52367,50.432061 153.75197,63.233321 154.01227,76.034012 C 154.25209,61.653732 154.5006,47.273603 154.76105,32.893681 C 155.05694,47.006864 155.29142,61.121143 155.50981,75.23571 C 155.82512,61.549169 156.04704,47.860895 156.25859,34.172428 C 156.47011,47.592283 156.69303,61.011923 157.00735,74.429832 C 157.23687,64.056995 157.17262,53.675045 157.75612,43.313187 C 157.84941,47.540262 158.14814,69.080551 158.5756,60.158772 C 158.54789,54.564825 159.04357,34.328312 159.34171,49.923415 C 159.49213,54.715032 159.46824,73.638356 159.7305,69.363279 C 160.20855,58.372888 160.15549,47.368653 160.37682,36.371571 C 160.80108,48.365346 160.92419,60.365953 161.12558,72.364784 C 161.51112,62.148466 161.67365,51.926376 161.87434,41.705273 C 162.28848,50.168962 162.42244,58.641591 162.62311,67.112091 C 162.84225,56.405365 163.07764,45.699022 163.37189,34.994064 C 163.62332,46.516181 163.46607,58.050922 164.12065,69.560585 C 164.32663,61.312654 164.53314,53.064741 164.86942,44.820866 C 165.10772,54.901002 165.0053,64.992434 165.61819,75.06015 C 165.74299,64.817599 165.86778,54.575048 165.99258,44.332497 C 166.68075,48.714259 166.62195,70.87479 167.18897,58.384216 C 167.34084,53.4225 167.33377,34.62517 167.58935,38.691978 C 168.01783,48.604351 168.03036,58.527805 168.23888,68.446037 C 168.62965,58.57954 168.78663,48.706762 168.98766,38.835167 C 169.20334,47.819898 169.43397,56.804209 169.73642,65.786499 C 170.68752,57.518508 170.11326,49.076611 170.48518,40.742588 C 171.08457,51.96149 170.99876,63.200332 171.23395,74.429832 C 171.43519,64.317962 171.57078,54.204344 171.98273,44.098084 C 172.42564,54.823731 172.52815,65.558132 172.73149,76.28994 C 172.93273,62.675998 173.05728,49.060525 173.48026,35.451012 C 173.86825,45.941475 173.24193,56.561067 174.22903,66.975258 C 174.59955,58.516747 174.00899,49.869926 174.9778,41.528641 C 175.10259,52.844129 175.22738,64.159617 175.35217,75.475105 C 175.95225,65.018566 175.5415,54.4997 176.47533,44.075031 C 176.60013,53.870997 176.72492,63.666963 176.84972,73.462929 C 177.054,63.194063 177.25179,52.925034 177.5985,42.659748 C 177.94089,50.433146 178.14164,58.211229 178.34726,65.989151 C 179.06447,61.565933 178.90298,40.757716 179.17422,49.434266 C 179.18363,53.842031 179.63999,75.451845 179.94857,63.235877 C 179.8912,58.211348 180.50992,38.069358 180.7964,52.904441 C 181.00295,61.446254 181.47657,73.249695 181.58041,57.75818 C 181.93664,42.626404 182.38121,57.662055 182.3508,64.581806 C 182.41883,78.907574 182.90851,58.355143 183.08684,53.368008 C 183.67664,43.489947 183.81523,65.066081 183.9076,68.800405 C 184.34644,74.454688 184.50346,54.962436 184.54383,50.498246 C 184.61406,38.412665 184.76545,34.831335 185.08617,48.993122 C 185.2832,55.495786 185.40539,73.828245 185.74591,57.650293 C 186.0223,49.20681 186.2466,35.277608 186.4286,51.485782 C 186.51901,61.317581 187.13127,70.999878 187.43304,55.826156 C 187.7967,40.241725 187.88281,60.31712 188.08125,65.960342 C 188.74474,60.744954 188.53599,42.744243 188.96843,46.502545 C 189.23669,52.570969 189.69551,70.118142 190.2027,54.618702 C 190.67791,39.090012 190.91154,52.15533 191.03306,60.424014 C 191.71652,63.084825 192.11844,38.41879 192.52479,56.633789 C 193.08922,50.975922 194.10162,46.567146 193.93282,59.500426 C 194.06879,73.548892 194.43257,52.861023 194.65978,47.990662 C 195.03233,36.536717 194.85028,58.175758 195.41523,62.580847 C 195.88914,67.191685 195.7235,38.183628 196.16796,53.18769 C 196.4047,70.444907 197.85208,44.58 198.33093,55.215883 C 198.78899,55.197402 199.6305,46.534306 199.63677,59.516568 C 200.15349,55.431187 200.07387,60.666236 201.55908,50.985233 C 202.40833,64.409223 203.54408,44.538497 203.88069,51.759521 C 203.98474,66.25664 204.36763,56.470981 205.67732,57.946136 C 206.99658,46.176032 206.62926,76.143141 207.09442,56.462343 C 207.55022,54.192242 208.48063,68.537424 208.51983,54.107032 C 208.72022,39.787326 209.02343,74.712464 209.71666,58.453309 C 211.12816,66.854045 210.55353,44.925008 211.03855,50.393992 C 211.56329,58.801265 212.38208,68.103686 212.21603,53.628962 C 212.38962,38.933874 212.40944,45.024677 213.02249,55.947648 C 214.06362,48.858944 214.10664,55.57686 214.26947,65.624773 C 214.75825,63.54504 214.89533,44.852564 215.06969,45.771674 C 215.16007,50.205305 215.60521,71.093007 215.85568,62.642478 C 215.95881,58.247978 216.05606,36.952126 216.60843,50.972542 C 216.75892,57.454335 216.90261,75.598297 217.06631,59.39938 C 216.99254,46.387061 217.98087,45.914244 217.83822,59.119497 C 217.87073,71.762555 218.19255,74.064006 218.44758,60.113053 C 218.57539,55.40602 218.69107,36.416886 218.82661,40.797575 C 219.00247,51.687915 219.16146,62.578638 219.52953,73.464623 C 219.65433,64.226448 219.77912,54.988274 219.90392,45.750099 C 220.68727,50.236862 220.37994,70.636645 220.78975,62.039616 C 221.11253,53.742329 221.20777,45.438838 221.40146,37.138031 C 221.60867,48.039919 221.67514,58.945472 222.15022,69.840385 C 222.47452,64.180698 222.06354,46.009709 222.89899,48.393845 C 223.07241,52.411804 223.14554,74.200076 223.39344,65.01945 C 223.70301,55.842733 223.82847,46.661486 224.02213,37.481918 C 224.14692,47.683311 224.27172,57.884705 224.39651,68.086098 C 225.01232,58.044461 224.90545,47.978771 225.14531,37.924622 C 225.34572,47.029561 225.5003,56.13584 225.89406,65.23513 C 226.13261,61.156419 226.02301,38.646454 226.58042,51.448227 C 226.87426,58.005086 226.94148,76.108972 227.31048,60.070695 C 227.54896,51.631788 227.60095,43.188024 227.76598,34.747204 C 227.89078,45.188194 228.01557,55.629185 228.14037,66.070175 C 228.96315,61.589266 228.60801,40.395222 229.0111,48.961729 C 229.20163,52.925609 229.57612,74.464082 229.81639,61.705653 C 230.07024,56.650847 230.3464,37.354077 230.40592,40.658955 C 230.5243,49.041227 230.64268,57.423499 230.76106,65.805771 C 231.62547,57.299041 231.17426,48.703517 231.50983,40.161095 C 231.91922,50.864961 232.05804,61.575628 232.25861,72.284744 C 232.3834,63.165057 232.50819,54.045369 232.63298,44.925682 C 233.32764,54.707983 233.11556,64.52538 233.38176,74.324265 C 233.74931,60.719307 233.9291,47.110738 234.13051,33.502586 C 234.50876,45.61362 233.91066,57.817348 234.87929,69.87233 C 235.00408,60.416933 235.12887,50.961535 235.25366,41.506138 C 235.93332,53.502474 235.74258,65.525756 236.00244,77.535088 C 236.12723,66.52086 236.25203,55.506633 236.37682,44.492405 C 237.27271,52.788381 236.7732,61.188314 237.1256,69.52478 C 238.09935,58.131012 237.50434,46.44883 237.87436,34.944069 C 238.11365,48.292485 238.36201,61.640731 238.62312,74.988739 C 238.74792,63.913356 238.87271,52.837972 238.99751,41.762589 C 239.82143,50.166747 239.43022,58.645564 239.74628,67.080925 C 240.17337,55.831648 240.29394,44.574932 240.49506,33.320171 C 240.83052,45.341487 240.37373,57.403012 241.24382,69.397194 C 241.36862,59.765994 241.49341,50.134793 241.61821,40.503593 C 241.8324,49.254741 242.06049,58.005488 242.36696,66.753967 C 242.50176,61.81907 242.78207,43.210751 243.13618,46.194418 C 243.25089,50.968786 243.46477,73.79584 243.53953,68.435619 C 243.95912,58.896849 244.03564,49.348593 244.23889,39.803841 C 244.55139,48.615151 244.17247,57.46587 244.98766,66.248528 C 245.23897,60.914095 245.03469,42.387059 245.59443,45.983711 C 246.01132,55.853042 245.89495,65.748714 246.11081,75.627975 C 246.44346,63.26465 246.65264,50.898766 246.85959,38.532837 C 247.25166,46.611984 246.60107,58.276002 247.60835,64.239906 C 247.69815,60.135684 247.94604,38.378056 248.44504,52.297193 C 248.59165,57.220774 248.66627,78.395978 248.90179,63.248416 C 249.14248,54.346009 249.29464,45.441603 249.48027,36.537952 C 249.60507,48.58242 249.72986,60.626888 249.85466,72.671356 C 250.30149,61.177087 250.40052,49.674423 250.60344,38.174267 C 250.80412,51.353981 250.97638,64.534262 251.3522,77.71048 C 251.477,65.515567 251.60179,53.320653 251.72659,41.12574 C 252.69051,51.415694 252.10837,61.949936 252.47534,72.334213 C 253.01653,60.96948 253.00404,49.589953 253.22411,38.21664 C 253.34891,48.092229 253.4737,57.967818 253.5985,67.843407 C 254.41258,58.898031 254.037,49.884682 254.34726,40.910519 C 254.55853,49.213196 254.78016,57.515557 255.09604,65.815033 C 255.29749,56.207081 255.41245,46.59666 255.8448,36.9953 C 255.96959,49.116579 256.09439,61.237859 256.21918,73.359138 C 256.94724,61.255147 256.68866,49.118485 256.96796,36.999634 C 257.16836,46.543472 257.33641,56.088205 257.71674,65.627068 C 257.93282,61.790933 257.80513,40.087749 258.51712,50.664991 C 258.68037,57.183507 258.818,75.700689 259.02971,59.52657 C 259.16257,55.677505 259.53607,33.968538 259.65691,43.358871 C 259.8649,51.647345 259.73609,59.948288 260.33743,68.222198 C 260.46222,59.161054 260.587,50.099909 260.71179,41.038765 C 260.97981,49.896908 261.22639,58.755656 261.46057,67.614754 C 261.71402,58.494617 261.55053,49.358161 262.20935,40.253891 C 262.42936,44.97696 262.35011,66.482244 262.99213,53.257471 C 263.20878,42.418172 263.40709,35.504191 263.5029,50.533508 C 263.54618,55.465207 263.8513,73.887605 264.13767,69.904982 C 264.10344,64.77277 264.71291,44.637702 264.96407,59.383264 C 265.11439,73.819039 265.32332,70.452501 265.56224,57.977926 C 265.94265,43.025702 265.97563,54.567992 266.49707,57.786792 C 267.14081,44.676591 267.41168,62.109772 268.65614,55.675261 C 268.85862,67.550783 269.83968,39.99449 270.43694,58.88171 C 271.06331,42.556069 272.23737,70.905149 272.22284,56.307724 C 273.28484,62.064047 273.41937,38.484988 273.75717,53.891331 C 274.40798,65.922443 274.3474,45.565718 275.41149,53.108335 C 276.08917,53.933052 277.25695,67.561055 277.82539,54.807448 C 278.18698,59.864932 278.63041,47.411811 279.88621,52.648519 C 280.74356,69.802633 280.50772,40.251986 281.67734,54.009972 C 282.92554,54.777365 281.74897,70.097626 283.17487,55.369236 C 283.98101,68.020656 283.55584,36.648267 284.50512,56.298764 C 285.27247,45.957221 285.1439,57.320194 285.42117,65.431213 C 285.81934,51.155612 285.51872,55.730781 286.54431,59.353325 C 286.70501,54.339744 286.92094,33.050093 287.0136,48.092093 C 287.18627,52.538504 287.11766,75.068678 287.51446,62.716474 C 287.85092,54.244387 288.09816,40.713262 288.22383,56.79719 C 288.35236,72.144228 288.57245,62.130646 288.79062,52.647625 C 289.63973,70.149238 289.87647,40.422942 289.95179,47.268471 C 290.07156,53.907103 290.43208,72.116078 290.3091,70.04107 C 290.46199,64.677909 290.52867,46.156486 290.74013,49.731195 C 290.78472,64.565556 291.61185,56.398813 291.72366,46.351879 C 291.91751,42.583703 292.00639,64.575705 292.18577,64.409629 C 292.34732,59.29168 292.49671,37.820492 292.67315,52.742042 C 292.73372,66.865819 293.14321,62.973747 293.5021,51.344291 C 293.82459,41.436119 294.23408,63.401855 294.0519,65.519677 C 294.17969,58.795811 294.56603,40.414639 294.43074,42.587718 C 294.69456,46.658603 294.44625,68.749135 295.15515,57.159336 C 295.57699,40.757456 295.70261,56.710503 295.90362,64.427929 C 296.05581,60.141578 296.16428,41.696342 296.3444,46.427195 C 296.39614,50.197727 296.93203,71.366854 297.07472,62.138449 C 297.18364,52.791788 297.29255,43.445126 297.40146,34.098465 C 297.52626,46.226926 297.65105,58.355388 297.77585,70.483849 C 298.17486,63.559615 297.51248,52.244086 298.52463,47.856632 C 298.69819,54.406487 298.92607,73.546839 299.00157,57.364288 C 299.10473,52.778702 299.22702,31.305111 299.31539,39.775409 C 299.42618,50.561424 299.53698,61.347438 299.64777,72.133453 C 299.90124,62.617216 300.15066,53.100872 300.39651,43.584435 C 300.52131,52.894842 300.6461,62.205249 300.7709,71.515656 C 300.8957,59.015382 301.02049,46.515109 301.14529,34.014835 C 301.27009,42.524481 301.39488,51.034128 301.51968,59.543774 C 302.54721,50.899303 302.11586,39.588267 302.38674,54.919716 C 302.48325,58.902829 302.60382,80.718705 302.68251,71.491207 C 302.79407,59.985672 302.90564,48.480137 303.01721,36.974602 C 303.34895,42.865893 302.89685,59.577107 303.76599,58.428085 C 304.03993,45.455559 304.24127,44.56144 304.35613,58.054045 C 304.47585,73.965591 304.69364,59.239228 304.88916,51.469124 C 305.92098,52.973973 305.50105,66.825473 305.7983,51.217736 C 305.95409,38.280592 306.06947,37.181469 306.13476,50.755644 C 306.21874,59.169247 306.30271,67.582849 306.38669,75.996452 C 306.70157,66.837866 306.32457,57.643493 307.13547,48.510563 C 307.334,56.893177 307.54609,71.429751 307.69007,55.041586 C 307.85081,39.067944 308.0057,50.214048 308.16093,59.755631 C 308.30901,71.668294 308.47581,50.243779 308.633,45.926159 C 309.40202,50.754921 309.20538,73.154271 309.3998,67.969694 C 309.51858,59.0062 309.63735,50.042706 309.75613,41.079212 C 309.88093,50.563509 310.00572,60.047807 310.13052,69.532104 C 310.33229,60.050855 310.51439,50.569065 310.8793,41.092308 C 311.0041,52.550023 311.12889,64.007739 311.25369,75.465454 C 311.37848,63.410024 311.50326,51.354594 311.62805,39.299164 C 311.97492,48.159729 311.48175,57.084202 312.37683,65.903061 C 312.5396,60.932747 312.74941,39.702173 312.85413,54.794968 C 312.97697,59.78137 313.10952,81.033601 313.22039,65.958504 C 313.363,61.499276 313.39818,38.961679 313.64062,51.302092 C 313.73627,59.71742 314.43294,73.516932 314.40446,57.429087 C 314.55128,44.794789 314.68058,42.096137 314.78007,56.297282 C 314.88709,62.81352 314.99629,81.296735 315.09917,65.118671 C 315.22384,60.475345 315.25824,41.437411 315.43999,45.895438 C 315.48863,49.934714 316.11299,72.447373 316.19989,59.579101 C 316.31903,55.036959 316.46332,32.467246 316.55904,44.708697 C 316.66251,53.527763 316.76598,62.346828 316.86945,71.165894 C 316.89323,65.780567 317.35325,45.654548 317.80027,61.124303 C 318.06776,76.598211 318.10569,55.964843 318.2407,50.601488 C 318.35609,34.201294 318.48396,50.320427 318.60856,57.938018 C 318.71601,74.333102 318.89454,58.151973 319.0543,50.574347 C 319.56227,35.808879 319.66457,55.532657 319.74744,61.178903 C 319.88796,77.285226 319.95419,57.928886 320.04754,51.519755 C 320.14001,46.391171 320.20673,24.896428 320.33075,39.808603 C 320.58093,43.987375 320.25411,65.657969 320.93779,56.695556 C 321.16946,52.243339 321.33163,30.298837 321.41124,42.546055 C 321.51964,54.565546 321.62805,66.585038 321.73645,78.60453 C 321.86125,67.178697 321.98604,55.752863 322.11084,44.32703 C 322.28284,55.205406 323.14782,61.239771 323.10601,46.835341 C 323.31616,33.622268 323.35578,56.069498 323.48271,60.25764 C 323.58192,76.376285 323.70975,63.547498 323.83344,54.904836 C 323.91679,38.909831 324.14605,50.791731 324.40599,59.877702 C 324.79897,76.28145 324.82803,60.306026 324.95003,52.599447 C 325.0726,37.909546 325.16418,42.773499 325.24479,54.563562 C 325.33611,59.976064 325.41287,78.468491 325.51414,74.952673 C 325.62766,65.810944 325.74117,56.669214 325.85468,47.527485 C 326.27024,58.153665 326.80803,65.408742 326.77881,50.4499 C 326.91537,37.352827 327.04021,37.096084 327.15273,50.341492 C 327.25094,61.074549 327.37519,68.654427 327.68777,53.432898 C 328.50769,41.92968 328.33186,76.126483 328.53767,59.967348 C 328.64169,50.867437 328.74571,41.767525 328.84973,32.667614 C 328.97453,43.733602 329.09932,54.79959 329.22412,65.865578 C 329.30463,61.182775 329.80251,38.623527 329.99165,44.093811 C 330.1102,52.712758 330.22874,61.331706 330.34729,69.950653 C 330.47208,58.162517 330.59686,46.374382 330.72165,34.586246 C 330.85777,39.262357 331.04238,62.759095 331.17947,56.93139 C 331.72046,48.461422 331.89695,35.380608 331.96129,51.259316 C 332.06577,55.5331 332.16241,77.163694 332.27282,68.302158 C 332.4089,61.483965 332.8415,42.910771 332.64673,45.193685 C 332.96423,49.661476 333.38594,73.258709 333.36649,66.981812 C 333.51292,62.658315 333.67049,40.147215 333.80662,52.655849 C 333.94559,59.188041 334.08962,77.908895 334.21916,61.73597 C 334.35107,53.309023 334.4596,39.241975 334.69397,55.538381 C 335.14904,70.025496 335.49655,48.72924 335.48135,44.122385 C 335.62257,28.708602 335.6805,49.456561 335.77409,54.724444 C 335.8716,59.732948 335.91581,81.01564 336.079,65.966368 C 336.31916,59.375946 335.97544,43.708459 337.08618,58.658875 C 337.2642,52.154767 337.48942,33.799796 337.57706,49.982785 C 337.73395,55.00606 337.69973,76.305159 338.09205,61.27923 C 338.40777,49.544884 338.74644,48.492335 338.95813,61.058125 C 339.11675,57.117083 339.23755,35.274568 339.4241,44.553026 C 339.34682,51.219524 340.16385,67.372958 340.35057,51.719841 C 340.6001,43.406506 340.75969,70.124285 341.20444,52.618202 C 343.4223,50.999561 342.08533,66.786698 342.729,67.793169 C 342.82791,62.203706 342.99562,42.356948 343.73516,57.502103 C 344.0732,55.750838 344.31314,46.62659 344.53334,60.25137 C 345.12365,62.959769 345.92173,49.435601 346.14538,51.705847 C 346.36778,66.658931 346.59346,60.192422 346.81984,49.147189 C 346.79547,60.935304 347.84072,61.099376 347.94333,49.173672 C 347.98158,61.737312 348.50156,60.03296 349.79298,49.053542 C 349.85953,58.36675 350.40445,66.522374 351.27343,51.63381 C 352.14991,62.061004 351.68647,57.570951 353.18469,52.880344 C 353.75855,44.752863 354.72381,59.092906 355.09214,49.06534 C 354.78104,59.265763 356.26316,66.093267 356.458,51.788239 C 356.7637,46.4339 356.56071,64.570329 357.8312,56.212579 C 358.70947,61.065271 359.28473,58.131838 359.58716,66.059053 C 359.51575,54.663656 360.40763,54.041417 360.72223,60.97371 C 360.93861,46.828517 361.80271,51.559943 361.79553,62.911354 C 362.80373,59.012188 362.18256,36.496301 362.75843,49.383265 C 363.11647,53.944482 363.11085,75.41681 363.42771,66.924649 C 363.68179,58.829503 363.99573,45.655677 364.6516,61.045529 C 365.10211,63.993115 364.9057,39.185957 365.28437,45.728408 C 365.67681,50.01289 365.79611,70.705705 366.00228,61.836867 C 366.05777,57.717487 366.52559,36.342525 366.73059,45.28067 C 366.90711,50.383529 366.90284,71.819095 367.30114,56.885498 C 367.60496,48.161772 367.86673,37.363652 367.95779,52.554713 C 367.97624,56.71511 368.45788,77.672919 368.58495,68.915407 C 368.69293,60.16691 368.8009,51.418414 368.90887,42.669918 C 369.31031,50.754254 369.45694,58.847015 369.65765,66.937988 C 369.86825,58.430819 370.08887,49.923949 370.40637,41.419975 C 370.54224,46.024027 370.75427,69.061633 371.17744,63.353385 C 371.34757,58.833863 371.38917,37.33448 371.65823,45.884417 C 371.88791,49.918586 372.22903,72.05907 372.42261,59.229391 C 372.58441,44.261238 373.38824,52.485015 373.24585,62.510721 C 373.3371,78.115143 373.56277,66.696904 373.77585,57.807617 C 373.92261,52.483837 374.04019,33.93639 374.2067,37.560182 C 374.46771,49.538556 374.68471,61.517787 374.89902,73.49707 C 375.02382,62.421477 375.14861,51.345883 375.27341,40.27029 C 375.99792,51.131278 375.74575,62.028522 376.02219,72.906143 C 376.23692,61.882783 376.46579,50.859748 376.77094,39.838463 C 377.10872,45.570718 376.62934,62.390068 377.54529,61.411095 C 377.71177,56.269765 377.84093,34.749126 378.05304,49.644084 C 378.13991,54.726561 378.68337,75.800695 378.78793,60.91893 C 378.88836,56.031919 379.27486,37.263676 379.42059,41.408928 C 379.53573,52.250186 379.65088,63.091443 379.76602,73.932701 C 380.49684,60.270639 380.23667,46.578783 380.5148,32.903111 C 380.72685,43.128537 380.75562,53.359234 381.26352,63.576153 C 381.38833,55.196622 381.51313,46.817092 381.63794,38.437561 C 381.93062,49.471546 382.16656,60.506825 382.38669,71.542465 C 382.61309,60.711376 382.56808,49.872433 383.13547,39.051212 C 383.33601,50.195994 383.48839,61.341927 383.88425,72.48204 C 384.00904,59.371577 384.13382,46.261113 384.25861,33.15065 C 384.67128,45.981714 384.80648,58.818608 385.00739,71.654121 C 385.2883,62.563704 385.02696,53.449536 385.75616,44.378754 C 386.1444,52.189269 385.52338,60.145454 386.50491,67.870338 C 386.62972,58.605819 386.75452,49.341301 386.87933,40.076782 C 387.18242,50.052511 387.41248,60.030089 387.62808,70.008034 C 387.75288,61.309249 387.87767,52.610463 388.00247,43.911678 C 388.91159,54.156606 388.39679,64.49937 388.75122,74.78241 C 388.95245,60.677447 389.12172,46.571887 389.5,32.470226 C 389.62479,43.223551 389.74957,53.976877 389.87436,64.730202 C 390.59343,56.690935 390.34744,48.604309 390.62314,40.543285 C 391.02878,52.531254 391.17163,64.525109 391.37192,76.517677 C 391.57501,63.486374 391.76487,50.454807 392.12067,37.426544 C 392.24548,47.051496 392.37028,56.676447 392.49509,66.301399 C 393.26546,55.502571 392.95169,44.658086 393.24384,33.839119 C 393.455,45.904698 393.49196,57.974484 393.99261,70.033073 C 394.35434,61.857451 393.81644,53.598097 394.74139,45.474895 C 394.86618,55.979258 394.99096,66.483621 395.11575,76.987984 C 395.49588,63.509179 395.66367,50.026221 395.86453,36.543911 C 396.12024,47.947117 395.94653,59.363982 396.61331,70.754112 C 396.73811,60.964905 396.8629,51.175697 396.9877,41.38649 C 397.48988,51.496628 397.52579,61.620258 397.73648,71.738831 C 397.94693,63.331395 397.98501,54.917974 398.4852,46.520596 C 398.61001,56.349935 398.73481,66.179275 398.85962,76.008614 C 399.27877,63.597346 399.40779,51.179734 399.60837,38.763687 C 399.9117,48.605483 399.57232,58.476486 400.35715,68.296402 C 400.38451,61.9578 400.85511,42.679733 401.29521,58.72607 C 401.63875,73.019247 401.49412,52.750595 402.02375,47.603383 C 402.72114,43.904441 402.09555,71.275258 403.00737,60.278833 C 403.03551,52.557536 403.529,37.437727 403.83127,53.296145 C 403.99079,64.011716 404.15053,71.694676 404.31189,56.438944 C 404.38817,40.692083 405.22841,56.046534 405.1016,63.138004 C 405.2162,77.416482 405.52862,56.871911 405.6822,51.664158 C 405.85778,40.998507 406.02832,33.013817 406.15506,48.361238 C 406.13668,52.57815 406.67307,74.474773 406.83145,62.052493 C 406.7444,53.524504 407.61933,39.937139 407.6846,55.988935 C 407.89314,71.40869 408.01282,50.723834 408.53695,45.445284 C 408.7746,47.104038 408.97177,67.159609 409.35901,65.748836 C 409.47827,55.993179 409.59752,46.237522 409.71677,36.481865 C 409.91794,48.429805 410.08634,60.378468 410.46552,72.322487 C 410.59031,63.778259 410.71511,55.234032 410.8399,46.689804 C 411.63899,51.754247 411.34539,73.159583 411.8741,58.218493 C 412.14863,53.007222 412.3088,32.259129 412.45245,46.970831 C 412.48117,50.93396 412.78638,71.777275 413.17804,62.744198 C 413.06692,51.491176 414.08809,46.362493 414.11251,60.684258 C 414.63812,68.362986 414.79754,47.49174 414.90791,42.92864 C 415.09571,38.163004 415.14495,56.720866 415.45646,61.181762 C 415.89345,74.162337 415.85404,51.655327 416.06235,47.602063 C 417.01864,51.314987 416.67164,67.626759 417.1969,50.492644 C 418.25043,51.730174 417.59586,73.036381 418.32761,57.387028 C 418.73156,47.735888 419.39247,65.372835 419.68109,49.95285 C 420.27947,39.441675 420.96199,70.607316 421.1724,54.62389 C 421.27914,50.243728 421.92396,56.641002 422.52223,51.296085 C 422.88922,61.572792 424.18847,42.088365 424.15893,58.797524 C 424.45816,73.293724 424.55981,38.321051 424.99408,57.114504 C 425.79847,57.820917 425.86498,66.954687 426.3682,52.500249 C 426.8427,45.929718 426.87556,71.859507 427.23138,53.342174 C 427.87367,44.67582 428.5104,71.731138 428.97169,54.611089 C 429.36722,39.121632 429.34699,73.790313 429.9335,55.673752 C 431.25709,37.846351 431.18571,68.64704 431.85284,55.956209 C 432.17416,38.752832 432.3172,56.621707 433.17043,58.707036 C 433.95767,39.809689 433.66879,66.721299 434.25375,61.298695 C 434.34233,43.884397 435.84663,65.571885 436.06876,52.612462 C 436.34949,37.069083 436.35232,51.788567 436.80811,59.087164 C 437.95459,70.29647 437.39419,43.889871 437.83964,43.552945 C 437.69742,50.552787 439.057,66.51899 439.08052,50.66386 C 439.25201,34.809472 439.41731,44.712993 439.58254,54.911069 C 440.03429,71.043349 439.90275,54.585404 440.86996,53.071184 C 441.37265,59.608657 441.55344,77.133727 441.68389,61.13298 C 441.56164,52.523452 442.42618,39.556707 442.55254,55.440829 C 443.20063,69.628386 443.1946,47.699262 443.31986,42.767083 C 443.42907,28.845195 443.64441,51.003418 443.81772,55.649625 C 444.01449,66.198553 444.21373,74.884014 444.44511,59.323686 C 444.49009,46.843995 445.47918,46.310658 445.43427,59.230205 C 445.5952,73.724278 445.74825,70.01535 445.89758,57.695334 C 445.9342,49.262757 446.57628,35.786433 446.59269,51.79309 C 446.55129,65.054135 447.51031,63.43999 447.42957,51.243631 C 447.80839,35.981363 448.12945,49.973343 448.11681,57.591768 C 447.97902,71.830508 448.84771,67.45974 448.81637,55.854895 C 448.76496,43.595389 449.35028,41.998766 449.48988,55.023004 C 449.64093,61.572348 449.72174,80.665807 450.00004,64.488543 C 450.21017,59.382722 450.48633,39.195969 450.56737,43.305668 C 450.98854,54.39666 451.07082,65.495759 451.27341,76.59198 C 451.90518,62.441798 451.77781,48.273216 452.02219,34.113644 C 452.28034,46.506005 452.52921,58.898553 452.77094,71.291245 C 452.99227,62.376404 453.23011,53.462029 453.51971,44.549114 C 454.19098,54.741983 454.00885,64.964948 454.26849,75.172333 C 454.4881,62.767884 454.72406,50.363767 455.01724,37.960812 C 455.22969,49.52604 455.25471,61.096055 455.76602,72.653648 C 456.00346,60.232468 455.90563,47.802327 456.5148,35.391083 C 456.80078,47.253638 456.51474,59.136603 457.26358,70.982643 C 457.64075,62.581085 457.04001,54.023348 458.01233,45.716839 C 458.13713,55.889074 458.26192,66.061308 458.38672,76.233543 C 458.67157,63.647044 458.91168,51.059652 459.13547,38.471935 C 459.43233,49.537517 459.66624,60.604534 459.88425,71.671913 C 460.65511,58.970785 460.3396,46.231089 460.63303,33.513012 C 460.84656,46.351206 461.07356,59.189134 461.38177,72.025459 C 461.61472,60.030366 461.86093,48.03555 462.13055,36.041222 C 462.33239,49.924952 462.51517,63.80904 462.87933,77.68972 C 463.21867,67.225942 462.74823,56.712706 463.62808,46.28194 C 463.88356,56.183471 464.13281,66.085158 464.37686,75.986977 C 464.50165,63.473103 464.62643,50.959228 464.75122,38.445354 C 465.89266,47.493148 464.8172,56.82308 465.87442,65.936317 C 466.12645,61.65065 465.94546,40.040374 466.52538,48.872992 C 466.87503,53.201927 466.85694,74.390037 467.1595,62.027083 C 467.44516,57.509084 467.51751,39.122616 467.88569,43.734867 C 468.41713,55.102663 468.25154,66.492706 468.49509,77.86969 C 468.70075,65.005757 468.90622,52.141821 469.24387,39.280525 C 469.60655,51.429789 469.79056,63.582886 469.99261,75.735596 C 470.2288,63.766132 470.4763,51.796905 470.74139,39.828045 C 470.95608,51.862789 471.18509,63.897233 471.49017,75.930077 C 471.74282,63.740065 471.57823,51.537679 472.23892,39.359768 C 472.46133,49.756325 472.43482,60.160268 472.9877,70.54702 C 473.30285,60.276163 472.91855,49.971442 473.73648,39.724926 C 474.11299,48.90749 473.49796,58.409338 474.48523,67.395233 C 474.61003,57.137437 474.73482,46.879641 474.85962,36.621845 C 475.20041,49.308687 475.40316,61.998328 475.60837,74.68792 C 476.2027,63.354773 476.12376,52.002328 476.35715,40.658836 C 476.67883,52.036194 476.89644,63.415882 477.10593,74.795753 C 477.3211,64.125676 477.55,53.455924 477.85471,42.787968 C 478.11692,47.649682 478.62341,69.464145 478.63698,64.704233 C 478.70592,60.633711 479.40564,35.199716 479.37609,42.71489 C 479.61879,51.364823 479.44659,60.031479 480.10101,68.664818 C 480.30154,58.251374 480.43529,47.836197 480.84976,37.428307 C 480.97456,48.718605 481.09935,60.008904 481.22415,71.299202 C 481.65805,66.262713 481.41029,48.574996 482.38118,51.806414 C 482.49668,62.599382 482.87274,69.686278 483.21816,54.634917 C 483.45748,38.600695 484.22816,54.116599 484.09363,61.25226 C 484.12095,76.837195 484.70593,57.426675 484.75485,51.623985 C 484.84753,36.414912 485.19556,44.714612 485.46898,55.021086 C 485.72065,70.841622 486.00239,52.284578 486.39233,45.925179 C 486.68538,46.146406 486.65196,60.989577 486.99755,66.817314 C 487.37496,79.968868 487.31814,57.508034 487.48454,53.353481 C 487.4881,37.878806 488.26611,57.825076 488.30459,63.390842 C 489.28841,62.700222 488.72585,48.239556 489.08621,42.346424 C 489.07074,46.674506 489.77666,65.121766 490.29,60.419514 C 490.47907,44.430281 490.84819,57.311265 491.75866,59.980857 C 491.97769,46.781699 492.8124,48.69061 492.80747,60.749782 C 493.55627,60.650095 493.31822,36.167163 493.74664,46.586485 C 494.18495,50.740067 494.02038,72.673629 494.702,60.075741 C 494.79353,48.435857 495.36569,45.752568 495.62911,58.683897 C 495.85558,75.887568 496.42706,42.847292 496.81678,55.141827 C 498.01404,64.396096 498.46477,41.975974 499.19458,57.814903 C 500.35604,67.781097 500.3124,44.788979 501.06653,57.279022 C 502.372,39.463969 502.81926,69.282648 503.1296,58.141324 C 503.587,38.508493 503.93845,64.99086 504.62525,55.710786 C 505.20238,50.408872 504.88436,61.829516 505.9335,48.355305 C 505.68945,56.289292 507.0796,69.310436 507.28195,53.85722 C 507.5974,40.023751 508.4828,73.69489 508.65629,57.51238 C 508.79838,47.860384 508.93636,37.749265 509.30298,53.189198 C 509.45808,68.330471 510.4776,60.686222 510.37689,50.144672 C 511.26366,45.142968 511.32192,71.466899 511.62399,64.43867 C 511.28538,53.379117 513.09647,48.971109 512.9274,62.688668 C 513.15489,74.711467 513.34653,48.638208 514.20146,51.159139 C 514.31813,60.52097 514.64388,71.257738 514.97338,56.14664 C 515.08374,48.585003 515.3049,33.32592 515.72964,48.873451 C 515.77853,52.761353 516.24039,73.414587 516.48689,64.422686 C 516.66278,55.782734 516.67063,47.137555 517.16504,38.507511 C 517.4777,46.87627 517.09231,55.289131 517.91382,63.62574 C 518.12245,54.623481 518.17581,45.616263 518.6626,36.622887 C 518.86514,49.774932 519.05282,62.927272 519.41138,76.076233 C 519.61287,66.736803 519.74776,57.395455 520.16016,48.062103 C 520.8871,52.142248 521.04422,74.294252 521.37619,61.616931 C 521.36223,56.100169 521.76105,36.785618 522.19963,52.450106 C 522.27357,65.529332 523.12355,64.094242 523.08099,51.859371 C 523.39182,37.134295 523.82567,47.682152 523.97589,56.672094 C 524.21026,71.453341 524.40173,66.024603 524.58025,54.497868 C 524.75463,49.710516 524.92054,31.443802 525.07832,35.745973 C 525.2628,46.323706 525.47611,56.900796 525.77588,67.47596 C 526.54421,56.935632 526.22855,46.350858 526.52466,35.791168 C 526.86288,45.643269 527.06804,55.498842 527.27344,65.354408 C 528.06788,60.219712 527.67485,39.276898 528.41698,43.743644 C 528.67494,53.732785 528.45464,63.739611 529.14532,73.712753 C 529.37816,62.61556 529.62434,51.518667 529.8941,40.422306 C 530.11794,51.85947 530.35818,63.296273 530.64288,74.732101 C 530.8492,62.651013 531.0569,50.569953 531.39166,38.491592 C 532.03367,48.951064 531.54656,59.483079 532.51477,69.907921 C 532.63957,60.048421 532.76436,50.188922 532.88916,40.329422 C 533.86895,49.682588 532.8707,59.942722 534.01233,68.775169 C 534.13713,60.027809 534.26192,51.280449 534.38672,42.533089 C 535.40051,50.544024 534.89448,58.812765 535.50989,66.91674 C 535.99014,58.319518 536.05002,49.708385 536.25861,41.102173 C 536.53954,49.663452 536.7814,58.225876 537.00739,66.788765 C 537.74235,62.160896 537.47287,38.461376 537.94549,44.515616 C 538.72443,52.520707 537.76091,60.835331 538.87933,68.713264 C 539.08686,58.609684 539.29945,48.506233 539.62811,38.40572 C 539.85141,49.973209 539.82097,61.547485 540.37683,73.106079 C 540.62737,62.237924 540.87698,51.369747 541.12567,40.501549 C 541.3462,52.584585 541.58312,64.667279 541.87445,76.74884 C 542.07434,64.603167 542.21782,52.456245 542.62317,40.315117 C 542.89419,51.082202 543.13984,61.849877 543.37195,72.617867 C 543.8135,61.027106 543.9302,49.42587 544.49512,37.83984 C 544.83809,49.258339 544.34733,60.731018 545.2439,72.113541 C 545.45507,60.042644 545.67605,47.971953 545.99261,35.903275 C 546.37832,45.897002 545.73547,56.63285 546.74139,66.179092 C 547.29053,57.921005 547.26742,49.641762 547.49017,41.371609 C 548.08825,53.218815 548.00506,65.084851 548.23895,76.942123 C 548.6032,63.70794 548.78579,50.470175 548.98773,37.232792 C 549.85557,46.643559 549.40134,56.138469 549.73651,65.583138 C 550.79706,61.345584 549.88345,42.928672 550.91677,47.862364 C 551.09102,56.854095 551.28389,65.845335 551.6084,74.833115 C 551.84629,62.214705 551.74297,49.587198 552.35718,36.978821 C 552.61108,47.254544 552.86048,57.530377 553.10596,67.806305 C 553.50167,59.356078 553.65328,50.898178 553.85474,42.441845 C 554.71177,46.983464 554.01671,65.232897 554.97784,60.236717 C 555.29765,55.49374 554.88864,36.185543 555.72662,41.798016 C 556.05354,47.10612 555.6477,66.161119 556.50681,63.3699 C 556.7007,54.439185 556.91461,45.509015 557.22418,36.581451 C 557.34898,46.209444 557.47377,55.837438 557.59857,65.465431 C 559.04643,57.288208 558.28259,48.913986 558.72168,40.650684 C 559.0517,51.854248 559.26288,63.060525 559.47046,74.266884 C 559.69817,63.505299 559.94144,52.744076 560.21924,41.983658 C 561.19556,47.101488 560.46706,65.753938 561.18495,61.945672 C 561.56952,56.90064 561.84396,37.164906 562.12214,40.77577 C 562.30718,49.191346 562.47358,57.607477 562.8399,66.017647 C 563.0151,61.817666 563.05046,40.332943 563.82369,49.267673 C 564.19258,53.330736 564.23767,75.514001 564.45208,62.710391 C 564.4607,52.382876 565.00471,45.142284 565.72422,59.522671 C 566.62671,58.099857 566.33457,35.227093 566.80634,48.605619 C 567.26071,60.094809 568.00897,63.076009 568.2108,50.003522 C 568.70296,38.470202 569.03695,60.32795 569.14253,64.643398 C 569.45751,72.465914 569.06386,42.575182 570.3965,57.414164 C 570.86761,71.113835 570.98359,49.323366 571.45074,44.824921 C 571.38318,59.198488 573.20742,47.488221 573.69708,57.952229 C 575.20673,58.086006 576.5871,50.393085 576.43313,51.927289 C 576.46441,65.505367 579.26265,49.090511 579.01324,52.707358 C 579.03697,65.052754 579.55379,62.751267 580.26726,55.288678 C 580.6668,50.06561 582.0981,65.783642 581.93353,50.158501 C 582.90315,63.143274 584.2446,46.271173 584.17987,59.913513 C 584.91952,56.803651 584.73107,57.328651 585.78586,54.581067 C 586.86089,67.450049 586.51874,38.732442 587.41853,56.307578 C 589.35923,68.179144 587.97059,51.803598 588.75221,46.535459 C 589.39167,50.963982 588.96342,71.306529 589.84849,64.076222 C 590.02083,55.124035 590.14578,46.170525 590.54437,37.224651 C 590.97525,49.210359 591.09118,61.203253 591.29315,73.194183 C 591.89429,65.13517 591.3345,56.065044 592.41626,48.60273 C 592.84612,52.70746 593.12418,74.626345 593.2774,61.912805 C 593.42741,53.532179 593.63684,45.153059 593.91382,36.775654 C 594.16745,47.331065 594.01213,57.906874 595.03699,68.427795 C 595.4296,59.162153 594.77687,49.566207 595.78571,40.495277 C 596.00689,52.075067 596.24456,63.654499 596.53448,75.232796 C 596.7417,63.435116 596.95103,51.637481 597.28326,39.842514 C 597.59284,48.139886 597.8184,56.439821 598.03204,64.74012 C 598.95513,56.735685 598.42267,48.584953 598.78082,40.523735 C 599.99247,52.694455 599.46956,65.258672 599.90399,77.583084 C 600.10456,65.823238 600.2419,54.061943 600.65277,42.306915 C 601.39796,51.874574 600.89826,61.499843 601.77588,71.053642 C 602.14538,61.594276 601.56799,52.019284 602.52466,42.631619 C 602.976,54.223164 603.07006,65.823295 603.27344,77.420799 C 603.75122,62.62818 603.81537,47.827581 604.02222,33.029736 C 604.55319,46.265688 604.05023,60.967005 605.14532,73.315536 C 605.34663,62.180501 605.51369,51.044656 605.8941,39.913857 C 606.11032,49.293446 606.34144,58.672633 606.64288,68.049927 C 606.99993,57.685735 607.18848,47.317324 607.39166,36.94928 C 607.86054,46.162245 607.93471,55.387326 608.14044,64.608368 C 609.09099,59.787697 608.81589,38.01513 609.31195,42.747917 C 609.79171,53.852634 609.79934,64.969386 610.01239,76.080902 C 610.50388,64.464499 610.55108,52.837076 610.76111,41.213692 C 611.79403,52.698019 611.19335,64.416805 611.88428,75.985024 C 612.09043,64.442854 612.29831,52.900723 612.63306,41.361412 C 613.15839,51.987943 613.16662,62.629073 613.38184,73.264359 C 613.75226,60.784169 613.92933,48.299919 614.13055,35.816177 C 615.01323,47.268802 614.13758,59.806978 615.25372,70.596619 C 615.47589,60.658851 615.44789,50.713277 616.0025,40.785881 C 616.46765,52.267909 616.54577,63.75943 616.75128,75.247826 C 617.22593,63.843541 616.84668,52.358207 617.87445,41.003857 C 618.08697,53.236393 618.11098,65.473488 618.62323,77.698776 C 618.9881,63.158303 619.17021,48.61455 619.37195,34.071148 C 619.88168,47.626822 619.9076,61.19298 620.12073,74.755081 C 620.67277,62.649285 620.32366,50.493139 621.2439,38.415642 C 621.61457,51.888675 621.79134,65.365479 621.99268,78.841805 C 622.21611,65.579811 622.45602,52.318129 622.74139,39.057308 C 623.39539,51.082044 623.23728,63.130542 623.49017,75.167015 C 623.99907,63.167467 624.2461,51.15916 624.61334,39.154865 C 624.85525,50.260228 625.10421,61.365433 625.36212,72.470436 C 625.57868,62.890134 625.81052,53.310235 626.11084,43.73214 C 627.25151,53.701277 626.18493,63.930524 627.23401,73.963783 C 627.49302,63.674443 627.30418,53.368907 627.98279,43.094742 C 628.18487,52.032012 628.28912,60.972313 628.73157,69.902138 C 629.12122,60.742616 629.27975,51.576403 629.48035,42.411407 C 629.99178,47.356716 629.94913,65.101441 630.69797,61.06698 C 631.02098,56.219537 631.18613,37.414691 631.43318,41.617967 C 631.64425,46.578871 632.01761,65.49069 632.16015,62.522998 C 632.56634,57.372164 632.68988,36.985605 633.27809,51.617612 C 633.63834,56.214526 633.83218,75.227202 634.03417,70.719027 C 634.21909,61.81349 634.4396,52.908874 634.72168,44.005852 C 635.48162,49.364476 635.117,67.604278 635.63042,64.041579 C 636.1497,57.301848 636.72127,39.098986 636.31773,41.30914 C 636.92053,50.225927 636.70986,59.178769 636.96802,68.110832 C 637.55143,60.322442 637.62514,52.508457 638.09113,44.713165 C 638.39139,51.233914 639.244,69.034136 638.91462,67.013829 C 639.17445,60.107554 639.87261,45.634656 640.22209,60.618482 C 640.77367,75.001833 641.2326,55.261119 641.3517,49.851394 C 641.7229,40.661058 642.47469,68.657576 642.91214,49.281385 C 643.70252,38.983559 643.74524,60.338008 644.04463,64.390528 C 644.30629,65.058002 644.25582,39.492394 644.83008,55.812176 C 645.41543,42.93887 645.53436,75.280837 646.31623,55.728517 C 648.81159,56.589626 647.19524,51.839537 649.04626,55.215149 C 649.27143,63.398235 650.27768,38.18609 650.70626,56.666367 C 651.14591,50.111624 651.34665,62.255272 651.84554,56.707343 C 652.85765,48.106492 653.18262,60.559676 653.87254,52.670161 C 654.15541,71.034483 655.11005,40.349264 655.21341,57.251967 C 655.75665,61.618265 656.46554,36.792664 656.97869,55.360826 C 657.13964,70.740288 657.85928,58.417351 658.26137,50.298045 C 659.33593,60.267765 659.79364,61.492063 659.96551,48.567942 C 660.31001,33.331361 660.20683,52.541065 660.71583,58.119923 C 661.16363,57.795126 662.67901,42.046117 662.56736,58.400319 C 662.78973,73.099779 662.76142,67.487727 663.43305,56.231447 C 663.9704,43.403261 664.56271,43.500399 664.53355,56.320856 C 664.50978,65.965514 665.31776,73.159051 665.44991,59.182225 C 665.63567,52.717912 665.7338,34.705215 666.09159,50.913208 C 666.34576,55.375141 666.32314,76.118877 667.12103,62.728549 C 667.45666,58.729107 667.52943,38.134827 668.15191,47.318774 C 668.37169,55.376987 668.58083,63.435482 668.79071,71.493958 C 669.0014,59.892935 669.22215,48.292133 669.53943,36.693447 C 669.82419,47.440548 670.3742,58.177782 670.6626,68.924767 C 671.12329,59.258577 670.72402,49.491703 671.78577,39.887932 C 672.04074,50.854197 672.29005,61.820591 672.53455,72.787094 C 673.17839,62.38985 673.06979,51.96496 673.65765,41.564739 C 673.97793,52.546165 674.19635,63.529952 674.40649,74.513931 C 674.92979,63.941418 674.77669,53.341471 675.5296,42.78162 C 675.78081,47.083375 676.28379,70.986185 676.37632,64.592723 C 676.95274,56.582935 677.01917,48.545629 677.40155,40.524921 C 678.03479,51.728147 677.9062,62.954843 678.15027,74.170059 C 678.63288,63.854894 678.35227,53.486679 679.27344,43.204922 C 680.31456,51.448465 679.21698,60.199983 680.39661,68.189774 C 680.51645,63.383304 681.04584,40.945285 681.20346,46.067869 C 681.63064,54.299855 681.68883,62.543699 681.89417,70.782814 C 682.99641,61.408193 681.91667,51.858117 683.01727,42.482697 C 684.02317,52.063493 683.4404,61.804241 684.14044,71.437538 C 684.57152,59.13746 684.68752,46.830371 684.88916,34.525188 C 685.36235,46.769758 685.43207,59.023698 685.638,71.274475 C 686.49391,60.498726 686.26771,49.662872 687.1355,38.883102 C 687.40635,52.145483 687.17592,65.422586 687.88428,78.672119 C 688.09036,65.000302 688.16347,51.325734 688.63306,37.659367 C 689.37036,48.095219 688.99762,58.573056 689.75623,69.007401 C 690.92176,59.596765 689.65958,45.616602 690.87933,38.930294 C 691.08822,49.80202 691.14085,60.677878 691.62811,71.542244 C 692.33536,61.69788 691.93481,51.807403 692.75128,41.972034 C 693.23703,53.386425 693.29248,64.811674 693.5,76.233086 C 694.19018,65.996648 693.55651,55.545193 694.62323,45.424892 C 694.86832,50.337917 695.26973,68.767876 695.4388,66.059769 C 696.14476,57.619708 695.48689,49.0635 696.49512,40.677971 C 696.6986,49.99495 696.89014,59.312261 697.2439,68.625061 C 697.84876,59.592455 697.75463,50.534579 697.99261,41.488709 C 699.19659,52.728724 698.74657,64.074029 699.11584,75.360947 C 700.22749,64.59652 699.04939,53.578412 700.23895,42.893421 C 700.68417,52.511206 700.4532,62.176823 701.36212,71.762787 C 701.59993,59.525391 701.84791,47.288202 702.11084,35.051319 C 702.81912,47.03086 702.41043,59.048964 703.23407,71.02066 C 703.45942,61.915854 703.41793,52.801876 703.98279,43.70874 C 705.00709,51.991163 704.23388,60.429018 705.10596,68.747665 C 705.4108,60.077884 705.63956,51.405885 705.85474,42.73349 C 706.29435,51.835902 706.66534,60.941433 706.97791,70.049072 C 707.40594,59.545906 707.52462,49.034713 707.72668,38.525684 C 707.99047,47.336915 708.42439,56.14114 708.84979,64.945686 C 709.07293,60.877096 709.32225,39.188845 710.16278,50.937766 C 710.55946,55.912513 710.60122,76.952776 710.97355,61.891546 C 711.37233,54.30199 711.07785,46.676989 711.84491,39.110287 C 712.06504,47.695269 712.05091,56.288562 712.59363,64.862099 C 713.47411,56.985463 712.62673,48.887524 713.7168,41.112442 C 713.93334,50.549841 713.93611,59.994057 714.46558,69.421478 C 715.23902,64.020701 714.80695,45.641373 715.42255,49.140585 C 716.32527,45.319465 716.22161,67.478543 716.76788,62.190846 C 716.88869,57.781598 717.01718,36.219306 717.83508,48.260979 C 717.6137,62.661417 719.20826,57.558488 719.46769,51.13343 C 720.01944,61.640414 720.11501,67.506235 720.83008,53.692398 C 722.33622,47.40388 721.39913,72.801603 722.40718,59.515404 C 723.13103,42.635384 724.35457,70.744823 724.35758,57.12971 C 723.55488,47.837403 727.03384,51.375516 726.92173,56.63048 C 727.64635,63.63474 728.10035,42.514388 728.31775,60.018738 C 729.04207,56.520256 728.77784,52.425697 729.08093,49.170631" />
    </g>
  </g>
</svg>
