<?xml version="1.0" encoding="UTF-8" standalone="no"?>
<svg
   xmlns:dc="http://purl.org/dc/elements/1.1/"
   xmlns:cc="http://creativecommons.org/ns#"
   xmlns:rdf="http://www.w3.org/1999/02/22-rdf-syntax-ns#"
   xmlns:svg="http://www.w3.org/2000/svg"
   xmlns="http://www.w3.org/2000/svg"
   xmlns:sodipodi="http://sodipodi.sourceforge.net/DTD/sodipodi-0.dtd"
   xmlns:inkscape="http://www.inkscape.org/namespaces/inkscape"
   width="143.91347mm"
   height="8.0109243mm"
   viewBox="0 0 143.91347 8.010924"
   version="1.1"
   id="svg23973"
   sodipodi:docname="denoising-2.svg"
   inkscape:version="1.0.1 (3bc2e813f5, 2020-09-07)">
  <defs
     id="defs23967" />
  <sodipodi:namedview
     id="base"
     pagecolor="#ffffff"
     bordercolor="#666666"
     borderopacity="1.0"
     inkscape:pageopacity="0.0"
     inkscape:pageshadow="2"
     inkscape:zoom="3.959798"
     inkscape:cx="309.35721"
     inkscape:cy="15.6118"
     inkscape:document-units="mm"
     inkscape:current-layer="layer1"
     inkscape:document-rotation="0"
     showgrid="false"
     inkscape:window-width="1920"
     inkscape:window-height="1001"
     inkscape:window-x="-9"
     inkscape:window-y="1341"
     inkscape:window-maximized="1" />
  <metadata
     id="metadata23970">
    <rdf:RDF>
      <cc:Work
         rdf:about="">
        <dc:format>image/svg+xml</dc:format>
        <dc:type
           rdf:resource="http://purl.org/dc/dcmitype/StillImage" />
      </cc:Work>
    </rdf:RDF>
  </metadata>
  <g
     inkscape:label="Layer 1"
     inkscape:groupmode="layer"
     id="layer1"
     transform="translate(-16.113755,-102.27609)">
    <g
       id="g26830"
       transform="matrix(0.21166666,0,0,0.21166666,5.6332654,21.87258)">
      <path
         d="M 49.91906,400.02887 L 50,400.3627 L 50.373077,399.48468 L 50.746155,397.59763 L 51.119232,398.16251 L 51.49231,400.37347 L 51.865383,400.22736 L 52.238461,397.74387 L 52.611538,397.35974 L 52.984615,400.03146 L 53.357693,401.05368 L 53.73077,398.31601 L 54.103847,396.56223 L 54.476921,399.20395 L 54.850002,401.75562 L 55.223076,399.40961 L 55.596153,396.03491 L 55.969231,397.85419 L 56.342308,402.02155 L 56.715385,400.98007 L 57.088463,396.11786 L 57.46154,396.12701 L 57.834614,401.50989 L 58.207691,402.771 L 58.580769,397.12125 L 58.953846,394.39236 L 59.326923,399.97827 L 59.700001,404.30661 L 60.073074,399.18179 L 60.446156,393.21249 L 60.819233,397.43164 L 61.192307,404.97162 L 61.565384,402.12384 L 61.938461,393.21027 L 62.311539,394.23331 L 62.684616,404.18933 L 63.057693,405.3941 L 63.430767,394.85721 L 63.803844,391.11185 L 64.176926,401.65378 L 64.550003,408.12396 L 64.92308,398.23938 L 65.296158,389.0206 L 65.669228,397.53818 L 66.042305,409.3465 L 66.415382,402.90457 L 66.78846,388.85785 L 67.161537,392.56937 L 67.534615,408.31738 L 67.907692,407.88348 L 68.280769,391.13339 L 68.653847,387.89954 L 69.026924,404.82379 L 69.400002,411.92468 L 69.773079,395.73187 L 70.146149,384.78735 L 70.519234,399.31903 L 70.892311,413.85181 L 71.265381,401.87271 L 71.638466,384.23309 L 72.011536,392.86517 L 72.384613,412.927 L 72.75769,408.28476 L 73.130768,386.65717 L 73.503845,386.86023 L 73.876923,409.07401 L 74.25,413.53421 L 74.623077,391.77908 L 74.996155,382.6777 L 75.369232,402.92523 L 75.74231,416.39163 L 76.115387,398.65106 L 76.488464,381.32797 L 76.861534,395.67734 L 77.234619,416.13541 L 77.607689,405.89587 L 77.980766,383.1965 L 78.353851,388.81201 L 78.726921,412.74011 L 79.099998,412.02917 L 79.473076,387.94836 L 79.846153,383.72357 L 80.219231,406.87866 L 80.592308,415.82303 L 80.965385,394.61459 L 81.338463,381.39645 L 81.71154,399.74902 L 82.084618,416.59772 L 82.457695,401.85245 L 82.830772,382.17508 L 83.203842,392.74927 L 83.57692,414.34421 L 83.950005,408.29709 L 84.323074,385.75372 L 84.696152,387.13083 L 85.069229,409.64502 L 85.442307,412.87372 L 85.815384,391.33105 L 86.188461,383.75082 L 86.561539,403.45258 L 86.934616,414.96313 L 87.307693,397.87036 L 87.680771,382.99069 L 88.053848,396.82874 L 88.426926,414.40393 L 88.799995,404.3295 L 89.17308,384.81805 L 89.546158,390.76614 L 89.919228,411.39374 L 90.292305,409.78262 L 90.665382,388.89526 L 91.03846,386.1163 L 91.411537,406.39392 L 91.784615,413.45514 L 92.157692,394.64548 L 92.530769,383.57269 L 92.903847,400.09488 L 93.276924,414.74606 L 93.650002,401.2616 L 94.023079,383.6228 L 94.396149,393.42108 L 94.769234,413.31152 L 95.142311,407.71191 L 95.515388,386.43002 L 95.888458,387.4874 L 96.261536,409.20691 L 96.634613,412.8378 L 97.00769,391.68796 L 97.380775,383.4407 L 97.753845,403.00882 L 98.126923,415.57269 L 98.5,398.55029 L 98.873077,382.19226 L 99.246155,395.80887 L 99.619225,415.23413 L 99.99231,405.72836 L 100.36539,384.13297 L 100.73846,389.02228 L 101.11154,411.7691 L 101.48461,411.76566 L 101.85769,388.95764 L 102.23077,384.05609 L 102.60385,405.82767 L 102.97693,415.4003 L 103.35,395.70569 L 103.72308,381.94092 L 104.09615,398.62894 L 104.46923,415.89267 L 104.84231,402.97501 L 105.21539,383.0795 L 105.58846,391.67258 L 105.96154,413.20865 L 106.33462,409.25961 L 106.7077,387.13989 L 107.08076,386.36938 L 107.45384,408.01541 L 107.82692,413.32724 L 108.2,393.16315 L 108.57308,383.71896 L 108.94615,401.5061 L 109.31923,414.46664 L 109.69231,399.79391 L 110.06538,384.0986 L 110.43846,395.1171 L 110.81154,412.65167 L 111.18462,405.60138 L 111.55769,387.17963 L 111.93077,390.17654 L 112.30385,408.54648 L 112.67692,409.45041 L 113.05,392.0141 L 113.42308,387.56836 L 113.79616,403.30292 L 114.16924,410.75827 L 114.5423,397.33481 L 114.91538,387.53348 L 115.28846,398.22623 L 115.66154,409.62909 L 116.03461,401.88861 L 116.40769,389.6489 L 116.78077,394.41245 L 117.15385,406.75946 L 117.52692,404.81339 L 117.9,393.01047 L 118.27307,392.44882 L 118.64615,403.17328 L 119.01923,405.82346 L 119.39231,396.57034 L 119.76539,392.31464 L 120.13846,399.85577 L 120.51154,405.21552 L 120.88461,399.47864 L 121.25769,393.49396 L 121.63078,397.46674 L 122.00385,403.65265 L 122.37692,401.29645 L 122.75,395.25473 L 123.12308,396.22 L 123.49615,401.86026 L 123.86922,402.01474 L 124.24231,396.94525 L 124.61539,395.95773 L 124.98846,400.36423 L 125.36154,401.91031 L 125.73461,398.19733 L 126.10769,396.3338 L 126.48077,399.36438 L 126.85385,401.35385 L 127.22693,398.97076 L 127.6,396.98813 L 127.97308,398.76633 L 128.34616,400.6738 L 128.71924,399.45926 L 129.09232,397.6308 L 129.46538,398.31915 L 129.83846,400.12311 L 130.21153,399.92557 L 130.58461,398.03583 L 130.9577,397.78702 L 131.33076,399.91519 L 131.70384,400.54852 L 132.07692,398.00003 L 132.45,397.07657 L 132.82307,400.24017 L 133.19615,401.31528 L 133.56923,397.34805 L 133.94231,396.31171 L 134.31538,401.24344 L 134.68846,401.99673 L 135.06154,395.9884 L 135.43462,395.811 L 135.80769,402.94141 L 136.18077,402.21005 L 136.55385,394.00189 L 136.92693,395.98886 L 137.3,405.13403 L 137.67308,401.55194 L 138.04616,391.71262 L 138.41924,397.19531 L 138.7923,407.38858 L 139.16539,399.76404 L 139.53847,389.63867 L 139.91154,399.5567 L 140.28462,409.12851 L 140.65768,396.87619 L 141.03076,388.37656 L 141.40384,402.88397 L 141.77693,409.79044 L 142.15001,393.23178 L 142.52307,388.40811 L 142.89615,406.6954 L 143.26923,409.00723 L 143.6423,389.41702 L 144.01538,389.96442 L 144.38846,410.34738 L 144.76154,406.70053 L 145.13461,386.08731 L 145.50769,392.96069 L 145.88077,413.21078 L 146.25385,403.10428 L 146.62692,383.80878 L 147,397.04053 L 147.37308,414.81451 L 147.74615,398.66718 L 148.11923,382.94235 L 148.49231,401.70636 L 148.86539,414.90817 L 149.23846,393.90817 L 149.61154,383.64215 L 149.98462,406.41766 L 150.3577,413.42059 L 150.73077,389.37753 L 151.10385,385.87988 L 151.47693,410.64883 L 151.84999,410.48151 L 152.22307,385.55933 L 152.59616,389.46078 L 152.96924,413.9462 L 153.34232,406.33627 L 153.71538,382.87872 L 154.08846,394.07513 L 154.46153,415.92493 L 154.83461,401.36334 L 155.2077,381.67279 L 155.58076,399.28159 L 155.95386,416.3093 L 156.32692,396.06174 L 156.7,382.1348 L 157.07307,404.53442 L 157.44615,415.00311 L 157.81923,391.00601 L 158.19231,384.25323 L 158.56538,409.24753 L 158.93846,412.13406 L 159.31154,386.76651 L 159.68462,387.78491 L 160.05769,412.90094 L 160.43077,408.04907 L 160.80385,383.78784 L 161.17693,392.29822 L 161.55,415.14371 L 161.92308,403.24103 L 162.29614,382.31345 L 162.66924,397.26675 L 163.0423,415.84464 L 163.41539,398.24033 L 163.78847,382.36725 L 164.16153,402.18079 L 164.53462,415.07541 L 164.90768,393.51495 L 165.28078,383.80029 L 165.65384,406.6337 L 166.02692,413.03632 L 166.40001,389.40564 L 166.77307,386.38416 L 167.14616,410.33878 L 167.51923,409.97 L 167.8923,386.15237 L 168.26538,389.87402 L 168.63846,413.0986 L 169.01155,406.1145 L 169.38461,383.92834 L 169.75769,394.03384 L 170.13077,414.74637 L 170.50385,401.71442 L 170.87692,382.89676 L 171.25,398.60266 L 171.62308,415.12442 L 171.99615,397.05933 L 172.36923,383.2038 L 172.74231,403.2486 L 173.11539,414.11215 L 173.48845,392.52777 L 173.86154,384.92596 L 174.23462,407.54877 L 174.6077,411.69675 L 174.98077,388.58374 L 175.35384,387.99127 L 175.72693,411.01523 L 176.09999,408.05203 L 176.47308,385.70804 L 176.84616,392.11795 L 177.21922,413.20352 L 177.59232,403.565 L 177.96538,384.28061 L 178.33847,396.82291 L 178.71153,413.82718 L 179.08461,398.79395 L 179.4577,384.47018 L 179.83076,401.50385 L 180.20386,412.8465 L 180.57692,394.35507 L 180.95,386.18713 L 181.32307,405.56326 L 181.69615,410.47934 L 182.06923,390.79007 L 182.44231,389.09766 L 182.81538,408.54166 L 183.18846,407.15112 L 183.56154,388.46048 L 183.93462,392.71179 L 184.30769,410.19104 L 184.68077,403.37946 L 185.05385,387.49857 L 185.42693,396.5134 L 185.8,410.48016 L 186.17308,399.66794 L 186.54614,387.84943 L 186.91924,400.01965 L 187.2923,409.54694 L 187.66539,396.46927 L 188.03847,389.28757 L 188.41153,402.82822 L 188.78462,407.69354 L 189.15768,394.11514 L 189.53078,391.45505 L 189.90384,404.68594 L 190.27692,405.32648 L 190.65001,392.76352 L 191.02307,393.9093 L 191.39616,405.55481 L 191.76923,402.87918 L 192.1423,392.33231 L 192.51538,396.27859 L 192.88846,405.60306 L 193.26155,400.62869 L 193.63461,392.61813 L 194.00769,398.39478 L 194.38077,405.01193 L 194.75385,398.66196 L 195.12692,393.51086 L 195.5,400.17719 L 195.87308,403.81067 L 196.24615,397.13031 L 196.61923,395.0112 L 196.99231,401.35828 L 197.36539,402.06613 L 197.73845,396.41364 L 198.11154,396.87631 L 198.48462,401.52225 L 198.8577,400.27661 L 199.23077,396.81403 L 199.60384,398.34879 L 199.97693,400.66837 L 200.34999,399.34415 L 200.72308,397.87146 L 201.09616,398.62476 L 201.46922,399.76062 L 201.84232,399.65289 L 202.21538,398.27335 L 202.58847,398.03192 L 202.96153,400.07886 L 203.33461,400.05167 L 203.7077,397.29889 L 204.08076,398.32779 L 204.45386,401.30515 L 204.82692,398.75507 L 205.2,396.49338 L 205.57307,400.52997 L 205.94615,400.97455 L 206.31923,396.24005 L 206.69231,398.39365 L 207.06538,402.37988 L 207.43846,397.65021 L 207.81154,396.08755 L 208.18462,402.29669 L 208.55769,400.19983 L 208.93077,394.54932 L 209.30385,400.43329 L 209.67693,403.1333 L 210.05,394.81256 L 210.42308,396.90891 L 210.79614,405.00928 L 211.16924,397.70685 L 211.5423,393.02902 L 211.91539,404.01572 L 212.28847,402.67889 L 212.66153,391.2677 L 213.03462,399.46365 L 213.40768,407.22931 L 213.78078,393.7283 L 214.15384,393.07388 L 214.52692,408.11255 L 214.90001,400.19119 L 215.27307,388.53168 L 215.64616,403.66342 L 216.01923,407.51587 L 216.3923,389.24911 L 216.76538,395.47952 L 217.13846,411.24661 L 217.51155,395.84125 L 217.88461,387.95276 L 218.25769,408.45102 L 218.63077,405.22235 L 219.00385,385.74844 L 219.37692,399.9238 L 219.75,412.14499 L 220.12308,390.77478 L 220.49615,390.07074 L 220.86923,412.35297 L 221.24231,400.74396 L 221.61539,384.43091 L 221.98845,405.2619 L 222.36154,410.34412 L 222.73462,386.39511 L 223.1077,394.46106 L 223.48077,414.25452 L 223.85384,395.17493 L 224.22693,385.70755 L 224.59999,410.19702 L 224.97308,406.22073 L 225.34616,383.71948 L 225.71922,400.17575 L 226.09232,413.75082 L 226.46538,389.64291 L 226.83847,389.31494 L 227.21153,413.80753 L 227.58461,400.55145 L 227.9577,383.2001 L 228.33076,406.20999 L 228.70386,410.94211 L 229.07692,385.08374 L 229.45,394.6741 L 229.82307,415.4668 L 230.19615,394.21786 L 230.56923,385.01199 L 230.94231,411.60764 L 231.31538,406.13846 L 231.68846,382.29086 L 232.06154,401.05811 L 232.43462,414.74365 L 232.80769,388.19214 L 233.18077,389.08978 L 233.55385,415.39786 L 233.92693,399.92401 L 234.3,381.95407 L 234.67308,407.48926 L 235.04614,411.47635 L 235.41924,383.57034 L 235.7923,394.96744 L 236.16539,416.7251 L 236.53847,393.28082 L 236.91153,384.37134 L 237.28462,412.78476 L 237.65768,406.0643 L 238.03078,381.32013 L 238.40384,401.65768 L 238.77692,415.20694 L 239.15001,387.43921 L 239.52307,389.17374 L 239.89616,415.9313 L 240.26923,399.50287 L 240.6423,381.84357 L 241.01538,407.91525 L 241.38846,411.20554 L 241.76155,383.41891 L 242.13461,395.38339 L 242.50769,416.51318 L 242.88077,393.00101 L 243.25385,384.82376 L 243.62692,412.75476 L 244,405.61313 L 244.37308,381.64334 L 244.74615,401.89511 L 245.11923,414.76517 L 245.49231,387.47983 L 245.86539,389.52335 L 246.23845,415.7171 L 246.61154,399.35812 L 246.98462,382.04465 L 247.3577,407.90302 L 247.73077,411.15363 L 248.10384,383.42575 L 248.47693,395.29572 L 248.84999,416.66867 L 249.22308,393.07559 L 249.59616,384.47958 L 249.96922,412.88403 L 250.34232,406.00818 L 250.71538,381.22461 L 251.08847,401.67386 L 251.46153,415.37912 L 251.83461,387.36731 L 252.2077,388.94736 L 252.58076,416.1452 L 252.95386,399.67081 L 253.32692,381.50522 L 253.7,407.9111 L 254.07307,411.54916 L 254.44615,383.26166 L 254.81923,395.15863 L 255.19231,416.70239 L 255.56538,393.10541 L 255.93846,384.75763 L 256.31152,412.60242 L 256.68463,405.54669 L 257.05768,382.09372 L 257.43076,401.84073 L 257.80386,413.92505 L 258.17691,388.0939 L 258.55002,390.48318 L 258.92307,414.16754 L 259.29614,398.95502 L 259.66922,384.46759 L 260.0423,406.9147 L 260.41541,408.5856 L 260.78845,386.29517 L 261.16153,396.77377 L 261.53461,412.18781 L 261.90768,394.00351 L 262.28076,389.34824 L 262.65384,408.79773 L 263.02692,402.74298 L 263.39999,387.97522 L 263.77307,401.35541 L 264.14615,407.89017 L 264.51923,392.17279 L 264.8923,394.47543 L 265.26538,407.58307 L 265.63846,398.56244 L 266.01154,391.56802 L 266.38461,403.22443 L 266.75769,403.37607 L 267.13077,393.12036 L 267.50385,398.05283 L 267.87692,404.66974 L 268.25,397.01453 L 268.62308,394.94751 L 268.99615,402.90228 L 269.36923,400.41199 L 269.74231,394.97614 L 270.11539,399.92047 L 270.48846,401.69666 L 270.86154,397.17996 L 271.23462,397.49728 L 271.6077,401.12817 L 271.98077,399.56183 L 272.35385,396.56808 L 272.72693,399.96234 L 273.10001,400.54694 L 273.47308,397.17026 L 273.84616,399.10828 L 274.21924,399.96143 L 274.59229,398.64252 L 274.96539,398.64194 L 275.33847,398.86554 L 275.71155,399.992 L 276.08459,398.28516 L 276.45767,398.43454 L 276.83078,400.37863 L 277.20386,398.0289 L 277.57693,399.01852 L 277.94998,399.57019 L 278.32306,398.24005 L 278.69617,399.922 L 279.06924,398.0719 L 279.44232,399.30783 L 279.81537,399.89645 L 280.18845,397.10693 L 280.56155,400.88104 L 280.93463,398.22665 L 281.30768,398.12131 L 281.68076,401.32922 L 282.05383,396.08356 L 282.42694,401.15375 L 282.80002,398.96939 L 283.17307,396.36609 L 283.54614,403.41861 L 283.91922,394.892 L 284.29233,400.53754 L 284.66541,401.20749 L 285.03845,393.67328 L 285.41153,405.16711 L 285.78461,394.97083 L 286.15771,398.62039 L 286.53076,404.10352 L 286.90384,391.20779 L 287.27692,405.9187 L 287.64999,396.33972 L 288.0231,395.87173 L 288.39615,406.8013 L 288.76923,389.83966 L 289.1423,405.45535 L 289.51538,398.25845 L 289.88846,393.4425 L 290.26154,408.69537 L 290.63461,389.20694 L 291.00769,404.67068 L 291.38077,400.06238 L 291.75385,391.35168 L 292.12692,410.29071 L 292.5,388.69855 L 292.87308,403.83835 L 293.24615,402.02271 L 293.61923,388.96039 L 293.99231,412.10257 L 294.36539,388.40381 L 294.73846,402.2594 L 295.11154,404.94815 L 295.48462,385.99847 L 295.8577,413.57776 L 296.23077,389.34592 L 296.60385,399.14847 L 296.9769,408.79337 L 297.35001,383.37036 L 297.72308,413.53049 L 298.09616,392.19931 L 298.46924,394.82419 L 298.84229,412.43344 L 299.21539,382.2944 L 299.58847,411.45166 L 299.96155,396.44232 L 300.33459,390.49542 L 300.70767,414.72983 L 301.08078,383.10968 L 301.45386,407.94662 L 301.82693,400.93451 L 302.19998,387.12692 L 302.57306,415.46884 L 302.94617,385.26404 L 303.31924,403.95908 L 303.69232,404.93787 L 304.06537,384.8566 L 304.43845,415.06778 L 304.81155,388.09003 L 305.18463,399.97244 L 305.55768,408.35837 L 305.93076,383.45734 L 306.30383,413.87027 L 306.67694,391.35425 L 307.05002,396.05215 L 307.42307,411.24451 L 307.79614,382.85718 L 308.16922,411.91876 L 308.54233,395.01385 L 308.91541,392.27753 L 309.28845,413.4776 L 309.66153,383.14886 L 310.03461,409.22696 L 310.40771,398.92847 L 310.78076,388.86432 L 311.15384,414.8894 L 311.52692,384.35687 L 311.89999,405.92386 L 312.2731,402.8739 L 312.64615,386.00729 L 313.01923,415.40689 L 313.3923,386.41895 L 313.76538,402.1817 L 314.13846,406.66064 L 314.51154,383.83295 L 314.88461,414.99512 L 315.25769,389.25177 L 315.63077,398.15353 L 316.00385,410.12173 L 316.37692,382.47757 L 316.75,413.62692 L 317.12308,392.76294 L 317.49615,394.04016 L 317.86923,413.01624 L 318.24231,382.09555 L 318.61539,411.31409 L 318.98846,396.75238 L 319.36154,390.13626 L 319.73462,415.0975 L 320.1077,382.75885 L 320.48077,408.202 L 320.85385,400.93365 L 321.2269,386.74622 L 321.60001,416.20401 L 321.97308,384.42075 L 322.34616,404.52411 L 322.71924,404.98581 L 323.09229,384.11234 L 323.46539,416.25586 L 323.83847,386.95035 L 324.21155,400.54971 L 324.58459,408.63385 L 324.95767,382.4133 L 325.33078,415.27203 L 325.70386,390.16751 L 326.07693,396.54807 L 326.44998,411.62527 L 326.82306,381.75583 L 327.19617,413.30545 L 327.56924,393.858 L 327.94232,392.80136 L 328.31537,413.7457 L 328.68845,382.2236 L 329.06155,410.47479 L 329.43463,397.76248 L 329.80768,389.59961 L 330.18076,414.77655 L 330.55383,383.82153 L 330.92694,406.9852 L 331.30002,401.53375 L 331.67307,387.28204 L 332.04614,414.58524 L 332.41922,386.4368 L 332.79233,403.16553 L 333.16541,404.763 L 333.53845,386.1586 L 333.91153,413.11282 L 334.28461,389.75302 L 334.65771,399.58078 L 335.03076,406.9939 L 335.40384,386.26035 L 335.77692,410.72821 L 336.14999,393.31775 L 336.5231,396.53824 L 336.89615,408.02594 L 337.26923,387.67502 L 337.6423,407.71222 L 338.01538,396.40158 L 338.38846,394.73441 L 338.76154,407.92712 L 339.13461,389.55432 L 339.50769,404.8067 L 339.88077,399.03351 L 340.25385,393.74405 L 340.62692,406.71744 L 341,392.16385 L 341.37308,402.37796 L 341.74615,400.17667 L 342.11923,393.95862 L 342.49231,405.55304 L 342.86539,393.9855 L 343.23846,400.36588 L 343.61154,401.32724 L 343.98462,394.63083 L 344.3577,403.4198 L 344.73077,395.95703 L 345.10385,399.77621 L 345.4769,400.86075 L 345.85001,395.19839 L 346.22308,402.80841 L 346.59616,397.18643 L 346.96924,398.33923 L 347.34229,401.0116 L 347.71539,396.87369 L 348.08847,400.89612 L 348.46155,397.48071 L 348.83459,399.29276 L 349.20767,400.6745 L 349.58078,396.25302 L 349.95386,400.70383 L 350.32693,399.32294 L 350.69998,397.89206 L 351.07306,399.38171 L 351.44617,398.91766 L 351.81924,400.15918 L 352.19232,397.19992 L 352.56537,399.16489 L 352.93845,401.25327 L 353.31155,396.79932 L 353.68463,398.52548 L 354.05768,401.06818 L 354.43076,398.72678 L 354.80383,396.91998 L 355.17694,399.97064 L 355.55002,401.43246 L 355.92307,396.10852 L 356.29614,397.9769 L 356.66922,402.99078 L 357.04233,397.65497 L 357.41541,395.52048 L 357.78845,402.26257 L 358.16153,401.17108 L 358.53461,394.15155 L 358.90771,399.16846 L 359.28076,404.47299 L 359.65384,395.61484 L 360.02692,394.88226 L 360.39999,405.08691 L 360.7731,400.05249 L 361.14615,391.78152 L 361.51923,401.85849 L 361.8923,405.29617 L 362.26538,392.34921 L 362.63846,395.88461 L 363.01154,407.96457 L 363.38461,397.31458 L 363.75769,390.32614 L 364.13077,405.65103 L 364.50385,404.54968 L 364.87692,388.8306 L 365.25,398.75577 L 365.62308,409.91238 L 365.99615,393.19565 L 366.36923,390.71698 L 366.74231,409.6926 L 367.11539,401.76553 L 367.48846,386.28842 L 367.86154,403.13599 L 368.23462,409.95209 L 368.6077,388.6712 L 368.98077,393.3302 L 369.35385,412.80844 L 369.7269,397.26691 L 370.10001,385.7146 L 370.47308,408.07669 L 370.84616,407.67368 L 371.21924,384.93216 L 371.59229,397.81906 L 371.96539,414.04007 L 372.33847,391.97992 L 372.71155,387.49265 L 373.08459,412.44107 L 373.45767,403.37048 L 373.83078,382.94376 L 374.20386,403.32532 L 374.57693,412.94019 L 374.94998,387.00711 L 375.32306,391.4093 L 375.69617,415.28458 L 376.06924,397.81076 L 376.44232,383.17737 L 376.81537,408.81653 L 377.18845,409.63995 L 377.56155,383.29666 L 377.93463,396.80466 L 378.30768,416.04047 L 378.68076,391.94727 L 379.05383,385.65048 L 379.42694,413.36444 L 379.80002,404.65039 L 380.17307,381.45834 L 380.54614,402.83237 L 380.91922,414.58487 L 381.29233,386.68451 L 381.66541,389.99301 L 382.03845,416.27969 L 382.41153,398.69406 L 382.78461,381.78159 L 383.15771,408.63879 L 383.53076,411.09229 L 383.90384,382.75916 L 384.27692,395.64349 L 384.64999,417.13593 L 385.0231,392.54938 L 385.39615,384.28281 L 385.76923,413.4451 L 386.1423,405.94391 L 386.51538,380.75208 L 386.88846,401.92249 L 387.26154,415.6991 L 387.63461,387.02698 L 388.00769,388.77805 L 388.38077,416.51318 L 388.75385,399.72086 L 389.12692,381.1225 L 389.5,407.97925 L 389.87308,411.94821 L 390.24615,383.02505 L 390.61923,394.79337 L 390.99231,417.17059 L 391.36539,393.29504 L 391.73846,384.07242 L 392.11154,412.78729 L 392.48462,406.26981 L 392.8577,381.39038 L 393.23077,401.4296 L 393.60385,415.06503 L 393.9769,387.81152 L 394.35001,389.28854 L 394.72308,415.34943 L 395.09616,399.58481 L 395.46924,382.59274 L 395.84229,407.45459 L 396.21539,410.46591 L 396.58847,384.36938 L 396.96155,395.82202 L 397.33459,415.12064 L 397.70767,393.19391 L 398.08078,386.39569 L 398.45386,411.69299 L 398.82693,404.32397 L 399.19998,383.577 L 399.57306,402.3501 L 399.94617,412.29224 L 400.31924,388.30481 L 400.69232,391.88089 L 401.06537,413.49438 L 401.43845,397.93771 L 401.81155,385.30444 L 402.18463,407.67072 L 402.55768,407.69577 L 402.93076,385.60626 L 403.30383,397.83841 L 403.67694,412.88501 L 404.05002,392.47379 L 404.42307,388.86871 L 404.79614,411.0332 L 405.16922,402.40964 L 405.54233,385.23395 L 405.91541,403.16 L 406.28845,410.32712 L 406.66153,388.72137 L 407.03461,393.40945 L 407.40771,412.16226 L 407.78076,397.38614 L 408.15384,386.92813 L 408.52692,407.08502 L 408.89999,406.49048 L 409.2731,387.06488 L 409.64615,398.06921 L 410.01923,411.14517 L 410.3923,393.42868 L 410.76538,390.15515 L 411.13846,409.10681 L 411.51154,402.21014 L 411.88461,387.53262 L 412.25769,401.95212 L 412.63077,408.47949 L 413.00385,391.19958 L 413.37692,394.00848 L 413.75,409.03336 L 414.12308,398.54187 L 414.49615,389.74557 L 414.86923,404.18216 L 415.24231,405.02206 L 415.61539,391.11185 L 415.98846,397.41727 L 416.36154,407.04346 L 416.73462,396.4079 L 417.1077,393.03156 L 417.48077,404.30112 L 417.85385,401.63132 L 418.2269,393.03592 L 418.60001,399.74261 L 418.97308,403.72485 L 419.34616,395.8949 L 419.71924,396.69754 L 420.09229,402.89124 L 420.46539,398.66864 L 420.83847,395.87366 L 421.21155,401.30542 L 421.58459,400.31656 L 421.95767,395.88751 L 422.33078,399.80063 L 422.70386,401.70712 L 423.07693,396.4603 L 423.44998,397.57593 L 423.82306,402.47772 L 424.19617,398.79367 L 424.56924,395.46478 L 424.94232,400.6756 L 425.31537,401.92444 L 425.68845,396.33957 L 426.06155,396.9899 L 426.43463,402.08551 L 426.80768,400.14447 L 427.18076,395.91135 L 427.55383,398.44424 L 427.92694,401.91895 L 428.30002,399.28882 L 428.67307,396.18076 L 429.04614,398.76035 L 429.41922,401.94043 L 429.79233,399.22495 L 430.16541,395.69287 L 430.53845,398.93677 L 430.91153,402.83408 L 431.28461,398.63733 L 431.65771,394.62326 L 432.03076,400.08044 L 432.40384,403.78821 L 432.77692,396.95993 L 433.14999,394.03815 L 433.5231,402.14728 L 433.89615,403.84702 L 434.26923,394.69986 L 434.6423,394.55823 L 435.01538,404.41608 L 435.38846,402.77106 L 435.76154,392.56076 L 436.13461,396.1351 L 436.50769,406.33307 L 436.88077,400.74658 L 437.25385,390.93036 L 437.62692,398.56992 L 438,407.61169 L 438.37308,397.93304 L 438.74615,390.08551 L 439.11923,401.71954 L 439.49231,407.92618 L 439.86539,394.51749 L 440.23846,390.39719 L 440.61154,405.28741 L 440.98462,406.91336 L 441.3577,390.94992 L 441.73077,392.14471 L 442.10385,408.68811 L 442.4769,404.44632 L 442.85001,387.87854 L 443.22308,395.27341 L 443.59616,411.27872 L 443.96924,400.74774 L 444.34229,385.89258 L 444.71539,399.42105 L 445.08847,412.56534 L 445.46155,396.30045 L 445.83459,385.36768 L 446.20767,404.01633 L 446.58078,412.31085 L 446.95386,391.70276 L 447.32693,386.39291 L 447.69998,408.47217 L 448.07306,410.54468 L 448.44617,387.51807 L 448.81924,388.84506 L 449.19232,412.27429 L 449.56537,407.47675 L 449.93845,384.19449 L 450.31155,392.44653 L 450.68463,415.04117 L 451.05768,403.43326 L 451.43076,382.04752 L 451.80383,396.83624 L 452.17694,416.51917 L 452.55002,398.79315 L 452.92307,381.27353 L 453.29614,401.62738 L 453.66922,416.56573 L 454.04233,393.95471 L 454.41541,381.96542 L 454.78845,406.40659 L 455.16153,415.1373 L 455.53461,389.34164 L 455.90771,384.11148 L 456.28076,410.74823 L 456.65384,412.30826 L 457.02692,385.37891 L 457.39999,387.5722 L 457.7731,414.22879 L 458.14615,408.28738 L 458.51923,382.47131 L 458.8923,392.06464 L 459.26538,416.48657 L 459.63846,403.42627 L 460.01154,380.92035 L 460.38461,397.18118 L 460.75769,417.29123 L 461.13077,398.17493 L 461.50385,380.88223 L 461.87692,402.44391 L 462.25,416.56589 L 462.62308,393.02155 L 462.99615,382.34821 L 463.36923,407.37378 L 463.74231,414.40045 L 464.11539,388.4198 L 464.48846,385.15543 L 464.86154,411.55457 L 465.23462,411.02185 L 465.6077,384.73782 L 465.98077,389.03094 L 466.35385,414.67236 L 466.7269,406.72803 L 467.10001,382.23965 L 467.47308,393.65759 L 467.84616,416.50626 L 468.21924,401.85696 L 468.59229,381.10541 L 468.96539,398.68112 L 469.33847,416.91495 L 469.71155,396.77719 L 470.08459,381.43924 L 470.45767,403.71408 L 470.83078,415.8331 L 471.20386,391.89807 L 471.57693,383.25925 L 471.94998,408.33102 L 472.32306,413.2988 L 472.69617,387.65775 L 473.06924,386.465 L 473.44232,412.07895 L 473.81537,409.48886 L 474.18845,384.51108 L 474.56155,390.78784 L 474.93463,414.52725 L 475.30768,404.76981 L 475.68076,382.84094 L 476.05383,395.76779 L 476.42694,415.36618 L 476.80002,399.67639 L 477.17307,382.85413 L 477.54614,400.81482 L 477.91922,414.5126 L 478.29233,394.83676 L 478.66541,384.50125 L 479.03845,405.29559 L 479.41153,412.1528 L 479.78461,390.84567 L 480.15771,387.46609 L 480.53076,408.6947 L 480.90384,408.71375 L 481.27692,388.11356 L 481.64999,391.23068 L 482.0231,410.72208 L 482.39615,404.77774 L 482.76923,386.7944 L 483.1423,395.19232 L 483.51538,411.35336 L 483.88846,400.92099 L 484.26154,386.80603 L 484.63461,398.83517 L 485.00769,410.76453 L 485.38077,397.57626 L 485.75385,387.89005 L 486.12692,401.82001 L 486.5,409.27231 L 486.87308,394.98416 L 487.24615,389.70401 L 487.61923,404.01511 L 487.99231,407.23187 L 488.36539,393.1741 L 488.73846,391.8703 L 489.11154,405.45636 L 489.48462,405.03659 L 489.8577,392.08401 L 490.23077,394.00281 L 490.60385,406.20639 L 490.9769,403.04901 L 491.35001,391.67929 L 491.72308,395.77948 L 492.09616,406.25061 L 492.46924,401.52252 L 492.84229,392.01501 L 493.21539,397.04831 L 493.58847,405.51807 L 493.96155,400.48984 L 494.33459,393.1441 L 494.70767,397.896 L 495.08078,404.02347 L 495.45386,399.75702 L 495.82693,394.93231 L 496.19998,398.58957 L 496.57306,402.05118 L 496.94617,399.03934 L 497.31924,396.94366 L 497.69232,399.36078 L 498.06537,400.1676 L 498.43845,398.22995 L 498.81155,398.53827 L 499.18463,400.14462 L 499.55768,398.99399 L 499.93076,397.57794 L 500.30383,399.21237 L 500.67694,400.5321 L 501.05002,398.82721 L 501.42307,397.58829 L 501.79614,398.94138 L 502.16922,400.01398 L 502.54233,399.39081 L 502.91541,398.67712 L 503.28845,398.289 L 503.66153,398.36606 L 504.03461,399.90167 L 504.40771,400.78986 L 504.78076,398.14374 L 505.15384,395.95792 L 505.52692,399.49509 L 505.89999,403.26266 L 506.2731,399.22134 L 506.64615,393.68613 L 507.01923,397.71429 L 507.3923,405.06351 L 507.76538,401.64337 L 508.13846,392.59515 L 508.51154,394.79703 L 508.88461,405.26282 L 509.25769,404.84378 L 509.63077,393.39059 L 510.00385,391.5683 L 510.37692,403.45886 L 510.75,407.83316 L 511.12308,396.13367 L 511.49615,389.0715 L 511.86923,399.91962 L 512.24231,409.62244 L 512.61536,400.27017 L 512.98846,388.15332 L 513.36151,395.41956 L 513.73462,409.56915 L 514.10767,404.88818 L 514.48077,389.21439 L 514.85388,390.92804 L 515.22693,407.51743 L 515.60004,409.02283 L 515.97308,392.18994 L 516.34613,387.35297 L 516.71924,403.72552 L 517.09229,411.85974 L 517.46539,396.65271 L 517.83844,385.39371 L 518.21155,398.76477 L 518.58466,412.83737 L 518.9577,401.92297 L 519.33081,385.47659 L 519.7038,393.39319 L 520.0769,411.65771 L 520.45001,407.17813 L 520.82306,387.75134 L 521.19617,388.4762 L 521.56921,408.32965 L 521.94232,411.52887 L 522.31543,392.03897 L 522.68848,384.90927 L 523.06152,403.22028 L 523.43457,414.11462 L 523.80768,397.78745 L 524.18079,383.47049 L 524.55383,397.06384 L 524.92694,414.2865 L 525.29999,404.08698 L 525.6731,384.62973 L 526.0462,390.90897 L 526.41919,411.79727 L 526.7923,409.79877 L 527.16534,388.37927 L 527.53845,385.93054 L 527.91156,406.92828 L 528.28461,413.78125 L 528.65771,394.15939 L 529.03076,383.1629 L 529.40387,400.49979 L 529.77692,415.17474 L 530.14996,400.93503 L 530.52307,383.23083 L 530.89612,393.70178 L 531.26923,413.63434 L 531.64233,407.42764 L 532.01538,386.1781 L 532.38849,387.82596 L 532.76154,409.41476 L 533.13464,412.4101 L 533.50769,391.47235 L 533.88074,383.96973 L 534.25385,403.29471 L 534.62689,414.965 L 535,398.13669 L 535.37311,382.82529 L 535.74615,396.3873 L 536.11926,414.65219 L 536.49231,404.97989 L 536.86536,384.57794 L 537.23846,389.90909 L 537.61151,411.53842 L 537.98462,410.81015 L 538.35767,388.91751 L 538.73077,384.98138 L 539.10388,406.15964 L 539.47693,414.61819 L 539.85004,395.10507 L 540.22308,382.46234 L 540.59613,399.42822 L 540.96924,415.72977 L 541.34229,402.08917 L 541.71539,382.82025 L 542.08844,392.49896 L 542.46155,413.90588 L 542.83466,408.65323 L 543.2077,386.04095 L 543.58081,386.59961 L 543.9538,409.42261 L 544.3269,413.61316 L 544.70001,391.59122 L 545.07306,382.81415 L 545.44617,403.05511 L 545.81921,416.04218 L 546.19232,398.48312 L 546.56543,381.85934 L 546.93848,395.96088 L 547.31152,415.47696 L 547.68457,405.44534 L 548.05768,383.91293 L 548.43079,389.45822 L 548.80383,412.03979 L 549.17694,411.18362 L 549.54999,388.5607 L 549.9231,384.74872 L 550.2962,406.41653 L 550.66919,414.65533 L 551.0423,394.8779 L 551.41534,382.65927 L 551.78845,399.71561 L 552.16156,415.29282 L 552.53461,401.63589 L 552.90771,383.4693 L 553.28076,393.224 L 553.65387,413.10934 L 554.02692,407.55981 L 554.39996,386.88403 L 554.77307,388.13196 L 555.14612,408.66965 L 555.51923,411.60532 L 555.89233,392.09183 L 556.26538,385.28891 L 556.63849,402.97739 L 557.01154,413.16107 L 557.38464,397.97165 L 557.75769,385.03299 L 558.13074,397.20908 L 558.50385,412.17105 L 558.87689,403.34824 L 559.25,387.14703 L 559.62311,392.46771 L 559.99615,409.11444 L 560.36926,407.25748 L 560.74231,390.92651 L 561.11536,389.52737 L 561.48846,404.85779 L 561.86151,409.15659 L 562.23462,395.40152 L 562.60767,388.68097 L 562.98077,400.41721 L 563.35388,409.00452 L 563.72693,399.58185 L 564.10004,389.72409 L 564.47308,396.68814 L 564.84613,407.216 L 565.21924,402.71066 L 565.59229,392.08011 L 565.96539,394.25632 L 566.33844,404.48117 L 566.71155,404.39771 L 567.08466,395.00531 L 567.4577,393.31784 L 567.83081,401.54938 L 568.2038,404.62805 L 568.5769,397.78076 L 568.95001,393.72061 L 569.32306,399.06705 L 569.69617,403.69315 L 570.06921,399.85864 L 570.44232,395.06479 L 570.81543,397.47437 L 571.18848,402.07819 L 571.56152,400.91928 L 571.93457,396.80142 L 572.30768,396.9549 L 572.68079,400.37088 L 573.05383,400.9281 L 573.42694,398.33661 L 573.79999,397.38681 L 574.1731,399.13165 L 574.5462,400.16318 L 574.91919,399.18655 L 575.2923,398.35034 L 575.66534,398.72073 L 576.03845,399.14719 L 576.41156,399.1546 L 576.78461,399.27203 L 577.15771,399.15912 L 577.53076,398.45663 L 577.90387,398.38428 L 578.27692,399.61215 L 578.64996,400.15283 L 579.02307,398.56467 L 579.39612,397.30899 L 579.76923,398.98642 L 580.14233,401.13104 L 580.51538,399.73642 L 580.88849,396.64563 L 581.26154,397.30624 L 581.63464,401.23132 L 582.00769,401.78812 L 582.38074,397.3558 L 582.75385,395.14789 L 583.12689,399.52179 L 583.5,403.6532 L 583.87311,400.11755 L 584.24615,394.07657 L 584.61926,395.87042 L 584.99231,403.4137 L 585.36536,404.23331 L 585.73846,396.03314 L 586.11151,391.97266 L 586.48462,399.59183 L 586.85767,407.06247 L 587.23077,401.49542 L 587.60388,391.06601 L 587.97693,393.13763 L 588.35004,405.39352 L 588.72308,407.91675 L 589.09613,395.55743 L 589.46924,387.98804 L 589.84229,398.37775 L 590.21539,410.5871 L 590.58844,404.22165 L 590.96155,388.69678 L 591.33466,389.4126 L 591.7077,406.14893 L 592.08081,411.90512 L 592.4538,396.52313 L 592.8269,384.51825 L 593.20001,395.953 L 593.57306,412.88855 L 593.94617,407.54059 L 594.31921,387.92987 L 594.69232,385.9212 L 595.06543,405.36121 L 595.43848,414.85965 L 595.81152,398.55817 L 596.18457,382.63446 L 596.55768,393.21622 L 596.93079,413.44635 L 597.30383,410.34808 L 597.67694,388.65317 L 598.04999,383.61768 L 598.4231,403.66379 L 598.7962,416.26312 L 599.16919,400.7695 L 599.5423,382.29541 L 599.91534,390.99072 L 600.28845,412.78732 L 600.66156,412.15555 L 601.03461,390.05927 L 601.40771,382.51535 L 601.78076,401.85953 L 602.15387,416.54645 L 602.52692,402.59827 L 602.89996,382.77689 L 603.27307,389.45297 L 603.64612,411.72012 L 604.01923,413.19312 L 604.39233,391.46869 L 604.76538,382.06717 L 605.13849,400.3609 L 605.51154,416.42789 L 605.88464,403.97659 L 606.25769,383.36984 L 606.63074,388.34094 L 607.00385,410.78311 L 607.37689,413.9577 L 607.75,392.61664 L 608.12311,381.67856 L 608.49615,399.11618 L 608.86926,416.43692 L 609.24231,405.22366 L 609.61536,383.7356 L 609.98846,387.17816 L 610.36151,410.04889 L 610.73462,414.93942 L 611.10767,393.70566 L 611.48077,381.00037 L 611.85388,397.72519 L 612.22693,416.67206 L 612.60004,406.80066 L 612.97308,384.07031 L 613.34613,385.61157 L 613.71924,409.07541 L 614.09229,416.22937 L 614.46539,395.27338 L 614.83844,380.27423 L 615.21155,395.74805 L 615.58466,416.59741 L 615.9577,408.86356 L 616.33081,385.05341 L 616.7038,383.87158 L 617.0769,407.26559 L 617.45001,417.24271 L 617.82306,397.62466 L 618.19617,380.28128 L 618.56921,393.30283 L 618.94232,415.47684 L 619.31543,410.88541 L 619.68848,387.13565 L 620.06152,382.73956 L 620.43457,404.60736 L 620.80768,417.18967 L 621.18079,400.31915 L 621.55383,381.56122 L 621.92694,391.14227 L 622.29999,413.20145 L 622.6731,412.04623 L 623.0462,389.94748 L 623.41919,382.82617 L 623.7923,401.8338 L 624.16534,415.87869 L 624.53845,402.49771 L 624.91156,383.81055 L 625.28461,389.97192 L 625.65771,410.48587 L 626.03076,412.02444 L 626.40387,392.58777 L 626.77692,383.97006 L 627.14996,399.75958 L 627.52307,413.90564 L 627.89612,403.67316 L 628.26923,386.19443 L 628.64233,389.828 L 629.01538,408.14294 L 629.38849,411.20813 L 629.76154,394.49948 L 630.13464,385.52063 L 630.50769,398.5451 L 630.88074,411.93515 L 631.25385,404.06461 L 631.62689,388.24573 L 632,390.24503 L 632.37311,406.31335 L 632.74615,410.10309 L 633.11926,395.87103 L 633.49231,387.12714 L 633.86536,397.78958 L 634.23846,410.04776 L 634.61151,404.1203 L 634.98462,390.17337 L 635.35767,390.90359 L 635.73077,404.58688 L 636.10388,408.78653 L 636.47693,397.16776 L 636.85004,388.96921 L 637.22308,397.11856 L 637.59613,407.88239 L 637.96924,404.02219 L 638.34229,392.40228 L 638.71539,391.83627 L 639.08844,402.60153 L 639.46155,407.06696 L 639.83466,398.5899 L 640.2077,391.29813 L 640.58081,396.52878 L 640.9538,405.24515 L 641.3269,403.62091 L 641.70001,394.95886 L 642.07306,393.22525 L 642.44617,400.52927 L 642.81921,404.86008 L 643.19232,399.83929 L 643.56543,394.00565 L 643.93848,396.31714 L 644.31152,402.44827 L 644.68457,402.74722 L 645.05768,397.41248 L 645.43079,395.0592 L 645.80383,398.80719 L 646.17694,402.34464 L 646.54999,400.5397 L 646.9231,396.80228 L 647.2962,396.78915 L 647.66919,399.85776 L 648.0423,401.13626 L 648.41534,399.27658 L 648.78845,397.54025 L 649.16156,398.12949 L 649.53461,399.52094 L 649.90771,399.77353 L 650.28076,399.22891 L 650.65387,398.88736 L 651.02692,398.6105 L 651.39996,398.29404 L 651.77307,398.80554 L 652.14612,400.12521 L 652.51923,400.29562 L 652.89233,398.31378 L 653.26538,396.67999 L 653.63849,398.30469 L 654.01154,401.52713 L 654.38464,401.55951 L 654.75769,397.5965 L 655.13074,395.00482 L 655.50385,398.03668 L 655.87689,403.01688 L 656.25,402.74384 L 656.62311,396.89722 L 656.99615,393.39404 L 657.36926,397.63821 L 657.74231,404.31882 L 658.11536,404.05301 L 658.48846,396.54544 L 658.86151,391.82666 L 659.23462,396.83112 L 659.60767,405.31317 L 659.98077,405.6304 L 660.35388,396.70746 L 660.72693,390.30176 L 661.10004,395.51642 L 661.47308,405.93417 L 661.84613,407.46735 L 662.21924,397.39984 L 662.59229,388.89923 L 662.96539,393.79391 L 663.33844,406.13501 L 663.71155,409.3642 L 664.08466,398.55078 L 664.4577,387.80725 L 664.83081,391.86462 L 665.2038,405.84872 L 665.5769,411.07178 L 665.95001,400.0553 L 666.32306,387.20847 L 666.69617,389.95279 L 667.06921,405.05002 L 667.44232,412.37 L 667.81543,401.78802 L 668.18848,387.19955 L 668.56152,388.23727 L 668.93457,403.79922 L 669.30768,413.15125 L 669.68079,403.60547 L 670.05383,387.75116 L 670.42694,386.82364 L 670.79999,402.22574 L 671.1731,413.43213 L 671.5462,405.37955 L 671.91919,388.73004 L 672.2923,385.73718 L 672.66534,400.48468 L 673.03845,413.31955 L 673.41156,407.04581 L 673.78461,389.96606 L 674.15771,384.90366 L 674.53076,398.70267 L 674.90387,412.97174 L 675.27692,408.58627 L 675.64996,391.319 L 676.02307,384.24765 L 676.39612,396.93195 L 676.76923,412.49234 L 677.14233,410.04553 L 677.51538,392.7218 L 677.88849,383.68341 L 678.26154,395.17523 L 678.63464,411.93719 L 679.00769,411.44968 L 679.38074,394.17752 L 679.75385,383.20581 L 680.12689,393.40237 L 680.5,411.27264 L 680.87311,412.80591 L 681.24615,395.7327 L 681.61926,382.85904 L 681.99231,391.60461 L 682.36536,410.42963 L 682.73846,414.05676 L 683.11151,397.42062 L 683.48462,382.73538 L 683.85767,389.82214 L 684.23077,409.34268 L 684.60388,415.1069 L 684.97693,399.23276 L 685.35004,382.92587 L 685.72308,388.13348 L 686.09613,407.9863 L 686.46924,415.86212 L 686.84229,401.11337 L 687.21539,383.47415 L 687.58844,386.63376 L 687.96155,406.39566 L 688.33466,416.2561 L 688.7077,402.97784 L 689.08081,384.37375 L 689.4538,385.39371 L 689.8269,404.63922 L 690.20001,416.28082 L 690.57306,404.74908 L 690.94617,385.57211 L 691.31921,384.44595 L 691.69232,402.78867 L 692.06543,415.96011 L 692.43848,406.38315 L 692.81152,387.00897 L 693.18457,383.78824 L 693.55768,400.89651 L 693.93079,415.33624 L 694.30383,407.86707 L 694.67694,388.6413 L 695.04999,383.3949 L 695.4231,398.98492 L 695.7962,414.44281 L 696.16919,409.19611 L 696.5423,390.44388 L 696.91534,383.26062 L 697.28845,397.06552 L 697.66156,413.29227 L 698.03461,410.37247 L 698.40771,392.39813 L 698.78076,383.37903 L 699.15387,395.16296 L 699.52692,411.89407 L 699.89996,411.36197 L 700.27307,394.47668 L 700.64612,383.77161 L 701.01923,393.32953 L 701.39233,410.26996 L 701.76538,412.11594 L 702.13849,396.61432 L 702.51154,384.44815 L 702.88464,391.64072 L 703.25769,408.46545 L 703.63074,412.59213 L 704.00385,398.72385 L 704.37689,385.39279 L 704.75,390.19296 L 705.12311,406.5549 L 705.49615,412.72485 L 705.86926,400.69495 L 706.24231,386.60294 L 706.61536,389.08279 L 706.98846,404.6095 L 707.36151,412.47546 L 707.73462,402.42377 L 708.10767,388.04437 L 708.48077,388.4003 L 708.85388,402.72375 L 709.22693,411.81531 L 709.60004,403.80243 L 709.97308,389.66946 L 710.34613,388.20706 L 710.71924,400.99042 L 711.09229,410.75873 L 711.46539,404.74783 L 711.83844,391.39899 L 712.21155,388.52548 L 712.58466,399.5018 L 712.9577,409.36096 L 713.33081,405.22134 L 713.7038,393.13702 L 714.0769,389.30435 L 714.45001,398.3255 L 714.82306,407.74084 L 715.19617,405.23892 L 715.56921,394.76688 L 715.94232,390.44073 L 716.31543,397.50125 L 716.68848,406.03354 L 717.06152,404.86984 L 717.43457,396.20096 L 717.80768,391.79303 L 718.18079,397.01785 L 718.55383,404.37442 L 718.92694,404.21252 L 719.29999,397.37772 L 719.6731,393.22839 L 720.0462,396.83835 L 720.41919,402.86374 L 720.7923,403.3775 L 721.16534,398.27698 L 721.53845,394.62961 L 721.91156,396.90427 L 722.28461,401.56342 L 722.65771,402.4577 L 723.03076,398.91507 L 723.40387,395.92239 L 723.77692,397.14157 L 724.14996,400.49417 L 724.52307,401.53696 L 724.89612,399.32501 L 725.26923,397.05939 L 725.64233,397.49338 L 726.01538,399.64664 L 726.38849,400.65839 L 726.76154,399.56128 L 727.13464,398.03595 L 727.50769,397.8949 L 727.88074,398.98935 L 728.25385,399.85867 L 728.62689,399.66403 L 729,398.85873 L 729.08093,398.74509"
         style="fill:none;stroke:#1484e6;stroke-width:0.833333;stroke-linecap:butt;stroke-linejoin:round;stroke-miterlimit:10;stroke-dasharray:none;stroke-opacity:1"
         id="path26832" />
    </g>
  </g>
</svg>
