<?xml version="1.0" encoding="UTF-8" standalone="no"?>
<svg
   xmlns:dc="http://purl.org/dc/elements/1.1/"
   xmlns:cc="http://creativecommons.org/ns#"
   xmlns:rdf="http://www.w3.org/1999/02/22-rdf-syntax-ns#"
   xmlns:svg="http://www.w3.org/2000/svg"
   xmlns="http://www.w3.org/2000/svg"
   xmlns:sodipodi="http://sodipodi.sourceforge.net/DTD/sodipodi-0.dtd"
   xmlns:inkscape="http://www.inkscape.org/namespaces/inkscape"
   width="210mm"
   height="297mm"
   viewBox="0 0 210 297"
   version="1.1"
   id="svg1300"
   inkscape:version="1.0.1 (3bc2e813f5, 2020-09-07)"
   sodipodi:docname="fourier-series.svg">
  <defs
     id="defs1294" />
  <sodipodi:namedview
     id="base"
     pagecolor="#ffffff"
     bordercolor="#666666"
     borderopacity="1.0"
     inkscape:pageopacity="0.0"
     inkscape:pageshadow="2"
     inkscape:zoom="1.979899"
     inkscape:cx="611.24488"
     inkscape:cy="450.75825"
     inkscape:document-units="mm"
     inkscape:current-layer="layer1"
     inkscape:document-rotation="0"
     showgrid="false"
     inkscape:window-width="1920"
     inkscape:window-height="1001"
     inkscape:window-x="-9"
     inkscape:window-y="1341"
     inkscape:window-maximized="1" />
  <metadata
     id="metadata1297">
    <rdf:RDF>
      <cc:Work
         rdf:about="">
        <dc:format>image/svg+xml</dc:format>
        <dc:type
           rdf:resource="http://purl.org/dc/dcmitype/StillImage" />
        <dc:title></dc:title>
      </cc:Work>
    </rdf:RDF>
  </metadata>
  <g
     inkscape:label="Layer 1"
     inkscape:groupmode="layer"
     id="layer1">
    <g
       id="g2175"
       transform="matrix(0.21166666,0,0,0.21166666,49.220639,63.961831)">
      <path
         id="path2177"
         style="fill:none;stroke:#f2f2f2;stroke-width:0.833333;stroke-linecap:butt;stroke-linejoin:round;stroke-miterlimit:10;stroke-dasharray:none;stroke-opacity:1"
         d="M 46.5,267.29999 C 128.78525,274.14398 210.97619,285.95476 293.75452,283.09079 C 393.41079,280.58908 492.07961,261.38564 591.95087,263.67303 C 616.83356,264.01506 641.69451,265.34378 666.5,267.29999" />
    </g>
    <g
       id="g2179"
       transform="matrix(0.21166666,0,0,0.21166666,49.220639,63.961831)">
      <path
         id="path2181"
         style="fill:none;stroke:#e6e6e6;stroke-width:0.833333;stroke-linecap:butt;stroke-linejoin:round;stroke-miterlimit:10;stroke-dasharray:none;stroke-opacity:1"
         d="M 46.5,256.45001 C 107.2978,256.36226 160.98259,293.13751 221.69038,293.53571 C 277.40083,294.52265 328.84589,266.86121 384.45593,266.46805 C 435.23721,265.05839 485.16577,281.23118 536.03906,275.4769 C 579.91926,271.72937 622.13242,255.53813 666.5,256.45001" />
    </g>
    <g
       id="g2183"
       transform="matrix(0.21166666,0,0,0.21166666,49.220639,63.961831)">
      <path
         id="path2185"
         style="fill:none;stroke:#d9d9d9;stroke-width:0.833333;stroke-linecap:butt;stroke-linejoin:round;stroke-miterlimit:10;stroke-dasharray:none;stroke-opacity:1"
         d="M 46.5,247.14999 C 79.358308,244.395 106.24595,266.52033 133.47394,281.25839 C 155.37511,294.14629 181.71018,300.25491 206.78056,294.26309 C 236.41087,287.64795 265.37981,276.00125 296.23947,276.82455 C 328.1257,277.49316 360.5005,281.02154 391.91083,273.51147 C 421.54139,266.89013 452.25116,258.90936 482.61221,266.06174 C 513.25214,272.40487 543.931,287.02082 575.79858,279.22018 C 607.46128,272.63116 633.85007,250.02527 666.5,247.14999" />
    </g>
    <g
       id="g2187"
       transform="matrix(0.21166666,0,0,0.21166666,49.220639,63.961831)">
      <path
         id="path2189"
         style="fill:none;stroke:#cccccc;stroke-width:0.833333;stroke-linecap:butt;stroke-linejoin:round;stroke-miterlimit:10;stroke-dasharray:none;stroke-opacity:1"
         d="M 46.5,237.85001 C 69.506271,236.76585 86.055414,255.78163 102.41183,269.10681 C 118.87076,284.01874 140.03789,297.45207 163.29358,293.48434 C 186.78263,289.79402 209.97021,281.51852 234.11522,284.93503 C 257.69253,287.72822 282.12533,289.63156 304.93689,281.52274 C 328.07769,273.78092 352.21707,265.30957 377.00101,269.88156 C 399.91842,273.7209 423.70552,278.57349 446.58014,271.67264 C 468.23517,265.71545 491.27724,256.78951 513.67432,264.84851 C 536.86006,271.76742 557.60896,291.33474 583.25348,286.37415 C 615.0567,279.23267 632.03384,244.70905 664.00072,238.13669 C 664.82794,237.99898 665.66594,237.92825 666.5,237.85001" />
    </g>
    <g
       id="g2191"
       transform="matrix(0.21166666,0,0,0.21166666,49.220639,63.961831)">
      <path
         id="path2193"
         style="fill:none;stroke:#bfbfbf;stroke-width:0.833333;stroke-linecap:butt;stroke-linejoin:round;stroke-miterlimit:10;stroke-dasharray:none;stroke-opacity:1"
         d="M 46.5,225.45 C 62.962807,225.65837 72.158727,242.34728 81.289581,253.69946 C 93.11809,268.72325 103.35868,289.21298 123.53407,293.87753 C 145.22361,296.29352 162.2882,274.846 184.41583,279.92676 C 205.10961,283.82684 223.0004,302.74503 245.29759,295.88641 C 267.46549,289.30217 284.96335,267.41965 309.9068,271.16046 C 329.30539,274.12186 348.25573,286.23727 368.30359,279.24347 C 388.22816,273.10582 407.1922,257.99109 429.18536,264.18274 C 447.85349,268.95981 466.51036,280.73153 486.33966,273.83716 C 503.58045,268.72793 521.29339,255.72668 539.76654,264.01651 C 558.30007,271.15645 570.12551,291.50411 590.70844,293.67859 C 608.79766,292.87822 618.85089,274.80271 628.70452,262.02957 C 638.91783,248.92532 647.26074,231.4612 664.01501,225.83247 C 664.84318,225.69341 665.65321,225.46797 666.5,225.45" />
    </g>
    <g
       id="g2195"
       transform="matrix(0.21166666,0,0,0.21166666,49.220639,63.961831)">
      <path
         id="path2197"
         style="fill:none;stroke:#b3b3b3;stroke-width:0.833333;stroke-linecap:butt;stroke-linejoin:round;stroke-miterlimit:10;stroke-dasharray:none;stroke-opacity:1"
         d="M 46.5,220.8 C 61.91903,224.63835 68.895005,241.29503 77.562126,253.03123 C 87.756209,267.48028 97.102172,287.00652 116.07915,290.90149 C 134.99808,292.44617 151.4565,277.18498 170.7485,281.53003 C 191.05344,285.32118 210.25794,297.09212 231.63026,292.94119 C 269.65506,286.75747 306.57071,267.80785 345.93887,275.02026 C 364.0934,278.54934 383.42514,279.57331 400.60822,271.56857 C 416.02753,264.70858 433.78825,258.39226 450.30762,265.61761 C 465.88805,271.82947 482.89173,282.09529 499.93729,274.35895 C 514.65189,268.83483 529.32935,254.77421 545.97894,262.08368 C 564.53956,270.05113 573.20715,292.60934 593.19342,297.75723 C 608.82748,298.37389 616.82842,281.56857 624.25549,270.44879 C 635.00661,254.01226 641.84554,233.33591 658.91017,222.2357 C 661.24414,221.07813 663.89615,220.49635 666.5,220.8" />
    </g>
    <g
       id="g2199"
       transform="matrix(0.21166666,0,0,0.21166666,49.220639,63.961831)">
      <path
         id="path2201"
         style="fill:none;stroke:#a6a6a6;stroke-width:0.833333;stroke-linecap:butt;stroke-linejoin:round;stroke-miterlimit:10;stroke-dasharray:none;stroke-opacity:1"
         d="M 46.5,216.925 C 61.521045,224.72868 67.226569,242.49671 76.319641,255.77393 C 84.958703,270.09694 96.623764,289.25102 116.07915,287.01974 C 131.6771,284.37575 147.58316,281.73615 163.29358,285.42355 C 186.32628,289.5761 210.15327,284.9797 232.87274,291.58795 C 248.35064,296.02442 264.67325,291.80225 277.6022,282.7254 C 290.50328,273.8892 306.63706,266.28878 322.33167,272.60391 C 336.88812,278.044 352.86514,284.09835 368.30359,278.07059 C 385.79967,271.4871 403.81113,264.2808 422.97296,266.70398 C 445.46904,267.44445 467.92197,269.03844 490.06714,273.17178 C 507.80894,276.87892 523.25773,266.30843 539.76654,262.47528 C 558.8733,259.45008 570.32875,278.22522 582.01105,289.8707 C 588.11349,297.07639 599.4539,304.55847 608.10321,296.77185 C 625.60874,279.57052 631.62296,254.58251 644.13525,234.00731 C 648.95324,226.51498 655.61527,213.90581 666.5,216.925" />
    </g>
    <g
       id="g2203"
       transform="matrix(0.21166666,0,0,0.21166666,49.220639,63.961831)">
      <path
         id="path2205"
         style="fill:none;stroke:#999999;stroke-width:0.833333;stroke-linecap:butt;stroke-linejoin:round;stroke-miterlimit:10;stroke-dasharray:none;stroke-opacity:1"
         d="M 46.5,213.825 C 59.770001,220.21023 64.307433,236.05886 71.349701,247.99345 C 79.225129,261.75975 85.244125,279.77596 101.16933,285.99573 C 115.44155,288.7768 128.99064,277.45899 143.41382,282.71326 C 156.99481,287.06823 171.39396,292.39092 185.65831,287.38715 C 198.75188,282.90995 213.28535,283.4436 225.41783,290.43857 C 236.38007,296.67752 250.63874,299.20799 261.44992,291.21896 C 275.3622,282.27161 289.11836,267.32187 307.42184,271.84106 C 323.20885,275.99556 339.35794,281.31128 355.87875,277.46216 C 377.56003,274.38466 399.42656,272.2001 420.48798,265.87653 C 437.96792,260.59763 454.96146,268.32096 471.42984,273.21939 C 498.31496,281.40842 522.88289,256.67757 549.70642,265.84344 C 568.93102,271.27843 579.67294,290.8521 598.16333,297.31094 C 612.61585,299.60933 620.1548,283.59761 626.07986,273.20492 C 636.79792,254.29026 642.19505,231.71963 657.80261,216.0025 C 660.23433,214.10928 663.42089,212.91913 666.5,213.825" />
    </g>
    <g
       id="g2207"
       transform="matrix(0.21166666,0,0,0.21166666,49.220639,63.961831)">
      <path
         id="path2209"
         style="fill:none;stroke:#8c8c8c;stroke-width:0.833333;stroke-linecap:butt;stroke-linejoin:round;stroke-miterlimit:10;stroke-dasharray:none;stroke-opacity:1"
         d="M 46.5,210.72501 C 58.988072,217.29278 62.55329,232.87526 68.864731,244.53177 C 76.204966,258.55338 80.972858,276.84486 96.199402,284.33502 C 109.13141,287.48633 121.68996,276.39491 134.71643,282.10342 C 146.92671,286.734 160.05696,292.85124 173.23346,287.74503 C 186.02422,282.77633 200.52925,281.71965 212.99298,288.26532 C 226.40927,295.14376 242.42808,297.19377 256.47995,290.91394 C 276.63446,284.30124 295.04047,268.30676 317.36172,271.53284 C 332.54796,274.61232 347.39628,285.2357 363.33368,278.88678 C 377.62472,273.28186 392.23207,266.72006 408.06311,268.95868 C 426.79389,271.16308 445.952,258.90376 463.97498,268.1701 C 475.34568,273.74254 488.63904,281.46304 501.24948,274.55786 C 513.8593,268.2412 527.25822,256.11853 542.25153,263.16382 C 562.71315,272.42742 579.24848,290.55418 601.89081,294.79279 C 618.07872,295.13698 625.24892,277.35244 631.55249,265.23265 C 640.61125,247.75808 645.30713,227.33215 659.0451,212.73441 C 661.0993,211.06514 663.84092,209.94024 666.5,210.72501" />
    </g>
    <g
       id="g2211"
       transform="matrix(0.21166666,0,0,0.21166666,49.220639,63.961831)"
       style="stroke-width:1.88976383;stroke-miterlimit:10;stroke-dasharray:none">
      <path
         id="path2213"
         style="fill:none;stroke:#1484e6;stroke-width:1.88976383;stroke-linecap:butt;stroke-linejoin:round;stroke-miterlimit:10;stroke-dasharray:none;stroke-opacity:1"
         d="M 46.5,207.625 C 58.054524,214.25152 60.795824,229.21995 66.379761,240.42288 C 73.216025,254.84565 77.046471,273.01515 91.229462,282.16962 C 102.7277,286.27024 114.40728,275.53554 126.01904,281.23901 C 137.33187,286.04463 149.51062,292.41475 162.0511,287.62021 C 174.90991,282.73699 188.84384,283.47569 201.81062,287.52045 C 217.79329,290.6528 234.15437,291.39691 250.26753,293.65103 C 271.92579,295.53443 282.63077,269.27446 303.69437,269.78433 C 318.01727,271.77176 330.79656,282.03894 345.93887,278.80496 C 365.5031,275.83836 385.63545,275.61916 404.33566,268.44424 C 423.35645,262.25573 443.30099,268.6052 462.73248,268.35504 C 478.23744,268.93323 493.40016,282.06256 508.70441,273.51273 C 519.63919,268.1464 530.02052,254.34883 543.49402,260.59647 C 559.16732,269.42191 568.82397,288.63414 588.22345,290.70444 C 600.95049,293.33053 616.70592,292.56782 624.25549,280.23956 C 639.63955,258.97419 643.19425,231.36103 659.0451,210.47781 C 660.95244,208.53541 663.65463,206.79642 666.5,207.625" />
    </g>
  </g>
</svg>
