<?xml version="1.0" encoding="UTF-8" standalone="no"?>
<svg
   xmlns:dc="http://purl.org/dc/elements/1.1/"
   xmlns:cc="http://creativecommons.org/ns#"
   xmlns:rdf="http://www.w3.org/1999/02/22-rdf-syntax-ns#"
   xmlns:svg="http://www.w3.org/2000/svg"
   xmlns="http://www.w3.org/2000/svg"
   xmlns:sodipodi="http://sodipodi.sourceforge.net/DTD/sodipodi-0.dtd"
   xmlns:inkscape="http://www.inkscape.org/namespaces/inkscape"
   width="65.801056mm"
   height="25.487007mm"
   viewBox="0 0 65.801056 25.487007"
   version="1.1"
   id="svg8"
   sodipodi:docname="gaussian-ft-1.svg"
   inkscape:version="1.0.1 (3bc2e813f5, 2020-09-07)">
  <defs
     id="defs2" />
  <sodipodi:namedview
     id="base"
     pagecolor="#ffffff"
     bordercolor="#666666"
     borderopacity="1.0"
     inkscape:pageopacity="0.0"
     inkscape:pageshadow="2"
     inkscape:zoom="5.6568542"
     inkscape:cx="127.77654"
     inkscape:cy="41.480347"
     inkscape:document-units="mm"
     inkscape:current-layer="layer1"
     inkscape:document-rotation="0"
     showgrid="false"
     inkscape:window-width="1920"
     inkscape:window-height="1001"
     inkscape:window-x="-9"
     inkscape:window-y="1341"
     inkscape:window-maximized="1"
     inkscape:snap-page="true" />
  <metadata
     id="metadata5">
    <rdf:RDF>
      <cc:Work
         rdf:about="">
        <dc:format>image/svg+xml</dc:format>
        <dc:type
           rdf:resource="http://purl.org/dc/dcmitype/StillImage" />
      </cc:Work>
    </rdf:RDF>
  </metadata>
  <g
     inkscape:label="Layer 1"
     inkscape:groupmode="layer"
     id="layer1"
     transform="translate(-37.284754,-217.25108)">
    <g
       id="g1013"
       transform="matrix(0.21166666,0,0,0.21166666,28.486953,174.60567)">
      <path
         id="path1015"
         style="fill:none;stroke:#555555;stroke-width:1.5;stroke-linecap:butt;stroke-linejoin:bevel;stroke-miterlimit:1;stroke-dasharray:1, 4;stroke-dashoffset:0;stroke-opacity:1"
         d="M 45.988117,298.76999 C 81.761733,298.70536 117.53754,298.90177 153.30977,298.66699 C 159.69749,298.6981 166.86367,297.36534 170.70255,291.68076 C 178.26318,280.72291 180.58196,267.20875 184.13768,254.62402 C 187.22477,243.82246 188.83028,232.32581 194.24007,222.35846 C 195.21821,220.01086 198.41127,219.63569 199.55164,222.06401 C 204.90708,231.39033 206.39728,242.34339 209.34158,252.5632 C 212.99311,265.62969 215.35432,279.57859 222.88086,291.1243 C 226.46384,296.83721 233.40293,298.67325 239.7529,298.63348 C 267.10636,298.93956 294.46594,298.68791 321.82178,298.76999 C 330.55181,298.76999 339.28184,298.76999 348.01187,298.76999" />
    </g>
    <g
       id="g1009"
       transform="matrix(0.21166666,0,0,0.21166666,28.486953,174.60567)"
       style="stroke-width:1.88976;stroke-miterlimit:4;stroke-dasharray:none">
      <path
         id="path1011"
         style="fill:none;stroke:#1484e6;stroke-width:1.88976;stroke-linecap:butt;stroke-linejoin:round;stroke-miterlimit:4;stroke-dasharray:none;stroke-opacity:1"
         d="M 45.988117,298.76321 C 66.210408,298.54932 86.531393,299.28038 106.65131,296.83447 C 121.76515,295.05922 136.24799,289.24252 148.62309,280.42511 C 161.13491,272.10908 172.01557,260.96519 186.22064,255.45813 C 195.35111,251.81614 205.76881,253.51786 214.1324,258.32535 C 229.92611,267.19861 242.66551,280.74863 259.12448,288.56796 C 279.75588,298.89398 303.4048,298.33856 325.88358,298.69592 C 333.25955,298.74869 340.63575,298.75614 348.01187,298.76321" />
    </g>
  </g>
</svg>
