<?xml version="1.0" encoding="UTF-8" standalone="no"?>
<svg
   xmlns:dc="http://purl.org/dc/elements/1.1/"
   xmlns:cc="http://creativecommons.org/ns#"
   xmlns:rdf="http://www.w3.org/1999/02/22-rdf-syntax-ns#"
   xmlns:svg="http://www.w3.org/2000/svg"
   xmlns="http://www.w3.org/2000/svg"
   xmlns:sodipodi="http://sodipodi.sourceforge.net/DTD/sodipodi-0.dtd"
   xmlns:inkscape="http://www.inkscape.org/namespaces/inkscape"
   width="62.888489mm"
   height="14.950442mm"
   viewBox="0 0 62.888489 14.950442"
   version="1.1"
   id="svg15669"
   inkscape:version="1.0.1 (3bc2e813f5, 2020-09-07)"
   sodipodi:docname="limitation-ft-s2.svg">
  <defs
     id="defs15663" />
  <sodipodi:namedview
     id="base"
     pagecolor="#ffffff"
     bordercolor="#666666"
     borderopacity="1.0"
     inkscape:pageopacity="0.0"
     inkscape:pageshadow="2"
     inkscape:zoom="1.979899"
     inkscape:cx="85.382585"
     inkscape:cy="-35.44722"
     inkscape:document-units="mm"
     inkscape:current-layer="layer1"
     inkscape:document-rotation="0"
     showgrid="false"
     inkscape:window-width="1920"
     inkscape:window-height="1001"
     inkscape:window-x="-9"
     inkscape:window-y="1341"
     inkscape:window-maximized="1" />
  <metadata
     id="metadata15666">
    <rdf:RDF>
      <cc:Work
         rdf:about="">
        <dc:format>image/svg+xml</dc:format>
        <dc:type
           rdf:resource="http://purl.org/dc/dcmitype/StillImage" />
        <dc:title></dc:title>
      </cc:Work>
    </rdf:RDF>
  </metadata>
  <g
     inkscape:label="Layer 1"
     inkscape:groupmode="layer"
     id="layer1"
     transform="translate(-121.30584,-162.27264)">
    <g
       id="g16416"
       transform="matrix(0.21166667,0,0,0.21166666,49.561343,106.28937)"
       style="stroke-width:1.88976379;stroke-miterlimit:4;stroke-dasharray:none">
      <path
         id="path16418"
         style="fill:none;stroke:#1484e6;stroke-width:1.88976;stroke-linecap:butt;stroke-linejoin:round;stroke-miterlimit:4;stroke-dasharray:none;stroke-opacity:1"
         d="M 347.5,299.65704 C 353.75037,298.96795 359.83436,302.01762 366.03601,300.78525 C 370.6507,299.85605 375.25101,295.2047 380.03601,298.12567 C 383.96962,300.13245 386.02717,305.58079 390.78799,305.79285 C 395.41299,304.26222 396.76406,298.71611 399.29999,295.05969 C 400.51419,292.9671 402.97353,288.65812 405.79599,291.0672 C 411.11165,297.27883 411.3068,306.4127 416.548,312.65271 C 419.28559,314.48526 420.85484,310.02483 421.70001,308.14703 C 424.88405,300.92589 425.65633,292.56994 430.21201,286.02054 C 432.59418,283.97313 434.31106,288.08883 435.02798,289.82092 C 438.29939,297.16429 439.06571,305.67271 443.70801,312.34723 C 446.11657,314.64716 448.20547,310.55518 449.02798,308.7049 C 452.13908,302.74536 453.10468,295.47005 457.76401,290.44113 C 460.76638,288.748 462.51146,293.21061 463.70001,295.21237 C 465.84624,298.56279 466.86688,303.98134 471.26001,305.02817 C 474.29053,304.60071 477.30908,303.45345 480.052,302.10025 C 483.18121,300.23767 483.99549,295.67463 487.5,294.49112 C 491.56409,296.00736 491.27963,301.95006 494.78,304.20688 C 497.534,304.13677 497.9636,300.21916 499.26001,298.3522 C 499.72418,296.70597 501.94608,293.80511 503.23599,296.49158 C 505.48646,299.91344 505.40186,304.86055 508.5,307.60526 C 511.12221,306.16165 510.9982,302.1506 512.02802,299.56116 C 513.16139,296.45522 513.08819,292.30889 515.612,290.02676 C 518.2184,292.35865 517.98105,296.73957 519.02802,299.95859 C 520.14273,303.76068 520.03026,308.35065 522.5,311.53638 C 524.76567,310.06368 524.46774,306.29103 525.29999,303.85892 C 526.67204,298.30516 526.6486,292.18763 529.276,287.06003 C 531.2114,287.27553 530.99719,290.74221 531.62994,292.26794 C 533.30317,299.41581 533.38045,307.01225 536.052,313.87881 C 537.66265,314.88056 537.80359,311.20116 538.23602,310.21188 C 540.18809,302.12207 540.12979,293.50494 543.052,285.6925 C 544.80509,284.95482 544.7838,288.75592 545.29199,289.8877 C 547.17422,297.83611 547.08158,306.3338 550.052,313.9664 C 551.81796,314.50119 551.75944,310.88624 552.29199,309.71106 C 554.11991,302.24951 554.05914,294.23087 556.99597,287.10275 C 558.74124,286.49181 558.76762,290.00127 559.29199,291.14221 C 561.08953,297.80482 561.01512,305.10678 563.99597,311.36832 C 565.91452,311.68412 565.89185,308.09467 566.51599,306.7991 C 568.15945,301.43241 568.0514,295.26301 571.052,290.45386 C 573.28414,290.79885 573.20014,294.45101 574.02002,296.2149 C 575.3214,299.95911 575.37699,304.5225 578.052,307.57645 C 580.46985,307.04361 580.52224,303.35401 581.52399,301.43387 C 582.67183,299.16183 582.7226,295.08724 585.5,294.28912 C 588.9069,296.53631 588.3902,302.36347 592.21997,304.09784 C 595.69337,303.20573 595.78231,297.06189 599.78003,297.31256 C 602.51715,298.50248 604.47242,303.3819 608.01202,301.2431 C 610.36218,299.42531 613.46899,297.98532 616.29999,299.7305 C 620.02419,301.80704 623.6636,299.51965 627.50836,299.65735" />
    </g>
  </g>
</svg>
