<?xml version="1.0" encoding="UTF-8" standalone="no"?>
<svg
   xmlns:dc="http://purl.org/dc/elements/1.1/"
   xmlns:cc="http://creativecommons.org/ns#"
   xmlns:rdf="http://www.w3.org/1999/02/22-rdf-syntax-ns#"
   xmlns:svg="http://www.w3.org/2000/svg"
   xmlns="http://www.w3.org/2000/svg"
   xmlns:sodipodi="http://sodipodi.sourceforge.net/DTD/sodipodi-0.dtd"
   xmlns:inkscape="http://www.inkscape.org/namespaces/inkscape"
   width="62.888489mm"
   height="14.950442mm"
   viewBox="0 0 62.888489 14.950442"
   version="1.1"
   id="svg13591"
   inkscape:version="1.0.1 (3bc2e813f5, 2020-09-07)"
   sodipodi:docname="limitation-ft-c2.svg">
  <defs
     id="defs13585" />
  <sodipodi:namedview
     id="base"
     pagecolor="#ffffff"
     bordercolor="#666666"
     borderopacity="1.0"
     inkscape:pageopacity="0.0"
     inkscape:pageshadow="2"
     inkscape:zoom="2.8"
     inkscape:cx="111.30452"
     inkscape:cy="-35.608889"
     inkscape:document-units="mm"
     inkscape:current-layer="layer1"
     inkscape:document-rotation="0"
     showgrid="false"
     inkscape:window-width="1920"
     inkscape:window-height="1001"
     inkscape:window-x="-9"
     inkscape:window-y="1341"
     inkscape:window-maximized="1" />
  <metadata
     id="metadata13588">
    <rdf:RDF>
      <cc:Work
         rdf:about="">
        <dc:format>image/svg+xml</dc:format>
        <dc:type
           rdf:resource="http://purl.org/dc/dcmitype/StillImage" />
        <dc:title></dc:title>
      </cc:Work>
    </rdf:RDF>
  </metadata>
  <g
     inkscape:label="Layer 1"
     inkscape:groupmode="layer"
     id="layer1"
     transform="translate(-98.579567,-189.82835)">
    <g
       id="g14338"
       transform="matrix(0.21166667,0,0,0.21166666,26.835429,174.4831)"
       style="stroke-width:1.88976379;stroke-miterlimit:4;stroke-dasharray:none">
      <path
         id="path14340"
         style="fill:none;stroke:#1484e6;stroke-width:1.5;stroke-linecap:butt;stroke-linejoin:round;stroke-miterlimit:4;stroke-dasharray:none;stroke-opacity:1"
         d="M 347.5,107.99957 C 362.67588,108.01283 377.85798,107.98364 393.02802,108.00159 C 398.37872,108.82843 403.79401,106.65764 409.04401,108.43949 C 413.1,109.80132 417.00393,105.01327 420.80402,107.87953 C 422.67891,109.42395 425.63443,110.82667 427.52399,108.45704 C 429.04146,106.85693 431.63341,103.60175 433.73999,106.31808 C 435.67013,107.96669 436.30646,112.16376 439.284,111.97936 C 442.58963,109.6728 442.21225,104.21364 445.724,102.26096 C 448.63336,103.96916 448.66765,108.24982 450.03601,111.10135 C 450.7566,112.39496 451.18661,116.2588 453.284,115.34819 C 456.5545,110.28443 455.98608,103.52621 459.276,98.498428 C 461.39675,98.438654 461.32156,102.09066 462.02002,103.60265 C 463.55639,108.81437 463.60173,114.64377 466.276,119.42057 C 468.30211,119.33092 468.13443,115.75822 468.79599,114.22937 C 470.47298,107.88248 470.39111,100.89685 473.276,94.969521 C 475.21319,95.205578 474.99496,98.667867 475.6296,100.20349 C 477.30229,107.37176 477.38226,114.986 480.052,121.87442 C 481.65723,122.8942 481.80707,119.20983 482.23599,118.22487 C 484.1888,110.13733 484.131,101.5227 487.052,93.711975 C 488.80386,92.969805 488.78455,96.771338 489.29199,97.901474 C 491.1744,105.84547 491.08123,114.33934 494.052,121.96722 C 495.8186,122.49838 495.7589,118.88499 496.29199,117.70863 C 498.11978,110.24676 498.05892,102.22771 500.996,95.099388 C 502.74145,94.489333 502.76744,97.998688 503.29199,99.139915 C 505.08947,105.80326 505.01518,113.10584 507.996,119.36816 C 509.91439,119.68457 509.89191,116.09484 510.51599,114.79951 C 512.15945,109.43283 512.05146,103.26349 515.052,98.454323 C 517.28414,98.799143 517.20018,102.45133 518.02002,104.21516 C 519.32141,107.95928 519.37697,112.52265 522.052,115.57647 C 524.46987,115.04355 524.52223,111.354 525.52399,109.43382 C 526.67182,107.16181 526.7226,103.08711 529.5,102.28909 C 532.90691,104.53625 532.39019,110.36346 536.21997,112.09785 C 539.69338,111.20574 539.78229,105.0619 543.78003,105.31256 C 546.51715,106.50248 548.47241,111.38191 552.01202,109.2431 C 554.36217,107.42531 557.46899,105.98533 560.29999,107.73049 C 564.72534,110.09518 569.41027,106.63672 574.02002,107.88379 C 579.67423,108.58133 585.36683,107.53984 591.04401,108.03882 C 603.1981,107.94641 615.35356,108.02695 627.50836,107.99957" />
    </g>
  </g>
</svg>
