<?xml version="1.0" encoding="UTF-8" standalone="no"?>
<svg
   xmlns:dc="http://purl.org/dc/elements/1.1/"
   xmlns:cc="http://creativecommons.org/ns#"
   xmlns:rdf="http://www.w3.org/1999/02/22-rdf-syntax-ns#"
   xmlns:svg="http://www.w3.org/2000/svg"
   xmlns="http://www.w3.org/2000/svg"
   xmlns:sodipodi="http://sodipodi.sourceforge.net/DTD/sodipodi-0.dtd"
   xmlns:inkscape="http://www.inkscape.org/namespaces/inkscape"
   width="66.063484mm"
   height="14.169496mm"
   viewBox="0 0 66.063484 14.169496"
   version="1.1"
   id="svg10508"
   inkscape:version="1.0.1 (3bc2e813f5, 2020-09-07)"
   sodipodi:docname="limitation-ft-increasing-1.svg">
  <defs
     id="defs10502" />
  <sodipodi:namedview
     id="base"
     pagecolor="#ffffff"
     bordercolor="#666666"
     borderopacity="1.0"
     inkscape:pageopacity="0.0"
     inkscape:pageshadow="2"
     inkscape:zoom="2.8"
     inkscape:cx="72.809155"
     inkscape:cy="79.791253"
     inkscape:document-units="mm"
     inkscape:current-layer="layer1"
     inkscape:document-rotation="0"
     showgrid="false"
     inkscape:snap-page="true"
     inkscape:snap-global="false"
     inkscape:window-width="1920"
     inkscape:window-height="1001"
     inkscape:window-x="-9"
     inkscape:window-y="1341"
     inkscape:window-maximized="1" />
  <metadata
     id="metadata10505">
    <rdf:RDF>
      <cc:Work
         rdf:about="">
        <dc:format>image/svg+xml</dc:format>
        <dc:type
           rdf:resource="http://purl.org/dc/dcmitype/StillImage" />
        <dc:title></dc:title>
      </cc:Work>
    </rdf:RDF>
  </metadata>
  <g
     inkscape:label="Layer 1"
     inkscape:groupmode="layer"
     id="layer1"
     transform="translate(-360.81946,-271.13913)">
    <g
       id="g11255"
       transform="matrix(0.21166666,0,0,0.21166666,352.8871,223.71969)"
       style="stroke-width:1.65354336;stroke-miterlimit:4;stroke-dasharray:none;paint-order:markers fill stroke">
      <path
         id="path11257"
         style="fill:none;stroke:#1484e6;stroke-width:1.5;stroke-linecap:round;stroke-linejoin:round;stroke-miterlimit:4;stroke-dasharray:none;stroke-opacity:1;paint-order:markers fill stroke"
         d="M 46,256.49103 C 57.521371,256.20026 69.510369,254.65273 80.514999,259.05237 C 85.274411,260.93821 91.124108,262.14664 95.500999,258.66394 C 99.095887,256.58644 102.09567,251.67737 106.77,252.69579 C 112.03868,254.77195 113.04229,261.94921 118.275,263.91516 C 122.19117,263.39082 123.18116,258.45307 125.001,255.59003 C 126.30421,253.64605 127.26976,249.46893 130.252,249.972 C 134.91967,254.11235 134.51499,261.5904 138.748,266.06741 C 141.36328,266.76789 141.89455,262.57268 142.75999,260.88742 C 144.58122,256.63069 144.72558,251.24131 148.011,247.83083 C 150.60717,248.43507 150.60834,252.33566 151.55099,254.42833 C 153.12854,258.86702 153.17234,264.25173 156.21201,267.95355 C 158.7713,267.00405 158.59631,263.00747 159.51601,260.71182 C 160.94418,256.00697 160.99444,250.58525 163.76401,246.45184 C 165.96914,246.88576 165.77625,250.52213 166.537,252.29422 C 168.13874,257.80041 168.0343,264.0757 170.96201,269.04944 C 173.24739,268.03757 172.90677,264.17198 173.735,262.01608 C 175.14548,256.60597 175.01513,250.51541 177.74701,245.59819 C 179.87753,246.6223 179.5129,250.31682 180.284,252.38251 C 181.70711,258.06234 181.47239,264.46238 184.237,269.64532 C 186.44135,267.85807 186.06005,263.87622 186.87289,261.20223 C 188.01699,255.94749 187.98497,250.25163 190.25499,245.34004 C 192.20037,245.88575 191.82528,249.53251 192.49701,251.26297 C 193.91236,257.34564 193.63123,264.07067 196.27299,269.74118 C 198.4087,267.85354 197.95527,263.80646 198.75099,261.07181 C 199.89912,255.89044 199.56041,249.98786 202.05499,245.31508 C 204.39161,248.86207 203.99638,253.90888 204.946,258.08069 C 205.78271,261.83601 205.50166,266.23515 207.54199,269.51364 C 209.84936,265.75588 209.46338,260.61161 210.42292,256.27743 C 211.24698,252.87622 210.83498,248.44119 212.97,245.75066 C 215.65235,252.22904 215.20354,259.72812 216.93359,266.54742 C 216.9187,268.84839 218.87802,269.80498 218.98799,266.86902 C 220.65647,260.16801 220.39242,252.97139 222.76401,246.48656 C 224.55825,247.40404 224.13843,250.95596 224.77,252.87895 C 225.86673,257.92486 225.54322,263.58138 227.77901,268.22745 C 229.97697,264.71022 229.55355,259.74986 230.49301,255.65334 C 231.13418,252.87513 230.89986,249.52435 232.558,247.18538 C 234.9514,252.01855 234.54039,258.04278 235.80299,263.33554 C 236.21661,264.23264 236.10483,267.78596 237.51401,267.08078 C 239.82026,261.02259 238.90372,253.87056 241.644,248.0856 C 244.05146,252.71233 243.57369,258.62899 244.948,263.72351 C 244.85932,265.66317 246.65782,267.76765 246.95399,264.63358 C 248.44876,259.56241 247.95458,253.63876 250.37599,249.02438 C 253.06158,253.94161 251.88121,260.51548 254.506,265.49597 C 256.76546,261.99848 256.31837,256.97247 257.51501,252.9021 C 257.45408,250.7795 259.35345,248.59921 259.67617,251.96864 C 260.9624,256.055 260.56567,260.95653 262.76599,264.58197 C 265.31248,260.60938 264.15777,254.82721 266.71899,250.86465 C 269.23746,254.49712 268.12366,260.02093 270.61301,263.70108 C 273.11816,260.39965 271.97308,254.99797 274.50699,251.7173 C 276.85723,254.85405 275.83959,259.8539 278.28299,262.88132 C 280.57162,260.01371 279.61952,255.26332 282,252.50258 C 284.30028,255.04116 283.2459,259.92972 285.776,262.0968 C 287.76256,259.58169 287.04691,255.49203 289.25702,253.21443 C 291.48053,255.23367 290.48627,259.85036 292.974,261.40311 C 294.8568,259.3737 294.15569,255.33498 296.45499,253.89264 C 298.26694,255.76855 297.71674,259.24331 299.759,260.85834 C 301.80269,259.42906 301.04788,255.5045 303.29901,254.44447 C 305.12061,255.79659 304.52843,259.70156 306.78,260.24005 C 308.36153,258.89967 307.98582,255.59181 310.02499,254.95113 C 311.68224,255.95255 311.3363,259.91127 313.50598,259.69931 C 314.85986,258.69785 314.75854,255.16055 316.75101,255.49989 C 318.00395,256.34765 318.35832,260.58296 320.29102,258.96808 C 321.0104,257.55993 322.69881,253.97201 324.008,256.99411 C 324.4591,258.71598 326.46367,260.1336 327.25302,257.75305 C 327.70663,256.24809 329.53166,255.24045 330.26199,257.17096 C 330.82078,258.84738 332.771,259.45612 333.50702,257.53143 C 334.48634,255.25793 336.38031,256.84101 337.224,258.25223 C 338.81963,259.65356 339.55883,256.48027 341.00702,256.49222" />
    </g>
  </g>
</svg>
