<?xml version="1.0" encoding="UTF-8" standalone="no"?>
<svg
   xmlns:dc="http://purl.org/dc/elements/1.1/"
   xmlns:cc="http://creativecommons.org/ns#"
   xmlns:rdf="http://www.w3.org/1999/02/22-rdf-syntax-ns#"
   xmlns:svg="http://www.w3.org/2000/svg"
   xmlns="http://www.w3.org/2000/svg"
   xmlns:sodipodi="http://sodipodi.sourceforge.net/DTD/sodipodi-0.dtd"
   xmlns:inkscape="http://www.inkscape.org/namespaces/inkscape"
   width="62.888489mm"
   height="14.950442mm"
   viewBox="0 0 62.888489 14.950442"
   version="1.1"
   id="svg14630"
   inkscape:version="1.0.1 (3bc2e813f5, 2020-09-07)"
   sodipodi:docname="limitation-ft-s1.svg">
  <defs
     id="defs14624" />
  <sodipodi:namedview
     id="base"
     pagecolor="#ffffff"
     bordercolor="#666666"
     borderopacity="1.0"
     inkscape:pageopacity="0.0"
     inkscape:pageshadow="2"
     inkscape:zoom="1.979899"
     inkscape:cx="18.16019"
     inkscape:cy="75.881574"
     inkscape:document-units="mm"
     inkscape:current-layer="layer1"
     inkscape:document-rotation="0"
     showgrid="false"
     inkscape:window-width="1920"
     inkscape:window-height="1001"
     inkscape:window-x="-9"
     inkscape:window-y="1341"
     inkscape:window-maximized="1" />
  <metadata
     id="metadata14627">
    <rdf:RDF>
      <cc:Work
         rdf:about="">
        <dc:format>image/svg+xml</dc:format>
        <dc:type
           rdf:resource="http://purl.org/dc/dcmitype/StillImage" />
        <dc:title></dc:title>
      </cc:Work>
    </rdf:RDF>
  </metadata>
  <g
     inkscape:label="Layer 1"
     inkscape:groupmode="layer"
     id="layer1"
     transform="translate(-78.168854,-105.16168)">
    <g
       id="g15383"
       transform="matrix(0.21166667,0,0,0.21166666,70.877216,50.546907)"
       style="stroke-width:1.88976379;stroke-miterlimit:4;stroke-dasharray:none">
      <path
         id="path15385"
         style="fill:none;stroke:#1484e6;stroke-width:1.88976379;stroke-linecap:butt;stroke-linejoin:round;stroke-miterlimit:4;stroke-dasharray:none;stroke-opacity:1"
         d="M 43,299.99911 C 59.744019,300.01723 76.497262,299.927 93.232002,300.11636 C 97.063821,299.53768 101.05256,298.65066 104.76801,300.32599 C 108.72469,301.92777 113.01301,298.43309 116.752,301.10239 C 119.38688,303.04344 122.30283,300.85982 123.528,298.38824 C 124.64527,296.73312 126.79002,292.76971 129.01601,295.29813 C 131.61352,298.10467 131.79694,302.9951 135.28799,304.88242 C 138.22999,304.7503 138.62481,299.20015 141.784,300.27097 C 144.39888,302.26606 144.21687,306.93891 147.272,308.21198 C 150.1273,305.20322 149.92473,300.33532 151.024,296.47934 C 152.33108,291.2891 152.26626,285.43187 155,280.77216 C 157.10486,281.46657 156.80034,285.02739 157.52,286.8826 C 159.39065,295.42984 159.54605,304.41622 162.504,312.68466 C 164.09543,314.60203 164.88545,310.48624 165.304,309.4234 C 166.55749,306.37404 166.46448,302.22989 169,300 C 171.56594,302.35584 171.38849,306.64853 172.528,309.83972 C 173.2841,311.73899 173.15239,314.77685 175.048,315.82333 C 177.6588,311.43848 177.27078,305.73678 178.23999,300.77911 C 179.71063,290.94468 179.73973,280.76759 182.552,271.20383 C 184.2163,270.27377 184.16948,274.36811 184.61254,275.4848 C 186.99539,288.56203 186.92081,302.07655 190.28,314.95676 C 191.44549,317.40553 192.58464,313.45217 192.8,312.42758 C 194.21173,308.37019 194.17688,303.5419 196.776,300.04993 C 199.13571,300.94624 198.99757,304.69817 199.95212,306.82306 C 200.80085,308.94026 200.79993,311.95404 202.76799,313.31702 C 205.3289,310.51275 205.00373,305.91708 205.96001,302.33234 C 207.40476,295.25271 207.46737,287.7133 210.272,281.0069 C 212.15138,280.19885 212.23548,284.10118 212.79201,285.31516 C 214.72198,292.68337 214.88983,300.59924 218,307.60526 C 219.87717,309.57504 221.01728,305.36038 221.752,304.15628 C 222.44521,302.4146 224.33608,298.33248 226.51199,300.8772 C 227.90115,302.25341 229.61839,306.44965 231.944,304.13269 C 234.56405,301.28535 234.77853,296.42626 238.272,294.43918 C 242.30624,295.09376 242.53275,301.72568 246.952,301.86169 C 249.75704,301.13738 252.4918,299.11571 255.52,300.37302 C 260.1792,301.97624 264.59999,298.07336 269.29599,299.61423 C 275.14983,300.77756 281.13196,299.66253 287.04797,300.05191 C 299.03289,299.88993 311.0218,300.06354 323.00833,299.99911" />
    </g>
  </g>
</svg>
