<?xml version="1.0" encoding="UTF-8" standalone="no"?>
<svg
   xmlns:dc="http://purl.org/dc/elements/1.1/"
   xmlns:cc="http://creativecommons.org/ns#"
   xmlns:rdf="http://www.w3.org/1999/02/22-rdf-syntax-ns#"
   xmlns:svg="http://www.w3.org/2000/svg"
   xmlns="http://www.w3.org/2000/svg"
   xmlns:sodipodi="http://sodipodi.sourceforge.net/DTD/sodipodi-0.dtd"
   xmlns:inkscape="http://www.inkscape.org/namespaces/inkscape"
   width="54.186668mm"
   height="54.186665mm"
   viewBox="0 0 54.186668 54.186665"
   version="1.1"
   id="svg1480"
   inkscape:version="1.0.1 (3bc2e813f5, 2020-09-07)"
   sodipodi:docname="limitation-ft-cc2.svg">
  <defs
     id="defs1474" />
  <sodipodi:namedview
     id="base"
     pagecolor="#ffffff"
     bordercolor="#666666"
     borderopacity="1.0"
     inkscape:pageopacity="0.0"
     inkscape:pageshadow="2"
     inkscape:zoom="2.8"
     inkscape:cx="103.85337"
     inkscape:cy="89.708703"
     inkscape:document-units="mm"
     inkscape:current-layer="layer1"
     inkscape:document-rotation="0"
     showgrid="false"
     inkscape:window-width="1920"
     inkscape:window-height="1001"
     inkscape:window-x="-9"
     inkscape:window-y="-9"
     inkscape:window-maximized="1" />
  <metadata
     id="metadata1477">
    <rdf:RDF>
      <cc:Work
         rdf:about="">
        <dc:format>image/svg+xml</dc:format>
        <dc:type
           rdf:resource="http://purl.org/dc/dcmitype/StillImage" />
        <dc:title />
      </cc:Work>
    </rdf:RDF>
  </metadata>
  <g
     inkscape:label="Layer 1"
     inkscape:groupmode="layer"
     id="layer1"
     transform="translate(61.320686,-147.317)">
    <path
       id="path2846"
       style="fill:none;stroke:#1484e6;stroke-width:0.5;stroke-linecap:butt;stroke-linejoin:round;stroke-miterlimit:10;stroke-dasharray:none;stroke-opacity:1"
       d="M -34.237403,174.41033 C -34.673047,174.13899 -33.947771,173.6403 -33.577843,173.76851 C -32.107298,173.99652 -31.669408,175.85912 -32.020508,177.09553 C -32.866557,180.15443 -36.465887,181.51586 -39.376299,180.95467 C -44.16482,180.15843 -47.571662,175.594 -48.051777,170.92726 C -48.857095,164.56473 -45.015582,158.23091 -39.456132,155.27875 C -32.888426,151.59918 -24.318159,152.46722 -18.34207,156.92486 C -11.824407,161.58442 -8.424333,170.07537 -9.7916722,177.95266 C -10.983552,185.77645 -16.833873,192.71891 -24.448573,194.99073 C -31.300141,197.19307 -39.440968,195.29032 -44.19959,189.77545 C -48.104446,185.45146 -49.46987,178.68865 -46.658323,173.43781 C -44.792272,169.74287 -40.497982,167.01471 -36.301424,167.98333 C -33.884512,168.47942 -31.533632,170.68131 -31.963123,173.31713 C -32.082276,174.28315 -33.142724,175.4944 -34.176849,174.9406 C -34.598199,174.75432 -34.31069,173.95906 -33.955482,174.41852 C -33.679316,175.25578 -35.006619,175.38123 -35.306794,174.73831 C -36.130755,173.4388 -34.599207,171.93718 -33.251494,172.19695 C -30.912177,172.42415 -29.879171,175.33067 -30.847299,177.26946 C -32.10923,180.22772 -36.079976,181.07359 -38.749844,179.56308 C -42.416588,177.71278 -43.726102,172.87165 -42.186361,169.20229 C -40.428257,164.56488 -35.130397,161.93652 -30.333285,162.71226 C -24.526921,163.46463 -19.852947,168.5197 -18.988204,174.22254 C -17.819311,180.7275 -21.291182,187.56671 -26.939202,190.86349 C -33.117864,194.67941 -41.447981,194.18602 -47.3378,190.03437 C -53.583963,185.82982 -56.99995,178.01996 -56.157885,170.57688 C -55.392509,162.35996 -49.608677,154.95764 -41.931544,152.0135 C -34.044117,148.80865 -24.515756,150.42742 -18.060202,155.95419 C -11.410719,161.41973 -8.1680131,170.62358 -9.8847335,179.05335 C -11.425824,187.43184 -17.767088,194.70966 -25.886365,197.31875 C -33.830235,200.04273 -43.183865,198.07048 -49.250412,192.23266 C -55.143413,186.79065 -57.724834,178.0009 -55.464672,170.27166 C -53.484694,162.95286 -47.148219,156.94863 -39.618869,155.71425 C -32.782584,154.43466 -25.256585,157.38879 -21.454631,163.28722 C -17.923734,168.46468 -17.790856,175.86033 -21.623486,180.91887 C -24.797442,185.37723 -31.008489,187.59818 -36.18502,185.53676 C -40.497629,183.99396 -43.618279,179.25386 -42.63462,174.65962 C -42.031632,171.11057 -38.549294,168.07978 -34.868246,168.67084 C -32.21794,168.95593 -29.886815,171.62634 -30.612675,174.33073 C -30.978128,176.15101 -33.366524,177.506 -34.923601,176.1916 C -35.881092,175.58103 -35.651137,173.59291 -34.347125,173.76423 C -33.826149,173.73595 -33.728321,174.81006 -34.280346,174.55146 C -34.328786,174.42913 -34.241535,174.38441 -34.225283,174.41033" />
  </g>
</svg>
