<?xml version="1.0" encoding="UTF-8" standalone="no"?>
<svg
   xmlns:dc="http://purl.org/dc/elements/1.1/"
   xmlns:cc="http://creativecommons.org/ns#"
   xmlns:rdf="http://www.w3.org/1999/02/22-rdf-syntax-ns#"
   xmlns:svg="http://www.w3.org/2000/svg"
   xmlns="http://www.w3.org/2000/svg"
   xmlns:sodipodi="http://sodipodi.sourceforge.net/DTD/sodipodi-0.dtd"
   xmlns:inkscape="http://www.inkscape.org/namespaces/inkscape"
   width="62.888489mm"
   height="14.950442mm"
   viewBox="0 0 62.888488 14.950442"
   version="1.1"
   id="svg8"
   sodipodi:docname="limitation-ft-r2.svg"
   inkscape:version="1.0.1 (3bc2e813f5, 2020-09-07)">
  <defs
     id="defs2" />
  <sodipodi:namedview
     id="base"
     pagecolor="#ffffff"
     bordercolor="#666666"
     borderopacity="1.0"
     inkscape:pageopacity="0.0"
     inkscape:pageshadow="2"
     inkscape:zoom="3.959798"
     inkscape:cx="104.54218"
     inkscape:cy="74.155129"
     inkscape:document-units="mm"
     inkscape:current-layer="layer1"
     inkscape:document-rotation="0"
     showgrid="false"
     inkscape:snap-bbox="true"
     inkscape:bbox-paths="false"
     inkscape:bbox-nodes="false"
     inkscape:snap-bbox-edge-midpoints="false"
     inkscape:snap-bbox-midpoints="false"
     inkscape:window-width="1920"
     inkscape:window-height="1001"
     inkscape:window-x="-9"
     inkscape:window-y="-9"
     inkscape:window-maximized="1" />
  <metadata
     id="metadata5">
    <rdf:RDF>
      <cc:Work
         rdf:about="">
        <dc:format>image/svg+xml</dc:format>
        <dc:type
           rdf:resource="http://purl.org/dc/dcmitype/StillImage" />
        <dc:title />
      </cc:Work>
    </rdf:RDF>
  </metadata>
  <g
     inkscape:label="Layer 1"
     inkscape:groupmode="layer"
     id="layer1"
     transform="translate(374.23523,-228.72032)">
    <path
       id="path1202"
       style="fill:none;stroke:#1484e6;stroke-width:0.325;stroke-linecap:butt;stroke-linejoin:round;stroke-miterlimit:10;stroke-dasharray:none;stroke-opacity:1"
       d="M -372.42552,236.4442 C -368.54705,236.43058 -364.66614,236.47543 -360.78927,236.44156 C -359.73462,236.44108 -358.49482,235.4894 -357.60855,236.45361 C -356.82336,237.19608 -356.60795,238.43092 -355.69222,239.02818 C -354.89737,238.97467 -354.81176,237.86387 -354.54637,237.27203 C -353.96274,235.53137 -353.81729,233.61785 -352.93214,231.99486 C -352.4537,231.46889 -352.12043,232.48924 -351.99786,232.84344 C -351.28614,234.80131 -351.16623,236.9871 -350.12612,238.81225 C -349.58574,239.47182 -349.02212,238.43569 -348.77763,238.00795 C -348.25665,237.13479 -347.62563,235.72972 -346.3674,236.05108 C -344.63558,236.64501 -342.78478,236.47577 -340.99378,236.38962 C -340.3506,236.49875 -339.55103,237.01442 -339.07744,236.26003 C -338.85653,235.91353 -338.30093,235.46389 -338.05013,236.04793 C -337.62811,236.65994 -337.63415,237.58494 -337.04258,238.04708 C -336.42868,237.38698 -336.49839,236.31062 -336.24903,235.46721 C -336.06094,234.84838 -336.11567,234.00155 -335.63993,233.56133 C -335.05752,234.84218 -335.11598,236.34963 -334.86945,237.73196 C -334.69054,238.66592 -334.74298,239.72131 -334.29652,240.56106 C -333.79095,239.55228 -333.88277,238.28048 -333.69176,237.16061 C -333.44824,235.38853 -333.48127,233.5411 -332.95312,231.83002 C -332.51864,232.31427 -332.61995,233.25759 -332.47009,233.92857 C -332.16208,236.10509 -332.18431,238.35691 -331.60985,240.47854 C -331.21295,240.51351 -331.26325,239.46388 -331.13845,239.07408 C -330.82797,237.26941 -330.81551,235.39526 -330.2663,233.64287 C -329.79538,233.48826 -329.83431,234.6088 -329.67937,234.9545 C -329.41561,235.96905 -329.4137,237.1059 -328.86362,238.01455 C -328.34319,237.97953 -328.33103,237.11977 -328.09314,236.73823 C -327.95144,236.33356 -327.60023,235.37756 -327.06582,235.92025 C -326.68582,236.4447 -326.05716,236.94733 -325.40633,236.52418 C -324.3846,236.19376 -323.29783,236.58553 -322.24538,236.44188 C -319.21556,236.44315 -316.1857,236.44224 -313.15586,236.44231" />
  </g>
</svg>
