<?xml version="1.0" encoding="UTF-8" standalone="no"?>
<svg
   xmlns:dc="http://purl.org/dc/elements/1.1/"
   xmlns:cc="http://creativecommons.org/ns#"
   xmlns:rdf="http://www.w3.org/1999/02/22-rdf-syntax-ns#"
   xmlns:svg="http://www.w3.org/2000/svg"
   xmlns="http://www.w3.org/2000/svg"
   xmlns:sodipodi="http://sodipodi.sourceforge.net/DTD/sodipodi-0.dtd"
   xmlns:inkscape="http://www.inkscape.org/namespaces/inkscape"
   width="54.186668mm"
   height="54.186665mm"
   viewBox="0 0 54.186668 54.186665"
   version="1.1"
   id="svg1480"
   inkscape:version="1.0.1 (3bc2e813f5, 2020-09-07)"
   sodipodi:docname="limitation-ft-cc1.svg">
  <defs
     id="defs1474" />
  <sodipodi:namedview
     id="base"
     pagecolor="#ffffff"
     bordercolor="#666666"
     borderopacity="1.0"
     inkscape:pageopacity="0.0"
     inkscape:pageshadow="2"
     inkscape:zoom="2.8"
     inkscape:cx="140.17416"
     inkscape:cy="78.876842"
     inkscape:document-units="mm"
     inkscape:current-layer="layer1"
     inkscape:document-rotation="0"
     showgrid="false"
     inkscape:window-width="1920"
     inkscape:window-height="1001"
     inkscape:window-x="-9"
     inkscape:window-y="-9"
     inkscape:window-maximized="1" />
  <metadata
     id="metadata1477">
    <rdf:RDF>
      <cc:Work
         rdf:about="">
        <dc:format>image/svg+xml</dc:format>
        <dc:type
           rdf:resource="http://purl.org/dc/dcmitype/StillImage" />
        <dc:title />
      </cc:Work>
    </rdf:RDF>
  </metadata>
  <g
     inkscape:label="Layer 1"
     inkscape:groupmode="layer"
     id="layer1"
     transform="translate(103.94048,-151.47435)">
    <path
       id="path2301"
       style="fill:none;stroke:#1484e6;stroke-width:0.5;stroke-linecap:butt;stroke-linejoin:round;stroke-miterlimit:10;stroke-dasharray:none;stroke-opacity:1"
       d="M -76.847161,178.56768 C -77.099331,178.40361 -76.517798,178.16195 -76.368818,178.46074 C -75.724346,179.42165 -77.047885,180.35835 -77.952231,180.0886 C -79.993608,179.6852 -80.581738,177.02855 -79.653527,175.38453 C -78.239522,172.53403 -74.345465,171.8394 -71.66698,173.23177 C -67.918384,174.9847 -66.174771,179.55087 -67.006767,183.47576 C -68.004539,188.86604 -73.037511,192.85935 -78.375088,193.37932 C -84.763586,194.16856 -91.18591,190.46724 -94.238802,184.90134 C -97.91375,178.5235 -97.206881,170.1288 -92.935653,164.2116 C -88.465661,157.74941 -80.258578,154.29123 -72.504128,155.29035 C -64.196031,156.20346 -56.728971,162.05122 -53.724908,169.83178 C -50.543543,177.61983 -51.98954,187.04943 -57.379754,193.51308 C -62.536496,199.93806 -71.314226,203.23858 -79.413141,201.59297 C -87.018547,200.20698 -93.705753,194.41342 -95.830218,186.93257 C -97.810201,180.41461 -96.060166,172.79504 -91.016075,168.11601 C -86.626617,163.85474 -79.604827,162.30857 -74.000912,164.99021 C -69.496198,167.00535 -66.250328,171.91724 -66.888033,176.92032 C -67.262535,180.78717 -70.42532,184.47538 -74.46099,184.59463 C -77.123312,184.78541 -80.073239,182.79669 -80.079877,179.95905 C -80.206966,178.35125 -78.612555,176.49504 -76.935697,177.16142 C -76.201479,177.32824 -75.820576,178.74442 -76.745056,178.82575 C -77.268158,178.69039 -76.738773,178.02899 -76.414106,178.41179 C -75.711618,179.2245 -76.824752,180.2603 -77.698009,180.11529 C -79.717463,179.97935 -80.57386,177.44256 -79.822361,175.77387 C -78.713943,172.85691 -74.957789,171.848 -72.233154,172.99027 C -68.421641,174.40568 -66.361239,178.7428 -66.880544,182.64875 C -67.447815,187.99126 -72.056975,192.27193 -77.228447,193.20066 C -83.489321,194.48878 -90.137284,191.29911 -93.557909,186.00584 C -97.70713,179.89272 -97.537392,171.41422 -93.611587,165.23707 C -89.496148,158.45211 -81.368419,154.52833 -73.502691,155.19608 C -65.127817,155.73726 -57.388712,161.30789 -54.075534,168.99645 C -50.577289,176.69824 -51.697266,186.23496 -56.900353,192.90762 C -61.851022,199.50996 -70.530643,203.10072 -78.692349,201.7205 C -86.363225,200.58218 -93.256961,194.99266 -95.634094,187.56335 C -97.853912,181.04355 -96.308434,173.27613 -91.32799,168.41858 C -87.022668,164.01818 -79.994065,162.29342 -74.293103,164.85638 C -69.748399,166.7673 -66.379813,171.57243 -66.852939,176.58797 C -67.102087,180.50402 -70.173955,184.33069 -74.243723,184.58405 C -76.928704,184.86513 -79.969181,182.95337 -80.079709,180.08886 C -80.261722,178.46049 -78.707868,176.52008 -76.981902,177.14273 C -76.278504,177.30692 -75.806797,178.54989 -76.640935,178.81707 C -76.834904,178.90023 -77.053608,178.53322 -76.847136,178.56768" />
  </g>
</svg>
