<?xml version="1.0" encoding="UTF-8" standalone="no"?>
<svg
   xmlns:dc="http://purl.org/dc/elements/1.1/"
   xmlns:cc="http://creativecommons.org/ns#"
   xmlns:rdf="http://www.w3.org/1999/02/22-rdf-syntax-ns#"
   xmlns:svg="http://www.w3.org/2000/svg"
   xmlns="http://www.w3.org/2000/svg"
   xmlns:sodipodi="http://sodipodi.sourceforge.net/DTD/sodipodi-0.dtd"
   xmlns:inkscape="http://www.inkscape.org/namespaces/inkscape"
   width="62.888546mm"
   height="14.950441mm"
   viewBox="0 0 62.888546 14.950441"
   version="1.1"
   id="svg2061"
   inkscape:version="1.0.1 (3bc2e813f5, 2020-09-07)"
   sodipodi:docname="limitation-ft-2.svg">
  <defs
     id="defs2055" />
  <sodipodi:namedview
     id="base"
     pagecolor="#ffffff"
     bordercolor="#666666"
     borderopacity="1.0"
     inkscape:pageopacity="0.0"
     inkscape:pageshadow="2"
     inkscape:zoom="1.4"
     inkscape:cx="227.44803"
     inkscape:cy="162.24314"
     inkscape:document-units="mm"
     inkscape:current-layer="layer1"
     inkscape:document-rotation="0"
     showgrid="false"
     inkscape:window-width="1920"
     inkscape:window-height="1001"
     inkscape:window-x="-9"
     inkscape:window-y="1341"
     inkscape:window-maximized="1" />
  <metadata
     id="metadata2058">
    <rdf:RDF>
      <cc:Work
         rdf:about="">
        <dc:format>image/svg+xml</dc:format>
        <dc:type
           rdf:resource="http://purl.org/dc/dcmitype/StillImage" />
        <dc:title></dc:title>
      </cc:Work>
    </rdf:RDF>
  </metadata>
  <g
     inkscape:label="Layer 1"
     inkscape:groupmode="layer"
     id="layer1"
     transform="translate(-26.008108,-148.25098)">
    <g
       id="g2822"
       transform="matrix(0.21166667,0,0,0.21166666,-45.733932,49.649346)"
       style="stroke-width:1.88976;stroke-miterlimit:4;stroke-dasharray:none">
      <path
         id="path2824"
         style="fill:none;stroke:#1484e6;stroke-width:1.5;stroke-linecap:butt;stroke-linejoin:round;stroke-miterlimit:4;stroke-dasharray:none;stroke-opacity:1"
         d="M 347.5,521.1474 C 365.53983,520.83455 383.62324,521.72498 401.63333,520.51282 C 411.55906,520.12027 418.60808,512.11441 423.10001,504.04199 C 427.93674,496.68155 430.8932,487.62232 438.03333,482.08545 C 443.69696,479.06254 447.88981,485.921 450.46376,489.96461 C 456.83779,499.74599 460.86542,512.27007 471.63333,518.22217 C 478.91844,521.33467 487.21555,521.19686 494.96667,520.56854 C 502.25289,519.86111 508.67907,515.71173 512.70001,509.65527 C 519.52511,501.26641 522.46963,490.14576 530.43335,482.67346 C 534.72656,478.77446 539.77763,483.35221 541.94974,487.23065 C 548.91536,497.15413 552.79154,509.85139 563.09998,517.01398 C 572.20032,522.62271 583.37644,520.68757 593.53296,521.11789 C 604.85809,521.12441 616.18323,521.1231 627.50836,521.12634" />
    </g>
  </g>
</svg>
