<?xml version="1.0" encoding="UTF-8" standalone="no"?>
<svg
   xmlns:dc="http://purl.org/dc/elements/1.1/"
   xmlns:cc="http://creativecommons.org/ns#"
   xmlns:rdf="http://www.w3.org/1999/02/22-rdf-syntax-ns#"
   xmlns:svg="http://www.w3.org/2000/svg"
   xmlns="http://www.w3.org/2000/svg"
   xmlns:sodipodi="http://sodipodi.sourceforge.net/DTD/sodipodi-0.dtd"
   xmlns:inkscape="http://www.inkscape.org/namespaces/inkscape"
   width="161.41277mm"
   height="9.2261133mm"
   viewBox="0 0 161.41277 9.2261133"
   version="1.1"
   id="svg8"
   inkscape:version="1.0.1 (3bc2e813f5, 2020-09-07)"
   sodipodi:docname="spectrogram-otj.svg">
  <defs
     id="defs2" />
  <sodipodi:namedview
     id="base"
     pagecolor="#ffffff"
     bordercolor="#666666"
     borderopacity="1.0"
     inkscape:pageopacity="0.0"
     inkscape:pageshadow="2"
     inkscape:zoom="2"
     inkscape:cx="292.38804"
     inkscape:cy="80.47289"
     inkscape:document-units="mm"
     inkscape:current-layer="layer1"
     inkscape:document-rotation="0"
     showgrid="false"
     inkscape:window-width="1920"
     inkscape:window-height="1001"
     inkscape:window-x="-9"
     inkscape:window-y="1341"
     inkscape:window-maximized="1" />
  <metadata
     id="metadata5">
    <rdf:RDF>
      <cc:Work
         rdf:about="">
        <dc:format>image/svg+xml</dc:format>
        <dc:type
           rdf:resource="http://purl.org/dc/dcmitype/StillImage" />
        <dc:title></dc:title>
      </cc:Work>
    </rdf:RDF>
  </metadata>
  <g
     inkscape:label="Layer 1"
     inkscape:groupmode="layer"
     id="layer1"
     transform="translate(433.54715,-67.013432)">
    <path
       id="path1339"
       style="fill:none;stroke:#fd8b28;stroke-width:0.176389;stroke-linecap:butt;stroke-linejoin:round;stroke-miterlimit:10;stroke-dasharray:none;stroke-opacity:1"
       d="M -433.45901,71.623832 C -433.35952,66.194469 -433.17904,77.998953 -433.10531,71.09156 C -432.9554,66.711783 -432.90778,78.313071 -432.78975,72.028149 C -432.73905,65.245542 -432.52033,77.674351 -432.45721,71.388564 C -432.30953,65.466498 -432.19152,78.514356 -432.12281,71.630517 C -431.97279,65.285975 -431.98391,73.902331 -431.82689,74.181752 C -431.78911,71.984715 -431.67596,64.938494 -431.62835,70.742493 C -431.57892,73.313073 -431.50891,77.543181 -431.46026,72.565339 C -431.40769,69.992586 -431.35302,65.56255 -431.2913,70.638706 C -431.24032,73.165936 -431.19518,77.714075 -431.12154,72.634682 C -431.07709,70.200031 -431.0352,65.619618 -430.95025,70.605935 C -430.91797,72.902686 -430.8736,77.427955 -430.77796,72.629886 C -430.78472,69.4052 -430.65258,66.724552 -430.59329,71.478725 C -430.65861,75.808888 -430.36368,74.10276 -430.43164,70.787415 C -430.2588,63.565715 -430.21924,80.570802 -430.1105,72.415377 C -430.10543,69.795588 -429.9435,65.846829 -429.94456,70.743251 C -429.91873,73.456173 -429.79599,77.749581 -429.77789,72.579001 C -429.73789,69.816712 -429.64515,65.25098 -429.61052,70.609762 C -429.56188,73.376953 -429.49164,78.138488 -429.44234,72.680187 C -429.39009,69.952459 -429.33584,65.074489 -429.27329,70.542421 C -429.22243,73.187165 -429.17796,78.100713 -429.10333,72.712779 C -429.05889,70.193028 -429.01815,65.324905 -428.93226,70.544844 C -428.89952,72.899688 -428.85648,77.642585 -428.75983,72.675759 C -428.74473,70.523409 -428.69306,65.982613 -428.58576,70.615081 C -428.63638,73.811092 -428.42568,76.127733 -428.4123,71.593191 C -428.39736,66.989681 -428.19536,69.455193 -428.23824,72.642245 C -428.07664,80.426917 -428.03434,61.973475 -427.92626,70.731819 C -427.89989,73.454949 -427.77838,77.790012 -427.75956,72.587573 C -427.71921,69.819345 -427.6274,65.223659 -427.59215,70.603661 C -427.54332,73.373319 -427.47379,78.154995 -427.42394,72.684246 C -427.37167,69.956887 -427.31789,65.06678 -427.25484,70.540014 C -427.20414,73.182037 -427.15992,78.101245 -427.08483,72.713849 C -427.04077,70.198779 -427.00001,65.330301 -426.9137,70.544877 C -426.88162,72.893437 -426.83826,77.63226 -426.74117,72.674789 C -426.72712,70.529982 -426.67468,65.996945 -426.56694,70.616818 C -426.61916,73.817053 -426.40664,76.102757 -426.39356,71.580067 C -426.37831,66.95657 -426.17788,69.459898 -426.21958,72.647041 C -426.05873,80.470356 -426.01559,61.919542 -425.90788,70.728701 C -425.88064,73.473425 -425.76066,77.826958 -425.74114,72.590988 C -425.70015,69.793984 -425.60953,65.175207 -425.57368,70.599253 C -425.52445,73.406659 -425.45574,78.219718 -425.40541,72.69053 C -425.35303,69.915181 -425.29967,64.981323 -425.23625,70.530865 C -425.18575,73.231535 -425.14153,78.210799 -425.06619,72.726821 C -425.02264,70.143185 -424.98143,65.195228 -424.895,70.527312 C -424.86377,72.952297 -424.81948,77.79159 -424.72241,72.697351 C -424.70956,70.471682 -424.65571,65.817797 -424.54813,70.589358 C -424.57135,72.799523 -424.46673,76.91721 -424.37472,72.409994 C -424.4513,69.95344 -424.17933,66.324312 -424.22082,70.878299 C -424.23731,73.551455 -424.03574,77.368684 -424.05556,72.477452 C -424.04733,69.660094 -423.89094,65.405272 -423.88953,70.675086 C -423.86156,73.590143 -423.74294,78.213527 -423.72279,72.652759 C -423.68147,69.689053 -423.59175,64.774171 -423.55536,70.531528 C -423.50605,73.4935 -423.43798,78.615972 -423.3871,72.761167 C -423.33473,69.851332 -423.28202,64.610302 -423.21809,70.46095 C -423.16756,73.269527 -423.12402,78.537061 -423.04809,72.792155 C -423.00434,70.131481 -422.96415,64.930155 -422.87691,70.470239 C -422.8453,72.939841 -422.80248,77.984065 -422.70432,72.743088 C -422.69095,70.50383 -422.63899,65.702903 -422.52994,70.557047 C -422.55271,72.755748 -422.45026,76.959799 -422.35643,72.425749 C -422.43346,70.00736 -422.16215,66.331031 -422.20264,70.865218 C -422.22018,73.466192 -422.01852,77.295286 -422.03738,72.479223 C -422.02851,69.765577 -421.87395,65.556747 -421.87132,70.686775 C -421.84324,73.470724 -421.72558,77.985625 -421.70457,72.62672 C -421.66324,69.815159 -421.57419,65.069975 -421.5371,70.571455 C -421.48779,73.368137 -421.42029,78.266576 -421.36881,72.709083 C -421.31653,69.969144 -421.26414,64.994908 -421.19956,70.522411 C -421.14937,73.16477 -421.10595,78.137608 -421.02937,72.724799 C -420.98644,70.219434 -420.94577,65.324302 -420.85802,70.539709 C -420.82789,72.870464 -420.7837,77.613183 -420.68519,72.675188 C -420.69556,69.440028 -420.56257,66.618119 -420.50173,71.456773 C -420.56844,75.851113 -420.27077,74.058932 -420.33775,70.725669 C -420.1695,63.361026 -420.12611,80.776451 -420.01903,72.444368 C -420.00977,69.792654 -419.85576,65.732354 -419.85294,70.719614 C -419.82418,73.452661 -419.70754,77.83329 -419.68614,72.59743 C -419.64422,69.826073 -419.55616,65.196291 -419.51861,70.596279 C -419.46895,73.362212 -419.4022,78.166035 -419.35026,72.689034 C -419.29785,69.972195 -419.24602,65.072257 -419.18115,70.537904 C -419.13111,73.162786 -419.08763,78.079343 -419.01073,72.713263 C -418.96839,70.221699 -418.92743,65.368267 -418.83933,70.548118 C -418.80956,72.867071 -418.76589,77.578768 -418.66734,72.668989 C -418.67725,69.450819 -418.54366,66.644047 -418.48319,71.457141 C -418.55102,75.844301 -418.25148,74.027338 -418.31903,70.713712 C -418.15142,63.349113 -418.1075,80.798055 -418.00071,72.447546 C -417.99061,69.792711 -417.83819,65.719973 -417.83459,70.716863 C -417.80523,73.451145 -417.68985,77.841729 -417.66776,72.59963 C -417.62543,69.829081 -417.53836,65.192296 -417.50018,70.594724 C -417.45031,73.357688 -417.38433,78.165182 -417.33177,72.689861 C -417.27937,69.97819 -417.22807,65.078276 -417.16257,70.537902 C -417.11266,73.155579 -417.06974,78.068013 -416.9924,72.712298 C -416.94995,70.229443 -416.90954,65.384612 -416.82108,70.550211 C -416.79138,72.860143 -416.74761,77.558622 -416.64849,72.665633 C -416.66022,69.458447 -416.52429,66.663445 -416.46461,71.458968 C -416.53377,75.834257 -416.23244,74.017002 -416.30088,70.71483 C -416.1339,63.365066 -416.09018,80.720826 -415.98319,72.451355 C -415.97694,69.852442 -415.81808,65.787115 -415.81775,70.717031 C -415.79326,73.366538 -415.66908,77.722043 -415.65193,72.593621 C -415.61478,69.942674 -415.51723,65.378433 -415.48584,70.608736 C -415.44034,73.21141 -415.36328,77.898039 -415.31953,72.665448 C -415.26914,70.160159 -415.20773,65.440962 -415.153,70.575252 C -415.10059,72.93586 -415.05098,77.596026 -414.98623,72.659452 C -414.93425,70.487761 -414.89341,65.978133 -414.81941,70.621028 C -414.77311,73.588476 -414.70989,76.314567 -414.63323,71.804641 C -414.57594,66.538561 -414.49111,71.069302 -414.38706,73.787413 C -414.29679,71.227781 -414.19288,68.393345 -414.09664,72.76604 C -413.89183,69.033052 -413.19282,74.308677 -413.07918,70.876728 C -412.91216,75.593442 -412.91424,70.727055 -412.73789,70.276192 C -412.71762,74.811155 -412.45123,72.521029 -412.48094,69.418059 C -412.28,71.932601 -412.31981,76.262713 -412.18284,71.196117 C -412.10236,64.395318 -411.98772,79.276013 -411.87665,71.746756 C -411.8166,65.779704 -411.66485,72.604833 -411.66106,74.72622 C -411.48143,71.712128 -411.53272,64.899209 -411.38662,71.665403 C -411.39294,74.390141 -411.30657,76.513966 -411.24124,72.52267 C -411.22254,70.006851 -411.1723,65.801431 -411.08343,70.703675 C -411.05807,73.264061 -411.01245,77.560972 -410.92539,72.563552 C -410.89446,69.961374 -410.85237,65.579393 -410.76773,70.665708 C -410.73111,73.306539 -410.69208,77.76884 -410.61029,72.599511 C -410.56812,69.923857 -410.53163,65.385552 -410.45331,70.631425 C -410.406,73.337183 -410.37051,77.946628 -410.29591,72.631975 C -410.245,69.901733 -410.20888,65.227272 -410.1384,70.601282 C -410.08494,73.349523 -410.04676,78.081231 -409.98076,72.659068 C -409.92587,69.90002 -409.88413,65.120587 -409.82295,70.578043 C -409.76778,73.340185 -409.72097,78.156178 -409.66498,72.677679 C -409.61073,69.920482 -409.55729,65.08047 -409.50677,70.564726 C -409.45462,73.308788 -409.39309,78.159252 -409.3484,72.685188 C -409.29956,69.962456 -409.22837,65.115769 -409.18986,70.563371 C -409.14557,73.256684 -409.06318,78.085031 -409.03103,72.680204 C -408.99213,70.024238 -408.89753,65.228821 -408.87214,70.574749 C -408.84025,73.185676 -408.73135,77.933681 -408.71297,72.662475 C -408.68871,70.104069 -408.56464,65.417633 -408.55374,70.59872 C -408.53919,73.097406 -408.39739,77.708405 -408.39426,72.632408 C -408.38942,70.200434 -408.23008,65.678305 -408.23463,70.634726 C -408.24105,72.993268 -408.06154,77.413457 -408.07483,72.590617 C -408.09586,70.311914 -407.89249,66.006464 -407.91487,70.682153 C -407.94898,72.87474 -407.724,77.053048 -407.75478,72.537642 C -407.78891,69.346499 -407.52991,67.022871 -407.59251,71.555764 C -407.42905,78.260704 -407.49359,70.023467 -407.29958,68.92207 C -407.24135,70.252792 -407.30454,75.068672 -407.1591,73.896395 C -407.08534,71.049788 -407.05297,66.069396 -406.93511,71.689792 C -406.99492,76.229797 -406.74199,73.91942 -406.77247,70.714648 C -406.663,63.07087 -406.61513,80.514378 -406.47534,72.486016 C -406.46151,70.074095 -406.40891,66.025959 -406.31889,70.733442 C -406.29629,73.169787 -406.24982,77.318302 -406.1618,72.534487 C -406.13201,70.080077 -406.09018,65.865668 -406.00452,70.701921 C -405.96868,73.178588 -405.92934,77.427712 -405.84599,72.549123 C -405.80628,70.034446 -405.7681,65.768611 -405.68746,70.699005 C -405.64403,73.27528 -405.60636,77.562842 -405.52863,72.551268 C -405.48205,69.891144 -405.44473,65.548414 -405.37053,70.682547 C -405.32025,73.433638 -405.28333,77.889474 -405.21368,72.596746 C -405.15974,69.777339 -405.12166,65.143391 -405.05805,70.600304 C -405.00228,73.42553 -404.9588,78.278642 -404.90367,72.709724 C -404.85072,69.980869 -404.79311,64.929238 -404.74981,70.480493 C -404.708,72.985107 -404.62346,78.122143 -404.59563,72.795925 C -404.57611,70.641765 -404.44986,65.632486 -404.44036,70.47676 C -404.44788,73.108648 -404.2498,76.426441 -404.27942,71.969445 C -404.19745,67.778372 -404.12614,70.341518 -404.04558,73.104398 C -404.03571,69.783736 -403.73507,71.06977 -403.34927,72.158992 C -403.15052,72.031454 -403.15465,68.264777 -403.06178,72.407492 C -402.94599,76.2434 -402.85747,63.836574 -402.80072,71.031216 C -402.76827,74.282619 -402.65184,76.358149 -402.6451,71.748275 C -402.62311,68.267053 -402.4672,67.412611 -402.50289,71.428546 C -402.42619,76.785438 -402.32596,73.19386 -402.3257,70.298591 C -402.23201,63.335445 -402.14441,81.800732 -402.07156,72.685484 C -402.02076,70.343592 -401.96721,65.178416 -401.93513,70.321608 C -401.88794,75.290935 -401.76981,75.1612 -401.75725,70.760504 C -401.64903,65.365372 -401.57849,79.964587 -401.50525,72.441412 C -401.44959,69.422729 -401.38576,66.748056 -401.36368,71.285937 C -401.24747,76.716643 -401.22932,71.866609 -401.14921,69.134922 C -400.9968,71.24159 -401.05031,78.122862 -400.94952,72.512117 C -400.90001,69.316994 -400.80685,66.422342 -400.8049,71.258586 C -400.75736,75.465921 -400.62149,73.990072 -400.63392,70.673728 C -400.53147,63.613502 -400.45142,81.509523 -400.38428,72.642529 C -400.34176,70.352194 -400.25867,65.268964 -400.24515,70.313203 C -400.21877,75.289773 -400.06122,74.954356 -400.06773,70.653668 C -399.98555,63.271771 -399.87241,81.82755 -399.81686,72.659909 C -399.77159,70.310525 -399.69681,65.132454 -399.67918,70.290619 C -399.67983,73.461417 -399.50011,76.550319 -399.51385,71.640287 C -399.52805,67.71931 -399.38338,68.593559 -399.35647,72.03458 C -399.34757,75.103083 -399.29606,76.713806 -399.2505,72.643153 C -399.20393,70.273742 -399.13302,65.130112 -399.11359,70.297204 C -399.08269,75.263493 -398.93586,75.220146 -398.93779,70.777473 C -398.85195,63.374253 -398.74306,81.740928 -398.68435,72.630077 C -398.63674,70.238545 -398.56908,65.120434 -398.54802,70.302808 C -398.51546,75.266191 -398.37223,75.291034 -398.37271,70.81562 C -398.28673,63.423237 -398.17763,81.712622 -398.1181,72.616301 C -398.0695,70.202594 -398.00521,65.112663 -397.98239,70.309032 C -397.94804,75.269363 -397.80867,75.361679 -397.80761,70.854017 C -397.71986,63.47851 -397.613,81.681336 -397.55188,72.60177 C -397.50205,70.166255 -397.44187,65.106945 -397.41671,70.315597 C -397.37884,75.272785 -397.24585,75.430476 -397.2425,70.891716 C -397.15281,63.536015 -397.04852,81.647378 -396.98558,72.587117 C -396.93504,70.130931 -396.8779,65.103966 -396.85106,70.322605 C -396.8115,75.276756 -396.68219,75.495249 -396.67736,70.927674 C -396.58789,63.59825 -396.4828,81.611048 -396.41923,72.57169 C -396.3681,70.094613 -396.31392,65.10319 -396.28536,70.330462 C -396.24411,75.281465 -396.11854,75.560401 -396.11224,70.964292 C -396.02091,63.656349 -395.91826,81.587174 -395.85282,72.555909 C -395.80118,70.050386 -395.74991,65.090541 -395.71964,70.337044 C -395.70052,73.460886 -395.5574,77.003851 -395.55829,71.911811 C -395.58811,67.224386 -395.36401,69.788466 -395.38967,73.007335 C -395.33879,81.062256 -395.19245,61.41214 -395.15387,70.337098 C -395.10982,75.274188 -394.99174,75.797662 -394.98273,71.087175 C -394.88658,63.639585 -394.78982,81.670539 -394.72007,72.536836 C -394.66764,69.918064 -394.6218,64.936268 -394.58807,70.326321 C -394.54327,75.247925 -394.42872,76.012097 -394.41851,71.190693 C -394.32328,63.534376 -394.22391,81.76627 -394.15366,72.538558 C -394.10113,69.846357 -394.05774,64.802543 -394.02228,70.307494 C -393.97702,75.209508 -393.86569,76.247274 -393.85431,71.301732 C -393.78247,63.423461 -393.65722,80.104815 -393.60919,73.6276 C -393.54331,71.08549 -393.49931,64.060405 -393.45653,70.291835 C -393.41629,74.666584 -393.30438,76.761863 -393.29342,71.706247 C -393.25026,64.094475 -393.08497,76.93269 -393.06778,74.712269 C -392.98345,72.272161 -392.94155,63.603299 -392.8908,70.292286 C -392.84912,74.662242 -392.74045,76.806017 -392.72807,71.729953 C -392.68677,64.19429 -392.51915,76.868887 -392.50182,74.664599 C -392.41573,72.246723 -392.3779,63.698354 -392.32508,70.313798 C -392.31562,72.439874 -392.16592,78.044972 -392.17715,72.958619 C -392.21659,69.245612 -391.96912,68.284572 -392.00771,72.175969 C -391.98867,74.957553 -391.94891,76.873327 -391.88828,72.486749 C -391.83679,69.789304 -391.80086,64.920766 -391.75918,70.349463 C -391.74055,73.513764 -391.58071,77.513607 -391.61239,72.13491 C -391.57112,67.86696 -391.41637,69.594196 -391.43801,72.502302 C -391.40032,80.330946 -391.25595,66.182969 -391.22379,68.344015 C -391.21098,71.009806 -391.03125,78.736244 -391.04745,72.182145 C -390.93714,65.945667 -390.84584,72.799342 -390.83584,75.445179 C -390.71341,73.151657 -390.69474,63.817045 -390.6273,70.413601 C -390.60355,73.49675 -390.45512,77.423009 -390.4815,72.180287 C -390.43824,67.929774 -390.28896,69.442482 -390.30725,72.460148 C -390.27007,80.173085 -390.12132,66.166706 -390.09341,68.403082 C -390.07297,71.097667 -389.90345,78.721757 -389.91575,72.171256 C -389.87343,67.918309 -389.72447,69.35839 -389.74225,72.415425 C -389.70508,80.127175 -389.55443,66.18218 -389.52817,68.409703 C -389.50444,71.13828 -389.33933,78.755098 -389.34985,72.161991 C -389.27227,66.826944 -389.16343,70.490439 -389.16528,73.337406 C -389.09007,79.790345 -388.97569,61.291348 -388.92955,70.453785 C -388.89862,73.648836 -388.76414,77.450556 -388.78393,72.151921 C -388.7436,67.745306 -388.58311,69.470469 -388.60578,72.849065 C -388.52202,80.305284 -388.41866,61.40636 -388.36346,70.465496 C -388.33637,72.573572 -388.22034,77.939295 -388.22021,72.999095 C -388.20981,68.013123 -388.01987,68.893562 -388.03935,72.921535 C -387.96814,80.322802 -387.84343,61.276495 -387.79749,70.477349 C -387.76829,72.611015 -387.65636,77.963033 -387.65474,72.996242 C -387.64338,68.010818 -387.45616,68.805767 -387.47436,72.877238 C -387.40237,80.292329 -387.2782,61.289208 -387.23154,70.489067 C -387.20034,72.648725 -387.09244,77.986132 -387.08928,72.992815 C -387.11538,69.787642 -386.89035,67.264436 -386.92063,71.916195 C -386.92131,76.033205 -386.80988,74.699611 -386.77247,71.312332 C -386.74506,68.296892 -386.70897,66.244527 -386.66536,70.501683 C -386.63175,72.693206 -386.52893,78.012074 -386.52363,72.986764 C -386.50925,68.003799 -386.32942,68.607484 -386.34414,72.775301 C -386.2688,80.142137 -386.14888,61.470175 -386.09855,70.523826 C -386.0614,72.68334 -385.96733,77.910493 -385.95794,72.96461 C -385.93598,67.980168 -385.76694,68.720118 -385.77682,72.819189 C -385.69621,79.352543 -385.58631,62.205237 -385.53389,70.576637 C -385.49326,73.542367 -385.38251,76.984379 -385.39019,72.109705 C -385.29452,66.638771 -385.21072,71.263041 -385.1985,73.820119 C -385.09221,76.581724 -385.03195,63.124425 -384.97428,70.610584 C -384.94574,73.478351 -384.80308,76.789278 -384.83062,72.083474 C -384.73061,66.704332 -384.64333,71.471735 -384.63713,73.911228 C -384.55329,78.251903 -384.46827,62.976472 -384.42386,69.489637 C -384.38596,71.726182 -384.27638,78.71585 -384.26155,72.927066 C -384.24051,67.967071 -384.07827,67.86175 -384.08514,72.375773 C -383.99776,79.9191 -383.90017,62.15508 -383.81544,70.649688 C -383.76374,72.932697 -383.73598,77.66673 -383.67762,72.788566 C -383.62964,70.104824 -383.54812,66.578004 -383.51825,71.194024 C -383.4172,75.116158 -383.44021,73.323042 -383.26512,70.429267 C -382.89857,72.47727 -382.52189,73.20622 -382.49664,70.215139 C -382.51797,73.648728 -382.27455,74.037971 -382.29711,70.443719 C -382.09742,68.161027 -382.15917,77.768008 -382.00654,71.829784 C -382.01915,67.870506 -381.84694,68.580837 -381.84354,72.212744 C -381.72134,80.804397 -381.65401,60.932885 -381.56375,70.559277 C -381.50879,73.330843 -381.47024,78.294952 -381.40981,72.735377 C -381.35552,70.058257 -381.30548,65.050945 -381.25322,70.52093 C -381.2021,73.109101 -381.1403,77.99637 -381.09467,72.68649 C -381.04656,70.15803 -380.97558,65.455615 -380.93491,70.609331 C -380.88887,73.113573 -380.81151,77.644628 -380.77458,72.599587 C -380.73013,70.09161 -380.64774,65.67282 -380.61438,70.669117 C -380.57223,73.194022 -380.48389,77.571192 -380.45435,72.575137 C -380.41528,70.035512 -380.31962,65.644273 -380.29483,70.664002 C -380.26105,73.204695 -380.15451,77.63668 -380.13544,72.596345 C -380.10831,70.074088 -379.98855,65.604707 -379.97628,70.641455 C -379.95865,73.12507 -379.82124,77.606182 -379.81703,72.608757 C -379.81079,70.181446 -379.65349,65.72534 -379.65755,70.645397 C -379.66318,73.002542 -379.4848,77.395801 -379.49787,72.587165 C -379.51873,70.310298 -379.31558,66.012846 -379.33798,70.682661 C -379.37237,72.871784 -379.14695,77.047749 -379.17794,72.537498 C -379.2126,69.35321 -378.95266,67.029166 -379.01576,71.555187 C -378.85742,78.989583 -378.89688,68.432101 -378.71689,69.363792 C -378.71762,72.068712 -378.60455,76.981496 -378.51676,71.558217 C -378.47053,64.020578 -378.35493,75.559608 -378.26645,74.116116 C -378.18576,71.036331 -378.1587,65.565677 -378.04224,71.684059 C -378.06091,74.351557 -377.9609,76.342107 -377.89779,72.482567 C -377.88535,69.99567 -377.83068,65.932731 -377.74151,70.733131 C -377.71956,73.281645 -377.67182,77.480927 -377.58504,72.544125 C -377.5548,69.941241 -377.51236,65.617141 -377.42833,70.676451 C -377.39105,73.326289 -377.35233,77.763185 -377.2714,72.595693 C -377.22827,69.906499 -377.19175,65.369252 -377.11425,70.630191 C -377.06647,73.350945 -377.03063,77.975724 -376.95688,72.63648 C -376.9055,69.892183 -376.86906,65.193042 -376.79953,70.595032 C -376.74568,73.354574 -376.70683,78.114578 -376.64169,72.665884 C -376.58671,69.899754 -376.54419,65.092716 -376.48365,70.571494 C -376.42859,73.335034 -376.38112,78.174892 -376.32541,72.68343 C -376.27132,69.932379 -376.21762,65.074426 -376.16693,70.560088 C -376.11478,73.287755 -376.05376,78.148349 -376.00826,72.688476 C -375.959,69.996404 -375.88961,65.149717 -375.84928,70.561752 C -375.80362,73.20435 -375.72522,78.019008 -375.69022,72.679554 C -375.64921,70.102288 -375.56058,65.340019 -375.53085,70.578743 C -375.49482,73.072566 -375.39596,77.759173 -375.37132,72.653365 C -375.341,70.263441 -375.23116,65.67946 -375.2117,70.615605 C -375.18803,72.87892 -375.06608,77.328954 -375.05202,72.604022 C -375.02349,69.38842 -374.88816,66.816344 -374.87901,71.505187 C -374.75194,78.767189 -374.74855,69.05276 -374.59491,69.354397 C -374.60853,72.147179 -374.39731,75.745642 -374.37612,70.800075 C -374.3135,68.498595 -374.08906,75.936338 -374.05574,70.543808 C -373.7897,73.659721 -373.83106,72.703087 -373.70495,70.236524 C -373.59099,72.995066 -373.56983,73.318095 -373.39013,70.455513 C -373.26576,74.305933 -373.1861,72.807166 -373.10837,69.891235 C -373.02456,72.563984 -372.8348,75.067544 -372.84587,70.591653 C -372.64685,68.052106 -372.66434,77.828214 -372.53598,71.570358 C -372.44909,64.498294 -372.29619,79.141681 -372.21966,71.642884 C -372.06976,64.845026 -372.10067,74.200128 -371.93182,74.366779 C -371.92125,72.057379 -371.77149,64.587222 -371.7416,70.70838 C -371.71717,73.448402 -371.59131,77.849885 -371.57701,72.59595 C -371.54286,69.800757 -371.43745,65.179655 -371.41159,70.602748 C -371.36871,73.419013 -371.28317,78.215547 -371.24535,72.684043 C -371.19624,69.883546 -371.12789,64.964501 -371.07814,70.536208 C -371.0259,73.282304 -370.97138,78.263651 -370.90983,72.725606 C -370.85835,70.073337 -370.81345,65.095593 -370.74037,70.522361 C -370.69419,73.041557 -370.65388,77.945844 -370.56951,72.709778 C -370.53402,70.361813 -370.49255,65.602929 -370.39704,70.56895 C -370.39916,73.833773 -370.27376,76.661488 -370.21142,71.788852 C -370.27643,67.429093 -369.97815,69.080338 -370.04914,72.453204 C -369.87657,79.714943 -369.8357,62.656538 -369.72732,70.829904 C -369.72044,73.453079 -369.56188,77.413043 -369.5612,72.507281 C -369.53365,69.793748 -369.41437,65.489056 -369.39436,70.66583 C -369.35302,73.424956 -369.26338,77.999669 -369.2268,72.640176 C -369.17738,69.880723 -369.10966,65.114757 -369.05844,70.566254 C -369.00605,73.281097 -368.95364,78.156975 -368.88935,72.704993 C -368.83912,70.078628 -368.79537,65.175294 -368.71897,70.53694 C -368.67622,73.032701 -368.63527,77.881315 -368.54763,72.698727 C -368.51773,70.373428 -368.47322,65.660045 -368.37482,70.578151 C -368.38546,73.808422 -368.25203,76.614469 -368.19142,71.789161 C -368.25824,67.399084 -367.96031,69.196157 -368.02747,72.522742 C -367.85919,79.881667 -367.81583,62.474154 -367.70875,70.803412 C -367.69947,73.453667 -367.54551,77.513482 -367.54267,72.528109 C -367.51392,69.797694 -367.39731,65.417466 -367.37588,70.650136 C -367.33398,73.417116 -367.24591,78.045742 -367.20836,72.651324 C -367.15872,69.891924 -367.09196,65.091215 -367.04004,70.559199 C -366.98764,73.267475 -366.9358,78.16076 -366.87096,72.708195 C -366.82086,70.092795 -366.77742,65.187951 -366.70063,70.53747 C -366.65805,73.021 -366.61724,77.857181 -366.5294,72.694768 C -366.49958,70.379066 -366.45509,65.688215 -366.35676,70.584608 C -366.36699,73.809118 -366.23416,76.590585 -366.17349,71.78407 C -366.23961,67.405817 -365.94261,69.195435 -366.00989,72.514259 C -365.84035,79.847405 -365.79771,62.461318 -365.69042,70.810447 C -365.6799,73.480243 -365.5281,77.539696 -365.5239,72.532417 C -365.49329,69.800051 -365.38091,65.370481 -365.3564,70.629279 C -365.31274,73.339676 -365.23068,78.062308 -365.18773,72.688028 C -365.13723,70.096955 -365.07796,65.199467 -365.01792,70.517281 C -364.96685,72.892383 -364.92313,77.7992 -364.84702,72.732849 C -364.80912,69.548891 -364.73347,66.477093 -364.65699,71.39178 C -364.66502,75.231263 -364.49882,74.545555 -364.47632,71.167608 C -364.43301,65.053239 -364.26158,77.106819 -364.16762,71.45358 C -363.97671,68.154525 -363.89468,76.101805 -363.81329,70.775595 C -363.72334,70.417972 -363.51066,75.178573 -363.49524,70.586718 C -363.30317,68.793309 -363.32254,77.132625 -363.17786,71.828102 C -363.07638,64.965233 -363.01658,73.37414 -362.89756,74.969999 C -362.85299,72.777396 -362.74317,64.979673 -362.66144,71.071151 C -362.62535,73.66868 -362.57379,78.038311 -362.49186,72.963179 C -362.47797,70.563421 -362.40234,65.800768 -362.29319,70.829665 C -362.32639,73.436488 -362.13332,77.523444 -362.12815,72.574871 C -362.0894,70.263589 -362.00669,65.445847 -361.94713,70.395357 C -361.93085,73.441204 -361.78829,76.52418 -361.73568,71.748392 C -361.61297,64.436094 -361.54826,74.871562 -361.40675,74.075711 C -361.40705,71.507897 -361.16617,66.855406 -361.14676,71.997173 C -360.99798,80.419835 -360.94476,63.539203 -360.77966,70.816555 C -360.80636,73.270809 -360.58639,76.661934 -360.59457,72.228507 C -360.55412,69.674832 -360.46244,65.754111 -360.41223,70.562116 C -360.38092,72.947437 -360.29857,77.49966 -360.21367,72.584522 C -360.24165,69.959158 -360.0243,66.012528 -360.03046,70.913455 C -359.99197,73.591333 -359.89826,77.944963 -359.84858,72.785225 C -359.81657,70.34732 -359.7354,65.432161 -359.65055,70.57677 C -359.68075,73.213417 -359.4594,77.379159 -359.46557,72.358279 C -359.42798,69.683475 -359.33352,65.238245 -359.28318,70.438637 C -359.25131,72.884164 -359.17076,77.805025 -359.08366,72.648819 C -359.11207,69.998729 -358.89613,65.828801 -358.89955,70.866997 C -358.86043,73.519739 -358.77005,78.03158 -358.71677,72.824523 C -358.68531,70.373006 -358.60621,65.499311 -358.51618,70.64092 C -358.5418,73.311714 -358.33294,77.45811 -358.33358,72.407881 C -358.29345,69.77673 -358.20646,65.187395 -358.15033,70.406552 C -358.11973,72.862637 -358.0413,77.694738 -357.94829,72.566944 C -357.97257,69.877946 -357.76954,65.75413 -357.76764,70.81393 C -357.72654,73.42267 -357.64287,78.083695 -357.58415,72.856473 C -357.55448,70.39679 -357.47604,65.608812 -357.3802,70.720415 C -357.40391,73.426203 -357.20595,77.52618 -357.20168,72.4591 C -357.15981,69.874992 -357.07916,65.143911 -357.01769,70.375514 C -356.98849,72.835701 -356.91179,77.577149 -356.81319,72.486539 C -356.83337,69.771933 -356.64297,65.693586 -356.63564,70.760016 C -356.59313,73.301709 -356.51568,78.105265 -356.45103,72.889334 C -356.42344,70.455771 -356.34691,65.771794 -356.24464,70.804342 C -356.26494,73.484055 -356.08003,77.526766 -356.06953,72.51725 C -356.0262,70.071407 -355.95285,65.244904 -355.8848,70.358578 C -355.85853,72.688163 -355.78257,77.262081 -355.67675,72.403111 C -355.69935,69.843076 -355.51601,65.939624 -355.50444,70.74556 C -355.46106,73.076945 -355.38804,77.704503 -355.32008,72.817798 C -355.29321,70.6107 -355.21754,66.227175 -355.11513,70.853634 C -355.13952,73.325743 -354.94676,76.969195 -354.94126,72.390357 C -354.89885,69.994241 -354.818,65.74523 -354.75816,70.531163 C -354.72925,72.8572 -354.64762,77.161288 -354.5556,72.431584 C -354.57999,69.775492 -354.37638,66.095559 -354.3764,70.898727 C -354.33462,73.508016 -354.25105,77.966328 -354.19149,72.834849 C -354.16381,70.212131 -354.08242,65.686586 -353.98077,70.8648 C -353.99344,73.714336 -353.82468,77.989617 -353.80392,72.674125 C -353.77091,70.096546 -353.67769,64.939374 -353.60666,70.361005 C -353.63312,72.847856 -353.41142,77.639627 -353.40847,72.494388 C -353.3825,70.325705 -353.27214,65.464037 -353.2174,70.261483 C -353.2396,73.019797 -352.98897,76.133755 -352.99006,71.646611 C -352.91029,67.102776 -352.84175,70.445751 -352.68504,73.149867 C -352.67874,70.86248 -352.25972,70.352356 -352.16821,72.945124 C -352.06824,69.24263 -351.74433,70.842712 -351.76641,73.625455 C -351.57226,70.720812 -351.50393,67.083594 -351.42212,72.092694 C -351.25899,78.879214 -351.15068,63.184833 -351.02732,70.794358 C -351.06065,73.610915 -350.81066,76.043133 -350.81015,71.726536 C -350.78053,68.86254 -350.67277,65.90241 -350.61365,70.566536 C -350.61265,73.120351 -350.43799,78.013787 -350.40909,72.74238 C -350.37663,70.096697 -350.28853,65.639737 -350.18138,70.811397 C -350.18707,73.419872 -350.0285,78.06778 -349.98677,72.847445 C -350.00373,70.323318 -349.77557,65.631163 -349.76989,70.77373 C -349.73659,73.487693 -349.6369,77.717917 -349.55241,72.577743 C -349.55779,70.11294 -349.37805,65.166265 -349.35263,70.360718 C -349.3811,72.873092 -349.11591,77.194067 -349.1291,72.241389 C -349.09876,69.491362 -348.9842,65.450845 -348.92135,70.538907 C -348.92055,73.062215 -348.74208,77.973511 -348.71367,72.729776 C -348.68194,70.086819 -348.59205,65.702638 -348.48398,70.836182 C -348.49022,73.478189 -348.33345,78.057243 -348.2897,72.830928 C -348.30365,70.279873 -348.08208,65.552016 -348.07399,70.742803 C -348.04064,73.474247 -347.94215,77.762159 -347.85565,72.57405 C -347.86125,70.088776 -347.68363,65.108666 -347.65703,70.341852 C -347.68434,72.866449 -347.42164,77.255988 -347.43375,72.256284 C -347.40329,69.498742 -347.28942,65.415002 -347.22592,70.532856 C -347.22495,73.060132 -347.04717,77.99681 -347.01839,72.736671 C -346.98669,70.092456 -346.89696,65.692909 -346.78857,70.835285 C -346.79492,73.480119 -346.63829,78.062835 -346.59434,72.831523 C -346.60808,70.279605 -346.38703,65.544526 -346.3787,70.739706 C -346.34535,73.471448 -346.24696,77.763168 -346.16022,72.572868 C -346.16581,70.085869 -345.9885,65.106326 -345.96167,70.341073 C -345.9887,72.868124 -345.72656,77.264761 -345.73844,72.258796 C -345.7079,69.495857 -345.59421,65.410608 -345.53046,70.535277 C -345.52926,73.071013 -345.35198,78.011298 -345.32303,72.739504 C -345.29146,70.079036 -345.20139,65.678053 -345.09296,70.839728 C -345.09922,73.516098 -344.94299,78.10013 -344.89882,72.831882 C -344.91119,70.237613 -344.69182,65.474901 -344.68326,70.732475 C -344.64993,73.52645 -344.55108,77.852892 -344.46452,72.575084 C -344.47059,70.011511 -344.29212,64.95985 -344.26556,70.318069 C -344.29367,72.943571 -344.03055,77.441853 -344.04305,72.273943 C -344.01248,69.386538 -343.8983,65.183044 -343.83482,70.506096 C -343.83382,73.170174 -343.65628,78.298499 -343.62762,72.788475 C -343.59598,69.985016 -343.5059,65.388309 -343.39761,70.807872 C -343.40346,73.63278 -343.24749,78.445446 -343.20346,72.897038 C -343.2165,70.166984 -342.99662,65.134999 -342.98804,70.677239 C -342.95447,73.599127 -342.85674,78.183011 -342.7696,72.634511 C -342.77455,69.977215 -342.59833,64.649805 -342.5709,70.245772 C -342.59793,72.933388 -342.3367,77.663505 -342.34793,72.313454 C -342.31742,69.393216 -342.20441,65.006314 -342.14004,70.456831 C -342.13903,73.113942 -341.96225,78.382269 -341.93259,72.815863 C -341.90068,70.05941 -341.81249,65.381871 -341.70283,70.786421 C -341.70818,73.52807 -341.55443,78.348677 -341.50869,72.892471 C -341.51933,70.271608 -341.30318,65.313179 -341.29297,70.693385 C -341.25968,73.478908 -341.16208,77.939377 -341.07435,72.605895 C -341.08056,70.082783 -340.90294,64.968174 -340.87522,70.307302 C -340.904,72.854505 -340.6415,77.36452 -340.65262,72.281329 C -340.62201,69.508334 -340.50922,65.35176 -340.44444,70.522897 C -340.44298,73.054691 -340.26703,78.044058 -340.23719,72.75429 C -340.20435,70.112149 -340.11798,65.684322 -340.00856,70.83793 C -340.01047,73.48979 -339.85826,78.06537 -339.81279,72.829319 C -339.8257,70.277386 -339.60682,65.52542 -339.59749,70.72853 C -339.56421,73.457599 -339.46614,77.757548 -339.37839,72.566295 C -339.38408,70.075383 -339.20789,65.105808 -339.18019,70.339998 C -339.20646,72.866516 -338.94634,77.288203 -338.95725,72.270791 C -338.92654,69.512736 -338.81367,65.413679 -338.74884,70.539646 C -338.74743,73.063858 -338.57167,78.009803 -338.54182,72.749004 C -338.50907,70.11195 -338.42254,65.708462 -338.31304,70.844546 C -338.31508,73.496605 -338.16294,78.052537 -338.11736,72.825642 C -338.13011,70.274461 -337.91171,65.525963 -337.90217,70.726575 C -337.86892,73.454092 -337.77092,77.753291 -337.68292,72.564171 C -337.68866,70.072646 -337.51272,65.108055 -337.4848,70.340556 C -337.51089,72.866566 -337.25129,77.292646 -337.26194,72.273705 C -337.23118,69.516183 -337.11851,65.416239 -337.05336,70.542037 C -337.05185,73.065361 -336.87659,78.011326 -336.84648,72.751567 C -336.81381,70.115804 -336.72729,65.712904 -336.61753,70.847225 C -336.61973,73.499007 -336.46773,78.05205 -336.42207,72.826857 C -336.43488,70.277695 -336.21651,65.528059 -336.20704,70.726844 C -336.17372,73.43789 -336.07607,77.754679 -335.98854,72.575704 C -335.99509,70.122439 -335.81706,65.145555 -335.79067,70.341226 C -335.82101,72.785653 -335.55524,77.144332 -335.56785,72.252229 C -335.53901,69.654577 -335.4233,65.576046 -335.3619,70.5107 C -335.36618,72.815767 -335.18086,77.618406 -335.15331,72.683899 C -335.12065,70.375294 -335.03525,66.150853 -334.92448,70.822366 C -334.92882,73.0494 -334.77759,77.255834 -334.7266,72.687521 C -334.71991,69.616017 -334.507,66.988917 -334.48876,71.555643 C -334.37478,79.152556 -334.25536,67.588024 -334.12089,69.049125 C -334.07531,72.053795 -333.89818,77.725519 -333.83908,71.604781 C -333.82536,68.761143 -333.70222,67.178975 -333.6308,71.000082 C -333.63945,73.582989 -333.47364,77.887659 -333.44364,72.859278 C -333.47013,70.153205 -333.21094,65.891151 -333.22845,71.037271 C -333.20379,73.720657 -333.07825,78.360106 -333.03738,73.055681 C -333.068,70.483141 -332.8144,65.683528 -332.82718,70.932851 C -332.79377,73.410395 -332.69679,78.1085 -332.64103,73.016976 C -332.60859,70.898748 -332.54519,66.019689 -332.42687,70.761041 C -332.43213,73.858914 -332.26197,76.331433 -332.23221,71.818247 C -332.14433,66.842925 -332.09981,70.307048 -331.96398,73.277587 C -331.77454,68.867199 -331.72816,70.842631 -331.5668,73.300995 C -331.50058,70.880054 -331.36202,68.165225 -331.3021,72.191196 C -331.1445,76.393317 -331.05939,64.623891 -330.95712,71.271081 C -330.92501,76.140398 -330.72813,73.103865 -330.72693,70.026789 C -330.57226,65.894305 -330.51428,79.130816 -330.39725,72.481721 C -330.37744,70.150948 -330.26099,65.691385 -330.20063,70.768733 C -330.19162,73.299467 -330.09602,76.858894 -329.99765,72.256019 C -330.01293,69.480665 -329.8496,65.587934 -329.82885,70.630497 C -329.79625,73.04383 -329.70066,78.125013 -329.64099,72.924616 C -329.68355,70.482862 -329.41653,66.324251 -329.44194,71.116829 C -329.41741,73.909039 -329.28915,77.634576 -329.26225,72.656248 C -329.22885,70.287711 -329.13842,65.154356 -329.07396,70.317042 C -329.11253,72.769596 -328.85338,76.99634 -328.87618,72.157115 C -328.84974,69.374101 -328.72588,65.566685 -328.69623,70.575902 C -328.66257,72.951457 -328.57392,78.072726 -328.50696,72.908256 C -328.54383,70.429503 -328.2897,66.18916 -328.31042,71.065316 C -328.28226,73.840902 -328.16254,77.737702 -328.13016,72.692096 C -328.0973,70.30388 -328.00791,65.194458 -327.93932,70.368461 C -327.97947,72.874283 -327.72485,77.120675 -327.7446,72.210483 C -327.7147,69.446931 -327.59929,65.456713 -327.56398,70.535301 C -327.53109,72.934842 -327.44322,78.023451 -327.37183,72.845426 C -327.41059,70.314473 -327.16138,66.071782 -327.17876,71.009099 C -327.14719,73.756797 -327.03604,77.837242 -326.99786,72.731847 C -326.96504,70.323532 -326.87851,65.263119 -326.80419,70.438802 C -326.84141,72.991386 -326.59804,77.224405 -326.61285,72.26692 C -326.57971,69.541449 -326.47282,65.373622 -326.43153,70.496906 C -326.39877,72.914044 -326.31395,77.929195 -326.23628,72.763572 C -326.27102,70.183377 -326.03496,65.973514 -326.0468,70.951437 C -326.01186,73.662409 -325.9096,77.918764 -325.86501,72.768626 C -325.83251,70.340696 -325.74938,65.353354 -325.66864,70.519144 C -325.70175,73.123697 -325.47136,77.323523 -325.48135,72.32264 C -325.44567,69.61702 -325.34557,65.290599 -325.30002,70.468746 C -325.26766,72.827334 -325.18535,77.903535 -325.10573,72.780797 C -325.14512,70.329648 -324.9052,66.087168 -324.91821,70.932678 C -324.88733,73.452821 -324.77928,77.634859 -324.73842,72.73819 C -324.71737,69.609952 -324.57506,66.24154 -324.54105,71.250693 C -324.40897,78.661236 -324.33089,68.372636 -324.21541,69.169633 C -324.16597,71.551839 -324.03954,76.708884 -323.95133,71.50079 C -323.8228,65.855094 -323.70021,77.097355 -323.56838,71.783672 C -323.39127,65.12345 -323.30115,79.100008 -323.16983,71.930872 C -323.05212,65.869835 -323.0079,72.979149 -322.86478,75.208301 C -322.82831,72.69643 -322.7047,63.686875 -322.64352,70.610787 C -322.5943,73.418042 -322.53412,78.545129 -322.46577,72.867511 C -322.42353,70.477626 -322.38367,64.984815 -322.28484,70.329977 C -322.27881,72.46918 -322.20189,77.294191 -322.0975,72.55075 C -322.15286,69.245195 -321.8898,67.069157 -321.92895,71.64117 C -321.87094,76.071231 -321.75877,74.205532 -321.74146,70.877265 C -321.61763,63.725134 -321.53112,79.993599 -321.42563,71.691182 C -321.32328,64.834724 -321.25407,74.801921 -321.1522,73.760373 C -321.09103,71.041585 -320.99066,66.433576 -320.93168,71.731313 C -320.81459,80.50954 -320.72377,63.127078 -320.61811,70.833422 C -320.56562,73.272661 -320.51648,77.163182 -320.44916,72.499613 C -320.4022,70.070095 -320.35745,65.881841 -320.27836,70.677336 C -320.24212,73.009983 -320.19724,77.377133 -320.106,72.610019 C -320.08622,70.451919 -320.03537,66.067639 -319.9316,70.636122 C -319.97866,73.836343 -319.76627,76.118251 -319.75567,71.597874 C -319.74307,66.988992 -319.53722,69.470372 -319.58092,72.654648 C -319.41961,80.453935 -319.37685,61.928839 -319.26897,70.724379 C -319.24109,73.451206 -319.12271,77.815374 -319.10218,72.594586 C -319.06079,69.82896 -318.97151,65.212249 -318.93471,70.599388 C -318.88531,73.361791 -318.81763,78.151819 -318.76643,72.685455 C -318.71409,69.968474 -318.66148,65.08152 -318.59723,70.541211 C -318.54697,73.170638 -318.50328,78.07838 -318.42714,72.711089 C -318.38404,70.210565 -318.34317,65.359002 -318.2559,70.548581 C -318.22536,72.880484 -318.18118,77.598576 -318.08321,72.670439 C -318.09246,69.427793 -317.96073,66.621403 -317.89966,71.459793 C -317.96546,75.852631 -317.66919,74.076771 -317.73591,70.736615 C -317.56696,63.382863 -317.52416,80.749243 -317.41679,72.440676 C -317.40831,69.793731 -317.25284,65.747925 -317.25072,70.722683 C -317.22253,73.452214 -317.10475,77.821085 -317.08396,72.594935 C -317.04241,69.825981 -316.95346,65.205367 -316.91646,70.598196 C -316.86699,73.362567 -316.79959,78.159753 -316.74815,72.687712 C -316.69582,69.972059 -316.64346,65.076369 -316.57889,70.538636 C -316.52877,73.162042 -316.48528,78.076332 -316.40873,72.713032 C -316.36593,70.224059 -316.32514,65.371745 -316.23741,70.548036 C -316.20742,72.862413 -316.16315,77.572858 -316.06461,72.669101 C -316.0751,69.461718 -315.94214,66.651231 -315.8812,71.45498 C -315.94838,75.800579 -315.64984,74.05093 -315.71764,70.742776 C -315.54891,63.463528 -315.50702,80.59876 -315.39853,72.43871 C -315.38895,69.871106 -315.23571,65.863235 -315.23259,70.729641 C -315.20505,73.349083 -315.08719,77.647513 -315.06576,72.580982 C -315.02434,69.957705 -314.93616,65.450294 -314.89837,70.621618 C -314.8492,73.201573 -314.78232,77.831378 -314.7302,72.652011 C -314.67805,70.159796 -314.62637,65.4968 -314.56114,70.589457 C -314.51079,72.954184 -314.46849,77.561798 -314.39125,72.644806 C -314.34744,70.441294 -314.30881,65.972858 -314.22039,70.634589 C -314.2021,73.707287 -314.10334,76.346824 -314.03366,71.772234 C -313.96368,64.853451 -313.89468,73.968022 -313.75284,73.719115 C -313.73815,70.897359 -313.52993,67.502643 -313.52554,72.348531 C -313.37234,77.485226 -313.30654,64.662034 -313.20385,71.419605 C -313.07952,79.436765 -312.97858,64.572052 -312.87746,70.810369 C -312.82841,73.646883 -312.73535,75.517604 -312.68237,71.533945 C -312.59231,65.830156 -312.46026,76.906484 -312.34014,71.332685 C -312.19817,69.230656 -312.1523,74.212777 -311.77715,71.529711 C -310.96117,69.601749 -311.39264,74.281657 -311.04971,71.001866 C -310.90346,70.127799 -310.75534,75.947879 -310.6421,70.087402 C -310.4928,73.435415 -310.3928,74.656092 -310.33125,70.564886 C -310.2018,66.614038 -310.08221,77.621977 -309.9767,71.053522 C -309.80802,65.67923 -309.75939,78.382657 -309.61476,72.085274 C -309.55735,66.981739 -309.3981,71.868649 -309.32651,74.285784 C -309.20911,71.732404 -309.13933,65.889463 -309.0392,71.579709 C -308.94087,80.234859 -308.76845,63.030262 -308.68132,70.849698 C -308.63656,73.09487 -308.56653,77.384281 -308.49549,72.755486 C -308.47284,70.478951 -308.39201,66.493953 -308.28591,71.015409 C -308.30216,73.621886 -308.13099,77.170075 -308.11551,72.488247 C -308.07057,70.153484 -308.00333,65.501141 -307.92936,70.40318 C -307.90793,72.76788 -307.82769,76.964053 -307.71833,72.240331 C -307.7349,69.539175 -307.56756,65.823071 -307.54962,70.694533 C -307.50453,73.066129 -307.43983,77.957229 -307.36301,72.902379 C -307.3417,70.494872 -307.26477,66.198057 -307.15268,71.019303 C -307.16386,73.772473 -307.00486,77.569951 -306.98366,72.599743 C -306.95156,70.166345 -306.85294,65.18387 -306.79577,70.371735 C -306.84343,72.804341 -306.56917,76.808526 -306.59709,72.103122 C -306.57406,69.306859 -306.44206,65.682212 -306.41763,70.61413 C -306.38457,73.001527 -306.29156,78.100134 -306.2299,72.926319 C -306.27084,70.482909 -306.00654,66.309299 -306.03129,71.111688 C -306.00622,73.904813 -305.87909,77.646957 -305.85155,72.659252 C -305.81806,70.285644 -305.72813,65.152353 -305.663,70.320568 C -305.70091,72.784392 -305.44338,77.024375 -305.4655,72.165727 C -305.43849,69.382403 -305.316,65.539495 -305.28542,70.566827 C -305.25256,72.948801 -305.16239,78.071931 -305.09536,72.899061 C -305.13598,70.408775 -304.87867,66.160231 -304.89966,71.05355 C -304.87079,73.824883 -304.75284,77.761711 -304.71926,72.700925 C -304.68637,70.307751 -304.59762,65.205092 -304.52789,70.381909 C -304.56748,72.89832 -304.31504,77.144533 -304.33383,72.22224 C -304.30323,69.465037 -304.18961,65.436801 -304.15314,70.527095 C -304.12035,72.929592 -304.03284,78.008077 -303.96022,72.831129 C -303.99869,70.292898 -303.7516,66.053032 -303.76799,70.997346 C -303.73584,73.733974 -303.62634,77.849069 -303.58697,72.739082 C -303.55419,70.335012 -303.46832,65.288777 -303.39285,70.452909 C -303.42968,73.001126 -303.18826,77.225916 -303.20218,72.27738 C -303.1687,69.576042 -303.06302,65.388379 -303.0208,70.494062 C -302.98718,72.882683 -302.90539,77.876442 -302.82565,72.754708 C -302.85593,70.218394 -302.62652,66.030406 -302.63641,70.947699 C -302.60191,73.591481 -302.49958,77.817725 -302.45464,72.758588 C -302.42147,70.406437 -302.34057,65.504541 -302.25829,70.540893 C -302.28837,73.04326 -302.06296,77.158147 -302.07049,72.314923 C -302.03433,69.753717 -301.93649,65.524017 -301.88843,70.490641 C -301.85591,72.791331 -301.77564,77.547221 -301.68978,72.6388 C -301.71922,70.20158 -301.50073,66.170853 -301.50392,70.898991 C -301.4659,73.281622 -301.37546,77.556695 -301.32091,72.774095 C -301.30674,69.521113 -301.15533,66.710625 -301.10848,71.56249 C -301.07295,76.048276 -300.91371,74.079128 -300.89753,70.751038 C -300.78371,63.53083 -300.68309,79.79248 -300.52666,71.262472 C -300.41591,66.451357 -300.21782,77.870966 -300.16318,70.989197 C -299.95946,68.874405 -299.9462,76.106414 -299.74941,70.645154 C -299.58038,72.090376 -299.52285,75.107075 -299.43609,70.984791 C -299.30152,65.704391 -299.18926,78.560906 -299.07212,71.851897 C -298.99122,65.321203 -298.86517,71.896312 -298.77883,74.759744 C -298.62759,72.494356 -298.59825,63.824542 -298.49171,70.270677 C -298.52276,72.852447 -298.25989,77.375092 -298.27483,72.246656 C -298.24966,69.599945 -298.12605,65.184099 -298.07692,70.338242 C -298.09214,72.729154 -297.87602,77.632705 -297.8634,72.549838 C -297.82985,70.090112 -297.73616,65.814819 -297.64475,70.68596 C -297.64738,72.936194 -297.47511,77.508691 -297.44027,72.743618 C -297.46246,70.525206 -297.21882,66.394964 -297.21782,70.917213 C -297.18477,73.391198 -297.08184,76.984204 -296.99721,72.428179 C -296.99752,70.077242 -296.82575,65.769231 -296.79456,70.530571 C -296.81347,72.95527 -296.56817,77.00851 -296.57358,72.284013 C -296.54102,69.599344 -296.43311,65.766577 -296.36018,70.678149 C -296.35586,73.151907 -296.19424,77.906387 -296.15772,72.793581 C -296.12779,70.215168 -296.04042,65.91457 -295.92393,70.93418 C -295.93089,73.640176 -295.78213,77.957078 -295.73163,72.783886 C -295.7384,70.223162 -295.53553,65.407157 -295.51933,70.650553 C -295.48577,73.364603 -295.39197,77.726045 -295.29744,72.522102 C -295.3023,69.980442 -295.13223,65.097469 -295.09993,70.350458 C -295.12595,72.889788 -294.87355,77.438244 -294.87949,72.345713 C -294.84745,69.589646 -294.73988,65.416562 -294.66834,70.576615 C -294.66421,73.081732 -294.49903,78.066294 -294.46375,72.810304 C -294.43259,70.213716 -294.34673,65.796011 -294.23119,70.892513 C -294.23599,73.579667 -294.08758,77.993802 -294.0373,72.794928 C -294.04499,70.253077 -293.83992,65.436676 -293.82426,70.658119 C -293.79074,73.35071 -293.69682,77.691162 -293.60237,72.52184 C -293.60635,70.009938 -293.43857,65.149884 -293.40496,70.357188 C -293.42693,72.851079 -293.18006,77.374969 -293.18433,72.346722 C -293.15257,69.664143 -293.04522,65.51693 -292.97325,70.58121 C -292.97016,72.991169 -292.80454,77.89978 -292.76871,72.791667 C -292.73725,70.338845 -292.65354,66.000412 -292.53631,70.893281 C -292.54164,73.375999 -292.39418,77.664794 -292.34272,72.760628 C -292.35221,70.47105 -292.14649,65.894126 -292.12956,70.707277 C -292.09628,73.058629 -292.00439,77.128536 -291.90788,72.480332 C -291.91439,69.26054 -291.70566,66.539731 -291.69982,71.311322 C -291.64014,75.537502 -291.46017,74.004938 -291.4504,70.701813 C -291.32313,63.820873 -291.18705,79.912613 -291.05418,71.846267 C -290.97834,66.754133 -290.84521,71.640748 -290.71984,74.068699 C -290.66428,71.120804 -290.44364,67.842578 -290.37013,72.827154 C -290.25239,73.910321 -290.04708,67.206311 -289.96436,72.289105 C -289.76939,74.231692 -289.67323,67.072128 -289.54207,72.151714 C -289.32164,74.624326 -289.28774,67.336281 -289.10613,72.268022 C -289.04625,75.879887 -288.73248,66.257163 -288.68662,72.702026 C -288.44953,73.540295 -288.401,66.883534 -288.29107,71.762681 C -288.16177,76.13714 -287.92834,65.639641 -287.87177,71.9241 C -287.69089,77.590087 -287.57182,65.358753 -287.43328,72.246922 C -287.30566,78.168795 -287.14339,64.536789 -287.02256,71.644002 C -286.87026,79.047796 -286.71354,63.130282 -286.60516,71.349849 C -286.42693,79.867134 -286.33018,62.71552 -286.19011,70.751732 C -286.18555,73.046452 -286.02169,77.403931 -285.98661,72.685867 C -285.95685,70.267711 -285.86743,66.328049 -285.75255,70.990351 C -285.7595,73.554379 -285.60983,77.543992 -285.55969,72.691433 C -285.56471,70.241067 -285.36384,65.735136 -285.34741,70.704536 C -285.31432,73.328244 -285.21903,77.438261 -285.1242,72.459302 C -285.12916,69.963077 -284.9612,65.319398 -284.92773,70.407513 C -284.94849,72.910508 -284.70346,77.328892 -284.70757,72.339927 C -284.67534,69.615319 -284.56827,65.529863 -284.49546,70.611312 C -284.49119,73.093938 -284.32802,78.004032 -284.29173,72.808904 C -284.26121,70.233343 -284.17485,65.86578 -284.05818,70.914175 C -284.06416,73.606586 -283.91588,77.948704 -283.86478,72.778723 C -283.8714,70.234549 -283.66926,65.425804 -283.65235,70.646421 C -283.61904,73.34667 -283.52515,77.680979 -283.42942,72.505939 C -283.43455,69.956582 -283.26567,65.125707 -283.23216,70.363404 C -283.25704,72.903178 -283.00795,77.460634 -283.01236,72.363305 C -282.98009,69.609927 -282.87366,65.429152 -282.80029,70.589914 C -282.79579,73.089119 -282.63325,78.076411 -282.59652,72.826179 C -282.56594,70.24076 -282.48002,65.822864 -282.36287,70.906677 C -282.36881,73.606993 -282.22094,77.977882 -282.16947,72.784961 C -282.17577,70.237686 -281.97435,65.40506 -281.95707,70.640435 C -281.92379,73.341524 -281.83005,77.689172 -281.73401,72.506713 C -281.7392,69.955414 -281.57055,65.121399 -281.5368,70.36282 C -281.56154,72.901775 -281.31292,77.46646 -281.31708,72.366663 C -281.28479,69.6165 -281.17854,65.431489 -281.1049,70.590695 C -281.10039,73.084195 -280.93821,78.071495 -280.90122,72.82803 C -280.87069,70.253488 -280.78497,65.836113 -280.66746,70.907165 C -280.67367,73.592733 -280.52581,77.955295 -280.47415,72.783231 C -280.48082,70.258687 -280.27935,65.437253 -280.26184,70.640727 C -280.22861,73.305745 -280.13519,77.639145 -280.03869,72.504719 C -280.04341,69.999974 -279.877,65.203261 -279.84181,70.37265 C -279.86279,72.846436 -279.61952,77.364578 -279.62184,72.362408 C -279.58973,69.70487 -279.48388,65.578022 -279.40978,70.603949 C -279.40643,72.990155 -279.24352,77.859423 -279.20611,72.797563 C -279.17541,70.366869 -279.09123,66.071456 -278.97236,70.918396 C -278.97906,73.416811 -278.83198,77.620344 -278.7794,72.739002 C -278.78679,70.429034 -278.58542,65.858627 -278.56692,70.692992 C -278.53398,73.084055 -278.44159,77.153406 -278.34366,72.459788 C -278.35112,70.264686 -278.18217,65.848395 -278.14696,70.476626 C -278.1558,73.685642 -277.90362,76.043249 -277.90783,71.475606 C -277.8773,66.98624 -277.69961,69.168064 -277.68437,72.390464 C -277.51764,79.633653 -277.46196,63.506506 -277.26429,71.74338 C -277.17982,79.867759 -276.99266,64.769779 -276.86551,71.153544 C -276.77302,76.672805 -276.64923,69.743931 -276.48434,70.079476 C -276.50342,72.946728 -276.13449,74.143769 -276.17385,70.371036 C -275.96867,69.862459 -275.93014,75.377957 -275.75265,71.12802 C -275.52937,69.453542 -275.50003,75.312047 -275.24733,70.667841 C -274.81177,73.552037 -275.91017,70.835599 -272.16903,71.63201" />
  </g>
</svg>
