<?xml version="1.0" encoding="UTF-8" standalone="no"?>
<svg
   xmlns:dc="http://purl.org/dc/elements/1.1/"
   xmlns:cc="http://creativecommons.org/ns#"
   xmlns:rdf="http://www.w3.org/1999/02/22-rdf-syntax-ns#"
   xmlns:svg="http://www.w3.org/2000/svg"
   xmlns="http://www.w3.org/2000/svg"
   xmlns:sodipodi="http://sodipodi.sourceforge.net/DTD/sodipodi-0.dtd"
   xmlns:inkscape="http://www.inkscape.org/namespaces/inkscape"
   width="35.330093mm"
   height="33.331585mm"
   viewBox="0 0 35.330093 33.331585"
   version="1.1"
   id="svg8"
   sodipodi:docname="time-frequency-shift-2.svg"
   inkscape:version="1.0.1 (3bc2e813f5, 2020-09-07)">
  <defs
     id="defs2" />
  <sodipodi:namedview
     id="base"
     pagecolor="#ffffff"
     bordercolor="#666666"
     borderopacity="1.0"
     inkscape:pageopacity="0.0"
     inkscape:pageshadow="2"
     inkscape:zoom="2.8"
     inkscape:cx="29.108915"
     inkscape:cy="58.500832"
     inkscape:document-units="mm"
     inkscape:current-layer="layer1"
     inkscape:document-rotation="0"
     showgrid="false"
     inkscape:window-width="1920"
     inkscape:window-height="1001"
     inkscape:window-x="-9"
     inkscape:window-y="1341"
     inkscape:window-maximized="1"
     inkscape:snap-global="true"
     inkscape:snap-page="true" />
  <metadata
     id="metadata5">
    <rdf:RDF>
      <cc:Work
         rdf:about="">
        <dc:format>image/svg+xml</dc:format>
        <dc:type
           rdf:resource="http://purl.org/dc/dcmitype/StillImage" />
        <dc:title />
      </cc:Work>
    </rdf:RDF>
  </metadata>
  <g
     inkscape:label="Layer 1"
     inkscape:groupmode="layer"
     id="layer1"
     transform="translate(-48.898885,-217.86757)">
    <path
       id="path4163"
       style="fill:none;stroke:#fd8b28;stroke-width:0.35;stroke-linecap:butt;stroke-linejoin:round;stroke-miterlimit:10;stroke-dasharray:none;stroke-opacity:1"
       d="M 66.215837,234.53352 C 66.204603,234.52454 66.221769,234.56734 66.238415,234.53325 C 66.206039,234.4047 66.058079,234.60542 66.186745,234.64674 C 66.42906,234.76055 66.536746,234.344 66.323111,234.24122 C 65.893235,233.95699 65.45332,234.6095 65.724004,234.98425 C 66.0677,235.63392 67.085005,235.43655 67.34192,234.8069 C 67.823572,233.88435 66.970113,232.76384 65.987958,232.74119 C 64.616357,232.60513 63.522755,234.03735 63.747223,235.33828 C 63.924609,236.94501 65.603998,238.06461 67.161078,237.85081 C 69.13224,237.67113 70.622898,235.74748 70.552078,233.8131 C 70.561279,231.50987 68.648666,229.49855 66.414082,229.15147 C 63.889574,228.6725 61.24181,230.17817 60.180713,232.48276 C 58.891042,235.07298 59.613712,238.39695 61.709955,240.34847 C 63.93731,242.54177 67.529471,243.04397 70.331528,241.71891 C 73.398592,240.35914 75.390962,237.04737 75.310133,233.71412 C 75.302769,230.12526 72.987087,226.71999 69.716147,225.2843 C 66.291255,223.68858 62.019376,224.31769 59.136007,226.73554 C 56.123051,229.16018 54.687933,233.31289 55.481645,237.08782 C 56.222384,240.98955 59.252838,244.31922 63.04553,245.47396 C 66.914483,246.73422 71.404732,245.66889 74.314511,242.83013 C 77.295815,240.03152 78.5548,235.57149 77.482824,231.6262 C 76.485406,227.65273 73.188765,224.37253 69.203666,223.41265 C 65.308993,222.39383 60.919035,223.6708 58.206859,226.65308 C 55.510458,229.50328 54.542682,233.86044 55.844527,237.57053 C 57.03604,241.19543 60.34821,244.03209 64.141107,244.55617 C 67.78202,245.13999 71.691589,243.49174 73.728123,240.39935 C 75.691956,237.55384 75.860667,233.56265 74.012658,230.61825 C 72.374118,227.86826 69.047476,226.20265 65.863099,226.70016 C 62.878993,227.087 60.223983,229.44514 59.665642,232.43001 C 59.093462,235.07222 60.34826,238.04239 62.769882,239.31206 C 64.862312,240.49251 67.753052,240.13797 69.354554,238.29463 C 70.804123,236.75194 70.99563,234.12478 69.569652,232.50405 C 68.474202,231.14752 66.304625,230.7367 64.884064,231.82075 C 63.692534,232.64196 63.297315,234.5061 64.308599,235.62391 C 65.026879,236.54018 66.659638,236.60403 67.276557,235.5462 C 67.75048,234.87026 67.359614,233.71805 66.478125,233.67673 C 65.938123,233.59499 65.399962,234.26537 65.77387,234.7306 C 65.950325,235.03442 66.54896,234.8823 66.419741,234.50932 C 66.386632,234.32329 66.04002,234.40565 66.167981,234.56777 C 66.232363,234.63072 66.255942,234.48601 66.210388,234.5346 C 66.217366,234.54168 66.218826,234.53045 66.215837,234.53352 Z" />
  </g>
</svg>
