<?xml version="1.0" encoding="UTF-8" standalone="no"?>
<svg
   xmlns:dc="http://purl.org/dc/elements/1.1/"
   xmlns:cc="http://creativecommons.org/ns#"
   xmlns:rdf="http://www.w3.org/1999/02/22-rdf-syntax-ns#"
   xmlns:svg="http://www.w3.org/2000/svg"
   xmlns="http://www.w3.org/2000/svg"
   xmlns:sodipodi="http://sodipodi.sourceforge.net/DTD/sodipodi-0.dtd"
   xmlns:inkscape="http://www.inkscape.org/namespaces/inkscape"
   width="139.55484mm"
   height="5.0507269mm"
   viewBox="0 0 139.55484 5.0507269"
   version="1.1"
   id="svg29169"
   sodipodi:docname="time-frequency-cut-2.svg"
   inkscape:version="1.0.1 (3bc2e813f5, 2020-09-07)">
  <defs
     id="defs29163" />
  <sodipodi:namedview
     id="base"
     pagecolor="#ffffff"
     bordercolor="#666666"
     borderopacity="1.0"
     inkscape:pageopacity="0.0"
     inkscape:pageshadow="2"
     inkscape:zoom="2.8"
     inkscape:cx="311.86632"
     inkscape:cy="-33.092635"
     inkscape:document-units="mm"
     inkscape:current-layer="layer1"
     inkscape:document-rotation="0"
     showgrid="false"
     inkscape:window-width="1920"
     inkscape:window-height="1001"
     inkscape:window-x="-9"
     inkscape:window-y="1341"
     inkscape:window-maximized="1" />
  <metadata
     id="metadata29166">
    <rdf:RDF>
      <cc:Work
         rdf:about="">
        <dc:format>image/svg+xml</dc:format>
        <dc:type
           rdf:resource="http://purl.org/dc/dcmitype/StillImage" />
        <dc:title></dc:title>
      </cc:Work>
    </rdf:RDF>
  </metadata>
  <g
     inkscape:label="Layer 1"
     inkscape:groupmode="layer"
     id="layer1"
     transform="translate(-24.943697,-137.98088)">
    <g
       id="g31854"
       transform="matrix(0.21166666,0,0,0.21166665,14.389648,54.040151)">
      <path
         d="M 49.91906,408.46329 L 50,408.45203 L 50.355312,408.49988 L 50.710625,408.43835 L 51.065933,408.49756 L 51.421246,408.41196 L 51.776558,408.49332 L 52.13187,408.34317 L 52.487179,408.48178 L 52.842491,407.92358 L 53.197803,408.47678 L 53.553116,409.93082 L 53.908424,408.79349 L 54.263737,407.08469 L 54.619049,407.91422 L 54.974361,410.2027 L 55.32967,409.49887 L 55.684982,406.79016 L 56.040295,407.04242 L 56.395603,410.28061 L 56.750916,410.50394 L 57.106228,406.89117 L 57.46154,405.93237 L 57.816849,409.8902 L 58.172161,411.65656 L 58.527473,407.57483 L 58.882782,404.80634 L 59.238094,408.85718 L 59.593407,412.66266 L 59.948719,408.9408 L 60.304028,404.01645 L 60.65934,407.16254 L 61.014652,413.13058 L 61.369965,410.89792 L 61.725273,403.96521 L 62.080585,405.01456 L 62.435898,412.68082 L 62.791206,413.11383 L 63.146519,404.97073 L 63.501831,402.85876 L 63.857143,411.09476 L 64.212456,415.04944 L 64.567764,407.11777 L 64.92308,401.29324 L 65.278389,408.4472 L 65.633698,416.09036 L 65.989014,410.1586 L 66.344322,400.89813 L 66.699631,405.15674 L 67.054947,415.74191 L 67.410255,413.52185 L 67.765564,402.03485 L 68.12088,401.91412 L 68.476189,413.81381 L 68.831505,416.44339 L 69.186813,404.69754 L 69.542122,399.5033 L 69.897438,410.51697 L 70.252747,418.17697 L 70.608055,408.48083 L 70.963371,398.57434 L 71.31868,406.42554 L 71.673988,418.20987 L 72.029304,412.66968 L 72.384613,399.47916 L 72.739929,402.35516 L 73.095238,416.38135 L 73.450546,416.40399 L 73.805862,402.16483 L 74.161171,399.1564 L 74.516479,412.95221 L 74.871796,418.89108 L 75.227104,406.18185 L 75.582413,397.51855 L 75.937729,408.5347 L 76.293037,419.58322 L 76.648354,410.79013 L 77.003662,397.81863 L 77.358971,403.95554 L 77.714287,418.29276 L 78.069595,415.12109 L 78.424904,400.04709 L 78.78022,400.07938 L 79.135529,415.22342 L 79.490845,418.35803 L 79.846153,403.81891 L 80.201462,397.6348 L 80.556778,410.91983 L 80.912086,419.89499 L 81.267403,408.45874 L 81.622711,397.07773 L 81.97802,406.15356 L 82.333336,419.4454 L 82.688644,413.13644 L 83.043953,398.5145 L 83.399269,401.77396 L 83.754578,417.08539 L 84.109894,417.02267 L 84.465202,401.69272 L 84.820511,398.55322 L 85.175827,413.22998 L 85.531136,419.43597 L 85.886444,406.05493 L 86.24176,397.05304 L 86.597069,408.55289 L 86.952385,419.95767 L 87.307693,410.84171 L 87.663002,397.5321 L 88.018318,403.86591 L 88.373627,418.49915 L 88.728943,415.22409 L 89.084251,399.90619 L 89.43956,399.97949 L 89.794876,415.31317 L 90.150185,418.44473 L 90.505493,403.76505 L 90.860809,397.56564 L 91.216118,410.95001 L 91.571426,419.94574 L 91.926743,408.44156 L 92.282051,397.04382 L 92.637367,406.16534 L 92.992676,419.46481 L 93.347984,413.12369 L 93.7033,398.50684 L 94.058609,401.79276 L 94.413918,417.08414 L 94.769234,416.99255 L 95.124542,401.69943 L 95.479851,398.6001 L 95.835167,413.22256 L 96.190475,419.3663 L 96.545792,406.05582 L 96.9011,397.15128 L 97.256409,408.56915 L 97.611725,419.82645 L 97.967033,410.79379 L 98.322342,397.69766 L 98.677658,403.96399 L 99.032967,418.3031 L 99.388275,415.05429 L 99.743591,400.12161 L 100.0989,400.2439 L 100.45421,415.09869 L 100.80952,418.06427 L 101.16483,403.948 L 101.52015,398.07867 L 101.87546,410.83957 L 102.23077,419.29269 L 102.58608,408.42932 L 102.94139,397.83118 L 103.29671,406.35678 L 103.65202,418.56598 L 104.00732,412.69443 L 104.36263,399.47452 L 104.71795,402.51474 L 105.07327,416.11163 L 105.42857,415.93356 L 105.78388,402.59219 L 106.13919,400.02249 L 106.49451,412.51178 L 106.84982,417.57922 L 107.20513,406.47043 L 107.56044,399.27307 L 107.91575,408.569 L 108.27106,417.4353 L 108.62637,410.26712 L 108.98169,400.25583 L 109.337,405.11249 L 109.69231,415.71539 L 110.04762,413.21793 L 110.40293,402.57181 L 110.75825,402.79419 L 111.11356,412.97333 L 111.46886,414.82288 L 111.82417,405.55359 L 112.17948,401.93372 L 112.53481,409.94113 L 112.89011,414.95761 L 113.24542,408.45724 L 113.60073,402.46008 L 113.95604,407.3223 L 114.31136,413.87344 L 114.66667,410.66736 L 115.02198,403.97009 L 115.37729,405.60583 L 115.7326,412.08597 L 116.08791,411.84741 L 116.44323,405.88306 L 116.79854,404.96506 L 117.15385,410.19168 L 117.50916,411.9845 L 117.86446,407.6348 L 118.21978,405.26602 L 118.5751,408.67737 L 118.9304,411.32852 L 119.28571,408.84882 L 119.64102,406.18381 L 119.99634,407.79172 L 120.35165,410.24243 L 120.70696,409.41125 L 121.06227,407.35223 L 121.41758,407.51804 L 121.77289,409.06436 L 122.1282,409.45407 L 122.48352,408.48383 L 122.83883,407.63223 L 123.19414,408.01837 L 123.54945,409.26501 L 123.90476,409.42096 L 124.26007,407.81393 L 124.61539,407.20105 L 124.9707,409.16589 L 125.326,410.11575 L 125.68132,407.76917 L 126.03663,406.62903 L 126.39194,409.39767 L 126.74725,410.56256 L 127.10256,407.32864 L 127.45788,406.31668 L 127.81319,410.04758 L 128.1685,410.72226 L 128.5238,406.48779 L 128.87912,406.33636 L 129.23444,411.04532 L 129.58975,410.49091 L 129.94505,405.37851 L 130.30037,406.8111 L 130.65567,412.2121 L 131.01099,409.74765 L 131.3663,404.21429 L 131.72162,407.83484 L 132.07692,413.30759 L 132.43224,408.4473 L 132.78754,403.25824 L 133.14285,409.39105 L 133.49817,414.05066 L 133.85349,406.67038 L 134.20879,402.79968 L 134.5641,411.34186 L 134.91942,414.16138 L 135.27473,404.60156 L 135.63004,403.08521 L 135.98535,413.46506 L 136.34065,413.45197 L 136.69597,402.49603 L 137.05128,404.22372 L 137.4066,415.47348 L 137.7619,411.90109 L 138.11722,400.67044 L 138.47252,406.15277 L 138.82784,417.02963 L 139.18315,409.64188 L 139.53847,399.46518 L 139.89377,408.68433 L 140.24908,417.81543 L 140.6044,406.90482 L 140.9597,399.14914 L 141.31502,411.55133 L 141.67033,417.63229 L 142.02563,403.99176 L 142.38095,399.84027 L 142.73627,414.41953 L 143.09158,416.44211 L 143.44688,401.26187 L 143.8022,401.50497 L 144.1575,416.91965 L 144.51282,414.34027 L 144.86813,399.07486 L 145.22345,403.99399 L 145.57875,418.72183 L 145.93407,411.52548 L 146.28938,397.7149 L 146.64468,407.06235 L 147,419.59695 L 147.35532,408.28433 L 147.71062,397.35248 L 148.06593,410.39005 L 148.42125,419.43338 L 148.77655,404.95862 L 149.13187,398.04129 L 149.48718,413.6265 L 149.8425,418.23425 L 150.1978,401.89511 L 150.55312,399.72269 L 150.90842,416.43958 L 151.26373,416.11133 L 151.61905,399.40289 L 151.97437,402.23645 L 152.32967,418.55145 L 152.68498,413.26773 L 153.0403,397.72131 L 153.3956,405.34073 L 153.75092,419.76184 L 154.10623,409.97604 L 154.46153,397.00989 L 154.81685,408.74268 L 155.17216,419.95862 L 155.52747,406.54269 L 155.88278,397.33139 L 156.23808,412.12863 L 156.59341,419.1272 L 156.94872,403.28116 L 157.30403,398.65298 L 157.65935,415.19211 L 158.01465,417.34592 L 158.36996,400.4845 L 158.72527,400.85336 L 159.08058,417.65939 L 159.4359,414.77606 L 159.7912,398.40173 L 160.14653,403.73505 L 160.50183,419.3111 L 160.85715,411.64706 L 161.21246,397.21826 L 161.56776,407.04132 L 161.92308,419.99945 L 162.27838,408.23776 L 162.6337,397.04105 L 162.98901,410.47678 L 163.34431,419.66086 L 163.69963,404.854 L 164.05495,397.88855 L 164.41026,413.73163 L 164.76556,418.32291 L 165.12088,401.80292 L 165.4762,399.68692 L 165.8315,416.50809 L 166.18681,416.10513 L 166.54211,399.3663 L 166.89743,402.27267 L 167.25275,418.547 L 167.60806,413.2124 L 167.96338,397.77411 L 168.31868,405.40311 L 168.674,419.65384 L 169.02931,409.92044 L 169.38461,397.1795 L 169.73993,408.77521 L 170.09523,419.72229 L 170.45055,406.5527 L 170.80586,397.63724 L 171.16116,412.05313 L 171.51649,418.75272 L 171.8718,403.44864 L 172.22711,399.0899 L 172.58241,414.90329 L 172.93773,416.85971 L 173.29305,400.92587 L 173.64835,401.3674 L 174.00366,417.03424 L 174.35896,414.26529 L 174.71428,399.23969 L 175.06961,404.20132 L 175.42491,418.2363 L 175.78023,411.27686 L 176.13553,398.54587 L 176.49084,407.2543 L 176.84616,418.41431 L 177.20146,408.25122 L 177.55678,398.87402 L 177.91208,410.1622 L 178.2674,417.60681 L 178.62271,405.54657 L 178.97803,400.11765 L 179.33334,412.58652 L 179.68864,415.98523 L 180.04396,403.46786 L 180.39926,402.04633 L 180.75458,414.26904 L 181.10989,413.83011 L 181.46519,402.21512 L 181.82051,404.34097 L 182.17581,415.07703 L 182.53114,411.48499 L 182.88646,401.84772 L 183.24176,406.64999 L 183.59708,415.02661 L 183.95238,409.29126 L 184.30769,402.27679 L 184.66301,408.66116 L 185.01831,414.27042 L 185.37363,407.51495 L 185.72893,403.30136 L 186.08424,410.16565 L 186.43956,413.03799 L 186.79488,406.30646 L 187.15019,404.68283 L 187.50549,411.0618 L 187.86081,411.56522 L 188.21611,405.7359 L 188.57143,406.18478 L 188.92674,411.29675 L 189.28204,410.10849 L 189.63736,405.83505 L 189.99268,407.50504 L 190.34799,410.89291 L 190.70331,409.02618 L 191.05861,406.46729 L 191.41393,408.26044 L 191.76923,410.1647 L 192.12454,408.63681 L 192.47986,407.11679 L 192.83516,408.3334 L 193.19048,409.7662 L 193.54578,408.72302 L 193.90111,407.16302 L 194.25641,408.32983 L 194.61172,410.03357 L 194.96704,408.39191 L 195.32234,406.79385 L 195.67766,409.14642 L 196.03296,410.15546 L 196.38828,407.14871 L 196.74359,407.29047 L 197.09889,410.49744 L 197.45422,408.81555 L 197.80952,406.21481 L 198.16484,409.39215 L 198.52014,410.45135 L 198.87546,406.41241 L 199.23077,407.6008 L 199.58607,411.3335 L 199.94139,407.79318 L 200.29669,405.76596 L 200.65201,410.93353 L 201.00732,410.11096 L 201.36264,404.81598 L 201.71796,408.86774 L 202.07326,412.39633 L 202.42857,405.82767 L 202.78389,405.72775 L 203.13919,413.03912 L 203.49451,408.94711 L 203.84981,403.28394 L 204.20512,410.97897 L 204.56044,412.7486 L 204.91576,403.4151 L 205.27107,406.80222 L 205.62637,414.91727 L 205.98169,406.69653 L 206.33699,402.66739 L 206.69231,413.69971 L 207.04762,411.77011 L 207.40292,401.16351 L 207.75824,409.15616 L 208.11354,415.85617 L 208.46886,403.70175 L 208.82419,403.47153 L 209.17949,416.31897 L 209.53481,409.38953 L 209.89011,399.86633 L 210.24542,412.37527 L 210.60074,415.29886 L 210.95604,400.71851 L 211.31136,405.79169 L 211.66666,418.0217 L 212.02197,406.01654 L 212.37729,400.09058 L 212.7326,415.69788 L 213.08792,413.13864 L 213.44322,398.57297 L 213.79854,409.23691 L 214.15384,418.22601 L 214.50916,402.39175 L 214.86447,401.96042 L 215.21977,418.30667 L 215.57509,409.7504 L 215.93039,397.8663 L 216.28572,413.07346 L 216.64104,416.7532 L 216.99634,399.34396 L 217.35165,405.18274 L 217.70695,419.56586 L 218.06227,405.78159 L 218.41759,398.83124 L 218.77289,416.53406 L 219.1282,413.83649 L 219.48351,397.49582 L 219.83884,409.15601 L 220.19414,419.20041 L 220.54945,401.98642 L 220.90477,401.31805 L 221.26007,418.96652 L 221.61539,409.98416 L 221.97069,397.18979 L 222.326,413.19189 L 222.68132,417.27347 L 223.03662,399.00696 L 223.39194,404.8967 L 223.74725,419.97397 L 224.10257,405.84116 L 224.45789,398.46646 L 224.81319,416.64072 L 225.1685,414.09604 L 225.5238,397.29828 L 225.87912,409.01617 L 226.23444,419.42477 L 226.58974,402.02072 L 226.94505,401.10944 L 227.30037,419.01382 L 227.65569,410.15237 L 228.01099,397.08386 L 228.3663,413.07907 L 228.72162,417.41696 L 229.07692,399.05356 L 229.43224,404.73892 L 229.78754,419.99942 L 230.14285,405.98471 L 230.49817,398.37341 L 230.85347,416.54239 L 231.2088,414.23709 L 231.5641,397.32642 L 231.91942,408.86127 L 232.27473,419.47601 L 232.63004,402.14853 L 232.98535,400.99152 L 233.34065,418.94846 L 233.69597,410.30463 L 234.05128,397.0687 L 234.40659,412.93478 L 234.76192,417.50797 L 235.11722,399.15109 L 235.47253,404.59702 L 235.82784,419.97263 L 236.18315,406.14191 L 236.53847,398.32483 L 236.89377,416.40494 L 237.24908,414.34952 L 237.60439,397.41724 L 237.9597,408.7052 L 238.31502,419.44901 L 238.67033,402.32574 L 239.02565,400.94376 L 239.38095,418.77386 L 239.73627,410.435 L 240.09158,397.21133 L 240.44688,412.71942 L 240.8022,417.43729 L 241.1575,399.43839 L 241.51282,404.54648 L 241.86812,419.65573 L 242.22345,406.35809 L 242.57877,398.59164 L 242.93407,416.00937 L 243.28938,414.24179 L 243.64468,397.94659 L 244,408.54547 L 244.35532,418.90637 L 244.71062,402.81271 L 245.06593,401.31671 L 245.42123,417.99768 L 245.77655,410.4288 L 246.13188,398.11349 L 246.48718,412.22302 L 246.8425,416.68088 L 247.1978,400.43338 L 247.55312,404.84607 L 247.90842,418.35263 L 248.26373,406.75644 L 248.61905,399.84085 L 248.97435,414.85614 L 249.32967,413.49097 L 249.68498,399.65463 L 250.0403,408.41748 L 250.39561,417.0921 L 250.75092,403.97696 L 251.10623,402.64935 L 251.46153,415.97156 L 251.81685,410.11768 L 252.17216,400.49341 L 252.52747,411.22342 L 252.88278,414.66983 L 253.23808,402.63474 L 253.59341,405.76761 L 253.94872,415.49307 L 254.30403,407.37512 L 254.65935,402.5148 L 255.01465,412.72058 L 255.36996,411.86493 L 255.72527,402.7948 L 256.0806,408.38348 L 256.43588,413.8269 L 256.7912,405.83224 L 257.14651,404.98758 L 257.50183,412.77014 L 257.85715,409.5162 L 258.21246,404.03851 L 258.56778,409.92981 L 258.92307,411.78778 L 259.27838,405.46967 L 259.6337,407.20105 L 259.98901,411.77994 L 260.34433,408.02606 L 260.69962,405.86188 L 261.05496,410.14807 L 261.41025,410.16232 L 261.76556,406.03589 L 262.12088,408.37405 L 262.4762,410.80679 L 262.83151,407.15833 L 263.1868,407.56113 L 263.54211,409.8436 L 263.89743,408.64154 L 264.25275,407.60373 L 264.60806,408.26422 L 264.96338,409.96533 L 265.3187,407.62939 L 265.67398,407.56888 L 266.0293,410.35117 L 266.38461,407.36929 L 266.73993,408.41351 L 267.09525,409.16446 L 267.45053,407.70862 L 267.80585,409.60773 L 268.16116,407.10202 L 268.51648,409.34653 L 268.8718,409.17148 L 269.22711,406.3309 L 269.58243,411.02963 L 269.93774,406.96457 L 270.29303,408.31882 L 270.64835,410.33386 L 271.00366,405.64154 L 271.35898,411.33411 L 271.71429,406.96445 L 272.06961,407.76398 L 272.42493,411.52536 L 272.78021,404.36697 L 273.13553,411.84985 L 273.49084,407.59421 L 273.84616,406.34003 L 274.20148,412.98734 L 274.55676,403.52856 L 274.91208,411.7298 L 275.2674,408.65088 L 275.62271,404.74533 L 275.97803,414.42871 L 276.33331,402.95935 L 276.68863,411.07587 L 277.04395,410.26596 L 277.39926,402.91748 L 277.75458,415.59628 L 278.10989,403.02206 L 278.46521,409.78226 L 278.82053,412.22736 L 279.17584,401.19156 L 279.53113,416.26553 L 279.88644,403.75977 L 280.24176,407.93784 L 280.59708,414.33307 L 280.95239,399.80536 L 281.30768,416.26331 L 281.66299,405.18695 L 282.01831,405.72519 L 282.37363,416.32089 L 282.72894,398.97916 L 283.08423,415.51544 L 283.43954,407.18759 L 283.79486,403.37234 L 284.15018,417.9343 L 284.50549,398.86249 L 284.86078,414.06107 L 285.21613,409.57352 L 285.57144,401.14529 L 285.92676,418.98141 L 286.28207,399.49304 L 286.63736,412.01379 L 286.99268,412.11133 L 287.34799,399.26535 L 287.70331,419.3345 L 288.05862,400.84381 L 288.41391,409.56448 L 288.76923,414.56537 L 289.12454,397.92273 L 289.47986,418.95273 L 289.83517,402.78699 L 290.19046,406.91666 L 290.54578,416.72314 L 290.90109,397.22473 L 291.25641,417.86853 L 291.61172,405.18018 L 291.96701,404.29016 L 292.32233,418.41574 L 292.67767,397.22754 L 293.03299,416.16571 L 293.38828,407.82239 L 293.74359,401.87262 L 294.09891,419.52795 L 294.45422,397.91721 L 294.80954,413.97931 L 295.16483,410.54523 L 295.52014,399.8287 L 295.87546,419.991 L 296.23077,399.24005 L 296.58609,411.45053 L 296.94138,413.15488 L 297.29669,398.28159 L 297.65201,419.79086 L 298.00732,401.10294 L 298.36264,408.7507 L 298.71793,415.51038 L 299.07324,397.3154 L 299.42856,418.94217 L 299.78387,403.38846 L 300.13922,406.02841 L 300.49451,417.46317 L 300.84982,396.98499 L 301.20514,417.50732 L 301.56046,405.96381 L 301.91577,403.45132 L 302.27106,418.91638 L 302.62637,397.29846 L 302.98169,415.56076 L 303.33701,408.68066 L 303.69232,401.15274 L 304.04761,419.77875 L 304.40292,398.24957 L 304.75824,413.22073 L 305.11356,411.38757 L 305.46887,399.27676 L 305.82416,420.00293 L 306.17947,399.77551 L 306.53479,410.60992 L 306.89011,413.92441 L 307.24542,397.9277 L 307.60074,419.56543 L 307.95605,401.8074 L 308.31137,407.89084 L 308.66669,416.1362 L 309.02197,397.20502 L 309.37729,418.48291 L 309.7326,404.2092 L 310.08792,405.22641 L 310.44324,417.87491 L 310.79852,397.15891 L 311.15384,416.81964 L 311.50916,406.84378 L 311.86447,402.80444 L 312.21979,419.01312 L 312.57507,397.80783 L 312.93039,414.67862 L 313.28571,409.50793 L 313.64102,400.79977 L 313.99634,419.46198 L 314.35162,399.10715 L 314.70694,412.22702 L 315.06229,412.01257 L 315.4176,399.37448 L 315.77292,419.1792 L 316.1282,400.95413 L 316.48352,409.65704 L 316.83884,414.13287 L 317.19415,398.64752 L 317.54947,418.19977 L 317.90475,403.18115 L 318.26007,407.21014 L 318.61539,415.69656 L 318.9707,398.66907 L 319.32602,416.62488 L 319.6813,405.56598 L 320.03662,405.10715 L 320.39194,416.55869 L 320.74725,399.41425 L 321.10257,414.64453 L 321.45786,407.85956 L 321.81317,403.55914 L 322.16849,416.67542 L 322.52383,400.75214 L 322.87912,412.49365 L 323.23444,409.81543 L 323.58975,402.68338 L 323.94507,416.09238 L 324.30038,402.48953 L 324.65567,410.43475 L 325.01099,411.24368 L 325.3663,402.52872 L 325.72162,414.95041 L 326.07693,404.35211 L 326.43222,408.72351 L 326.78754,412.0365 L 327.14285,402.97141 L 327.49817,413.50388 L 327.85349,406.12677 L 328.20877,407.45877 L 328.56409,412.19827 L 328.9194,403.95004 L 329.27472,411.94019 L 329.63004,407.47885 L 329.98535,406.87308 L 330.34067,411.89871 L 330.69598,404.93954 L 331.0513,410.60626 L 331.40662,408.63806 L 331.7619,406.53302 L 332.11722,411.1051 L 332.47253,406.38782 L 332.82785,409.52292 L 333.18317,408.75513 L 333.53845,407.0123 L 333.89377,410.69659 L 334.24908,406.74423 L 334.6044,408.72946 L 334.95972,409.7424 L 335.315,407.01505 L 335.67032,409.17889 L 336.02563,408.41019 L 336.38095,408.77563 L 336.73624,408.198 L 337.09155,407.8215 L 337.4469,410.21091 L 337.80222,407.40692 L 338.15753,407.58582 L 338.51282,410.37964 L 338.86813,408.04065 L 339.22345,407.12277 L 339.57877,409.40192 L 339.93408,409.75485 L 340.28937,406.82001 L 340.64468,407.74991 L 341,411.17807 L 341.35532,407.59976 L 341.71063,406.00601 L 342.06592,411.06732 L 342.42123,409.67599 L 342.77655,405.06738 L 343.13187,409.09164 L 343.48718,411.98752 L 343.84247,405.89499 L 344.19778,406.05569 L 344.5531,412.83209 L 344.90845,408.69174 L 345.26376,403.63016 L 345.61905,411.09509 L 345.97437,412.29388 L 346.32968,403.54837 L 346.685,407.20291 L 347.04028,414.5639 L 347.3956,406.47723 L 347.75092,403.13443 L 348.10623,413.69058 L 348.46155,411.29486 L 348.81683,401.41159 L 349.17215,409.52197 L 349.52747,415.41385 L 349.88278,403.55215 L 350.2381,403.9989 L 350.59338,416.20432 L 350.9487,408.91196 L 351.30402,400.22275 L 351.65933,412.68073 L 352.01465,414.78384 L 352.36996,400.66821 L 352.72528,406.33829 L 353.0806,417.7963 L 353.43591,405.57916 L 353.79123,400.54013 L 354.14651,415.90915 L 354.50183,412.57733 L 354.85715,398.64886 L 355.21246,409.76453 L 355.56778,417.87622 L 355.92307,402.03931 L 356.27838,402.49701 L 356.6337,418.38495 L 356.98901,409.16745 L 357.34433,398.08987 L 357.69962,413.5452 L 358.05493,416.28198 L 358.41025,399.11511 L 358.76556,405.77734 L 359.12088,419.4841 L 359.47617,405.22571 L 359.83151,399.20621 L 360.18683,416.89578 L 360.54214,413.26883 L 360.89743,397.4325 L 361.25275,409.75882 L 361.60806,418.94373 L 361.96338,401.5192 L 362.3187,401.82504 L 362.67398,419.16336 L 363.0293,409.36978 L 363.38461,397.32211 L 363.73993,413.7374 L 364.09525,416.84787 L 364.45053,398.68887 L 364.80585,405.49368 L 365.16116,419.97067 L 365.51648,405.246 L 365.8718,398.79181 L 366.22708,417.05981 L 366.5824,413.54279 L 366.93771,397.1788 L 367.29306,409.63522 L 367.64838,419.20883 L 368.00366,401.5184 L 368.35898,401.59756 L 368.71429,419.25055 L 369.06961,409.53629 L 369.42493,397.18326 L 369.78021,413.6405 L 370.13553,417.01068 L 370.49084,398.71353 L 370.84616,405.33139 L 371.20148,420.01697 L 371.55676,405.38235 L 371.91208,398.68353 L 372.2674,416.97516 L 372.62271,413.69162 L 372.97803,397.19205 L 373.33331,409.47974 L 373.68863,419.27203 L 374.04395,401.6409 L 374.39926,401.47293 L 374.75458,419.19467 L 375.10989,409.68893 L 375.46521,397.15659 L 375.82053,413.50214 L 376.17584,417.11234 L 376.53113,398.79971 L 376.88644,405.18323 L 377.24176,420.00497 L 377.59708,405.53778 L 377.95239,398.62009 L 378.30768,416.85007 L 378.66299,413.81424 L 379.01831,397.26028 L 379.37363,409.32364 L 379.72894,419.27362 L 380.08423,401.80365 L 380.43954,401.39899 L 380.79486,419.0499 L 381.15018,409.83252 L 381.50549,397.25833 L 381.86078,413.29611 L 382.21613,417.08365 L 382.57144,399.05069 L 382.92676,405.10367 L 383.28207,419.74731 L 383.63736,405.7558 L 383.99268,398.8183 L 384.34799,416.48901 L 384.70331,413.76382 L 385.05862,397.7197 L 385.41391,409.1402 L 385.76923,418.82306 L 386.12454,402.26447 L 386.47986,401.68198 L 386.83517,418.35315 L 387.19046,409.88495 L 387.54578,398.04123 L 387.90109,412.79764 L 388.25641,416.45749 L 388.61172,399.97955 L 388.96701,405.29941 L 389.32233,418.57062 L 389.67767,406.19684 L 390.03299,399.90897 L 390.38828,415.37485 L 390.74359,413.16135 L 391.09891,399.30859 L 391.45422,408.91849 L 391.80954,417.18137 L 392.16483,403.43555 L 392.52014,402.83316 L 392.87546,416.4158 L 393.23077,409.71536 L 393.58609,400.2529 L 393.94138,411.73807 L 394.29669,414.65497 L 394.65201,402.13528 L 395.00732,406.02985 L 395.36264,415.85117 L 395.71793,406.93982 L 396.07324,402.38684 L 396.42856,413.20062 L 396.78387,411.75708 L 397.13922,402.38379 L 397.49451,408.67902 L 397.84982,414.09573 L 398.20514,405.3999 L 398.56046,404.9505 L 398.91577,413.20813 L 399.27106,409.30441 L 399.62637,403.7811 L 399.98169,410.21344 L 400.33701,411.88391 L 400.69232,405.21246 L 401.04761,407.16907 L 401.40292,412.10913 L 401.75824,407.8064 L 402.11356,405.6907 L 402.46887,410.5834 L 402.82416,409.84097 L 403.17947,405.95844 L 403.53479,408.72556 L 403.89011,410.61523 L 404.24542,407.091 L 404.60074,407.39029 L 404.95605,410.45187 L 405.31137,408.4325 L 405.66669,406.64792 L 406.02197,409.56244 L 406.37729,409.80002 L 406.7326,406.82358 L 407.08792,407.93454 L 407.44324,410.38943 L 407.79852,408.38516 L 408.15384,406.68469 L 408.50916,409.10852 L 408.86447,410.12271 L 409.21979,407.59753 L 409.57507,407.04224 L 409.93039,409.57202 L 410.28571,409.89761 L 410.64102,407.27332 L 410.99634,407.05881 L 411.35162,409.96063 L 411.70694,410.03049 L 412.06229,406.67703 L 412.4176,406.91534 L 412.77292,410.81238 L 413.1282,410.03052 L 413.48352,405.60983 L 413.83884,407.17932 L 414.19415,411.99942 L 414.54947,409.43668 L 414.90475,404.41739 L 415.26007,408.11655 L 415.61539,413.09085 L 415.9707,408.17969 L 416.32602,403.51337 L 416.6813,409.64957 L 417.03662,413.74155 L 417.39194,406.42349 L 417.74725,403.16687 L 418.10257,411.57166 L 418.45786,413.74353 L 418.81317,404.39777 L 419.16849,403.54111 L 419.52383,413.63226 L 419.87912,412.97168 L 420.23444,402.37805 L 420.58975,404.71854 L 420.94507,415.53015 L 421.30038,411.39703 L 421.65567,400.68427 L 422.01099,406.66388 L 422.3663,416.9404 L 422.72162,409.12509 L 423.07693,399.62909 L 423.43222,409.202 L 423.78754,417.58038 L 424.14285,406.39441 L 424.49817,399.44965 L 424.85349,412.0416 L 425.20877,417.27048 L 425.56409,403.53558 L 425.9194,400.25998 L 426.27472,414.82758 L 426.63004,415.96677 L 426.98535,400.91342 L 427.34067,402.03271 L 427.69598,417.19992 L 428.0513,413.76578 L 428.40662,398.86923 L 428.7619,404.60703 L 429.11722,418.84836 L 429.47253,410.88541 L 429.82785,397.67175 L 430.18317,407.71677 L 430.53845,419.55392 L 430.89377,407.62973 L 431.24908,397.48398 L 431.6044,411.03122 L 431.95972,419.21341 L 432.315,404.34467 L 432.67032,398.34799 L 433.02563,414.20032 L 433.38095,417.84509 L 433.73624,401.37375 L 434.09155,400.18771 L 434.4469,416.89697 L 434.80222,415.57867 L 435.15753,399.01871 L 435.51282,402.82474 L 435.86813,418.8512 L 436.22345,412.63516 L 436.57877,397.51324 L 436.93408,406.00443 L 437.28937,419.87317 L 437.64468,409.29535 L 438,396.99835 L 438.35532,409.42563 L 438.71063,419.86969 L 439.06592,405.87247 L 439.42123,397.5192 L 439.77655,412.77133 L 440.13187,418.84433 L 440.48718,402.68036 L 440.84247,399.02481 L 441.19778,415.73755 L 441.5531,416.89328 L 441.90845,400.00668 L 442.26376,401.3768 L 442.61905,418.05884 L 442.97437,414.1936 L 443.32968,398.0896 L 443.685,404.36343 L 444.04028,419.5289 L 444.3956,410.98694 L 444.75092,397.09949 L 445.10623,407.71838 L 445.46155,420.01666 L 445.81683,407.55893 L 446.17215,397.12552 L 446.52747,411.1424 L 446.88278,419.4769 L 447.2381,404.21628 L 447.59338,398.16757 L 447.9487,414.32761 L 448.30402,417.95544 L 448.65933,401.26157 L 449.01465,400.13431 L 449.36996,416.98331 L 449.72528,415.5881 L 450.0806,398.96707 L 450.43591,402.84763 L 450.79123,418.86221 L 451.14651,412.59241 L 451.50183,397.54877 L 451.85715,406.05447 L 452.21246,419.78564 L 452.56778,409.25177 L 452.92307,397.14252 L 453.27838,409.44708 L 453.6337,419.66537 L 453.98901,405.89145 L 454.34433,397.78506 L 454.69962,412.69064 L 455.05493,418.51886 L 455.41025,402.84695 L 455.76556,399.40323 L 456.12088,415.45828 L 456.47617,416.47491 L 456.83151,400.42691 L 457.18683,401.81439 L 457.54214,417.46951 L 457.89743,413.76633 L 458.25275,398.87399 L 458.60806,404.74124 L 458.96338,418.52835 L 459.3187,410.70743 L 459.67398,398.32959 L 460.0293,407.84174 L 460.38461,418.55444 L 460.73993,407.65692 L 461.09525,398.80865 L 461.45053,410.75278 L 461.80585,417.60034 L 462.16116,404.96927 L 462.51648,400.19165 L 462.8718,413.14212 L 463.22708,415.84909 L 463.5824,402.94116 L 463.93771,402.23834 L 464.29306,414.76065 L 464.64838,413.58893 L 465.00366,401.76382 L 465.35898,404.62436 L 465.71429,415.48312 L 466.06961,411.16647 L 466.42493,401.49158 L 466.78021,406.99628 L 467.13553,415.32761 L 467.49084,408.92563 L 467.84616,402.03619 L 468.20148,409.0358 L 468.55676,414.44638 L 468.91208,407.14401 L 469.2674,403.19077 L 469.62271,410.51901 L 469.97803,413.08902 L 470.33331,405.98181 L 470.68863,404.67694 L 471.04395,411.3559 L 471.39926,411.54776 L 471.75458,405.45694 L 472.10989,406.20297 L 472.46521,411.59772 L 472.82053,410.10107 L 473.17584,405.45676 L 473.53113,407.51447 L 473.88644,411.40588 L 474.24176,408.9711 L 474.59708,405.78778 L 474.95239,408.42688 L 475.30768,410.98633 L 475.66299,408.30161 L 476.01831,406.25262 L 476.37363,408.83902 L 476.72894,410.50751 L 477.08423,408.1499 L 477.43954,406.72925 L 477.79486,408.73895 L 478.15018,410.03262 L 478.50549,408.48047 L 478.86078,407.21878 L 479.21613,408.21262 L 479.57144,409.49911 L 479.92676,409.1539 L 480.28207,407.83347 L 480.63736,407.4545 L 480.99268,408.76498 L 481.34799,409.92187 L 481.70331,408.71878 L 482.05862,406.76123 L 482.41391,407.71109 L 482.76923,410.45084 L 483.12454,409.93774 L 483.47986,406.48517 L 483.83517,406.35623 L 484.19046,410.39377 L 484.54578,411.37173 L 484.90109,406.93906 L 485.25641,404.92599 L 485.61172,409.50381 L 485.96701,412.69382 L 486.32233,408.27319 L 486.67767,403.83011 L 487.03299,407.75327 L 487.38828,413.44208 L 487.74359,410.37448 L 488.09891,403.54263 L 488.45422,405.40341 L 488.80954,413.17557 L 489.16483,412.83908 L 489.52014,404.42557 L 489.87546,402.98148 L 490.23077,411.65326 L 490.58609,415.04797 L 490.94138,406.56531 L 491.29669,401.1564 L 491.65201,408.96475 L 492.00732,416.33118 L 492.36264,409.6893 L 492.71793,400.54779 L 493.07324,405.55716 L 493.42856,416.16895 L 493.78387,413.19913 L 494.13922,401.5321 L 494.49451,402.1442 L 494.84982,414.36151 L 495.20514,416.31171 L 495.56046,404.11169 L 495.91577,399.52637 L 496.27106,411.1106 L 496.62637,418.26276 L 496.98169,407.88889 L 497.33701,398.38034 L 497.69232,406.98798 L 498.04761,418.50842 L 498.40292,412.15125 L 498.75824,399.08121 L 499.11356,402.80417 L 499.46887,416.867 L 499.82416,416.03854 L 500.17947,401.60532 L 500.53479,399.41837 L 500.89011,413.56641 L 501.24542,418.74228 L 501.60074,405.53403 L 501.95605,397.54294 L 502.31137,409.19177 L 502.66669,419.68509 L 503.02197,410.14874 L 503.37729,397.59012 L 503.7326,404.55533 L 504.08792,418.63992 L 504.44324,414.58731 L 504.79852,399.59216 L 505.15384,400.52438 L 505.50916,415.7684 L 505.86447,418.02103 L 506.21979,403.20444 L 506.57507,397.84851 L 506.93039,411.57852 L 507.28571,419.81461 L 507.64102,407.78253 L 507.99634,397.02017 L 508.35162,406.81863 L 508.70694,419.63937 L 509.06229,412.51065 L 509.4176,398.19153 L 509.77292,402.33337 L 510.1282,417.52411 L 510.48352,416.55383 L 510.83884,401.15665 L 511.19415,398.91086 L 511.54947,413.84052 L 511.90475,419.20526 L 512.26007,405.3963 L 512.61536,397.14648 L 512.9707,409.23108 L 513.32599,420.00577 L 513.68134,410.17355 L 514.03662,397.34445 L 514.39197,404.4949 L 514.74725,418.81821 L 515.1026,414.66174 L 515.45789,399.46973 L 515.81323,400.45071 L 516.16846,415.84799 L 516.5238,418.08511 L 516.87909,403.1553 L 517.23444,397.79825 L 517.58972,411.60806 L 517.94507,419.85001 L 518.30035,407.76376 L 518.6557,396.99899 L 519.01099,406.83359 L 519.36633,419.6478 L 519.72156,412.49356 L 520.0769,398.19421 L 520.43225,402.35815 L 520.78754,417.51245 L 521.14288,416.51538 L 521.49817,401.17426 L 521.85352,398.96973 L 522.2088,413.82193 L 522.56415,419.11865 L 522.91943,405.40775 L 523.27472,397.26804 L 523.63,409.23886 L 523.98535,419.84372 L 524.34064,410.12973 L 524.69598,397.54892 L 525.05127,404.59598 L 525.40662,418.57532 L 525.7619,414.4787 L 526.11725,399.7388 L 526.47247,400.74191 L 526.82782,415.57513 L 527.18311,417.66113 L 527.53845,403.39807 L 527.8938,398.37411 L 528.24908,411.4407 L 528.60443,419.11292 L 528.95972,407.80035 L 529.31506,397.89215 L 529.67035,406.9903 L 530.02563,418.62216 L 530.38092,412.0788 L 530.73627,399.30716 L 531.09155,403.09201 L 531.4469,416.38031 L 531.80219,415.41263 L 532.15753,402.23514 L 532.51282,400.4722 L 532.86816,412.9418 L 533.22345,417.21225 L 533.57874,405.98441 L 533.93402,399.54935 L 534.28937,409.09311 L 534.64465,417.25418 L 535,409.72296 L 535.35535,400.34064 L 535.71063,405.65906 L 536.06598,415.72504 L 536.42126,412.68579 L 536.77655,402.47235 L 537.13184,403.29636 L 537.48718,413.15549 L 537.84247,414.36487 L 538.19781,405.29822 L 538.5531,402.33524 L 538.90845,410.25772 L 539.26373,414.62262 L 539.61908,408.09424 L 539.97437,402.72162 L 540.32965,407.71405 L 540.68494,413.68784 L 541.04028,410.26761 L 541.39557,404.08362 L 541.75092,405.99048 L 542.1062,412.03256 L 542.46155,411.50159 L 542.81689,405.89801 L 543.17218,405.24951 L 543.52753,410.18274 L 543.88275,411.77554 L 544.2381,407.677 L 544.59338,405.39609 L 544.94873,408.56085 L 545.30402,411.26651 L 545.65936,409.07364 L 546.01465,406.20422 L 546.37,407.44437 L 546.72528,410.22617 L 547.08057,409.86328 L 547.43585,407.4035 L 547.7912,407.02243 L 548.14648,408.95374 L 548.50183,409.8858 L 548.85712,408.6442 L 549.21246,407.41199 L 549.56775,407.87085 L 549.9231,409.1058 L 550.27844,409.42831 L 550.63367,408.50992 L 550.98901,407.52426 L 551.3443,407.82486 L 551.69965,409.22861 L 552.05493,409.7764 L 552.41028,408.31564 L 552.76556,406.81607 L 553.12091,407.89468 L 553.4762,410.27356 L 553.83154,410.0293 L 554.18677,407.04544 L 554.54211,406.07568 L 554.8974,409.19714 L 555.25275,411.59671 L 555.60803,408.94659 L 555.96338,405.14398 L 556.31866,406.66422 L 556.67401,411.55539 L 557.0293,411.75223 L 557.38464,406.36948 L 557.73993,404.06961 L 558.09521,409.12753 L 558.45056,413.60333 L 558.80585,409.78781 L 559.16119,403.44452 L 559.51648,405.15555 L 559.87183,412.67279 L 560.22711,413.70389 L 560.58246,406.02136 L 560.93774,401.98373 L 561.29303,408.64651 L 561.64832,415.48489 L 562.00366,411.01511 L 562.35895,402.07303 L 562.71429,403.39471 L 563.06958,413.31836 L 563.42493,415.69434 L 563.78021,406.18799 L 564.13556,400.10233 L 564.49084,407.72562 L 564.84613,416.9465 L 565.20148,412.50174 L 565.55676,401.25787 L 565.91211,401.62357 L 566.2674,413.38293 L 566.62274,417.43051 L 566.97803,406.84116 L 567.33337,398.69952 L 567.68866,406.51257 L 568.04395,417.79153 L 568.39923,414.02612 L 568.75458,401.08441 L 569.10986,400.07779 L 569.46521,412.8963 L 569.8205,418.72028 L 570.17584,407.86032 L 570.53113,397.88211 L 570.88647,405.17532 L 571.24176,418.01581 L 571.59705,415.42291 L 571.95233,401.46298 L 572.30768,398.87631 L 572.66302,412.01108 L 573.01831,419.51904 L 573.37366,409.07291 L 573.72894,397.61328 L 574.08429,403.86221 L 574.43958,417.72443 L 574.79486,416.60324 L 575.15015,402.24847 L 575.50549,398.02945 L 575.86078,410.8775 L 576.21613,419.89557 L 576.57141,410.35687 L 576.92676,397.76163 L 577.28204,402.64261 L 577.63739,417.08334 L 577.99268,417.5614 L 578.34796,403.27307 L 578.70325,397.48224 L 579.05859,409.63504 L 579.41388,419.95038 L 579.76923,411.62296 L 580.12457,398.20343 L 580.47986,401.5455 L 580.83521,416.21521 L 581.19049,418.32684 L 581.54584,404.43607 L 581.90106,397.15891 L 582.25641,408.34879 L 582.61169,419.78726 L 582.96704,412.84653 L 583.32233,398.82721 L 583.67767,400.55859 L 584.03296,415.22113 L 584.38831,418.93878 L 584.74359,405.65948 L 585.09894,397.00644 L 585.45416,407.06732 L 585.80951,419.46002 L 586.16479,414.00784 L 586.52014,399.58813 L 586.87543,399.67819 L 587.23077,414.13208 L 587.58612,419.41629 L 587.94141,406.92593 L 588.29675,396.99847 L 588.65204,405.79926 L 589.00732,418.99643 L 589.36261,415.10049 L 589.71796,400.45969 L 590.07324,398.91513 L 590.42859,412.97418 L 590.78387,419.74023 L 591.13922,408.20633 L 591.49451,397.1622 L 591.84985,404.58038 L 592.20514,418.36612 L 592.56042,416.07928 L 592.91571,401.46661 L 593.27106,398.3233 L 593.62634,411.73859 L 593.98169,419.85297 L 594.33698,409.48431 L 594.69232,397.54987 L 595.04767,403.45786 L 595.40295,417.53406 L 595.75824,416.86719 L 596.11353,402.61487 L 596.46887,398.00125 L 596.82416,410.4577 L 597.1795,419.64941 L 597.53479,410.68597 L 597.89014,398.25354 L 598.24542,402.54199 L 598.60077,416.44147 L 598.95605,417.33115 L 599.31134,403.91357 L 599.66663,398.08395 L 600.02197,409.18008 L 600.37726,419.01761 L 600.7326,411.70816 L 601.08789,399.33853 L 601.44324,401.9754 L 601.79852,415.08655 L 602.15387,417.31448 L 602.50916,405.29541 L 602.86444,398.71124 L 603.21979,408.03323 L 603.57507,417.86414 L 603.93042,412.38647 L 604.28571,400.83051 L 604.64105,401.9256 L 604.99634,413.51831 L 605.35168,416.68387 L 605.70697,406.64761 L 606.06226,399.94977 L 606.41754,407.16608 L 606.77289,416.20804 L 607.12817,412.57468 L 607.48352,402.6254 L 607.83881,402.49438 L 608.19415,411.90387 L 608.54944,415.41647 L 608.90479,407.78058 L 609.26007,401.72565 L 609.61536,406.73929 L 609.9707,414.21497 L 610.32599,412.19357 L 610.68134,404.49603 L 611.03662,403.63809 L 611.39197,410.478 L 611.74725,413.6969 L 612.1026,408.52206 L 612.45789,403.73019 L 612.81323,406.79004 L 613.16846,412.25742 L 613.5238,411.39218 L 613.87909,406.10626 L 614.23444,405.02039 L 614.58972,409.42313 L 614.94507,411.97702 L 615.30035,408.9325 L 615.6557,405.53754 L 616.01099,407.01044 L 616.36633,410.57068 L 616.72156,410.61127 L 617.0769,407.51431 L 617.43225,406.27731 L 617.78754,408.4332 L 618.14288,410.33926 L 618.49817,409.34653 L 618.85352,407.40247 L 619.2088,407.34033 L 619.56415,408.75702 L 619.91943,409.44403 L 620.27472,408.85767 L 620.63,408.16275 L 620.98535,408.02072 L 621.34064,408.17136 L 621.69598,408.54388 L 622.05127,409.14175 L 622.40662,409.22104 L 622.7619,408.18808 L 623.11725,407.15497 L 623.47247,407.8685 L 623.82782,409.82077 L 624.18311,410.26837 L 624.53845,408.10522 L 624.8938,406.07184 L 625.24908,407.29095 L 625.60443,410.51935 L 625.95972,411.28763 L 626.31506,408.09772 L 626.67035,405.05966 L 627.02563,406.59277 L 627.38092,411.03806 L 627.73627,412.3649 L 628.09155,408.35181 L 628.4469,404.14163 L 628.80219,405.65897 L 629.15753,411.30606 L 629.51282,413.53006 L 629.86816,408.91745 L 630.22345,403.33984 L 630.57874,404.49982 L 630.93402,411.30634 L 631.28937,414.72073 L 631.64465,409.76199 L 632,402.72241 L 632.35535,403.20233 L 632.71063,411.01758 L 633.06598,415.83224 L 633.42126,410.83521 L 633.77655,402.35809 L 634.13184,401.87009 L 634.48718,410.44348 L 634.84247,416.75769 L 635.19781,412.06451 L 635.5531,402.30508 L 635.90845,400.60291 L 636.26373,409.59848 L 636.61908,417.42517 L 636.97437,413.37866 L 637.32965,402.57065 L 637.68494,399.48422 L 638.04028,408.53876 L 638.39557,417.78555 L 638.75092,414.69467 L 639.1062,403.14661 L 639.46155,398.57492 L 639.81689,407.31918 L 640.17218,417.83359 L 640.52753,415.94568 L 640.88275,403.9819 L 641.2381,397.91608 L 641.59338,406.01666 L 641.94873,417.57364 L 642.30402,417.07172 L 642.65936,405.03354 L 643.01465,397.51962 L 643.37,404.68637 L 643.72528,417.04584 L 644.08057,418.03537 L 644.43585,406.23257 L 644.7912,397.38791 L 645.14648,403.38974 L 645.50183,416.28021 L 645.85712,418.81271 L 646.21246,407.53519 L 646.56775,397.4982 L 646.9231,402.16116 L 647.27844,415.33191 L 647.63367,419.39398 L 647.98901,408.88242 L 648.3443,397.83447 L 648.69965,401.03589 L 649.05493,414.23141 L 649.41028,419.78162 L 649.76556,410.24533 L 650.12091,398.36124 L 650.4762,400.02866 L 650.83154,413.02841 L 651.18677,419.97888 L 651.54211,411.58328 L 651.8974,399.06216 L 652.25275,399.15475 L 652.60803,411.74283 L 652.96338,419.99963 L 653.31866,412.88126 L 653.67401,399.90314 L 654.0293,398.41977 L 654.38464,410.41306 L 654.73993,419.84717 L 655.09521,414.11234 L 655.45056,400.87524 L 655.80585,397.82983 L 656.16119,409.04984 L 656.51648,419.53656 L 656.87183,415.26682 L 657.22711,401.94958 L 657.58246,397.39178 L 657.93774,407.6842 L 658.29303,419.06537 L 658.64832,416.32288 L 659.00366,403.12296 L 659.35895,397.11069 L 659.71429,406.32559 L 660.06958,418.44696 L 660.42493,417.26678 L 660.78021,404.36804 L 661.13556,396.99985 L 661.49084,405.00555 L 661.84613,417.6749 L 662.20148,418.07452 L 662.55676,405.67953 L 662.91211,397.06558 L 663.2674,403.74146 L 663.62274,416.76495 L 663.97803,418.7229 L 664.33337,407.02371 L 664.68866,397.32602 L 665.04395,402.5726 L 665.39923,415.71463 L 665.75458,419.18396 L 666.10986,408.38309 L 666.46521,397.78372 L 666.8205,401.53036 L 667.17584,414.55151 L 667.53113,419.42694 L 667.88647,409.70956 L 668.24176,398.45187 L 668.59705,400.66324 L 668.95233,413.28922 L 669.30768,419.42719 L 669.66302,410.96619 L 670.01831,399.31711 L 670.37366,400.01324 L 670.72894,411.97748 L 671.08429,419.15918 L 671.43958,412.08975 L 671.79486,400.37125 L 672.15015,399.62762 L 672.50549,410.655 L 672.86078,418.61984 L 673.21613,413.02802 L 673.57141,401.57068 L 673.92676,399.54041 L 674.28204,409.39578 L 674.63739,417.81668 L 674.99268,413.71838 L 675.34796,402.86023 L 675.70325,399.7652 L 676.05859,408.2681 L 676.41388,416.79318 L 676.76923,414.11841 L 677.12457,404.16821 L 677.47986,400.29303 L 677.83521,407.34402 L 678.19049,415.61014 L 678.54584,414.20126 L 678.90106,405.39984 L 679.25641,401.08655 L 679.61169,406.68359 L 679.96704,414.36624 L 680.32233,413.97125 L 680.67767,406.46466 L 681.03296,402.06046 L 681.38831,406.33362 L 681.74359,413.16074 L 682.09894,413.47046 L 682.45416,407.28781 L 682.80951,403.13599 L 683.16479,406.27811 L 683.52014,412.0806 L 683.87543,412.7648 L 684.23077,407.8591 L 684.58612,404.21381 L 684.94141,406.47653 L 685.29675,411.15918 L 685.65204,411.95493 L 686.00732,408.19632 L 686.36261,405.23862 L 686.71796,406.82526 L 687.07324,410.42026 L 687.42859,411.1228 L 687.78387,408.37787 L 688.13922,406.1355 L 688.49451,407.25232 L 688.84985,409.82993 L 689.20514,410.37732 L 689.56042,408.44388 L 689.91571,406.9061 L 690.27106,407.64285 L 690.62634,409.41531 L 690.98169,409.73868 L 691.33698,408.52493 L 691.69232,407.4801 L 692.04767,408.22437 L 692.40295,408.47403 L 692.75824,408.42697 L 693.11353,408.4902 L 693.46887,408.46094 L 693.82416,408.49597 L 694.1795,408.47415 L 694.53479,408.49887 L 694.89014,408.48108 L 695.24542,408.50076 L 695.60077,408.48538 L 695.95605,408.50223 L 696.31134,408.48834 L 696.66663,408.50333 L 697.02197,408.49051 L 697.37726,408.50452 L 697.7326,408.49222 L 698.08789,408.50552 L 698.44324,408.49362 L 698.79852,408.50662 L 699.15387,408.49484 L 699.50916,408.50797 L 699.86444,408.49597 L 700.21979,408.50909 L 700.57507,408.49704 L 700.93042,408.51096 L 701.28571,408.49811 L 701.64105,408.51266 L 701.99634,408.49924 L 702.35168,408.51468 L 702.70697,408.50046 L 703.06226,408.51801 L 703.41754,408.5018 L 703.77289,408.52002 L 704.12817,408.50333 L 704.48352,408.52505 L 704.83881,408.50507 L 705.19415,408.52927 L 705.54944,408.50693 L 705.90479,408.53247 L 706.26007,408.50894 L 706.61536,408.54404 L 706.9707,408.51089 L 707.32599,408.5415 L 707.68134,408.51245 L 708.03662,408.55759 L 708.39197,408.51382 L 708.74725,408.57788 L 709.1026,408.51437"
         style="fill:none;stroke:#1484e6;stroke-width:0.833333;stroke-linecap:butt;stroke-linejoin:round;stroke-miterlimit:10;stroke-dasharray:none;stroke-opacity:1"
         id="path31856" />
    </g>
  </g>
</svg>
