<?xml version="1.0" encoding="UTF-8" standalone="no"?>
<svg
   xmlns:dc="http://purl.org/dc/elements/1.1/"
   xmlns:cc="http://creativecommons.org/ns#"
   xmlns:rdf="http://www.w3.org/1999/02/22-rdf-syntax-ns#"
   xmlns:svg="http://www.w3.org/2000/svg"
   xmlns="http://www.w3.org/2000/svg"
   xmlns:sodipodi="http://sodipodi.sourceforge.net/DTD/sodipodi-0.dtd"
   xmlns:inkscape="http://www.inkscape.org/namespaces/inkscape"
   width="68.985092mm"
   height="35.024921mm"
   viewBox="0 0 68.985091 35.024921"
   version="1.1"
   id="svg8"
   sodipodi:docname="time-frequency-shift-1.svg"
   inkscape:version="1.0.1 (3bc2e813f5, 2020-09-07)">
  <defs
     id="defs2" />
  <sodipodi:namedview
     id="base"
     pagecolor="#ffffff"
     bordercolor="#666666"
     borderopacity="1.0"
     inkscape:pageopacity="0.0"
     inkscape:pageshadow="2"
     inkscape:zoom="3.959798"
     inkscape:cx="109.76362"
     inkscape:cy="67.476355"
     inkscape:document-units="mm"
     inkscape:current-layer="layer1"
     inkscape:document-rotation="0"
     showgrid="false"
     inkscape:window-width="1920"
     inkscape:window-height="1001"
     inkscape:window-x="-9"
     inkscape:window-y="1341"
     inkscape:window-maximized="1"
     inkscape:snap-global="true"
     inkscape:snap-page="true"
     inkscape:snap-midpoints="true" />
  <metadata
     id="metadata5">
    <rdf:RDF>
      <cc:Work
         rdf:about="">
        <dc:format>image/svg+xml</dc:format>
        <dc:type
           rdf:resource="http://purl.org/dc/dcmitype/StillImage" />
        <dc:title />
      </cc:Work>
    </rdf:RDF>
  </metadata>
  <g
     inkscape:label="Layer 1"
     inkscape:groupmode="layer"
     id="layer1"
     transform="translate(-23.285658,-214.12265)">
    <g
       id="g3683"
       transform="matrix(0.21166666,0,0,0.21166666,16.07987,177.02511)">
      <path
         id="path3685"
         style="fill:none;stroke:#555555;stroke-width:1.5;stroke-linecap:butt;stroke-linejoin:bevel;stroke-miterlimit:1;stroke-dasharray:1, 4;stroke-dashoffset:0;stroke-opacity:1"
         d="M 45.982006,258 C 72.007592,257.91945 98.036097,258.17851 124.05971,257.82996 C 134.79303,257.60565 146.38048,256.62298 155.048,249.56776 C 168.94481,238.31969 175.17841,220.83555 186.0363,207.09439 C 189.21289,203.10978 194.141,198.44616 199.68806,200.38138 C 206.24892,203.09929 209.92989,209.73266 213.76268,215.32208 C 221.59998,227.38732 227.9685,241.09044 239.61647,250.07161 C 250.66651,258.45158 265.20715,257.67557 278.33673,257.95889 C 301.56354,258.04281 324.79107,257.98073 348.01801,258" />
    </g>
    <g
       id="g3687"
       transform="matrix(0.21166666,0,0,0.21166666,16.079689,177.02511)"
       style="stroke-width:1.65354336;stroke-miterlimit:4;stroke-dasharray:none">
      <path
         id="path3689"
         style="fill:none;stroke:#fd8b28;stroke-width:1.75;stroke-linecap:butt;stroke-linejoin:round;stroke-miterlimit:4;stroke-dasharray:none;stroke-opacity:1"
         d="M 45.982006,258 C 90.471701,257.97282 134.964,258.05358 179.45204,257.96103 C 183.73658,257.43534 187.9988,258.70042 192.25813,258.21686 C 195.2999,257.36643 199.00782,255.70554 201.56065,258.61084 C 203.0384,260.30617 206.01876,262.04456 207.48045,259.30087 C 209.48988,257.01955 209.82999,253.08131 212.67537,251.70583 C 215.38322,253.19956 215.31267,257.21185 216.36014,259.83698 C 217.5976,263.26918 217.50751,267.67678 220.04491,270.40656 C 222.2952,268.81785 221.8998,265.04919 222.70277,262.59256 C 224.45281,253.98838 224.40057,244.91687 227.23322,236.58971 C 228.72092,236.08085 228.56219,239.41733 228.985,240.34895 C 231.64615,257.00971 231.45398,274.045 234.54236,290.62799 C 235.88612,292.66599 236.03847,287.32046 236.29413,286.52957 C 239.0705,262.32241 238.77126,237.83017 241.97231,213.67833 C 242.93807,210.75852 243.47521,216.30621 243.54286,217.1021 C 246.50196,248.28945 246.10842,279.72261 249.34184,310.8812 C 249.25904,312.48705 250.45834,313.19805 250.48955,311.17416 C 253.05654,287.13534 253.14104,262.89727 254.4444,238.76633 C 255.26536,225.89754 255.07823,212.86445 257.19461,200.13771 C 258.3393,200.03672 257.97363,203.39017 258.34235,204.38307 C 261.23212,239.43694 260.95994,274.69109 264.0809,309.7261 C 263.99487,310.69518 264.88865,314.14006 265.34943,311.44238 C 268.00553,288.40021 268.04703,265.13005 269.51746,241.99109 C 270.32673,232.24839 270.00558,222.23749 272.17532,212.70259 C 273.74056,214.32971 273.1767,218.05072 273.74588,220.36455 C 275.9808,243.47821 275.91248,266.80904 279.06161,289.82391 C 279.02883,291.40849 280.39309,291.74036 280.45096,289.98273 C 283.53165,272.61212 282.99562,254.73778 286.49155,237.43767 C 287.20596,234.88439 288.48656,238.12477 288.48495,239.21767 C 290.82708,249.31562 290.60738,260.0075 293.9819,269.83875 C 295.42282,271.59436 296.2278,267.90195 296.57935,266.9379 C 298.37484,262.01318 298.37796,256.15547 301.59305,251.88753 C 306.01557,252.03069 306.254,264.32344 312.0433,259.6145 C 314.38212,256.67867 318.20626,256.31045 321.40625,257.95438 C 325.83926,259.09071 330.37625,257.34956 334.87677,257.94525 C 339.25562,258.12564 343.63749,257.96036 348.01801,257.99286" />
    </g>
  </g>
</svg>
