<?xml version="1.0" encoding="UTF-8" standalone="no"?>
<svg
   xmlns:dc="http://purl.org/dc/elements/1.1/"
   xmlns:cc="http://creativecommons.org/ns#"
   xmlns:rdf="http://www.w3.org/1999/02/22-rdf-syntax-ns#"
   xmlns:svg="http://www.w3.org/2000/svg"
   xmlns="http://www.w3.org/2000/svg"
   xmlns:sodipodi="http://sodipodi.sourceforge.net/DTD/sodipodi-0.dtd"
   xmlns:inkscape="http://www.inkscape.org/namespaces/inkscape"
   width="143.75592mm"
   height="9.270298mm"
   viewBox="0 0 143.75592 9.270298"
   version="1.1"
   id="svg29169"
   sodipodi:docname="time-frequency-cut-1.svg"
   inkscape:version="1.0.1 (3bc2e813f5, 2020-09-07)">
  <defs
     id="defs29163" />
  <sodipodi:namedview
     id="base"
     pagecolor="#ffffff"
     bordercolor="#666666"
     borderopacity="1.0"
     inkscape:pageopacity="0.0"
     inkscape:pageshadow="2"
     inkscape:zoom="2.8"
     inkscape:cx="311.86632"
     inkscape:cy="-33.092635"
     inkscape:document-units="mm"
     inkscape:current-layer="layer1"
     inkscape:document-rotation="0"
     showgrid="false"
     inkscape:window-width="1920"
     inkscape:window-height="1001"
     inkscape:window-x="-9"
     inkscape:window-y="1341"
     inkscape:window-maximized="1" />
  <metadata
     id="metadata29166">
    <rdf:RDF>
      <cc:Work
         rdf:about="">
        <dc:format>image/svg+xml</dc:format>
        <dc:type
           rdf:resource="http://purl.org/dc/dcmitype/StillImage" />
      </cc:Work>
    </rdf:RDF>
  </metadata>
  <g
     inkscape:label="Layer 1"
     inkscape:groupmode="layer"
     id="layer1"
     transform="translate(-34.339424,-112.536)">
    <g
       id="g30124"
       transform="matrix(0.21166666,0,0,0.21166665,23.773223,105.38921)">
      <path
         d="M 49.91906,57 H 49.933445 H 50.307827 H 50.682213 H 51.056595 H 51.430981 H 51.805363 H 52.179749 H 52.554134 H 52.928516 L 53.302902,55.954876 L 53.677284,56.759686 L 54.05167,58.206764 L 54.426056,57.564396 L 54.800438,55.688045 L 55.174824,56.031601 L 55.549206,58.329689 L 55.923592,58.438351 L 56.297974,55.770508 L 56.672359,55.050758 L 57.046745,57.985046 L 57.421127,59.465275 L 57.795513,56.421856 L 58.169899,54.058529 L 58.544281,57.002319 L 58.918667,60.326664 L 59.293053,57.734219 L 59.667435,53.432343 L 60.041821,55.393154 L 60.416203,60.614193 L 60.790588,59.574329 L 61.16497,53.575703 L 61.539356,53.419636 L 61.913738,59.969368 L 62.288124,61.556755 L 62.66251,54.761547 L 63.036892,51.571823 L 63.411278,58.241257 L 63.785664,63.117924 L 64.160042,56.990612 L 64.534431,50.445679 L 64.908813,55.595718 L 65.283196,63.677032 L 65.657585,59.928162 L 66.031967,50.55724 L 66.406349,52.52372 L 66.780739,62.829773 L 67.155121,62.953953 L 67.529503,52.159203 L 67.903893,49.735588 L 68.278275,60.504078 L 68.652657,65.315727 L 69.027039,55.127583 L 69.401428,47.972473 L 69.77581,57.020409 L 70.150192,66.336906 L 70.524582,58.960026 L 70.898964,47.796856 L 71.273346,53.034683 L 71.647736,65.61084 L 72.022118,62.886734 L 72.3965,49.428719 L 72.770889,49.38279 L 73.145271,63.122059 L 73.519653,66.05793 L 73.894035,52.675068 L 74.268425,46.87566 L 74.642807,59.262238 L 75.017189,67.751122 L 75.391571,56.967926 L 75.765961,46.104088 L 76.140343,54.742676 L 76.514725,67.541534 L 76.889114,61.49366 L 77.263496,47.303223 L 77.637878,50.433277 L 78.012268,65.395638 L 78.38665,65.374207 L 78.761032,50.304749 L 79.135422,47.173027 L 79.509804,61.672619 L 79.884186,67.853378 L 80.258568,54.579548 L 80.632957,45.597382 L 81.007339,57.042313 L 81.381721,68.446899 L 81.756104,59.352585 L 82.130493,46.017586 L 82.504875,52.345306 L 82.879257,67.029114 L 83.253647,63.759285 L 83.628029,48.370556 L 84.002419,48.428757 L 84.376801,63.845997 L 84.751183,67.009239 L 85.125565,52.241592 L 85.499954,45.990791 L 85.874336,59.459549 L 86.248718,68.526978 L 86.6231,56.948746 L 86.99749,45.460052 L 87.371872,54.63974 L 87.746254,68.04789 L 88.120644,61.669037 L 88.495026,46.927303 L 88.869408,50.226044 L 89.24379,65.657341 L 89.618179,65.583023 L 89.992561,50.13615 L 90.366951,46.982708 L 90.741333,61.770645 L 91.115715,68.01416 L 91.490097,54.530872 L 91.864487,45.469971 L 92.238869,57.059811 L 92.613251,68.542206 L 92.987633,59.351974 L 93.362022,45.950088 L 93.736404,52.339451 L 94.110786,67.074432 L 94.485176,63.764465 L 94.859558,48.34164 L 95.233948,48.429085 L 95.608322,63.863899 L 95.982712,66.999878 L 96.357094,52.229645 L 96.731483,46.012199 L 97.105865,59.470795 L 97.480248,68.490616 L 97.85463,56.931927 L 98.229019,45.513981 L 98.603401,54.670269 L 98.977783,67.9748 L 99.352173,61.614204 L 99.726555,47.018852 L 100.10094,50.318336 L 100.47532,65.55191 L 100.84971,65.438156 L 101.22409,50.2453 L 101.59848,47.195827 L 101.97285,61.674938 L 102.34724,67.718758 L 102.72163,54.588078 L 103.09602,45.857121 L 103.4704,57.07402 L 103.84478,68.061729 L 104.21916,59.226765 L 104.59355,46.514175 L 104.96793,52.619396 L 105.34232,66.450798 L 105.71671,63.285732 L 106.09109,48.984276 L 106.46548,49.145927 L 106.83985,63.260097 L 107.21424,66.01622 L 107.58862,52.720493 L 107.96301,47.274529 L 108.33739,59.180214 L 108.71178,66.960556 L 109.08616,56.927017 L 109.46055,47.273151 L 109.83493,55.06646 L 110.20931,66.055931 L 110.5837,60.739391 L 110.95808,48.996635 L 111.33247,51.740627 L 111.70685,63.644924 L 112.08124,63.428196 L 112.45562,51.92865 L 112.83001,49.795757 L 113.20439,60.382099 L 113.57877,64.571709 L 113.95316,55.321503 L 114.32755,49.459194 L 114.70193,57.056797 L 115.07632,64.146149 L 115.45069,58.398232 L 115.82507,50.556732 L 116.19946,54.381264 L 116.57384,62.503685 L 116.94823,60.557678 L 117.32262,52.591148 L 117.697,52.809052 L 118.07139,60.243568 L 118.44577,61.517441 L 118.82015,54.910591 L 119.19454,52.442848 L 119.56892,58.018799 L 119.94331,61.347477 L 120.31769,56.909733 L 120.69207,53.061783 L 121.06646,56.345242 L 121.44084,60.385792 L 121.81523,58.193398 L 122.18961,54.252621 L 122.564,55.479 L 122.93839,59.075623 L 123.31277,58.649384 L 123.68715,55.585552 L 124.06154,55.396095 L 124.43591,57.796364 L 124.8103,58.419964 L 125.18468,56.758698 L 125.55907,55.860729 L 125.93346,56.75703 L 126.30784,57.806252 L 126.68222,57.659237 L 127.05661,56.535198 L 127.43099,55.981808 L 127.80538,57.155495 L 128.17976,58.335148 L 128.55414,57.086716 L 128.92853,55.373615 L 129.30292,56.765865 L 129.67731,58.905495 L 130.05168,57.267265 L 130.42607,54.819912 L 130.80046,56.825157 L 131.17484,59.449463 L 131.54921,56.953106 L 131.9236,54.296364 L 132.29799,57.395519 L 132.67238,59.924145 L 133.04675,56.136234 L 133.42114,53.913445 L 133.79553,58.440311 L 134.16991,60.164169 L 134.5443,54.890415 L 134.91869,53.868019 L 135.29306,59.850658 L 135.66745,59.969822 L 136.04182,53.364288 L 136.41621,54.336151 L 136.7906,61.429245 L 137.16498,59.206306 L 137.53937,51.810955 L 137.91376,55.405777 L 138.28813,62.86948 L 138.66252,57.828415 L 139.03691,50.573322 L 139.41129,57.085987 L 139.78568,63.824123 L 140.16005,55.863136 L 140.53444,49.963402 L 140.90883,59.301216 L 141.2832,64.050743 L 141.65759,53.458145 L 142.03198,50.13813 L 142.40637,61.807289 L 142.78075,63.468426 L 143.15514,50.963715 L 143.52953,51.132896 L 143.9039,64.166901 L 144.27827,62.051662 L 144.65266,48.852749 L 145.02705,52.982594 L 145.40144,65.943817 L 145.77582,59.770294 L 146.15021,47.456795 L 146.5246,55.663155 L 146.89897,66.945831 L 147.27336,56.769505 L 147.64775,46.846497 L 148.02213,58.857063 L 148.39651,67.156654 L 148.77089,53.540413 L 149.14528,47.071819 L 149.51967,61.965748 L 149.89404,66.428909 L 150.26843,50.668339 L 150.64282,48.375519 L 151.0172,64.548714 L 151.39159,64.507515 L 151.76598,48.365421 L 152.14035,50.885464 L 152.51474,66.610405 L 152.88913,61.527607 L 153.26352,46.526466 L 153.63789,54.143848 L 154.01227,68.179214 L 154.38666,58.203735 L 154.76105,45.35717 L 155.13544,57.366879 L 155.50981,68.765793 L 155.8842,55.146286 L 156.25859,45.523212 L 156.63297,60.308132 L 157.00735,67.77047 L 157.38174,52.200813 L 157.75612,47.276318 L 158.13051,63.363041 L 158.50488,65.476746 L 158.87927,49.039478 L 159.25366,49.817211 L 159.62804,66.466042 L 160.00243,62.944508 L 160.37682,46.300858 L 160.75119,52.232555 L 161.12558,68.490555 L 161.49997,60.555374 L 161.87434,45.243977 L 162.24873,54.843288 L 162.62311,68.542755 L 162.9975,57.446777 L 163.37189,45.978703 L 163.74626,58.589375 L 164.12065,67.418381 L 164.49504,53.185287 L 164.86942,47.085186 L 165.2438,62.965855 L 165.61819,66.553154 L 165.99258,49.255486 L 166.36696,47.798069 L 166.74133,65.939919 L 167.11572,65.601768 L 167.49011,47.472813 L 167.8645,49.517536 L 168.23888,66.690712 L 168.61327,62.703465 L 168.98766,47.248802 L 169.36203,53.647499 L 169.73642,67.019257 L 170.11081,57.748665 L 170.48518,46.362972 L 170.85957,58.664185 L 171.23395,68.4832 L 171.60834,53.503551 L 171.98273,44.804687 L 172.3571,61.58725 L 172.73149,69.313133 L 173.10588,51.909775 L 173.48026,45.511326 L 173.85464,62.419334 L 174.22903,66.669937 L 174.60341,50.935085 L 174.9778,49.832802 L 175.35217,64.353798 L 175.72658,61.556908 L 176.10095,47.737648 L 176.47533,54.548908 L 176.84972,68.377808 L 177.22411,58.227505 L 177.5985,43.9576 L 177.97287,56.155518 L 178.34726,70.630974 L 178.72165,57.836658 L 179.09602,44.155869 L 179.47041,56.48885 L 179.8448,67.879654 L 180.21918,56.270309 L 180.59357,48.610397 L 180.96794,60.080151 L 181.34233,63.223057 L 181.71672,50.814987 L 182.09109,51.943806 L 182.46548,66.2397 L 182.83987,62.07349 L 183.21425,45.688076 L 183.58864,51.145882 L 183.96303,68.753426 L 184.3374,63.533966 L 184.71179,46.483318 L 185.08617,50.810349 L 185.46056,65.220741 L 185.83495,61.282162 L 186.20932,51.084656 L 186.58371,56.043419 L 186.9581,61.630177 L 187.33247,54.04612 L 187.70686,52.09708 L 188.08125,63.244633 L 188.45564,63.504288 L 188.83002,49.145943 L 189.20439,48.498238 L 189.57878,64.351097 L 189.95317,66.655762 L 190.32756,51.831707 L 190.70193,48.013737 L 191.07632,59.454975 L 191.45071,63.257851 L 191.82509,56.406567 L 192.19948,54.847683 L 192.57385,57.579628 L 192.94824,55.02869 L 193.32263,54.454193 L 193.69701,61.644211 L 194.0714,62.653645 L 194.44579,52.059502 L 194.82018,48.570419 L 195.19455,59.919384 L 195.56894,66.414177 L 195.94333,57.35799 L 196.3177,49.154797 L 196.69209,53.733246 L 197.06648,61.062447 L 197.44084,61.332287 L 197.81523,57.568115 L 198.18964,54.095593 L 198.564,52.795387 L 198.93839,56.480068 L 199.31277,62.330959 L 199.68716,61.488453 L 200.06154,53.540005 L 200.43593,49.768784 L 200.81032,56.413918 L 201.18469,64.465836 L 201.55908,61.968475 L 201.93347,51.99688 L 202.30785,49.40234 L 202.68224,57.865162 L 203.05663,64.054642 L 203.431,60.155373 L 203.80539,53.735584 L 204.17978,51.693001 L 204.55417,54.609295 L 204.92854,61.693916 L 205.30293,64.596001 L 205.67732,55.289616 L 206.0517,46.933426 L 206.42609,54.877373 L 206.80048,65.544487 L 207.17484,61.861912 L 207.54922,53.603226 L 207.92361,51.927479 L 208.29799,53.538433 L 208.67238,59.549049 L 209.04677,66.310738 L 209.42116,58.527142 L 209.79553,45.262733 L 210.16992,51.902447 L 210.54431,66.647552 L 210.91869,63.194 L 211.29308,53.250275 L 211.66747,53.073925 L 212.04184,53.290417 L 212.41623,56.017056 L 212.79062,66.850288 L 213.16499,63.397659 L 213.53938,44.67284 L 213.91377,47.333981 L 214.28815,67.269234 L 214.66254,65.837677 L 215.03693,52.402225 L 215.41132,53.339752 L 215.78568,54.599224 L 216.16006,52.875481 L 216.53445,65.049683 L 216.90883,68.372986 L 217.28322,46.623417 L 217.65761,42.182625 L 218.03198,65.859612 L 218.40637,69.504478 L 218.78076,52.477337 L 219.15514,52.232849 L 219.52953,56.372795 L 219.90392,51.270695 L 220.27831,61.537361 L 220.65268,71.943108 L 221.02707,51.01519 L 221.40146,37.940857 L 221.77583,62.000252 L 222.15022,73.087975 L 222.52461,54.322483 L 222.89899,50.217178 L 223.27338,57.498875 L 223.64777,51.460754 L 224.02213,57.468529 L 224.39651,73.236801 L 224.77092,56.900181 L 225.14531,35.837624 L 225.51967,56.204243 L 225.89406,75.324593 L 226.26845,58.004765 L 226.64282,48.289768 L 227.01721,57.318691 L 227.3916,52.920925 L 227.76598,53.950005 L 228.14037,72.235283 L 228.51476,62.998478 L 228.88913,36.372742 L 229.26352,49.587322 L 229.63791,75.396385 L 230.0123,62.875404 L 230.38667,47.374344 L 230.76106,55.839428 L 231.13545,54.831188 L 231.50983,51.604782 L 231.88422,69.489838 L 232.25861,68.254059 L 232.63298,39.358532 L 233.00737,43.316513 L 233.38176,73.112526 L 233.75612,68.00135 L 234.13051,47.978085 L 234.5049,53.500874 L 234.87929,56.493748 L 235.25366,50.581776 L 235.62805,65.722694 L 236.00244,72.01973 L 236.37682,44.222721 L 236.75121,38.300545 L 237.1256,68.751457 L 237.49997,72.510513 L 237.87436,50.191742 L 238.24875,50.877686 L 238.62312,57.468567 L 238.99751,50.748207 L 239.3719,61.604092 L 239.74628,73.992554 L 240.12067,50.257668 L 240.49506,35.138737 L 240.86945,62.844032 L 241.24382,75.721825 L 241.61821,53.830982 L 241.9926,48.517632 L 242.36696,57.526451 L 242.74135,51.839867 L 243.11574,57.711761 L 243.49011,74.104218 L 243.8645,56.720627 L 244.23889,34.178921 L 244.61327,56.051422 L 244.98766,77.133888 L 245.36205,58.544674 L 245.73643,46.921249 L 246.11081,56.57777 L 246.4852,53.495708 L 246.85959,54.559624 L 247.23396,72.48555 L 247.60835,62.837067 L 247.98274,35.547894 L 248.35712,49.149452 L 248.73151,76.397911 L 249.1059,63.824039 L 249.48027,46.572102 L 249.85466,54.678993 L 250.22905,55.217709 L 250.60344,52.580406 L 250.9778,69.519058 L 251.3522,67.811996 L 251.72659,39.09148 L 252.10095,43.044762 L 252.47534,73.3722 L 252.84973,68.943237 L 253.22411,47.905975 L 253.5985,52.136333 L 253.97289,56.358986 L 254.34726,51.995846 L 254.72165,65.906548 L 255.09604,70.951202 L 255.47043,44.250168 L 255.8448,38.704304 L 256.21918,68.287895 L 256.59357,72.942619 L 256.96796,51.135876 L 257.34235,49.627373 L 257.71674,56.264347 L 258.09109,52.600395 L 258.46548,62.609051 L 258.83987,71.932503 L 259.21426,50.003044 L 259.58865,36.891834 L 259.96304,61.933449 L 260.33743,74.813393 L 260.71179,55.958565 L 261.08618,48.156628 L 261.46057,54.620468 L 261.83496,53.630539 L 262.20935,60.51823 L 262.58374,71.107101 L 262.9581,55.086384 L 263.33249,37.74588 L 263.70688,55.618885 L 264.08124,73.9552 L 264.45563,61.37199 L 264.83005,48.660774 L 265.20444,51.850037 L 265.5788,53.995823 L 265.95319,59.911137 L 266.32758,69.514404 L 266.70193,58.568054 L 267.07632,40.504925 L 267.45071,50.701977 L 267.8251,70.661255 L 268.19949,65.959518 L 268.57388,51.368828 L 268.94824,49.10939 L 269.32263,52.969921 L 269.69702,60.10025 L 270.07141,68.336845 L 270.4458,60.460464 L 270.82019,43.783722 L 271.19458,47.878868 L 271.56894,66.084496 L 271.94333,68.656563 L 272.31772,55.532867 L 272.69211,47.55154 L 273.0665,50.87574 L 273.44089,59.832546 L 273.81525,68.003006 L 274.18964,61.787804 L 274.56403,46.346989 L 274.93839,46.888859 L 275.31277,61.549717 L 275.68716,69.2369 L 276.06155,60.105438 L 276.43594,47.388805 L 276.81033,48.845531 L 277.18472,58.447826 L 277.55908,67.697273 L 277.93347,63.868519 L 278.30786,47.808315 L 278.68225,46.825935 L 279.05664,58.026382 L 279.43103,67.867523 L 279.80539,64.636833 L 280.17978,48.076824 L 280.55417,47.484631 L 280.92856,56.712002 L 281.30295,66.010796 L 281.67734,67.189163 L 282.05173,48.891987 L 282.42609,46.508766 L 282.80048,56.200172 L 283.17487,64.673843 L 283.54922,68.913101 L 283.92361,49.638996 L 284.298,46.056286 L 284.67239,56.035587 L 285.04678,62.449989 L 285.42117,70.713753 L 285.79556,51.107059 L 286.16992,44.912868 L 286.54431,56.247341 L 286.9187,60.342419 L 287.29309,71.920021 L 287.66748,53.041622 L 288.04187,43.583282 L 288.41623,56.729603 L 288.79062,58.236519 L 289.16501,72.463051 L 289.5394,55.669895 L 289.91379,42.003662 L 290.28818,57.209606 L 290.66257,56.535248 L 291.03693,72.181808 L 291.41132,58.823402 L 291.78571,40.44627 L 292.16006,57.471252 L 292.53445,55.380768 L 292.90884,71.066078 L 293.28323,62.346054 L 293.65762,39.149845 L 294.03201,57.289474 L 294.40637,54.888653 L 294.78076,69.215088 L 295.15515,65.9701 L 295.52954,38.366203 L 295.90393,56.531097 L 296.27832,55.047348 L 296.65271,66.815262 L 297.02707,69.417763 L 297.40146,38.290657 L 297.77585,55.152271 L 298.15024,55.75576 L 298.52463,64.105011 L 298.89902,72.429192 L 299.27338,39.039513 L 299.64777,53.204201 L 300.02216,56.845509 L 300.39651,61.332661 L 300.7709,74.798988 L 301.14529,40.640831 L 301.51968,50.813175 L 301.89407,58.116055 L 302.26846,58.723759 L 302.64285,76.392136 L 303.01721,43.041828 L 303.3916,48.154789 L 303.76599,59.365566 L 304.14038,56.4594 L 304.51477,77.146667 L 304.88916,46.12595 L 305.26352,45.426952 L 305.63791,60.414131 L 306.0123,54.666595 L 306.38669,77.066124 L 306.76108,49.733433 L 307.13547,42.827194 L 307.50986,61.117672 L 307.88422,53.418137 L 308.25861,76.206848 L 308.633,53.680717 L 309.00735,40.53651 L 309.38174,61.373638 L 309.75613,52.73827 L 310.13052,74.664185 L 310.50491,57.776062 L 310.8793,38.709629 L 311.25369,61.12093 L 311.62805,52.610813 L 312.00244,72.560326 L 312.37683,61.830627 L 312.75122,37.470402 L 313.12561,60.33672 L 313.5,52.987144 L 313.87436,70.034943 L 314.24875,65.665619 L 314.62314,36.910301 L 314.99753,59.03244 L 315.37192,53.792583 L 315.74631,67.238693 L 316.1207,69.116837 L 316.49506,37.088146 L 316.86945,57.250511 L 317.24384,54.930794 L 317.61819,64.328674 L 317.99261,72.038155 L 318.367,38.029484 L 318.74136,55.062481 L 319.11575,56.286621 L 319.49014,61.464596 L 319.8645,74.305542 L 320.23889,39.724766 L 320.61328,52.568504 L 320.98767,57.728409 L 321.36206,58.804024 L 321.73645,75.822571 L 322.11084,42.126102 L 322.4852,49.897285 L 322.85959,59.111378 L 323.23398,56.495583 L 323.60837,76.528053 L 323.98276,45.143288 L 324.35715,47.20496 L 324.73151,60.28363 L 325.1059,54.668957 L 325.48029,76.40535 L 325.85468,48.640533 L 326.22906,44.670979 L 326.60345,61.096325 L 326.97784,53.421745 L 327.3522,75.491943 L 327.72659,52.436333 L 328.10098,42.488926 L 328.47534,61.418636 L 328.84973,52.804222 L 329.22412,73.886765 L 329.59851,56.309086 L 329.9729,40.850666 L 330.34729,61.157028 L 330.72165,52.804745 L 331.09604,71.751556 L 331.47043,60.01125 L 331.84482,39.923721 L 332.21921,60.276192 L 332.5936,53.339989 L 332.96799,69.302704 L 333.34235,63.293079 L 333.71674,39.823898 L 334.09113,58.817181 L 334.46552,54.254982 L 334.8399,66.79036 L 335.21429,65.935364 L 335.58865,40.588215 L 335.96304,56.905273 L 336.33743,55.338203 L 336.71182,64.466339 L 337.08618,67.783577 L 337.46057,42.154953 L 337.83496,54.746487 L 338.20935,56.350811 L 338.58374,62.537495 L 338.95813,68.785301 L 339.33249,44.365234 L 339.70688,52.586407 L 340.08127,57.072891 L 340.45566,61.148041 L 340.83005,68.985001 L 341.20444,46.960022 L 341.57883,50.715321 L 341.95319,57.352032 L 342.32758,60.272663 L 342.70197,68.568146 L 343.07635,49.711483 L 343.45074,49.271191 L 343.82513,57.100483 L 344.19949,59.962498 L 344.57388,67.716309 L 344.94827,52.180298 L 345.32263,48.558537 L 345.69702,56.50317 L 346.07141,59.707226 L 346.4458,66.710518 L 346.82019,54.62434 L 347.19458,48.234951 L 347.56897,55.303635 L 347.94333,60.055649 L 348.31772,65.820633 L 348.69211,55.887802 L 349.0665,48.784958 L 349.44089,54.74382 L 349.81528,59.407528 L 350.18967,64.681824 L 350.56403,58.145679 L 350.93842,49.317326 L 351.31281,52.665062 L 351.68719,60.057079 L 352.06155,64.817925 L 352.43597,57.514931 L 352.81033,50.216309 L 353.18469,53.807152 L 353.55911,58.47353 L 353.93347,62.633305 L 354.30789,60.569393 L 354.68225,51.759792 L 355.05664,50.120461 L 355.43106,59.085339 L 355.80542,65.157097 L 356.17978,57.904304 L 356.5542,51.103188 L 356.92856,54.471092 L 357.30295,57.556232 L 357.67734,59.877926 L 358.05173,62.082516 L 358.42609,55.257385 L 358.80051,48.233765 L 359.17487,56.783878 L 359.54926,66.35968 L 359.92365,58.44825 L 360.29803,50.557564 L 360.67239,55.885601 L 361.04681,57.928326 L 361.42117,56.481277 L 361.79553,62.042698 L 362.16995,59.567329 L 362.54431,47.724129 L 362.9187,53.195667 L 363.29312,67.353867 L 363.66748,60.16983 L 364.04184,49.045166 L 364.41626,56.518177 L 364.79062,59.953899 L 365.16504,53.64743 L 365.5394,59.900314 L 365.91379,63.717495 L 366.28818,49.318893 L 366.66257,49.036037 L 367.03693,66.95063 L 367.41135,63.149734 L 367.78571,47.836411 L 368.1601,55.450535 L 368.53448,62.748302 L 368.90887,52.657806 L 369.28323,56.128742 L 369.65765,66.341927 L 370.03201,53.00087 L 370.40637,45.574764 L 370.78079,64.547028 L 371.15518,66.550644 L 371.52954,48.061188 L 371.90396,52.875111 L 372.27832,64.964371 L 372.65268,53.910995 L 373.0271,52.000298 L 373.40146,66.593399 L 373.77585,57.849213 L 374.15024,43.931572 L 374.52463,60.463634 L 374.89902,69.225327 L 375.27341,50.090378 L 375.64777,49.721092 L 376.02219,65.650124 L 376.39655,56.869232 L 376.77094,48.792072 L 377.14532,64.526253 L 377.51971,62.595867 L 377.89407,44.537598 L 378.26849,55.6315 L 378.64285,70.357933 L 379.01724,53.554508 L 379.39163,47.000576 L 379.76602,64.55442 L 380.14038,60.561127 L 380.5148,47.26395 L 380.88916,60.837296 L 381.26352,66.212029 L 381.63794,47.143143 L 382.0123,51.05611 L 382.38669,69.690514 L 382.76108,57.731003 L 383.13547,45.404308 L 383.50983,61.957359 L 383.88425,64.058441 L 384.25861,47.605808 L 384.63303,56.428848 L 385.00739,68.135162 L 385.38177,51.126854 L 385.75616,47.489738 L 386.13055,67.393707 L 386.50491,61.890484 L 386.87933,45.244663 L 387.25369,58.37912 L 387.62808,66.680031 L 388.00247,49.623802 L 388.37686,52.127773 L 388.75122,68.20694 L 389.12564,55.775772 L 389.5,45.377842 L 389.87436,63.852943 L 390.24878,65.43573 L 390.62314,46.565865 L 390.99753,54.39846 L 391.37192,67.988914 L 391.74631,52.919556 L 392.12067,48.605865 L 392.49509,66.533676 L 392.86945,60.407013 L 393.24384,44.936493 L 393.61823,59.545788 L 393.99261,67.890709 L 394.36697,49.238201 L 394.74139,50.609894 L 395.11575,67.738113 L 395.49017,56.962925 L 395.86453,46.398762 L 396.23892,63.410122 L 396.61331,64.369194 L 396.9877,46.211777 L 397.36206,55.036182 L 397.73648,68.865845 L 398.11084,52.958393 L 398.4852,47.639133 L 398.85962,65.875816 L 399.23398,61.081665 L 399.60837,45.90414 L 399.98276,59.339283 L 400.35715,67.028008 L 400.73151,49.044067 L 401.10593,51.016136 L 401.48029,68.102806 L 401.85468,57.177086 L 402.22906,46.108807 L 402.60345,62.641125 L 402.97781,64.459831 L 403.35223,47.281113 L 403.72659,55.090408 L 404.10098,67.845161 L 404.47537,52.948616 L 404.84976,48.276772 L 405.22415,65.638565 L 405.59854,61.055416 L 405.9729,46.467316 L 406.34732,58.688587 L 406.72168,66.266106 L 407.09604,50.255997 L 407.47046,51.661751 L 407.84482,66.609184 L 408.21921,57.030426 L 408.59363,47.492245 L 408.96799,62.015083 L 409.34235,63.606796 L 409.71677,48.686607 L 410.09113,55.073753 L 410.46552,65.986336 L 410.8399,53.978878 L 411.21429,49.997623 L 411.58865,63.731434 L 411.96307,60.138432 L 412.33743,48.817581 L 412.71182,58.312031 L 413.08621,64.123184 L 413.4606,52.022358 L 413.83496,52.904163 L 414.20938,63.843517 L 414.58374,57.19883 L 414.95816,50.46067 L 415.33252,60.310974 L 415.70688,61.396366 L 416.0813,51.567585 L 416.45569,55.727482 L 416.83005,62.710426 L 417.20447,55.223408 L 417.57883,52.68301 L 417.95319,60.855721 L 418.32761,58.91724 L 418.70197,52.506046 L 419.07635,57.609894 L 419.45074,60.735931 L 419.82513,54.516212 L 420.19949,54.949188 L 420.57391,60.256336 L 420.94827,57.11446 L 421.32266,54.100651 L 421.69705,58.44207 L 422.07144,58.737705 L 422.4458,54.774036 L 422.82022,56.723114 L 423.19458,59.160885 L 423.56894,56.003395 L 423.94336,55.556297 L 424.31775,58.767311 L 424.69211,57.418304 L 425.06653,55.048351 L 425.44089,57.572102 L 425.81531,58.665623 L 426.18967,55.70266 L 426.56403,55.868088 L 426.93845,58.685463 L 427.31281,57.573925 L 427.68719,55.199001 L 428.06158,56.861946 L 428.43597,58.781139 L 428.81033,56.864693 L 429.18475,55.235878 L 429.55911,57.294853 L 429.9335,58.837803 L 430.30789,56.565109 L 430.68228,54.978939 L 431.05664,57.648834 L 431.43106,59.274647 L 431.80542,56.002705 L 432.17981,54.471802 L 432.5542,58.497204 L 432.92859,59.708336 L 433.30295,54.87167 L 433.67737,54.242222 L 434.05173,59.8484 L 434.42609,59.642319 L 434.80051,53.391983 L 435.17487,54.651497 L 435.54929,61.360275 L 435.92365,58.877113 L 436.29803,51.935768 L 436.67242,55.762901 L 437.04681,62.684166 L 437.42117,57.442226 L 437.79559,50.812363 L 438.16995,57.489506 L 438.54434,63.544312 L 438.91873,55.465023 L 439.29312,50.273605 L 439.66748,59.664967 L 440.0419,63.710312 L 440.41626,53.155899 L 440.79065,50.521187 L 441.16504,62.031857 L 441.53943,63.022797 L 441.91379,50.815556 L 442.28821,51.657593 L 442.66257,64.257095 L 443.03693,61.447365 L 443.41135,48.793598 L 443.78571,53.643417 L 444.1601,65.992409 L 444.53448,59.097286 L 444.90887,47.419552 L 445.28323,56.296215 L 445.65765,66.942574 L 446.03201,56.215984 L 446.40643,46.94141 L 446.78079,59.322292 L 447.15518,66.91674 L 447.52957,53.134972 L 447.90396,47.486008 L 448.27832,62.365776 L 448.65274,65.85598 L 449.0271,50.220665 L 449.40149,49.043415 L 449.77588,65.063301 L 450.15027,63.83725 L 450.52463,47.82058 L 450.89905,51.473946 L 451.27341,67.094727 L 451.64777,61.056614 L 452.02219,46.21759 L 452.39655,54.533154 L 452.77094,68.222404 L 453.14532,57.797699 L 453.51971,45.598198 L 453.89407,57.908154 L 454.26849,68.314919 L 454.64285,54.392433 L 455.01724,46.036766 L 455.39163,61.258114 L 455.76602,67.35508 L 456.14041,51.180817 L 456.5148,47.494808 L 456.88916,64.252953 L 457.26358,65.434128 L 457.63794,48.474777 L 458.01233,49.83242 L 458.38672,66.60614 L 458.76111,62.735588 L 459.13547,46.529263 L 459.50989,52.828262 L 459.88425,68.099396 L 460.25861,59.512318 L 460.63303,45.521881 L 461.00739,56.204567 L 461.38177,68.598709 L 461.7562,56.060177 L 462.13055,45.541161 L 462.50491,59.654224 L 462.87933,68.062004 L 463.25369,52.690773 L 463.62808,46.582638 L 464.00247,62.86776 L 464.37686,66.539497 L 464.75122,49.705051 L 465.12564,48.551891 L 465.5,65.55883 L 465.87442,64.16758 L 466.24878,47.368984 L 466.62317,51.273483 L 466.99756,67.487244 L 467.37195,61.157169 L 467.74631,45.89204 L 468.12073,54.505184 L 468.49509,68.478752 L 468.86945,57.777061 L 469.24387,45.409252 L 469.61826,57.956921 L 469.99261,68.440903 L 470.36703,54.332775 L 470.74139,45.967796 L 471.11575,61.314068 L 471.49017,67.373764 L 471.86453,51.141293 L 472.23892,47.519222 L 472.61331,64.264381 L 472.9877,65.374329 L 473.36206,48.502712 L 473.73648,49.918926 L 474.11084,66.527473 L 474.48523,62.632774 L 474.85962,46.6702 L 475.23401,52.934383 L 475.60837,67.884735 L 475.98279,59.419399 L 476.35715,45.820881 L 476.73157,56.263435 L 477.10593,68.206772 L 477.48032,56.061062 L 477.85471,46.031086 L 478.2291,59.562904 L 478.60345,67.474411 L 478.97787,52.907757 L 479.35223,47.260262 L 479.72659,62.486355 L 480.10101,65.788719 L 480.47537,50.29142 L 480.84976,49.348038 L 481.22415,64.727539 L 481.59854,63.365982 L 481.9729,48.481625 L 482.34732,52.02792 L 482.72168,66.063835 L 483.09607,60.514938 L 483.47046,47.644951 L 483.84485,54.959 L 484.21921,66.392036 L 484.59363,57.596691 L 484.96799,47.816158 L 485.34238,57.773418 L 485.71677,65.748215 L 486.09116,54.971539 L 486.46555,48.889053 L 486.83994,60.132992 L 487.21429,64.304726 L 487.58871,52.941494 L 487.96307,50.632378 L 488.33743,61.784607 L 488.71185,62.341301 L 489.08621,51.700169 L 489.4606,52.731094 L 489.83499,62.601974 L 490.20938,60.192917 L 490.58374,51.302036 L 490.95816,54.847027 L 491.33252,62.603256 L 491.70691,58.183887 L 492.0813,51.659195 L 492.45569,56.686008 L 492.83005,61.939693 L 493.20447,56.563946 L 493.57883,52.56649 L 493.95322,58.053837 L 494.32761,60.858536 L 494.702,55.464909 L 495.07635,53.748062 L 495.45078,58.882912 L 495.82513,59.64991 L 496.19955,54.893715 L 496.57391,54.914082 L 496.94827,59.218151 L 497.32269,58.589069 L 497.69705,54.76685 L 498.07144,55.817436 L 498.44583,59.165379 L 498.82022,57.882339 L 499.19458,54.973557 L 499.569,56.304073 L 499.94336,58.824139 L 500.31775,57.621578 L 500.69214,55.438061 L 501.06653,56.352188 L 501.44089,58.239548 L 501.81531,57.753517 L 502.18967,56.145634 L 502.56406,56.09129 L 502.93845,57.40382 L 503.31284,58.076134 L 503.68719,57.111813 L 504.06161,55.786331 L 504.43597,56.313503 L 504.81033,58.277557 L 505.18475,58.30595 L 505.55911,55.773758 L 505.9335,55.053982 L 506.30789,58.024559 L 506.68228,59.572338 L 507.0567,56.352135 L 507.43106,53.85854 L 507.80542,57.085709 L 508.17984,60.603497 L 508.5542,57.655453 L 508.92859,53.093857 L 509.30298,55.449142 L 509.67737,60.999611 L 510.05173,59.557663 L 510.42615,53.157963 L 510.80051,53.383129 L 511.1749,60.404701 L 511.54929,61.656956 L 511.92368,54.323528 L 512.29803,51.401115 L 512.67242,58.666931 L 513.04681,63.362202 L 513.4212,56.592239 L 513.79559,50.128456 L 514.16998,55.952202 L 514.54431,64.063095 L 514.91876,59.627438 L 515.29309,50.109646 L 515.66748,52.755947 L 516.04187,63.328674 L 516.41626,62.801414 L 516.79065,51.621796 L 517.16504,49.799255 L 517.53943,61.064953 L 517.91382,65.347672 L 518.28821,54.560066 L 518.6626,47.841042 L 519.03699,57.576397 L 519.41138,66.568451 L 519.78571,58.434483 L 520.16016,47.468109 L 520.53448,53.510761 L 520.90887,66.030113 L 521.28326,62.478516 L 521.65765,48.929398 L 522.03204,49.706188 L 522.40643,63.687252 L 522.78082,65.834053 L 523.15515,52.061577 L 523.5296,46.988365 L 523.90393,59.903557 L 524.27832,67.757431 L 524.65271,56.321449 L 525.0271,45.975334 L 525.40149,55.3703 L 525.77588,67.791321 L 526.15027,60.909222 L 526.52466,46.938892 L 526.89905,50.950962 L 527.27344,65.862961 L 527.64783,64.944962 L 528.02222,49.750748 L 528.39655,47.495144 L 528.771,62.292744 L 529.14532,67.653114 L 529.51971,53.917309 L 529.8941,45.665874 L 530.26849,57.720203 L 530.64288,68.514656 L 531.01727,58.686821 L 531.39166,45.814911 L 531.76599,52.971104 L 532.14044,67.359489 L 532.51477,63.200077 L 532.88916,47.925415 L 533.26361,48.89724 L 533.63794,64.387749 L 534.01233,66.651978 L 534.38672,51.625854 L 534.76111,46.220985 L 535.1355,60.123142 L 535.50989,68.434258 L 535.88428,56.265778 L 536.25861,45.410851 L 536.63306,55.312542 L 537.00739,68.237198 L 537.38184,61.035667 L 537.75616,46.605869 L 538.13055,50.792339 L 538.50494,66.097023 L 538.87933,65.108574 L 539.25372,49.59734 L 539.62811,47.34457 L 540.0025,62.385063 L 540.37683,67.780647 L 540.75128,53.867687 L 541.12567,45.565029 L 541.5,57.742817 L 541.87445,68.589554 L 542.24878,58.678867 L 542.62317,45.762657 L 542.99756,52.973507 L 543.37195,67.393486 L 543.74634,63.196716 L 544.12073,47.905144 L 544.49512,48.906391 L 544.86945,64.398659 L 545.2439,66.632988 L 545.61823,51.619888 L 545.99261,46.253746 L 546.367,60.129318 L 546.74139,68.383736 L 547.11578,56.252605 L 547.49017,45.482838 L 547.86456,55.341999 L 548.23895,68.141357 L 548.61334,60.977596 L 548.98773,46.725208 L 549.36212,50.894379 L 549.73651,65.959122 L 550.11084,64.944962 L 550.48529,49.742458 L 550.85962,47.587975 L 551.23401,62.25201 L 551.6084,67.441132 L 551.98279,53.96056 L 552.35718,46.011906 L 552.73157,57.726974 L 553.10596,68.032822 L 553.48029,58.573452 L 553.85474,46.419323 L 554.22906,53.249023 L 554.60345,66.662483 L 554.97784,62.701839 L 555.35223,48.666901 L 555.72662,49.664871 L 556.10101,63.668522 L 556.4754,65.577995 L 556.84979,52.238327 L 557.22418,47.620129 L 557.59857,59.717056 L 557.97296,66.715424 L 558.34735,56.355453 L 558.72168,47.414009 L 559.09613,55.652748 L 559.47046,66.019272 L 559.84485,60.157681 L 560.21924,48.932671 L 560.59363,52.299774 L 560.96802,63.802849 L 561.34241,62.907829 L 561.7168,51.685997 L 562.09113,50.26321 L 562.46558,60.698162 L 562.8399,64.169006 L 563.21429,54.945019 L 563.58868,49.787727 L 563.96307,57.47934 L 564.33746,63.898579 L 564.71185,57.945213 L 565.08624,50.719532 L 565.46063,54.848068 L 565.83502,62.425751 L 566.20941,60.094715 L 566.58374,52.588882 L 566.95819,53.250137 L 567.33252,60.315208 L 567.70697,61.115555 L 568.0813,54.78788 L 568.45569,52.790905 L 568.83008,58.166065 L 569.20447,61.062416 L 569.57886,56.771988 L 569.95325,53.28336 L 570.32764,56.434711 L 570.70197,60.216755 L 571.07642,58.189991 L 571.45074,54.392361 L 571.82513,55.367779 L 572.19952,58.932175 L 572.57391,58.884712 L 572.9483,55.768131 L 573.32269,55.055443 L 573.69708,57.549297 L 574.07147,58.813339 L 574.44586,57.068951 L 574.82025,55.49966 L 575.19458,56.429115 L 575.56903,58.028297 L 575.94336,57.901241 L 576.31775,56.559967 L 576.69214,55.991585 L 577.06653,56.80312 L 577.44092,57.855984 L 577.81531,57.790455 L 578.1897,56.563114 L 578.56409,55.767933 L 578.93848,56.786594 L 579.31281,58.412392 L 579.68726,58.009274 L 580.06158,55.7561 L 580.43597,55.182854 L 580.81036,57.685646 L 581.18475,59.470074 L 581.55914,57.235531 L 581.93353,54.205692 L 582.30792,55.586037 L 582.68231,59.644299 L 583.0567,59.669411 L 583.43109,55.060711 L 583.80542,53.230988 L 584.17987,57.693226 L 584.5542,61.465099 L 584.92859,57.970406 L 585.30298,52.456932 L 585.67737,54.175457 L 586.05176,60.870071 L 586.42615,61.567268 L 586.80054,54.566055 L 587.17487,51.129978 L 587.54932,57.362778 L 587.92365,63.437481 L 588.2981,59.081284 L 588.67242,50.932156 L 589.04681,52.464653 L 589.4212,61.701244 L 589.79559,63.591961 L 590.16998,54.554417 L 590.54437,49.131111 L 590.91876,56.572937 L 591.29315,65.079826 L 591.66754,60.514721 L 592.04193,49.907356 L 592.41626,50.654205 L 592.79071,61.963573 L 593.16504,65.455452 L 593.53943,55.060196 L 593.91382,47.535152 L 594.28821,55.428913 L 594.6626,66.149132 L 595.03699,62.060638 L 595.41138,49.518173 L 595.78571,49.001747 L 596.16016,61.647392 L 596.53448,66.916092 L 596.90887,55.980812 L 597.28326,46.514164 L 597.65765,54.106056 L 598.03204,66.574417 L 598.40643,63.523895 L 598.78082,49.73056 L 599.15521,47.669926 L 599.5296,60.870068 L 599.90399,67.882835 L 600.27838,57.155197 L 600.65277,46.069675 L 601.0271,52.762875 L 601.40155,66.438377 L 601.77588,64.789932 L 602.15027,50.402493 L 602.52466,46.701927 L 602.89905,59.796192 L 603.27344,68.392448 L 603.64783,58.435215 L 604.02222,46.095219 L 604.39655,51.498714 L 604.771,65.892303 L 605.14532,65.8274 L 605.51971,51.370369 L 605.8941,46.057831 L 606.26849,58.56929 L 606.64288,68.54454 L 607.01727,59.722889 L 607.39166,46.453907 L 607.76605,50.351952 L 608.14044,65.083023 L 608.51483,66.658669 L 608.88922,52.503654 L 609.26361,45.664875 L 609.63794,57.283611 L 610.01239,68.443909 L 610.38672,60.970909 L 610.76111,47.030453 L 611.1355,49.32235 L 611.50989,64.116158 L 611.88428,67.323479 L 612.25867,53.721325 L 612.63306,45.45752 L 613.00739,55.987873 L 613.38184,68.166267 L 613.75616,62.163094 L 614.13055,47.753067 L 614.50494,48.399441 L 614.87933,63.04974 L 615.25372,67.849449 L 615.62811,54.983486 L 616.0025,45.401169 L 616.37689,54.704773 L 616.75128,67.744926 L 617.12567,63.289131 L 617.5,48.594246 L 617.87445,47.587585 L 618.24878,61.90519 L 618.62323,68.232521 L 618.99756,56.271458 L 619.37195,45.502514 L 619.74634,53.455482 L 620.12073,67.171486 L 620.49512,64.32045 L 620.86951,49.559486 L 621.2439,46.925144 L 621.61823,60.68697 L 621.99268,68.426254 L 622.367,57.563538 L 622.74139,45.809727 L 623.11578,52.28397 L 623.49017,66.406197 L 623.86456,65.190399 L 624.23895,50.668205 L 624.61334,46.495907 L 624.98773,59.40678 L 625.36212,68.341316 L 625.73651,58.810371 L 626.11084,46.401619 L 626.48529,51.276833 L 626.85962,65.398346 L 627.23401,65.783829 L 627.6084,51.92775 L 627.98279,46.426926 L 628.35718,58.109493 L 628.73157,67.86087 L 629.10596,59.915577 L 629.48035,47.361237 L 629.85474,50.570267 L 630.22906,64.118484 L 630.60352,65.946457 L 630.97784,53.303009 L 631.35223,46.862347 L 631.72668,56.893166 L 632.10101,66.880104 L 632.4754,60.733658 L 632.84979,48.730675 L 633.22418,50.329685 L 633.59857,62.598701 L 633.97296,65.52742 L 634.34735,54.692402 L 634.72168,47.904579 L 635.09613,55.907398 L 635.47046,65.370026 L 635.84485,61.101849 L 636.21924,50.456539 L 636.59363,50.690056 L 636.96802,60.963753 L 637.34241,64.457085 L 637.7168,55.930046 L 638.09113,49.533466 L 638.46558,55.315147 L 638.8399,63.444641 L 639.21436,60.908859 L 639.58875,52.350666 L 639.96307,51.668358 L 640.33752,59.433868 L 640.71185,62.838501 L 641.08624,56.822521 L 641.46063,51.526604 L 641.83502,55.21748 L 642.20941,61.411552 L 642.5838,60.202923 L 642.95819,54.089806 L 643.33252,53.039303 L 643.70697,58.251484 L 644.0813,61.05048 L 644.45569,57.306576 L 644.83008,53.439526 L 645.20447,55.439606 L 645.57886,59.640766 L 645.95325,59.371346 L 646.32764,55.522167 L 646.70197,54.33345 L 647.07642,57.280029 L 647.45081,59.443897 L 647.82513,57.734711 L 648.19958,55.212578 L 648.57391,55.633778 L 648.94836,57.881912 L 649.32269,58.485359 L 649.69708,56.999744 L 650.07147,55.898403 L 650.44586,56.438774 L 650.82025,57.406696 L 651.19464,57.597664 L 651.56903,57.2537 L 651.94336,56.88279 L 652.31781,56.495533 L 652.69214,56.395195 L 653.06653,57.129658 L 653.44092,58.103451 L 653.81531,57.764832 L 654.1897,56.062546 L 654.56409,55.275295 L 654.93848,56.954903 L 655.31287,59.119198 L 655.68726,58.534317 L 656.06165,55.531868 L 656.43597,54.187515 L 656.81042,56.770622 L 657.18475,60.065159 L 657.55914,59.362175 L 657.93353,55.169495 L 658.30792,53.100971 L 658.68231,56.354767 L 659.0567,60.869614 L 659.43109,60.375595 L 659.80548,55.080502 L 660.17987,51.987049 L 660.5542,55.636662 L 660.92865,61.505333 L 661.30298,61.578426 L 661.67737,55.285618 L 662.05176,50.892185 L 662.42615,54.64679 L 662.80054,61.925961 L 663.17493,62.887157 L 663.54932,55.781166 L 663.92371,49.91354 L 664.2981,53.45602 L 664.67249,62.074512 L 665.04681,64.190147 L 665.42126,56.5504 L 665.79559,49.149986 L 666.17004,52.147064 L 666.54437,61.912926 L 666.91876,65.383179 L 667.29315,57.556225 L 667.66748,48.67252 L 668.04193,50.805485 L 668.41632,61.437172 L 668.79071,66.383125 L 669.16504,58.740677 L 669.53943,48.516407 L 669.91382,49.512909 L 670.28827,60.675072 L 670.6626,67.132637 L 671.03699,60.033749 L 671.41138,48.684357 L 671.78577,48.339115 L 672.1601,59.676182 L 672.53455,67.600967 L 672.90894,61.364529 L 673.28333,49.153767 L 673.65765,47.336266 L 674.03204,58.500698 L 674.40649,67.781517 L 674.78088,62.669853 L 675.15521,49.885288 L 675.5296,46.537125 L 675.90399,57.210194 L 676.27832,67.686615 L 676.65277,63.899101 L 677.02716,50.831207 L 677.40155,45.956772 L 677.77588,55.861065 L 678.15027,67.341171 L 678.52466,65.015602 L 678.89911,51.942368 L 679.27344,45.596348 L 679.64783,54.500881 L 680.02222,66.77655 L 680.39661,65.995522 L 680.77094,53.172977 L 681.14539,45.447552 L 681.51978,53.167267 L 681.89417,66.025642 L 682.26849,66.825348 L 682.64288,54.483257 L 683.01727,45.496918 L 683.39172,51.888615 L 683.76605,65.119484 L 684.14044,67.49868 L 684.51483,55.840183 L 684.88916,45.729252 L 685.26361,50.685963 L 685.638,64.085487 L 686.01239,68.013191 L 686.38672,57.216854 L 686.76111,46.130085 L 687.1355,49.57542 L 687.50995,62.946949 L 687.88428,68.36795 L 688.25867,58.590923 L 688.63306,46.686958 L 689.00745,48.570683 L 689.38177,61.723713 L 689.75623,68.561508 L 690.13062,59.942509 L 690.505,47.389748 L 690.87933,47.685276 L 691.25372,60.433582 L 691.62811,68.590752 L 692.00256,61.251923 L 692.37689,48.230041 L 692.75128,46.934368 L 693.12567,59.094318 L 693.5,68.450653 L 693.87439,62.497478 L 694.24884,49.19973 L 694.62323,46.335857 L 694.99756,57.725891 L 695.37195,68.134857 L 695.74634,63.653656 L 696.12079,50.288937 L 696.49512,45.910679 L 696.86951,56.352856 L 697.2439,67.637306 L 697.61829,64.689926 L 697.99261,51.483459 L 698.36707,45.681984 L 698.74146,55.006386 L 699.11584,66.954636 L 699.49017,65.570518 L 699.86456,52.762001 L 700.23895,45.673157 L 700.6134,53.725632 L 700.98773,66.089447 L 701.36212,66.255585 L 701.73651,54.09359 L 702.11084,45.904484 L 702.48523,52.557816 L 702.85968,65.054001 L 703.23407,66.704071 L 703.6084,55.435875 L 703.98279,46.388649 L 704.35718,51.556522 L 704.73163,63.873772 L 705.10596,66.878464 L 705.48035,56.734974 L 705.85474,47.125412 L 706.22913,50.777599 L 706.60345,62.590012 L 706.97791,66.751251 L 707.35229,57.927834 L 707.72668,48.096447 L 708.10101,50.272572 L 708.4754,61.260178 L 708.84979,66.312355 L 709.22424,58.947571 L 709.59857,49.261574 L 709.97296,50.079948 L 710.34735,59.95509 L 710.72168,65.576149 L 711.09607,59.73201 L 711.47052,50.558067 L 711.84491,50.215744 L 712.21924,58.752167 L 712.59363,64.585999 L 712.96802,60.234329 L 713.34241,51.904484 L 713.7168,50.665451 L 714.09119,57.724964 L 714.46558,63.414059 L 714.83997,60.433811 L 715.21429,53.20966 L 715.58875,51.380272 L 715.96313,56.930672 L 716.33752,62.154861 L 716.71185,60.343571 L 717.08624,54.385971 L 717.46063,52.280106 L 717.83508,56.398552 L 718.20941,60.912422 L 718.5838,60.012039 L 718.95819,55.364216 L 719.33252,53.264336 L 719.70691,56.123169 L 720.08136,59.783253 L 720.45575,59.51617 L 720.83008,56.105923 L 721.20447,54.22892 L 721.57886,56.065361 L 721.95325,58.839535 L 722.3277,58.946949 L 722.70203,56.608921 L 723.07642,55.085491 L 723.45081,56.161835 L 723.82513,58.117645 L 724.19952,58.390823 L 724.57397,56.903873 L 724.94836,55.776699 L 725.32269,56.340801 L 725.69708,57.615959 L 726.07147,57.912876 L 726.44592,57 H 726.82025 H 727.19464 H 727.56903 H 727.94336 H 728.31775 H 728.6922 H 729.06659 H 729.08093"
         style="fill:none;stroke:#1484e6;stroke-width:0.833333;stroke-linecap:butt;stroke-linejoin:round;stroke-miterlimit:10;stroke-dasharray:none;stroke-opacity:1"
         id="path30126" />
    </g>
  </g>
</svg>
