<?xml version="1.0" encoding="UTF-8" standalone="no"?>
<svg
   xmlns:dc="http://purl.org/dc/elements/1.1/"
   xmlns:cc="http://creativecommons.org/ns#"
   xmlns:rdf="http://www.w3.org/1999/02/22-rdf-syntax-ns#"
   xmlns:svg="http://www.w3.org/2000/svg"
   xmlns="http://www.w3.org/2000/svg"
   xmlns:sodipodi="http://sodipodi.sourceforge.net/DTD/sodipodi-0.dtd"
   xmlns:inkscape="http://www.inkscape.org/namespaces/inkscape"
   width="124.46mm"
   height="7.6570301mm"
   viewBox="0 0 124.46 7.6570301"
   version="1.1"
   id="svg5740"
   inkscape:version="1.0.1 (3bc2e813f5, 2020-09-07)"
   sodipodi:docname="two-windows-1_1.svg">
  <defs
     id="defs5734">
    <clipPath
       clipPathUnits="userSpaceOnUse"
       id="clipPath6526">
      <path
         d="M 49,242.98129 V 400.01871 H 297 V 242.98129 Z"
         id="path6524" />
    </clipPath>
    <clipPath
       clipPathUnits="userSpaceOnUse"
       id="clipPath7028">
      <path
         d="M 310,400 H 330 V 243 H 310 Z"
         id="path7026" />
    </clipPath>
    <clipPath
       clipPathUnits="userSpaceOnUse"
       id="clipPath7266">
      <path
         d="M 389,242.98129 V 400.01871 H 637 V 242.98129 Z"
         id="path7264" />
    </clipPath>
    <clipPath
       clipPathUnits="userSpaceOnUse"
       id="clipPath7664">
      <path
         d="M 650,400 H 670 V 243 H 650 Z"
         id="path7662" />
    </clipPath>
    <clipPath
       clipPathUnits="userSpaceOnUse"
       id="clipPath7958">
      <path
         d="M 637.07007,721.03149 V 456.96854 H 48.929905 V 721.03149 Z"
         id="path7956" />
    </clipPath>
    <clipPath
       clipPathUnits="userSpaceOnUse"
       id="clipPath8464">
      <path
         d="M 650,721 H 670 V 457 H 650 Z"
         id="path8462" />
    </clipPath>
  </defs>
  <sodipodi:namedview
     id="base"
     pagecolor="#ffffff"
     bordercolor="#666666"
     borderopacity="1.0"
     inkscape:pageopacity="0.0"
     inkscape:pageshadow="2"
     inkscape:zoom="2.8"
     inkscape:cx="254.16041"
     inkscape:cy="49.907537"
     inkscape:document-units="mm"
     inkscape:current-layer="g5752"
     inkscape:document-rotation="0"
     showgrid="false"
     inkscape:window-width="2400"
     inkscape:window-height="1271"
     inkscape:window-x="-9"
     inkscape:window-y="-9"
     inkscape:window-maximized="1" />
  <metadata
     id="metadata5737">
    <rdf:RDF>
      <cc:Work
         rdf:about="">
        <dc:format>image/svg+xml</dc:format>
        <dc:type
           rdf:resource="http://purl.org/dc/dcmitype/StillImage" />
        <dc:title />
      </cc:Work>
    </rdf:RDF>
  </metadata>
  <g
     inkscape:label="Layer 1"
     inkscape:groupmode="layer"
     id="layer1"
     transform="translate(2.1352186,-68.757741)">
    <g
       id="g5752"
       transform="matrix(0.04409722,0,0,0.04409722,151.77016,54.539858)">
      <g
         id="g6062"
         transform="matrix(4.8000001,0,0,4.7999999,-3725.3379,152.44119)"
         style="stroke-width:1.1811;stroke-miterlimit:4;stroke-dasharray:none">
        <path
           id="path6064"
           style="fill:none;stroke:#1484e6;stroke-width:1.1811;stroke-linecap:butt;stroke-linejoin:round;stroke-miterlimit:4;stroke-dasharray:none;stroke-opacity:1"
           d="M 49,53.5 C 114.35512,53.5 179.71023,53.5 245.06535,53.5 C 245.06484,48.90149 246.22886,36.276588 246.70208,47.453229 C 247.30838,53.49609 246.89923,62.506686 248.20241,66.744598 C 249.18109,57.185676 248.81145,47.509588 249.967,37.978596 C 251.32909,48.668689 250.6219,59.594373 251.92764,70.29908 C 253.26697,58.957826 252.55749,47.402441 253.88829,36.059959 C 255.20255,47.64116 254.5027,59.424633 255.84895,70.997383 C 257.15517,59.395282 256.46082,47.594199 257.8096,36.003654 C 259.1128,47.605623 258.41786,59.406634 259.77026,70.995132 C 261.07041,59.393433 260.37491,47.592539 261.7309,36.006252 C 263.02445,47.608172 262.33692,59.407413 263.69156,70.992195 C 264.98223,59.390865 264.29377,47.591729 265.65222,36.009541 C 266.94008,47.610123 266.25058,59.409162 267.61288,70.988556 C 268.89793,59.388864 268.20738,47.589938 269.57352,36.013519 C 270.85585,47.612147 270.1641,59.411017 271.53418,70.98423 C 272.81379,59.38681 272.12081,47.588005 273.49484,36.018188 C 274.77173,47.614255 274.07751,59.412995 275.45547,70.979218 C 276.72978,59.384686 276.03412,47.585915 277.41614,36.023552 C 278.6878,47.61641 277.99074,59.415208 279.3768,70.973503 C 280.64586,59.382473 279.94736,47.583614 281.33743,36.029606 C 282.60911,47.618071 281.9002,59.418084 283.2981,70.96711 C 284.5671,59.38077 283.85684,47.58058 285.25876,36.036354 C 286.52343,47.620788 285.81615,59.420243 287.21942,70.960014 C 288.48127,59.377974 287.77311,47.57831 289.18005,36.043789 C 290.43915,47.62325 289.73003,59.42331 291.14072,70.952232 C 292.39704,59.375502 291.68692,47.574946 293.10138,36.051914 C 294.35494,47.625751 293.64384,59.426922 295.06201,70.943764 C 296.31293,59.373023 295.60067,47.570969 297.02267,36.060734 C 298.27091,47.628214 297.5575,59.431343 298.98334,70.934601 C 300.21676,59.367665 299.53156,47.570246 300.94397,36.07024 C 302.17471,47.633655 301.48851,59.432413 302.90463,70.924751 C 304.13264,59.365034 303.44545,47.56464 304.8653,36.080437 C 306.09059,47.63627 305.40241,59.438614 306.82593,70.914207 C 308.0486,59.362476 307.35932,47.557723 308.78659,36.09132 C 310.00665,47.638734 309.31619,59.446424 310.74725,70.902977 C 311.96472,59.360099 311.27309,47.54894 312.70792,36.102894 C 313.92275,47.641014 313.23003,59.456232 314.66855,70.89106 C 315.88092,59.357976 315.18689,47.537864 316.62921,36.115158 C 317.83907,47.642949 317.14376,59.468792 318.58987,70.878456 C 319.7972,59.356236 319.10069,47.523703 320.55051,36.128105 C 321.75542,47.644421 321.05758,59.484889 322.51117,70.865166 C 323.71362,59.355082 323.01452,47.505401 324.47183,36.141743 C 325.67181,47.645233 324.97152,59.505615 326.43246,70.851181 C 327.6301,59.354709 326.92849,47.481781 328.39313,36.156067 C 329.58835,47.645084 328.88553,59.532596 330.35379,70.836517 C 331.5466,59.355428 330.84267,47.451127 332.31445,36.171074 C 333.50487,47.643693 332.79983,59.567388 334.27509,70.821159 C 335.46316,59.357582 334.75711,47.411683 336.23575,36.186771 C 337.42143,47.640696 336.71445,59.611888 338.19641,70.805122 C 339.37969,59.361495 338.67192,47.361756 340.15704,36.203152 C 341.338,47.635766 340.62944,59.66771 342.11771,70.788406 C 343.29628,59.3675 342.58708,47.299825 344.07837,36.220215 C 345.25454,47.628696 344.54484,59.735695 346.03903,70.770996 C 347.2128,59.375665 346.50271,47.225771 347.99966,36.237961 C 349.17111,47.61942 348.46067,59.815707 349.96033,70.752907 C 351.12938,59.385996 350.41868,47.140113 351.92099,36.256393 C 353.0876,47.608099 352.37689,59.90658 353.88162,70.734138 C 355.04596,59.39829 354.33501,47.044358 355.84229,36.275505 C 357.00417,47.59492 356.29336,60.006727 357.80292,70.714684 C 358.9625,59.412298 358.25167,46.940195 359.76358,36.2953 C 360.92079,47.580134 360.21003,60.114513 361.72424,70.69455 C 362.87905,59.42777 362.1685,46.829312 363.68488,36.315773 C 364.83738,47.564007 364.12694,60.228234 365.64554,70.673737 C 366.79567,59.444516 366.08544,46.712996 367.6062,36.336929 C 368.754,47.546701 368.04394,60.346802 369.56686,70.652237 C 370.7123,59.462325 370.0025,46.592488 371.5275,36.358761 C 372.67065,47.528388 371.96107,60.469155 373.48816,70.630066 C 374.62903,59.481101 373.91959,46.468514 375.44882,36.381275 C 376.45833,47.8634 376.11335,59.436755 377.21341,70.908684 C 378.77199,59.816061 377.71716,46.424556 379.37012,36.404461 C 380.37539,47.882812 380.02821,59.452665 381.1347,70.919563 C 382.68561,59.848892 381.63544,46.308942 383.29144,36.428326 C 384.29256,47.902425 383.94292,59.468413 385.05603,70.929764 C 386.59919,59.88394 385.55376,46.191129 387.21274,36.452866 C 388.33226,47.478912 387.63325,60.963934 389.1734,70.534607 C 390.29053,59.530591 389.59196,45.970505 391.13403,36.478081 C 392.24888,47.459743 391.55059,61.095459 393.0947,70.509056 C 394.20721,59.550035 393.50926,45.838282 395.05536,36.503967 C 396.16547,47.440047 395.46801,61.228305 397.01599,70.482834 C 398.12391,59.569999 397.4266,45.704842 398.97665,36.530529 C 400.08227,47.419828 399.38525,61.362322 400.93732,70.45594 C 401.91645,59.006318 401.56011,47.46335 402.7019,36.032894 C 404.08044,47.585335 403.40369,59.379649 404.66257,70.97039 C 406.03736,59.413519 405.36148,47.619122 406.6232,36.026493 C 407.99448,47.587505 407.31909,59.38211 408.58386,70.976448 C 409.95152,59.411512 409.27674,47.616686 410.54453,36.020786 C 411.9086,47.589443 411.23437,59.38449 412.50516,70.981812 C 413.86576,59.40969 413.19191,47.614348 414.46582,36.01577 C 415.82293,47.591158 415.14944,59.386808 416.42648,70.986481 C 417.78016,59.408015 417.1069,47.612067 418.38715,36.011444 C 419.73732,47.592786 419.06443,59.389025 420.34778,70.990463 C 421.69463,59.406464 421.02184,47.609887 422.30844,36.007809 C 423.65196,47.594286 422.9792,59.391179 424.2691,70.993752 C 425.62132,59.406746 424.92817,47.606548 426.22974,36.004868 C 427.57854,47.594038 426.8856,59.394442 428.1904,70.996346 C 429.53566,59.40517 428.8431,47.604608 430.15106,36.002617 C 431.49395,47.575948 430.79552,59.359014 432.11169,70.940041 C 433.44021,59.597247 432.72971,48.041676 434.07236,36.700924 C 435.37214,47.4068 434.67987,58.329808 436.03302,69.0214 C 437.30938,59.332998 436.60744,49.400263 437.99368,39.744251 C 439.25023,48.149146 438.54153,56.844139 439.95432,65.193512 C 441.75345,61.990197 438.69234,54.378809 442.3071,53.5 C 507.20473,53.5 572.10237,53.5 637,53.5" />
      </g>
    </g>
  </g>
</svg>
