<?xml version="1.0" encoding="UTF-8" standalone="no"?>
<svg
   xmlns:dc="http://purl.org/dc/elements/1.1/"
   xmlns:cc="http://creativecommons.org/ns#"
   xmlns:rdf="http://www.w3.org/1999/02/22-rdf-syntax-ns#"
   xmlns:svg="http://www.w3.org/2000/svg"
   xmlns="http://www.w3.org/2000/svg"
   xmlns:sodipodi="http://sodipodi.sourceforge.net/DTD/sodipodi-0.dtd"
   xmlns:inkscape="http://www.inkscape.org/namespaces/inkscape"
   width="124.46mm"
   height="7.6580868mm"
   viewBox="0 0 124.46 7.6580868"
   version="1.1"
   id="svg11504"
   sodipodi:docname="two-windows-2_1.svg"
   inkscape:version="1.0.1 (3bc2e813f5, 2020-09-07)">
  <defs
     id="defs11498" />
  <sodipodi:namedview
     id="base"
     pagecolor="#ffffff"
     bordercolor="#666666"
     borderopacity="1.0"
     inkscape:pageopacity="0.0"
     inkscape:pageshadow="2"
     inkscape:zoom="1.979899"
     inkscape:cx="113.59956"
     inkscape:cy="-7.3797607"
     inkscape:document-units="mm"
     inkscape:current-layer="layer1"
     inkscape:document-rotation="0"
     showgrid="false"
     inkscape:window-width="1920"
     inkscape:window-height="1001"
     inkscape:window-x="-9"
     inkscape:window-y="1341"
     inkscape:window-maximized="1" />
  <metadata
     id="metadata11501">
    <rdf:RDF>
      <cc:Work
         rdf:about="">
        <dc:format>image/svg+xml</dc:format>
        <dc:type
           rdf:resource="http://purl.org/dc/dcmitype/StillImage" />
      </cc:Work>
    </rdf:RDF>
  </metadata>
  <g
     inkscape:label="Layer 1"
     inkscape:groupmode="layer"
     id="layer1"
     transform="translate(-19.551076,-140.93217)">
    <g
       id="g12435"
       transform="matrix(0.21166666,0,0,0.21166665,9.17941,133.43705)"
       style="stroke-width:1.18110243;stroke-miterlimit:10;stroke-dasharray:none">
      <path
         id="path12437"
         style="fill:none;stroke:#1484e6;stroke-width:1.18110243;stroke-linecap:butt;stroke-linejoin:round;stroke-miterlimit:10;stroke-dasharray:none;stroke-opacity:1"
         d="M 49,53.5 C 98.012253,53.5 147.02451,53.5 196.03676,53.5 C 196.41189,48.014192 196.07363,40.769405 197.06601,36.315926 C 198.10139,47.826919 197.56351,59.515083 198.83046,70.959869 C 200.05525,59.70213 199.27475,46.473341 200.74193,36.337635 C 201.77317,47.837745 201.23192,59.525982 202.50638,70.951866 C 203.63031,59.349745 203.12107,47.61806 204.27081,36.020477 C 205.61606,47.560075 204.80641,59.436206 206.1823,70.943138 C 207.30057,59.341368 206.79088,47.61045 207.94673,36.015381 C 209.2852,47.556429 208.47581,59.440483 209.85822,70.933678 C 210.97096,59.332825 210.46057,47.602972 211.62265,36.011013 C 212.95444,47.551881 212.14521,59.447785 213.53413,70.9235 C 214.64149,59.324123 214.13012,47.595619 215.29857,36.007374 C 216.62377,47.546344 215.81464,59.459161 217.21005,70.91259 C 218.31214,59.315248 217.79956,47.588371 218.97449,36.004459 C 220.29317,47.539661 219.48415,59.475975 220.88597,70.900963 C 221.9829,59.30621 221.46888,47.581228 222.65041,36.002277 C 223.96181,47.532227 223.15495,59.499046 224.56189,70.888603 C 225.65379,59.296999 225.13811,47.574168 226.32632,36.00082 C 227.63154,47.522417 226.82457,59.531989 228.23781,70.875526 C 229.3248,59.287631 228.80719,47.56716 230.00226,36.000092 C 231.30125,47.510671 230.49454,59.575376 231.91373,70.861725 C 232.99592,59.278096 232.4762,47.56021 233.67816,36.000092 C 234.97101,47.496812 234.16483,59.62987 235.58965,70.847198 C 236.66719,59.268405 236.14505,47.553249 237.3541,36.00082 C 238.64072,47.480927 237.8355,59.694961 239.26556,70.831955 C 240.33855,59.25856 239.81385,47.546292 241.03,36.002277 C 242.3105,47.463154 241.50643,59.769382 242.94148,70.815987 C 244.01312,59.248823 243.48025,47.53906 244.70593,36.004459 C 245.98026,47.443794 245.17759,59.851361 246.6174,70.799294 C 247.68452,59.23866 247.14896,47.531932 248.38185,36.007374 C 249.65008,47.423098 248.84889,59.939289 250.29332,70.781891 C 251.35603,59.228373 250.8176,47.524628 252.05777,36.011013 C 253.31995,47.401268 252.52028,60.031831 253.96924,70.763763 C 255.02766,59.217975 254.48613,47.517066 255.73369,36.015381 C 256.98993,47.378481 256.19166,60.127973 257.64517,70.744919 C 258.69939,59.207482 258.15456,47.509138 259.40961,36.020477 C 260.65989,47.354862 259.86316,60.226955 261.32108,70.725349 C 262.37123,59.196917 261.82299,47.500719 263.08551,36.026302 C 264.32194,47.345641 263.5388,60.32021 264.99701,70.70507 C 266.04317,59.186324 265.49126,47.491621 266.76144,36.032852 C 267.99194,47.32206 267.21032,60.422636 268.67291,70.684074 C 269.70831,59.173081 269.17042,47.484912 270.43735,36.040131 C 271.66221,47.297858 270.88161,60.526683 272.34885,70.662369 C 273.38005,59.162252 272.83882,47.474029 274.11328,36.048134 C 275.23719,47.650255 274.72798,59.381943 275.87772,70.979523 C 277.22293,59.439906 276.41336,47.563814 277.78918,36.056862 C 278.90754,47.658624 278.39771,59.389556 279.55365,70.984619 C 280.89207,59.443555 280.08273,47.55952 281.46512,36.066319 C 282.57783,47.667173 282.0675,59.397023 283.22955,70.988983 C 284.56139,59.44812 283.75208,47.552173 285.14105,36.0765 C 286.2484,47.675878 285.73699,59.404389 286.90549,70.99263 C 288.23066,59.453649 287.42151,47.540823 288.81696,36.08741 C 289.91898,47.684756 289.4065,59.411623 290.58139,70.995537 C 291.90006,59.460329 291.09108,47.524027 292.49286,36.099041 C 293.58984,47.693786 293.07575,59.418776 294.25732,70.997726 C 295.56868,59.467771 294.76186,47.50096 296.16879,36.111393 C 297.26068,47.702998 296.74504,59.425836 297.93323,70.999184 C 299.23848,59.477586 298.43144,47.467954 299.84473,36.124474 C 300.9317,47.712372 300.41408,59.432834 301.60916,70.999908 C 302.90815,59.489329 302.10144,47.424641 303.52063,36.138275 C 304.60279,47.721906 304.08314,59.439788 305.28506,70.999908 C 306.57791,59.503182 305.77175,47.370152 307.19653,36.152802 C 308.27414,47.731589 307.75191,59.446753 308.961,70.999184 C 310.2476,59.51908 309.44241,47.305012 310.87247,36.168045 C 311.94543,47.741444 311.42078,59.453709 312.6369,70.997726 C 313.91743,59.536853 313.11329,47.230578 314.5484,36.184013 C 315.62001,47.75118 315.08714,59.460933 316.31284,70.995537 C 317.58711,59.556195 316.78454,47.148649 318.2243,36.200703 C 319.29141,47.761343 318.7559,59.468056 319.98874,70.99263 C 321.25699,59.576919 320.4558,47.060689 321.90021,36.218113 C 322.96297,47.771625 322.42446,59.475361 323.66467,70.988983 C 324.92683,59.598732 324.12719,46.968167 325.57614,36.236237 C 326.63454,47.782028 326.09307,59.48293 327.34058,70.984619 C 328.59687,59.621529 327.79854,46.872003 329.25208,36.255085 C 330.30629,47.792524 329.76147,59.490857 331.01651,70.979523 C 332.26679,59.645134 331.47007,46.773059 332.92798,36.274647 C 333.97816,47.803079 333.42988,59.499282 334.69241,70.973701 C 335.92881,59.654364 335.14573,46.679771 336.60391,36.29493 C 337.6501,47.813672 337.09813,59.508391 338.36835,70.967148 C 339.6078,65.498468 337.94774,57.757845 339.98575,53.5 C 342.93736,53.992278 348.63683,51.673332 346.83002,57.033754 C 346.86926,60.921181 347.25897,77.229689 347.66581,65.780309 C 348.09828,56.023147 347.80621,45.772053 348.66092,36.326691 C 349.34664,47.855394 348.99132,59.447432 349.83722,70.955956 C 350.58417,59.328918 350.25526,47.649217 351.01349,36.0233 C 351.93107,47.441971 351.31624,59.657266 352.33682,70.639938 C 353.0192,59.126891 352.65881,47.547182 353.51312,36.056862 C 354.25431,47.682766 353.92519,59.360996 354.68942,70.984619 C 355.59948,59.607288 354.98986,47.161619 356.01276,36.395039 C 356.6919,47.891232 356.32606,59.458168 357.18906,70.92868 C 357.92467,59.305054 357.59485,47.629264 358.36536,36.009102 C 359.26815,47.336602 358.66355,60.042852 359.68866,70.56839 C 360.36485,59.090278 359.99323,47.536416 360.86496,36.08741 C 361.59519,47.707615 361.26444,59.379987 362.04126,70.995537 C 362.93687,59.722478 362.33741,46.741647 363.36459,36.469788 C 364.03786,47.928553 363.66027,59.46934 364.54089,70.894875 C 365.26592,59.279229 364.93374,47.611211 365.71719,36.001457 C 366.60565,47.216187 366.01132,60.480654 367.0405,70.49044 C 367.70667,59.051547 367.32977,47.524733 368.2168,36.124474 C 368.93681,47.734422 368.60293,59.397125 369.3931,70.999908 C 370.18562,59.402275 369.8542,47.743891 370.5694,36.138275 C 371.54964,47.642374 370.90679,59.353264 371.89273,70.854553 C 372.60417,59.251114 372.27696,47.595422 373.069,36.000362 C 373.9493,47.122261 373.35496,60.914693 374.39236,70.406136 C 375.05279,59.012735 374.66379,47.507794 375.56863,36.168045 C 376.27562,47.763507 375.94554,59.412048 376.74493,70.997726 C 377.61746,59.938813 377.02949,45.855671 378.06827,36.638397 C 378.71638,48.008589 378.34459,59.502054 379.24457,70.807732 C 379.94727,59.221385 379.61384,47.580893 380.42087,36.005825 C 381.28584,46.998871 380.70385,61.37615 381.7442,70.315498 C 382.38929,58.972423 382.01212,47.479598 382.9205,36.218113 C 383.61907,47.794203 383.28205,59.425768 384.09677,70.988983 C 384.86679,59.367641 384.53503,47.690783 385.27307,36.066319 C 386.21744,47.569818 385.59303,59.33299 386.59641,70.754425 C 387.29119,59.189747 386.94992,47.567908 387.77271,36.017838 C 388.53614,47.642279 388.20569,59.321208 388.94901,70.947594 C 389.88633,59.455185 389.26265,47.637426 390.27231,36.274647 C 390.96144,47.826884 390.61835,59.438031 391.44861,70.973701 C 392.20569,59.347325 391.87621,47.667301 392.62491,36.040131 C 393.55523,47.51313 392.93303,59.431103 393.94824,70.694664 C 394.63634,59.156183 394.28416,47.55623 395.12454,36.0364 C 395.8755,47.663554 395.54642,59.343718 396.30084,70.970512 C 397.22411,59.527816 396.60456,47.447593 397.62415,36.337635 C 398.30876,47.86125 397.95176,59.449243 398.80045,70.951866 C 399.54547,59.325081 399.2165,47.645754 399.97675,36.020477 C 400.892,47.424802 400.27833,59.716925 401.30008,70.628456 C 401.98133,59.120889 401.61918,47.545415 402.47635,36.061501 C 403.21571,47.686768 402.88635,59.364294 403.65265,70.986893 C 404.56035,59.625609 403.95232,47.095077 404.97598,36.407051 C 405.65415,47.897357 405.28644,59.459943 406.15228,70.9235 C 406.88605,59.300887 406.55607,47.626135 407.32858,36.007374 C 408.22899,47.317185 407.62608,60.113739 408.65192,70.55584 C 409.32706,59.084031 408.95353,47.534539 409.82822,36.093132 C 410.55666,47.711946 410.2255,59.382966 411.00449,70.996719 C 411.89779,59.742704 411.29991,46.668147 412.32785,36.482868 C 412.99601,47.935625 412.62299,59.470945 413.50412,70.888603 C 414.22747,59.274731 413.89475,47.608385 414.68042,36.00082 C 415.56654,47.19531 414.97388,60.555869 416.00375,70.47683 C 416.66893,59.0451 416.29002,47.522387 417.18005,36.131283 C 417.89463,47.7394 417.569,59.399376 418.35635,71 C 419.14651,59.399639 418.81592,47.739185 419.53262,36.131283 C 420.5106,47.637151 419.86751,59.348688 420.85596,70.847198 C 421.56589,59.246293 421.23778,47.592881 422.03226,36.00082 C 422.90985,47.102054 422.31783,60.990964 423.35559,70.391464 C 424.01512,59.006296 423.62401,47.503967 424.53189,36.175941 C 425.23741,47.76849 424.90626,59.414448 425.70819,70.996719 C 426.57817,59.959446 425.99224,45.778628 427.03149,36.653591 C 427.67868,48.015011 427.30501,59.507304 428.20779,70.799294 C 428.90916,59.216245 428.57453,47.578632 429.38409,36.007374 C 430.24661,46.977831 429.66655,61.453856 430.70743,70.299774 C 431.35156,58.966344 430.9726,47.471399 431.88373,36.227085 C 432.58104,47.799499 432.24264,59.427907 433.06,70.986893 C 433.82784,59.364394 433.49655,47.686734 434.2363,36.061501 C 435.17835,47.562013 434.55414,59.339695 435.55963,70.744919 C 436.25108,59.184171 435.91119,47.565933 436.73593,36.020477 C 437.49722,47.64569 437.16718,59.325088 437.91223,70.951866 C 438.84723,59.464848 438.22391,47.619858 439.23557,36.284698 C 439.92613,47.832439 439.57691,59.44 440.41187,70.970512 C 441.16686,59.343748 440.83759,47.663575 441.58813,36.0364 C 442.5162,47.500528 441.89462,59.465616 442.9115,70.684074 C 443.59838,59.150415 443.24469,47.554391 444.08777,36.040131 C 444.83675,47.667291 444.50775,59.347281 445.26407,70.973701 C 446.1839,59.541621 445.56804,47.398543 446.5874,36.348759 C 447.27085,47.867157 446.91219,59.451046 447.7637,70.947594 C 448.50679,59.321184 448.17776,47.642353 448.93997,36.017838 C 449.85252,47.410571 449.24123,59.773863 450.26331,70.616798 C 450.94351,59.11485 450.57956,47.543625 451.43961,36.066319 C 452.17705,47.690831 451.84755,59.367536 452.61591,70.988983 C 453.52112,59.644321 452.91482,47.026815 453.93924,36.419243 C 454.61635,47.903522 454.24672,59.461765 455.11554,70.918137 C 455.84754,59.296664 455.5171,47.62304 456.29184,36.005825 C 457.18982,47.297492 456.58865,60.185616 457.61514,70.543114 C 458.28938,59.077758 457.91382,47.532633 458.79144,36.099041 C 459.5182,47.716333 459.18656,59.385904 459.96774,70.997726 C 460.85858,59.763148 460.26255,46.594033 461.29108,36.496124 C 461.95821,47.942028 461.58332,59.47304 462.46735,70.882156 C 463.18907,59.270185 462.85575,47.605603 463.64365,36.000362 C 464.43862,47.595131 464.10628,59.251347 464.81995,70.854553 C 465.80252,59.352641 465.15988,47.6419 466.14328,36.138275 C 466.85626,47.744116 466.52995,59.401998 467.31958,70.999908 C 468.20237,59.857656 467.60604,46.161318 468.64291,36.579372 C 469.30427,47.9808 468.91731,59.488759 469.81921,70.839668 C 470.52764,59.24142 470.19857,47.590401 470.99548,36.001457 C 471.87063,47.081681 471.28049,61.067541 472.31885,70.376625 C 472.96798,58.9979 472.59797,47.502567 473.49512,36.184013 C 474.19923,47.773524 473.867,59.416795 474.67142,70.995537 C 475.53888,59.98022 474.95497,45.701351 475.99475,36.668961 C 476.64084,48.021353 476.26548,59.513383 477.17105,70.79068 C 477.87102,59.211046 477.53517,47.576407 478.34735,36.009102 C 479.11956,47.62916 478.78734,59.305106 479.52362,70.92868 C 480.47035,59.422785 479.84587,47.671396 480.84695,36.236237 C 481.543,47.804848 481.20322,59.430013 482.02325,70.984619 C 482.78884,59.361082 482.45806,47.682739 483.19955,36.056862 C 484.13924,47.553713 483.51521,59.349349 484.52289,70.735222 C 485.21316,59.178668 484.87163,47.563924 485.69919,36.0233 C 486.45837,47.649156 486.12856,59.328926 486.87549,70.955956 C 487.80814,59.475354 487.18533,47.597239 488.19879,36.29493 C 488.88814,47.838103 488.53749,59.441893 489.37509,70.967148 C 490.26493,65.40676 488.93376,58.058683 490.55139,53.5 C 539.36759,53.5 588.1838,53.5 637,53.5" />
    </g>
  </g>
</svg>
