<?xml version="1.0" encoding="UTF-8" standalone="no"?>
<svg
   xmlns:dc="http://purl.org/dc/elements/1.1/"
   xmlns:cc="http://creativecommons.org/ns#"
   xmlns:rdf="http://www.w3.org/1999/02/22-rdf-syntax-ns#"
   xmlns:svg="http://www.w3.org/2000/svg"
   xmlns="http://www.w3.org/2000/svg"
   xmlns:sodipodi="http://sodipodi.sourceforge.net/DTD/sodipodi-0.dtd"
   xmlns:inkscape="http://www.inkscape.org/namespaces/inkscape"
   width="125.09499mm"
   height="10.380773mm"
   viewBox="0 0 125.09499 10.380772"
   version="1.1"
   id="svg17624"
   sodipodi:docname="two-windows-3_1.svg"
   inkscape:version="1.0.1 (3bc2e813f5, 2020-09-07)">
  <defs
     id="defs17618" />
  <sodipodi:namedview
     id="base"
     pagecolor="#ffffff"
     bordercolor="#666666"
     borderopacity="1.0"
     inkscape:pageopacity="0.0"
     inkscape:pageshadow="2"
     inkscape:zoom="2.8"
     inkscape:cx="273.91764"
     inkscape:cy="60.707858"
     inkscape:document-units="mm"
     inkscape:current-layer="layer1"
     inkscape:document-rotation="0"
     showgrid="false"
     inkscape:window-width="1920"
     inkscape:window-height="1001"
     inkscape:window-x="-9"
     inkscape:window-y="1341"
     inkscape:window-maximized="1" />
  <metadata
     id="metadata17621">
    <rdf:RDF>
      <cc:Work
         rdf:about="">
        <dc:format>image/svg+xml</dc:format>
        <dc:type
           rdf:resource="http://purl.org/dc/dcmitype/StillImage" />
      </cc:Work>
    </rdf:RDF>
  </metadata>
  <g
     inkscape:label="Layer 1"
     inkscape:groupmode="layer"
     id="layer1"
     transform="translate(28.533015,-92.285689)">
    <g
       id="g18507"
       transform="matrix(0.21166666,0,0,0.21166665,-38.904681,86.152477)">
      <path
         id="path18509"
         style="fill:none;stroke:#1484e6;stroke-width:0.833333;stroke-linecap:butt;stroke-linejoin:round;stroke-miterlimit:10;stroke-dasharray:none;stroke-opacity:1"
         d="M 49,53.5 C 64.556725,53.5 80.113449,53.5 95.670174,53.5 C 96.871036,50.384383 97.451043,56.583033 97.933427,54.049853 C 98.37323,54.135494 98.539288,50.858961 98.856368,54.247829 C 99.25382,47.202088 99.428384,60.558993 99.845636,51.862037 C 100.17533,63.401975 100.33966,41.288026 100.80389,55.839676 C 101.05286,39.18101 101.32216,64.409919 101.53172,55.40505 C 101.81702,41.582675 101.98834,70.301545 102.204,55.515217 C 102.36286,39.391485 102.59238,65.232994 102.80559,55.354962 C 102.97667,41.157379 103.08933,54.134996 103.44854,55.749512 C 103.56974,41.444048 103.78701,53.549372 104.09189,55.84889 C 104.16918,45.499818 104.49525,44.589559 104.57953,55.398188 C 104.76949,63.253549 105.03062,37.808978 105.12961,54.929478 C 105.21686,66.487577 105.45515,63.54994 105.61643,53.817639 C 105.81919,57.660742 105.9375,73.256447 106.10918,59.316747 C 106.07758,51.269415 106.42771,46.984012 106.60104,53.221628 C 106.813,49.485422 106.81462,30.864976 107.09936,41.702533 C 107.22044,50.973742 107.26943,49.673758 107.64886,45.811703 C 107.73238,53.127975 107.80153,60.444463 107.95999,67.759613 C 108.19841,55.94789 108.35325,60.058964 108.53872,69.358756 C 108.70373,69.117614 108.76414,56.368677 108.86251,51.522716 C 109.11855,49.953257 109.30817,58.721855 109.37791,47.281846 C 109.41546,33.882342 109.78361,41.898041 109.80015,50.675966 C 110.01016,57.871846 110.2887,41.309349 110.35561,55.137388 C 110.37884,65.734774 110.75189,65.44381 110.7602,55.01738 C 110.90041,42.792928 111.27707,67.519823 111.32878,51.02579 C 111.41661,41.770642 111.60979,36.809945 111.73921,49.191557 C 111.82267,62.76493 112.25473,37.47522 112.28307,53.728717 C 112.33693,58.203757 112.48248,74.613393 112.71835,61.990813 C 112.94739,53.983434 113.14745,77.080573 113.27519,61.086631 C 113.33002,57.717601 113.41284,39.777273 113.66017,47.597747 C 114.05182,52.937827 113.97244,27.862539 114.23534,37.803319 C 114.38472,42.995362 114.33535,59.190685 114.80495,45.802452 C 114.90241,52.68926 115.00495,59.575991 115.11608,66.462593 C 115.35928,56.654929 115.51759,53.250034 115.67503,64.905811 C 115.92957,74.779331 115.87795,46.553393 116.25078,56.235344 C 116.51336,68.513759 116.50994,51.02436 116.82732,46.576813 C 116.96636,59.811985 117.30273,48.480335 117.32986,41.977257 C 117.51747,30.400224 117.71636,59.900723 117.90427,43.594855 C 118.2233,35.037728 118.1901,53.147093 118.33031,56.72888 C 118.58974,59.555872 118.91914,58.846219 118.9279,68.889145 C 119.18398,80.909139 119.94617,61.70088 119.53213,59.954993 C 119.89281,61.374568 119.79797,46.997551 119.97901,42.190167 C 120.15263,38.431597 120.3617,46.883031 120.73436,42.179174 C 120.9549,45.56346 120.66776,62.744419 121.33878,56.071697 C 121.55109,68.552293 121.84212,61.171072 121.9188,52.887269 C 122.37848,51.056968 122.70669,37.908133 122.83277,50.835085 C 122.99253,55.232785 123.53439,69.264785 123.70738,67.753584 C 124.16382,56.796467 124.26901,45.808311 124.76125,34.8661 C 125.8462,47.348758 125.16514,59.924168 126.16136,72.41922 C 126.89914,61.767912 126.66534,51.052729 127.4059,40.404915 C 128.04673,46.436489 128.09048,55.129643 129.58383,59.546307 C 131.15316,54.18795 130.75899,47.508592 131.29507,40.917114 C 131.89975,46.725753 131.43387,55.372122 132.22849,59.499523 C 132.45175,50.002293 133.64944,61.0745 133.78415,49.399895 C 134.31711,52.953092 134.19158,70.592661 134.71756,62.002193 C 134.96384,52.920184 134.91947,43.828852 135.33983,34.752705 C 135.94587,48.856418 136.56038,62.968706 137.05107,77.079674 C 137.67064,61.509932 137.33285,45.91049 137.98447,30.343269 C 138.18127,43.205278 139.104,55.977186 139.69571,68.811417 C 140.21302,60.080795 139.98571,51.319758 140.47354,42.587139 C 140.93854,46.863629 140.62316,58.559027 141.29739,59.270768 C 141.43179,54.437591 141.80528,39.913356 142.18478,52.228909 C 142.65796,59.477699 143.06713,37.786085 143.26766,52.350733 C 143.33561,56.261174 143.66012,72.61944 143.95759,61.396213 C 144.06311,57.888884 144.28346,41.138225 144.71413,52.365366 C 145.02691,65.172562 145.45109,49.649486 145.59018,44.892138 C 146.19335,42.701564 145.97788,62.034531 146.59452,53.975437 C 147.0789,42.900664 147.2988,60.437805 147.41608,63.891203 C 147.8255,73.586006 147.97507,55.740336 148.08347,52.147753 C 148.15136,42.445754 148.58055,42.250555 149.02974,52.064377 C 149.91217,41.93591 149.80437,59.779934 150.08792,63.439856 C 150.70783,65.162548 150.51828,51.387545 150.89655,46.980614 C 151.40509,51.622228 151.59569,60.759223 152.14108,49.98838 C 152.86511,63.19432 152.98716,51.104209 153.6652,49.659069 C 153.90085,60.276508 154.27569,52.979116 155.25244,54.281021 C 156.10501,50.121812 156.76111,54.42798 157.89708,54.32917 C 159.06129,53.925564 159.64391,50.484341 160.38615,55.24712 C 160.94229,46.995388 161.53561,62.176162 161.94182,50.056217 C 162.40444,62.787414 162.72085,50.083489 163.18637,50.780216 C 163.48229,64.819487 163.86139,48.672082 164.27533,49.996201 C 164.45763,62.084478 164.97851,56.450569 165.19164,47.895384 C 165.51285,51.596993 165.78337,65.183753 166.05424,53.365332 C 166.3727,41.198366 166.52651,54.914683 166.91998,59.949451 C 167.11487,55.30598 167.41464,40.409647 167.68168,52.889567 C 167.82668,64.592705 168.29927,56.329388 168.36619,49.558949 C 168.81982,40.807506 168.80561,67.463976 169.25349,57.189182 C 169.28855,47.534846 169.89018,45.040814 169.97018,56.118705 C 170.41097,68.172399 170.31803,45.143354 170.84627,48.337809 C 170.94859,53.521208 171.31714,66.463209 171.52308,54.401707 C 171.61449,42.670496 172.19532,50.585656 172.2053,57.618884 C 172.69122,64.475809 172.46388,49.617138 172.98711,46.773586 C 173.14054,52.259566 173.4893,67.034489 173.73593,53.876681 C 173.94655,40.874293 174.34435,53.264898 174.49053,59.403604 C 174.90447,62.153126 174.87923,40.079114 175.30552,50.066532 C 175.34031,57.817789 175.87371,64.002692 175.97557,52.484689 C 176.24652,40.176976 176.53147,55.082866 176.69885,59.785018 C 177.12859,58.202515 177.2022,39.185093 177.55923,52.088841 C 177.66299,64.10201 178.23889,56.467882 178.27638,48.740074 C 178.73829,42.54075 178.76621,68.82792 179.20979,54.913971 C 179.35758,42.117607 179.84808,50.755396 179.9538,58.431462 C 180.45673,59.64703 180.49329,39.078127 180.87143,52.746965 C 181.10369,64.591126 181.48227,53.153601 181.69887,47.643917 C 182.03258,56.660636 182.4215,61.85009 182.70392,49.783023 C 183.09365,48.347971 183.39164,65.058658 183.70778,51.947745 C 184.1443,47.213422 184.54665,64.074162 184.96577,50.263809 C 185.45677,62.189236 185.93853,46.861041 186.52145,54.852013 C 187.44943,51.784329 186.81996,53.959203 189.32166,53.573338 C 191.03878,55.202727 191.14356,50.844543 191.81075,53.710983 C 192.56337,56.904323 192.84252,45.930863 193.52197,56.931503 C 193.98115,43.059566 194.36503,57.558624 194.92209,56.562881 C 195.13696,45.210568 195.75349,50.056459 195.94221,58.256707 C 196.40709,56.621724 196.73684,40.414364 197.06492,54.812094 C 197.58273,68.46364 197.63017,42.482674 198.18563,49.268235 C 198.26196,57.902393 198.91512,63.579147 199.04296,51.648444 C 199.37965,40.60515 199.69001,56.402095 199.90024,60.243622 C 200.43591,57.050449 200.36424,40.912674 200.8694,51.067251 C 200.92369,60.151416 201.58389,62.229756 201.65029,51.849063 C 201.98947,40.186539 202.27615,55.901856 202.52631,60.284693 C 203.0044,58.693035 202.95297,40.776254 203.47829,50.755749 C 203.52374,60.962828 204.23251,61.162421 204.29798,50.848762 C 204.7111,40.586173 204.85147,56.571951 205.12446,59.854004 C 205.60387,60.363282 205.5905,39.355129 206.09697,51.000711 C 206.13486,60.873215 206.86354,60.892188 206.90076,51.067131 C 207.35859,40.732598 207.41855,57.316935 207.83417,60.620312 C 208.16694,57.264825 208.24028,41.283805 208.69213,50.482794 C 208.75818,61.052092 209.45717,61.054831 209.53462,50.584123 C 210.07023,41.988102 209.95075,57.315919 210.47881,60.106865 C 210.70003,55.799757 211.05047,40.380533 211.37859,52.710149 C 211.64029,65.506123 212.09525,53.666899 212.34443,47.495902 C 212.7293,53.175297 213.08717,64.392026 213.41535,52.261564 C 213.8542,40.575625 214.17107,66.211686 214.63776,54.25828 C 214.97702,40.572875 215.48799,64.392575 215.9965,53.36237 C 216.49603,47.800551 216.8783,59.423127 217.79047,52.409832 C 218.03962,57.221835 219.85939,49.85897 220.4351,54.449097 C 221.58597,54.93614 221.97942,47.765058 222.30191,55.316246 C 223.05962,55.798835 223.1284,54.287244 223.45372,51.919755 C 223.88209,56.53225 224.10471,44.633995 224.3243,57.067482 C 224.64404,41.987005 224.93297,64.607371 225.16715,52.45324 C 225.35794,44.508364 225.71027,65.94135 225.87996,50.763542 C 226.37358,65.236384 226.38231,50.596524 226.68772,49.090835 C 226.88452,63.129298 227.1104,48.751777 227.30559,47.382629 C 227.43125,53.682582 227.60883,65.256783 227.80731,52.748893 C 228.01082,41.746577 228.18806,70.658363 228.39,54.659561 C 228.55264,41.315097 228.62434,53.395943 228.99132,57.99456 C 229.14911,41.238212 229.38202,62.713029 229.64791,58.764685 C 229.69134,54.012108 229.92255,38.73497 230.08028,51.480247 C 230.39231,57.302713 230.4839,31.529644 230.63625,46.952299 C 230.74842,51.902599 230.76826,68.680643 231.16925,55.691647 C 231.33903,61.369002 231.47003,77.302859 231.63471,63.283372 C 231.7136,59.888439 231.71777,42.006039 232.07087,49.945804 C 232.33518,50.146472 232.35551,28.153691 232.60959,40.894202 C 232.68963,44.529858 232.73465,63.147907 233.03606,53.917435 C 233.41021,57.762305 233.3417,76.874667 233.57543,66.272442 C 233.70011,61.281053 233.71769,45.555222 234.0721,58.240315 C 234.26723,59.448196 234.29127,42.495993 234.4753,42.48963 C 234.64799,50.48056 234.82137,59.110775 234.9865,46.384568 C 235.23211,34.348003 235.21061,61.187701 235.57432,53.999089 C 235.77973,42.407701 235.96889,60.461504 235.99184,64.250191 C 236.22414,77.821785 236.33983,47.236664 236.57917,61.436626 C 237.02903,61.938779 236.80303,48.630142 236.98998,44.137347 C 237.04997,27.803356 237.36525,55.260064 237.60069,40.930741 C 237.85949,38.058902 237.83869,53.691877 237.94288,58.284086 C 237.96864,72.085082 238.23642,59.111529 238.5103,63.424555 C 238.6991,75.051877 238.86058,56.503449 238.88666,52.862768 C 238.96544,43.834056 239.06835,38.050474 239.41432,50.567245 C 239.61808,37.30711 239.89184,52.488621 239.88101,57.722649 C 240.01138,71.863548 240.1923,58.621968 240.34474,51.752484 C 240.69712,63.77847 240.77468,51.743476 240.87147,45.512522 C 240.95876,32.39466 241.22251,49.512328 241.25674,54.015271 C 241.68207,52.578993 241.7841,57.675267 241.86784,66.478968 C 242.18884,71.222247 242.10512,55.142569 242.31457,51.573186 C 242.67658,55.351755 242.73797,45.060997 242.95189,38.43098 C 243.16369,38.637236 243.09237,57.675955 243.426,52.933159 C 243.86403,45.020734 243.73819,72.120717 244.03304,61.506942 C 244.1552,48.599706 244.39903,56.79849 244.61586,60.463876 C 244.80512,47.837733 245.04476,58.544037 245.32587,55.085541 C 245.45971,48.762616 245.40222,38.04183 245.99942,44.216132 C 246.42602,39.830791 246.31985,55.920835 246.46894,59.577539 C 246.28986,66.665624 247.48693,77.079201 247.2991,63.989617 C 247.51503,53.213546 247.34379,42.415631 248.12608,31.661261 C 248.48045,45.26793 248.38389,58.886348 249.05949,72.484161 C 249.59877,62.333463 249.30308,52.125929 250.14847,41.99535 C 250.53666,47.488476 250.45184,56.423365 251.64649,56.061884 C 252.50688,65.974346 252.63013,49.127072 252.78993,46.013835 C 253.38156,38.317217 253.45551,54.574763 253.65569,57.536737 C 254.28166,68.561084 253.98791,47.99695 255.28218,51.538609 C 255.6686,62.270598 256.35624,57.924783 256.33662,49.698757 C 256.35351,42.323009 256.93167,35.015211 256.99341,46.740795 C 257.24842,55.839872 257.04032,64.994483 257.61569,74.058868 C 258.02082,61.929395 257.87453,49.784864 258.39352,37.659817 C 258.88176,47.349177 259.39753,57.045781 259.94919,66.735641 C 260.64159,58.608204 260.1499,50.364349 260.8826,42.259106 C 260.96134,53.287657 261.7719,47.744252 262.0991,52.04673 C 262.29894,59.369439 262.34345,66.696025 262.59384,74.017502 C 263.33147,59.489101 262.84619,44.878683 263.52725,30.335072 C 264.05571,41.587769 263.60313,53.454576 264.46063,64.34536 C 265.52314,56.610596 265.38598,48.794089 265.86075,41.014332 C 266.38453,48.773305 266.09395,56.57219 266.63858,64.328377 C 266.99553,57.529713 266.91936,50.716135 267.26086,43.916714 C 267.83954,50.883919 267.43002,57.924604 268.0387,64.88311 C 268.36177,57.82677 268.30802,50.758358 268.66095,43.703323 C 269.08221,47.58958 269.17186,64.28095 269.69527,52.559991 C 270.20473,42.099272 270.32381,68.030355 270.8389,56.421638 C 270.99504,42.27567 271.62243,58.711568 271.97203,54.61333 C 272.07235,45.859659 272.68582,40.351417 272.75204,52.295296 C 272.85572,55.967053 273.01209,73.817646 273.38455,63.952528 C 273.61031,56.771347 273.55105,49.579654 273.95026,42.405273 C 274.52677,45.262749 273.94605,59.692901 275.19479,52.900654 C 275.63542,65.117077 276.1797,54.213914 276.28375,48.096298 C 276.84207,44.190088 276.9292,65.0325 277.52829,52.244865 C 278.09838,52.00674 278.6244,62.38832 278.92841,50.418449 C 279.5065,52.706003 279.65503,56.373926 281.41748,53.103203 C 282.76661,53.686709 283.27906,54.141489 284.21768,52.973343 C 284.90319,52.890205 285.39491,53.657151 285.85232,54.45373 C 286.29133,44.942689 286.9459,64.81391 287.17346,50.232754 C 287.66139,54.761765 288.02653,61.123201 288.26245,49.744789 C 288.7466,49.55469 288.97237,65.587769 289.27474,51.731948 C 289.71107,39.556985 289.72608,65.011239 290.21411,56.515719 C 290.34788,45.491034 290.88434,47.830552 290.99139,57.468001 C 291.49385,63.498387 291.5058,38.001174 291.90549,51.462341 C 292.02979,64.278932 292.58469,56.422679 292.67887,48.377631 C 293.10217,43.324706 293.10503,68.022294 293.55173,55.939411 C 293.63719,44.279167 294.20095,47.801844 294.27684,57.508463 C 294.79198,65.323973 294.57068,44.474669 295.10739,47.928188 C 295.17527,54.421825 295.66144,65.994572 295.81908,53.22292 C 296.05687,40.437758 296.38054,54.508877 296.60897,59.996777 C 296.92261,58.930364 297.05905,39.315714 297.42631,52.142963 C 297.57161,64.606667 298.04138,57.098757 298.14362,49.045049 C 298.65036,42.56566 298.50407,65.258533 298.97239,58.334732 C 299.03575,53.550429 299.4345,41.132067 299.64924,52.953879 C 299.76369,64.457815 300.2493,57.266799 300.31417,49.904394 C 300.79655,40.712661 300.68642,64.579936 301.17453,58.536339 C 301.22079,49.626348 301.81038,43.089925 301.91762,55.695876 C 302.31895,67.883755 303.22318,49.595458 302.77741,47.880948 C 302.9154,52.646187 303.24916,66.356546 303.49046,54.190755 C 303.70791,40.849342 304.10946,53.417917 304.27584,59.687846 C 304.68072,56.700802 304.78666,40.714058 305.13119,52.523959 C 305.35835,64.935256 305.69568,53.471483 305.9971,47.549366 C 306.21667,53.166077 306.58667,64.013089 306.85673,52.199605 C 307.19557,40.981487 307.59394,67.525257 307.95888,52.320706 C 308.30052,43.867307 308.77064,65.314574 309.10846,51.535717 C 309.62879,54.873276 309.94197,54.328992 310.60519,52.820609 C 311.24028,56.427159 311.22701,51.384665 313.1532,53.708008 C 315.48701,53.61657 315.02545,53.549075 315.95343,52.703732 C 316.5825,59.592993 317.24849,44.366331 317.66464,57.110851 C 318.23252,47.394219 318.45901,50.719003 319.06476,57.789417 C 319.23536,50.348352 319.90083,45.817705 320.05289,55.95592 C 320.58557,65.633287 320.70096,39.559175 321.1786,51.407917 C 321.3827,63.84982 321.98432,55.768213 322.14262,47.851908 C 322.69471,47.69821 322.63417,66.608632 323.14671,55.751721 C 323.23333,45.568853 323.89989,46.943946 323.96689,56.364325 C 324.58241,67.26837 324.17281,51.177175 324.97632,47.576241 C 325.07818,52.987663 325.57028,66.181332 325.82455,53.823595 C 326.00563,41.309183 326.58187,52.220444 326.65814,58.559527 C 327.27178,63.621611 326.9934,45.344095 327.56559,47.478532 C 327.74703,52.761183 328.1337,66.821356 328.43412,54.062692 C 328.59749,41.79846 329.19884,51.655533 329.27019,58.344721 C 329.86841,64.434691 329.67155,41.777513 330.25699,48.71651 C 330.33769,54.059041 330.81385,66.210172 331.04343,54.254936 C 331.1863,41.887199 331.79386,50.837633 331.87548,58.06963 C 332.48862,64.595209 332.26802,41.980627 332.87338,48.972833 C 332.94607,55.316719 333.52011,65.551958 333.68402,53.380491 C 333.92657,40.937495 334.38211,52.916252 334.53458,58.767266 C 335.07252,62.727269 334.98297,40.415551 335.55487,50.789024 C 335.61952,61.229372 336.34616,59.549078 336.42731,50.023017 C 336.94333,41.814669 337.01217,66.856202 337.52105,55.575166 C 337.69967,44.856754 338.29478,51.066676 338.51065,58.218796 C 339.03379,50.868189 339.37897,46.531485 339.75519,56.665985 C 340.43635,52.978776 340.47762,48.291087 341.31085,55.939747 C 341.72746,48.530224 342.14831,55.143054 343.64438,54.143673 C 345.38848,50.898011 345.48565,55.264709 346.28397,54.110132 C 347.17243,55.050114 347.53803,46.214538 347.82512,55.448771 C 348.59917,48.693991 348.8953,64.644768 349.08923,51.679768 C 349.39911,41.45983 349.74634,64.39104 350.17819,49.888527 C 350.44641,58.587535 350.81657,63.407461 350.94245,51.745403 C 351.25283,37.997164 351.36449,63.013405 351.7745,55.128676 C 352.13996,41.015872 352.27853,65.639502 352.58619,59.334885 C 352.79598,56.011968 352.76194,38.969257 353.1622,46.622549 C 353.2584,55.063213 353.45057,55.776773 353.94181,51.974405 C 354.07237,56.603615 354.30339,73.576915 354.52805,61.067362 C 354.68095,58.054775 354.58624,42.157267 355.03884,47.390094 C 355.29374,61.577228 355.61322,36.248514 355.84941,47.892817 C 356.00504,51.800336 356.00215,67.176376 356.33314,63.275462 C 356.43412,56.49221 356.77554,46.799915 356.97051,58.835549 C 357.50442,61.656303 357.23355,47.000879 357.64545,43.229408 C 357.81121,53.790856 358.27509,55.708332 358.39843,44.061769 C 358.83995,46.936619 358.7079,57.648838 358.88998,63.513153 C 359.20924,76.180267 359.18994,48.934151 359.82339,61.26318 C 360.20146,51.590586 359.95174,41.892356 360.44565,32.23 C 360.46203,46.088193 361.23827,59.502049 361.69019,73.239914 C 362.07588,61.36688 361.90202,49.481798 362.31247,37.609688 C 362.39344,46.410331 362.9073,47.242851 363.21715,52.206094 C 363.37631,55.299712 363.35213,72.767091 363.71255,65.767586 C 363.89658,58.628451 363.77262,51.473237 364.17926,44.344864 C 364.28536,51.757078 364.57022,56.329696 364.99753,51.28854 C 365.18492,54.956421 365.32952,72.625063 365.57935,60.964886 C 365.77483,54.103933 365.57995,47.203903 366.04605,40.366203 C 365.98397,50.30102 366.84718,49.443864 366.95988,56.896434 C 367.01224,62.569804 367.32272,77.365699 367.48301,63.829694 C 367.63614,60.319391 367.5418,43.738792 368.06842,49.255684 C 368.49976,48.186505 368.78552,38.416066 368.89209,50.623159 C 368.93632,64.215979 369.3632,55.586236 369.73844,55.492011 C 369.96016,68.366521 370.37613,59.197705 370.54043,51.487699 C 371.44356,48.752638 371.17037,32.028876 371.60822,43.506289 C 372.03224,51.846447 371.37474,61.806477 372.5799,69.178383 C 373.20067,57.010144 372.7482,44.187259 373.51331,32.412151 C 374.05223,45.84039 373.90172,59.298426 374.60226,72.715546 C 375.2412,62.083088 374.71116,50.380454 375.69122,40.377972 C 376.2389,47.588659 375.88214,54.958653 376.62463,62.085571 C 376.87981,58.728022 377.15096,44.080458 377.71362,54.171284 C 378.47128,63.506914 381.04973,49.754885 379.42484,49.542572 C 379.99319,53.166674 380.13557,69.33141 380.58789,58.784743 C 380.69426,54.505573 381.05363,37.82987 381.41982,50.122449 C 381.65662,61.713084 382.1003,52.337928 382.38062,46.161488 C 382.90302,53.044084 382.63611,59.968726 383.15848,66.851181 C 383.97325,59.0038 382.84706,50.098468 384.71414,42.861969 C 385.2361,54.568129 385.12037,66.29405 385.48557,78.005844" />
    </g>
    <g
       id="g18511"
       transform="matrix(0.21166666,0,0,0.21166665,-38.904681,86.152477)">
      <path
         id="path18513"
         style="fill:none;stroke:#1484e6;stroke-width:0.833333;stroke-linecap:butt;stroke-linejoin:round;stroke-miterlimit:10;stroke-dasharray:none;stroke-opacity:1"
         d="M 385.61688,78.005844 C 386.08298,61.686664 385.90858,45.322444 386.3974,28.99415" />
    </g>
    <g
       id="g18515"
       transform="matrix(0.21166666,0,0,0.21166665,-38.904681,86.152477)">
      <path
         id="path18517"
         style="fill:none;stroke:#1484e6;stroke-width:0.833333;stroke-linecap:butt;stroke-linejoin:round;stroke-miterlimit:10;stroke-dasharray:none;stroke-opacity:1"
         d="M 386.46405,28.99415 C 386.97424,40.572358 386.64722,52.187616 387.3588,63.753502 C 389.40824,55.89579 387.79831,46.837694 388.91443,38.680592 C 389.33333,46.588866 389.02437,56.49662 389.69229,63.190159 C 389.91941,60.020167 389.98205,42.590052 390.47012,51.101273 C 390.4942,58.365881 391.09204,68.376561 391.2113,55.312201 C 391.21182,49.593973 391.71792,38.402517 391.94344,50.394947 C 391.98963,64.499156 392.83829,45.81996 393.11475,55.627502 C 393.48878,67.113208 393.83344,51.662508 393.94164,47.662716 C 394.44104,41.81684 394.45683,57.398286 394.67044,60.229446 C 395.28698,59.837427 395.00822,48.189213 395.41878,43.578328 C 395.89089,47.715819 395.77889,56.794151 396.04841,62.834355 C 396.60084,66.693498 396.46954,51.912355 396.84839,48.296864 C 397.73477,54.408293 398.24066,43.782006 398.27838,55.685898 C 398.30554,65.394314 398.99165,67.831878 399.00373,56.644414 C 399.04719,52.52799 399.37238,35.905507 399.71865,47.921407 C 399.81308,56.52131 400.12859,58.046844 400.89313,53.373585 C 401.45507,65.927593 401.77735,41.129114 402.29324,52.073933 C 402.5118,62.85458 403.38701,44.671385 403.84891,56.11549 C 404.53257,48.334508 404.88852,55.270521 406.33798,53.822105 C 407.68902,53.514172 408.14189,52.344139 408.98264,54.566963 C 409.60712,48.424072 409.97522,60.504594 410.5383,50.573307 C 410.93036,64.674908 411.31986,46.373817 411.78284,52.416347 C 412.11103,66.609815 412.46596,43.582096 412.8718,51.83532 C 413.17507,66.219253 414.28346,48.838721 413.86066,49.14896 C 413.99685,57.837556 414.52845,61.905069 414.65964,50.957126 C 415.11384,39.812952 415.06576,64.79879 415.55308,57.571279 C 415.64277,48.40725 416.20177,44.256443 416.29428,56.03429 C 416.72867,67.966651 416.7666,41.793949 417.18875,48.927071 C 417.25357,56.425095 417.77715,64.078893 417.91297,52.229595 C 418.29066,40.032338 418.27514,56.030271 418.78336,59.901375 C 418.93509,56.091659 419.17617,40.471405 419.46721,51.285584 C 419.53462,62.651759 420.15194,58.81832 420.17896,49.549227 C 420.64872,39.817346 420.54709,65.152171 421.04537,57.916073 C 421.13591,49.324762 421.63994,42.842854 421.77341,55.220382 C 422.09342,66.378526 422.29953,50.474858 422.51697,46.429066 C 422.89217,50.161237 422.96651,66.725624 423.3246,55.52575 C 423.40999,43.41582 423.98579,48.964304 424.04623,57.896066 C 424.53868,66.248232 424.41748,40.230624 424.9206,49.826339 C 425.00487,59.107376 425.53701,62.984624 425.62833,51.351463 C 426.03704,39.287906 426.10415,61.766405 426.47107,59.426366 C 426.61418,53.40078 427.03815,41.246009 427.24659,54.257454 C 427.48245,66.752354 427.83597,52.308133 427.96185,47.455204 C 428.45372,51.514968 428.53845,66.905419 428.87523,53.399932 C 429.11971,41.210423 429.47221,55.07528 429.67307,59.764553 C 429.99142,52.348771 430.36384,43.018606 430.59645,55.843448 C 431.0213,65.939163 431.15766,40.326061 431.58119,52.278336 C 431.85431,67.506507 432.25414,43.339484 432.67841,52.435482 C 432.92175,65.30878 433.53979,42.693817 433.87338,54.456444 C 434.40051,58.815978 434.52952,45.722472 435.2735,55.485352 C 435.85926,49.7352 435.72065,55.349825 437.76257,53.498989 C 439.8858,55.498616 439.69426,49.847788 440.36988,54.506905 C 441.21185,51.004819 441.42992,52.609436 442.07996,55.654188 C 442.52784,41.976204 442.9293,60.877808 443.42244,55.722302 C 443.79274,43.970352 444.05539,53.152514 444.60751,58.533131 C 444.76914,50.422004 445.43109,44.43072 445.58997,56.07291 C 446.10781,67.090629 446.1499,40.932891 446.67243,49.845623 C 446.77031,60.322817 447.45931,61.299515 447.55672,50.298665 C 448.11371,42.397183 447.94852,57.558539 448.4967,60.237278 C 448.71417,56.660281 449.00307,40.350336 449.34901,51.376416 C 449.47685,63.196586 450.12848,58.937438 450.19917,49.38484 C 450.78078,40.972183 450.57271,62.695338 451.19,58.851706 C 451.30213,53.195161 451.79022,40.790281 452.02591,53.333251 C 452.20012,65.297732 452.75096,56.191306 452.81251,49.565812 C 453.38783,40.353179 453.03383,56.807327 453.78601,59.558437 C 453.89075,54.312282 454.37193,40.715018 454.63398,53.044646 C 454.80757,65.517508 455.3922,55.164761 455.46639,48.566467 C 456.07394,43.08208 455.80788,61.634404 456.38038,59.497905 C 456.55854,54.398151 456.93869,40.296307 457.24411,52.828828 C 457.39939,64.874934 458.01222,55.558966 458.08067,48.823404 C 458.67556,42.62275 458.48064,64.939569 459.07529,58.032661 C 459.15659,48.343166 459.84175,44.173939 459.97094,56.236388 C 460.4805,67.745751 460.47571,41.762845 461.05684,50.095794 C 461.18943,61.266768 461.89956,58.328772 462.03104,49.01226 C 462.54898,49.971461 462.85819,65.302334 463.22859,51.783264 C 463.6906,45.004769 464.16777,65.595718 464.61298,51.189271 C 465.2863,56.158685 465.53513,53.41511 466.35042,52.949931 C 466.63352,57.150152 468.25937,49.716035 469.03159,54.852222 C 470.6853,50.405137 470.86184,55.364489 471.44672,54.29242 C 471.90514,55.879093 472.12446,49.485601 472.60962,54.921787 C 472.90361,41.136156 473.19566,59.743219 473.59883,54.604847 C 473.98246,48.891668 474.36291,66.130465 474.51014,52.007583 C 474.77074,39.102934 475.11451,65.69303 475.40985,51.390835 C 475.79683,48.025625 476.01132,68.94538 476.21263,53.513237 C 476.30628,41.170731 476.74865,49.526121 476.80994,56.964596 C 477.39626,48.156567 477.39635,54.670536 477.72448,63.414631 C 477.99146,57.751089 477.94959,49.273836 478.21008,42.51226 C 478.45823,51.998935 478.70143,54.35689 479.03727,48.152001 C 479.35511,52.696067 479.15627,67.471727 479.61017,64.881401 C 479.69092,60.518574 479.88184,42.754992 480.21564,55.576561 C 480.69187,60.940362 480.49764,38.281578 480.91225,45.175802 C 480.97706,53.829577 481.39854,59.653255 481.55793,47.582546 C 481.89065,44.911494 481.86406,59.605595 482.04373,64.1065 C 482.34859,71.976281 482.41528,46.196571 482.87708,60.388084 C 483.31109,51.07982 482.9888,41.738448 483.49933,32.440327 C 483.57849,46.478139 484.2153,60.076532 484.74387,73.972939 C 484.94816,62.692286 484.97223,51.40921 485.21057,40.129143 C 485.61491,50.962582 486.20093,39.012236 486.17639,51.901899 C 486.2395,56.168493 486.40136,74.480598 486.64983,62.267277 C 486.67859,55.216647 487.02217,43.181552 487.2309,57.116962 C 487.58581,59.952857 487.76317,40.286441 487.98852,55.061863 C 488.19898,67.897606 488.44483,52.02428 488.50358,47.194017 C 488.72304,34.47268 488.94624,52.690487 489.09976,57.200996 C 489.77083,43.825174 490.37744,62.131962 489.99104,63.998058 C 490.25765,59.529255 490.11808,43.485781 490.5279,45.847747 C 490.62307,52.675869 490.87132,62.240944 491.27768,49.945518 C 491.52551,62.129819 491.9151,55.652039 491.94262,47.024559 C 492.07308,33.4683 492.45189,47.335693 492.45999,53.359624 C 492.29944,57.541811 493.27953,69.471635 493.43308,66.107005 C 493.66283,54.905342 493.67324,43.699096 493.92236,32.497257 C 494.73115,46.939903 494.76709,61.472119 495.1669,75.952766 C 495.66432,64.03236 495.30521,52.074825 496.41144,40.183636 C 496.90696,46.107982 496.42441,54.41681 497.5004,57.55965 C 497.78745,69.300303 498.54685,55.063184 498.62532,50.69582 C 498.68811,44.099737 499.24899,32.383034 499.42256,45.561368 C 499.6602,53.463567 499.64948,61.378061 500.14502,69.269508 C 500.94171,59.432252 500.36162,49.388911 501.23401,39.620274 C 501.76757,47.240473 501.4198,57.46702 502.16742,63.467911 C 502.52992,59.338651 502.33131,45.516431 502.99626,47.563721 C 503.18703,51.279638 503.43474,67.487506 503.92532,56.877046 C 503.65512,49.410926 505.37553,43.788093 505.36962,54.582113 C 505.45029,63.990255 506.21133,66.72167 506.24253,55.720372 C 506.27384,45.972096 506.93446,43.917727 507.14557,54.857372 C 507.68803,53.288002 507.69474,36.910547 508.07895,48.441898 C 508.34152,56.922903 508.1458,65.448771 508.70126,73.901878 C 509.10939,61.192817 509.00089,48.471366 509.47906,35.764595 C 510.43587,47.834443 510.14658,60.583009 511.03473,72.347359 C 511.47923,58.764177 511.3486,45.167929 511.81259,31.585575 C 512.3509,42.616005 512.10011,53.674161 512.59039,64.708038 C 512.96431,60.763185 513.07162,44.798194 513.49711,55.902326 C 513.76637,68.133821 514.19884,55.396431 514.22853,50.144287 C 514.34585,37.138369 514.97601,46.462194 515.03769,54.110987 C 515.14705,59.181671 516.11651,54.461425 516.39162,58.654337 C 516.66994,54.98982 516.77458,36.938122 517.20646,46.971631 C 517.41756,51.008302 517.37589,66.23317 517.84051,62.551244 C 518.17223,55.832866 517.89158,47.608682 518.50195,41.790108 C 518.79673,49.839137 518.7453,57.898337 519.12427,65.944145 C 519.65595,59.775914 519.34219,53.553068 519.9021,47.386501 C 520.65473,52.453792 521.3331,47.620629 521.27722,58.326217 C 521.44285,70.542271 521.97832,60.329629 521.97675,54.043658 C 521.96778,43.926005 522.64772,42.045315 522.74345,53.120774 C 523.04809,66.750686 523.45078,41.225802 523.82988,52.15813 C 523.9104,61.619051 524.59846,64.281437 524.67169,53.015055 C 524.97323,38.974822 525.14938,55.771632 525.9416,54.038145 C 526.91396,56.944575 526.97483,56.68868 527.5249,48.590324 C 527.95346,54.972467 528.07463,57.830905 529.08057,52.326485 C 529.60132,56.972382 531.13509,50.010882 532.03632,54.794655 C 533.06362,52.295607 533.72799,53.031516 534.35308,54.733685 C 534.80237,45.076786 535.44307,64.360355 535.69444,50.780153 C 536.25941,54.892011 536.55983,60.587849 536.85895,48.951015 C 537.3715,58.177185 537.62895,60.40906 537.8936,49.577525 C 538.38545,47.727163 538.49429,67.284638 538.83394,53.699567 C 539.10865,41.793623 539.43683,55.301749 539.65912,59.991531 C 539.92763,53.100793 540.31566,41.870104 540.53267,54.971488 C 540.91983,68.267942 541.87598,49.67386 541.41556,48.0443 C 541.54099,54.266754 541.95421,65.810865 542.14819,53.225899 C 542.3815,40.601603 542.73054,53.618761 542.86653,58.99014 C 543.32105,62.734583 543.25103,39.943785 543.70075,50.000238 C 543.73272,58.729521 544.29323,62.866399 544.38981,51.729938 C 544.79301,39.306788 545.77418,61.091994 545.25958,59.690243 C 545.37283,52.957074 545.82073,40.65423 546.00273,54.056721 C 546.2398,65.977054 546.59314,52.608105 546.72892,47.769263 C 547.17026,43.956602 546.998,64.506149 547.51611,57.724171 C 547.60748,48.250762 548.12546,43.429683 548.25119,55.737639 C 548.65294,67.568785 549.47303,49.464558 549.08675,47.538514 C 549.23809,54.492936 549.67074,65.693924 549.86084,52.669522 C 550.05969,40.413604 550.46978,54.103825 550.54883,59.14769 C 551.0987,62.034262 550.83033,42.613298 551.36092,49.041065 C 551.4433,58.398403 552.00218,63.404978 552.1034,50.987479 C 552.51064,39.971566 552.54978,61.440782 552.94218,59.038198 C 553.08596,50.696804 553.59047,43.124827 553.76397,56.023305 C 554.19293,67.49833 554.17259,42.39028 554.68267,50.416201 C 554.83055,61.724507 555.35286,57.611882 555.51658,48.861521 C 556.01705,55.021957 556.25491,62.142248 556.56866,50.488798 C 557.05106,51.061038 557.3653,63.080123 557.7049,50.358986 C 558.29716,58.751097 558.40676,53.134767 559.10504,52.306126 C 559.57139,56.940874 559.95053,52.084226 561.28296,52.851933 C 562.58499,53.435016 564.10414,55.563098 564.23871,51.804951 C 565.01297,60.372702 565.69484,44.787286 566.10553,56.745918 C 566.79239,43.334469 567.05311,58.430311 567.66125,55.761749 C 568.02247,42.005799 569.36895,58.454831 568.88198,57.74591 C 569.04003,49.047282 569.70757,45.5763 569.83917,56.550392 C 570.39601,65.63302 570.47673,38.916285 570.96702,51.394432 C 571.08415,62.406015 571.76994,58.533584 571.82855,49.468716 C 572.41669,41.050494 572.23699,64.804735 572.83884,58.148273 C 572.90257,50.974471 573.52341,42.404489 573.67925,54.38223 C 573.94337,66.479879 574.40104,52.309629 574.50623,47.636612 C 575.15996,45.355099 574.79297,62.955164 575.43958,58.864685 C 575.51735,51.889025 576.08336,41.121411 576.28812,54.119451 C 576.55013,66.365644 577.01671,52.480629 577.13555,47.473879 C 577.76329,46.129362 577.47963,64.589022 578.08423,58.148647 C 578.14843,51.332059 578.7185,41.373053 578.89842,53.926058 C 579.1281,66.462105 579.61125,53.282932 579.74785,47.740863 C 580.36314,45.764131 580.12289,65.719786 580.72888,57.322361 C 580.76424,50.55805 581.37925,42.004569 581.50671,53.745907 C 581.73096,66.112488 582.21538,54.061132 582.35132,48.144688 C 582.89191,43.957532 582.80417,66.999737 583.37322,56.332348 C 583.38561,48.576119 584.07068,44.329286 584.15137,54.665417 C 584.58968,68.145836 585.72013,49.852221 585.20558,48.309578 C 585.35322,55.53185 585.9319,64.044693 586.14796,51.585775 C 586.63577,40.585574 586.79155,65.962664 587.31361,55.129955 C 587.63125,41.360729 588.02752,60.033724 588.57759,55.490468 C 588.85218,42.78459 589.41329,60.873372 589.99751,53.546809 C 590.50985,52.085129 591.13515,53.894101 592.24084,54.58168 C 592.2768,51.860011 594.94229,54.230829 597.37457,53.5 C 611.58305,53.5 625.79152,53.5 640,53.5" />
    </g>
  </g>
</svg>
