<?xml version="1.0" encoding="UTF-8" standalone="no"?>
<svg
   xmlns:dc="http://purl.org/dc/elements/1.1/"
   xmlns:cc="http://creativecommons.org/ns#"
   xmlns:rdf="http://www.w3.org/1999/02/22-rdf-syntax-ns#"
   xmlns:svg="http://www.w3.org/2000/svg"
   xmlns="http://www.w3.org/2000/svg"
   xmlns:sodipodi="http://sodipodi.sourceforge.net/DTD/sodipodi-0.dtd"
   xmlns:inkscape="http://www.inkscape.org/namespaces/inkscape"
   width="85.731903mm"
   height="29.742414mm"
   viewBox="0 0 85.731903 29.742415"
   version="1.1"
   id="svg3958"
   inkscape:version="1.0.1 (3bc2e813f5, 2020-09-07)"
   sodipodi:docname="uncertainty-2.svg">
  <defs
     id="defs3952" />
  <sodipodi:namedview
     id="base"
     pagecolor="#ffffff"
     bordercolor="#666666"
     borderopacity="1.0"
     inkscape:pageopacity="0.0"
     inkscape:pageshadow="2"
     inkscape:zoom="1.4"
     inkscape:cx="154.62885"
     inkscape:cy="109.51295"
     inkscape:document-units="mm"
     inkscape:current-layer="layer1"
     inkscape:document-rotation="0"
     showgrid="false"
     inkscape:window-width="1920"
     inkscape:window-height="1001"
     inkscape:window-x="-9"
     inkscape:window-y="1341"
     inkscape:window-maximized="1" />
  <metadata
     id="metadata3955">
    <rdf:RDF>
      <cc:Work
         rdf:about="">
        <dc:format>image/svg+xml</dc:format>
        <dc:type
           rdf:resource="http://purl.org/dc/dcmitype/StillImage" />
        <dc:title></dc:title>
      </cc:Work>
    </rdf:RDF>
  </metadata>
  <g
     inkscape:label="Layer 1"
     inkscape:groupmode="layer"
     id="layer1"
     transform="translate(-49.77256,-159.7419)">
    <g
       id="g4777"
       transform="matrix(0.21166667,0,0,0.21166665,-47.275044,151.79109)"
       style="stroke-width:1.65354336;stroke-miterlimit:4;stroke-dasharray:none">
      <path
         id="path4779"
         style="fill:none;stroke:#1484e6;stroke-width:1.65354;stroke-linecap:butt;stroke-linejoin:round;stroke-miterlimit:4;stroke-dasharray:none;stroke-opacity:1"
         d="M 473.5,107.9984 C 488.57492,107.95515 503.6685,108.08797 518.72498,107.94032 C 522.46744,107.74471 526.19387,108.63299 529.90002,107.67259 C 532.71825,108.1158 535.61105,109.08182 538.29999,107.47332 C 541.14947,106.69657 543.93595,110.73412 546.47498,107.76691 C 548.83775,105.1358 550.98939,108.45048 552.92499,109.65642 C 555.69558,110.21214 556.59245,103.60943 559.29999,106.55583 C 560.44513,107.86619 561.94274,113.008 563.95001,109.96593 C 565.36502,108.35929 565.32607,104.22742 567.77502,104.17059 C 570.15176,106.52549 569.40146,111.49684 572.27502,113.06691 C 575.00865,109.93345 573.86728,104.08813 576.92499,101.5359 C 579.73209,105.81206 578.49923,112.19997 581.5,116.1697 C 584.48042,110.65889 583.18097,103.37377 586.07501,97.860718 C 589.16187,104.64154 587.98878,113.04546 590.5,120.18777 C 592.37515,119.56435 591.81708,115.05693 592.45001,113.05574 C 593.6406,106.49219 593.10365,99.100993 595.52502,93.034622 C 598.55037,103.57799 597.22376,115.16522 600.02502,125.79798 C 602.25324,120.20781 601.64751,112.99924 602.5,106.77974 C 603.27328,100.22388 602.94966,93.267385 604.82501,86.995209 C 607.39439,98.942015 606.87569,111.61036 608.20001,123.83843 C 608.68862,126.1423 608.22585,131.45598 609.77502,131.99225 C 612.35642,114.84538 611.38766,97.276456 614.04999,80.155777 C 615.78757,84.739127 615.26793,91.1633 615.86339,96.45533 C 616.98249,110.81495 616.56905,125.46575 618.84998,139.63593 C 621.12915,125.92004 620.65211,111.59223 621.62154,97.628716 C 622.2668,89.349368 621.87159,80.71223 623.57501,72.669365 C 625.90464,90.126783 625.47869,107.975 626.56974,125.59082 C 627.13195,132.63677 626.70948,140.22073 628.29999,146.9136 C 630.63797,126.11499 630.26504,105.02707 631.45001,84.11219 C 631.9791,78.126318 631.50034,71.070683 633.02502,65.730217 C 635.43154,90.860497 635.0501,116.22222 636.47504,141.43797 C 636.86981,145.35373 636.51546,149.9755 637.67499,153.4662 C 639.97969,129.42757 639.62467,105.15215 640.81039,81.018747 C 641.25087,73.93428 641.0123,66.70422 642.25,59.728119 C 644.37806,77.617213 643.91245,95.872168 644.77222,113.91188 C 645.50586,128.7627 645.0864,143.80712 646.97498,158.52248 C 649.13676,137.47094 648.72596,116.11419 649.66343,94.938151 C 650.34454,81.974126 649.86877,68.474043 651.70001,55.849937 C 653.90686,80.345822 653.55056,105.06855 654.59851,129.65682 C 655.1692,140.14067 654.77626,150.92647 656.34998,161.21249 C 658.47121,139.2979 658.09069,117.11833 659.01977,95.095384 C 659.65806,81.558405 659.3005,67.832922 661,54.42857 C 663.10731,74.870038 662.68568,95.591254 663.57219,116.14787 C 664.29224,131.12085 663.82199,146.47487 665.72498,161.20142 C 667.91524,137.37523 667.55238,113.3044 668.57197,89.37796 C 669.15514,78.211826 668.78215,66.818903 670.375,55.805653 C 672.50505,76.522735 672.10025,97.554399 673.02361,118.3994 C 673.65748,131.76006 673.34142,145.27913 675.02502,158.52248 C 677.09211,140.87439 676.65192,122.8416 677.49576,105.03731 C 678.23631,89.963069 677.81523,74.60758 679.75,59.728119 C 681.93953,80.387271 681.5526,101.3193 682.55167,122.09057 C 683.2062,132.47684 682.69199,143.46092 684.47498,153.48662 C 686.81002,129.83303 686.44825,105.92306 687.73412,82.170126 C 688.21752,76.820768 687.76893,70.45171 689.20001,65.727982 C 691.96082,92.546765 690.87825,119.69401 693.54999,146.53371 C 694.91994,145.42384 694.45222,139.41239 694.88668,136.58719 C 696.27665,115.38161 695.98884,94.033286 698.27502,72.909828 C 699.65759,75.004214 699.18625,80.075556 699.64525,83.26145 C 700.99534,101.9884 700.65054,120.89605 703,139.51402 C 704.69785,134.833 704.1522,128.23712 704.76806,122.86083 C 705.88582,108.62378 705.41336,94.063549 707.79999,80.03952 C 710.29365,93.963532 709.78491,108.52194 711.13827,122.68685 C 711.66872,125.58898 711.10577,130.30362 712.67499,132.21492 C 715.29617,117.34211 714.24423,101.93887 717.02502,87.103371 C 719.02094,91.429319 718.44962,97.782303 719.20001,102.87799 C 720.0902,110.49626 719.72878,118.51037 721.82501,125.84939 C 724.79407,115.47111 723.59749,103.9078 726.25,93.303711 C 727.94579,93.567742 727.46568,98.10803 728.04999,99.833542 C 729.27566,106.58122 728.69487,114.17696 731.27502,120.39655 C 734.19539,113.37337 732.73813,104.6938 735.92499,97.860718 C 738.86077,103.36108 737.46242,110.79209 740.57501,116.18227 C 743.54932,112.0652 742.12448,105.4532 745.29999,101.48488 C 748.12933,104.56112 746.90164,110.34846 750.02502,113.11623 C 752.67499,110.89852 751.72883,105.78332 754.75,104.03761 C 757.26163,105.42671 756.63,110.8125 759.77496,110.89909 C 761.64012,109.72762 762.42168,103.9947 765.25,106.43994 C 766.40088,108.56514 769.06681,111.29403 770.95001,108.20537 C 772.6826,105.44495 775.30288,107.50642 777.17499,108.76459 C 780.00996,109.20584 782.62874,105.90978 785.5,108.10165 C 788.71943,109.19707 791.97925,106.69377 795.25,108.10937 C 798.99581,108.21077 802.73923,107.61842 806.5,108.1003 C 820.49232,107.85622 834.51489,108.07574 848.51788,107.9984" />
    </g>
  </g>
</svg>
